<?xml version="1.0" encoding="UTF-8"?> <svg xmlns="http://www.w3.org/2000/svg" viewBox="0 0 501.45 382.66"><defs><style>.cls-1{fill:#5e95c6;}.cls-2{fill:#fff;}</style></defs><title>cancel</title><g id="Calque_4" data-name="Calque 4"><path class="cls-1" d="M195.57,3.45a4.09,4.09,0,0,0,1.76.21,16,16,0,0,1,4.72.24,1.37,1.37,0,0,0,.95-.12,8.21,8.21,0,0,1,3.19-1.09,2.08,2.08,0,0,1,1.25.17,2.68,2.68,0,0,0,3.06,0,2.92,2.92,0,0,1,3.45,0,6.07,6.07,0,0,0,4.29.71c.47-.08,1.1,0,1.13-.53.36-.06.34-.65,1-.32.13.58,1.17.22,1.35.77a.35.35,0,0,0,.47.16c.23-.13.12-.38-.07-.45-.6-.22-.78-.69-1.22-1-.16-.11-.31-.3-.18-.39a1.46,1.46,0,0,1,.65-.1c.28,0,.37.23.55.34s.41.23.63.08.16-.32.07-.49c-.19-.38-.64-.41-1.09-.46-.86-.1-1.4.42-2.19.46-1.44,0-2.86-.66-4.31-.38a12.6,12.6,0,0,0-3.07,0c-1.48.25-3.18-.14-4.51.54,0,0-.08,0-.12,0a19.92,19.92,0,0,0-5,0c-.66.12-1.13.61-1.94.4a1.15,1.15,0,0,0-1.33.39c-.39.47-.79.37-1.07-.2-.09-.19-.28-.2-.47-.21-.59,0-1.19,0-1.77,0-.3,0-.83-.05-.78.34S195,3.25,195.57,3.45Z"></path><path class="cls-1" d="M175.8,3.78c2,.1,4,.73,6.08.36,1.24-.22,2.67.28,3.59-.28.63.05,1.06.18,1.31-.12.11-.13,0-.25-.2-.37-1.08-.7-2.14-1.37-3.59-.73a2.24,2.24,0,0,1-.81,0c-2.16-.16-4.25.23-6.42.08-.38,0-1,0-1,.39S175.41,3.76,175.8,3.78Z"></path><polygon class="cls-1" points="473.65 142.11 473.64 142.11 473.64 142.12 473.65 142.11"></polygon><path class="cls-1" d="M500.9,90.38c-.84-.24-1.76-.85-2.7-.29l-.06.08h0s.05,0,.06-.09a6,6,0,0,0-2.11-.68c-.77-.2-1.46-.85-2.26-.13-.11-.77-.12-.81-.82-.68s-1,.16-.94-.49c0-.2-.19-.3-.36-.43a3.77,3.77,0,0,0-2.33-.72h-.23c-.57,0-.72-.49-1.17-.64-.67-.37-1.33-.75-2-1.13h0c-.54-.26-.36-.38.06-.57s1.28.1,1.8-.46c-1.34-.22-2.59-.59-3.73-.67a55.12,55.12,0,0,0-6.8-.22,15,15,0,0,1-1.89-.09c-.4,0-.52-.16-.2-.37a2.05,2.05,0,0,1,1.08,0c.48.12.58-.11.46-.43.35-.78-1.95-.46-1.18-1.42-.12,0-.23-.06-.35-.07a5.58,5.58,0,0,0-1,.09,3.29,3.29,0,0,1-2.29-.41l.21,0a1.13,1.13,0,0,0,1.18-.39c-.71-.09-1.22-.57-1.91-.33l-1.92-.09L469,79.5c-.29-.34-1-.12-1.22-.58-.24.06-.52.22-.76.09a3.67,3.67,0,0,0-2.86-.24h0c-2.44-.15-4.87-.57-7.33-.69a32.06,32.06,0,0,1-4.6-.52,66.17,66.17,0,0,0-9.68-1.13l-2.63-.2c-.23,0-.46,0-.67-.13a6.1,6.1,0,0,0-3.74-.79,11.41,11.41,0,0,1-2.34,0c-2.43-.49-4.89-.45-7.33-.81a13.21,13.21,0,0,0-2.25-.18,22.6,22.6,0,0,1-4.34-.46,2,2,0,0,0-.37-.21c-.73-.19-1.61-.16-1.71-1-.05-.38-.52-.73-1.1-.32a2,2,0,0,1-1.4.27l0-.33a2.69,2.69,0,0,1,3.32-.54,2.88,2.88,0,0,0,1.38.4c-.3.11-.32.43-.71.4-.16,0-.43-.19-.43.06s.26.32.37.32c.88,0,1.91.16,2.43-.47a.7.7,0,0,1,1-.3.83.83,0,0,0,.81-.24c.62-.2,1.18.16,1.69.31a1.59,1.59,0,0,0,1.57-.42c.45-.33-.56-.42-.77-.8,1.16,0,2.14.55,3.22.66h0a11.14,11.14,0,0,0,1,.69c.42.22,1,.72,1.33.52.8-.48,1.57,0,2.34,0h.43c.93.6,1.92-.22,2.91.26.21.1.28-.36.1-.54a1.64,1.64,0,0,0-1.11-.66c0-.12,0-.24,0-.36a1.91,1.91,0,0,1,2-.07c.41.47.94.5,1.4.74l1.17.36c-.21.45-.94.32-1.21.68a1.12,1.12,0,0,0,1.57-.06c.3-.23.46-.62,1.08-.48h0c0,.44-.28,1,.61,1.19s1.93.37,2.14-.68c.31.32.48.73.92.33s.75-.42,1.09.14c.07.13.49.1.45,0-.26-.81.66-.16.86-.37l.71.09c.14.5.67.34,1.06.38.85.08,1.71.09,2.56.19s1.38,0,1.34-.58-.71-.7-1.39-.62h-.24c-.13-.58-1.11-.39-1.35-.8-.53-.89-1.11-.51-1.59-.15a1.44,1.44,0,0,1-1.37.18c-.49-.14-1.05-.13-1.48-.25-1.2-.35-2.59-.18-3.61-1l.75-.14,9,.18c1.61.21,3.17,0,4.77,0a5.61,5.61,0,0,1,.59.06c2.21.38,4.22-.42,6.41-.17.23,0,.65-.21.43-.36-.9-.61-.4-1,.07-1.44.23-.23.15-.62-.1-.93-.5-.61-1.31-.3-2-.46a.29.29,0,0,1-.08-.14c.5-.59-.77-.5-.72-.92a1.62,1.62,0,0,0,.89-.18.75.75,0,0,0,.37-.22c.63-.36,1.33-.69,1.29-1.44,1.39-.55,3-.77,4.27-1.56a2.55,2.55,0,0,1,1.34-.18,4.73,4.73,0,0,0,3.6-.77c.27-.14.61-.22.91-.35a31.59,31.59,0,0,0,5.2-2.37,5,5,0,0,1,1.21-.74c.72-.23,1-.43.41-1s-.42-1,.6-1c.41,0,.88,0,.79-.5-.17-1-.31-1.11-1.48-.61-.06-.65.63-1.14.52-1.76-.26-1.47,1.13-2.52,1.24-3.91.05-.58,0-.87-.77-.85a.76.76,0,0,1-.8-.43c-.2-.29.21-.35.41-.4,1-.25,1.34-.59.56-1.39a1,1,0,0,1,0-1.13c.33-.47.05-.57-.47-.63a8.62,8.62,0,0,0-1.43-.07,11.12,11.12,0,0,1-3-.36,15.65,15.65,0,0,0-3.17-.46c-1.65-.06-3.27.29-4.93-.2.16-.17-1-.17-.16-.41a1.63,1.63,0,0,0,.66-.42,3.06,3.06,0,0,1,2.54-.65c1.83.23,3.68.29,5.52.38,1.06.05,2.52-1.21,1.95-1.75s-.25-.92.07-1.32c.35-.17.79-.34.74-.69-.16-1,.75-1.09,1.72-1.16.52,0,.93-.14.78-.62.25-1-.3-1.62-1.74-2,2.15-.3,2.37-1.43,2.31-2.68,0-.51.08-1.1-1.09-1.05a.7.7,0,0,1-.74-.63c.05-.37.5-.17.86-.1s1.06.33,1-.38c0-.31.5-.4.87-.47s.95-.18.82-.65-.72-.5-1.25-.48a3.23,3.23,0,0,0-1.12-.27c0-.28-.4-.38-.53-.58-.53-.77-1.5-1.4-1.55-2.31h.21c1.14,0,2.2.74,3.34.48,1-.21,2.09.1,2.9-.46.19-.13.41,0,.63.13.44.21,1.06.55.71-.28,0-.09.26-.3.45-.34.58-.11,1.13.37,1.81.16.29-.08,0,.55.55.73.46-.71,1.4-.28,2.15-.37a1.84,1.84,0,0,1,1.82.57c1,.32,1.62-.32,2.42-.49.37-.08.22-.45.15-.71s-.39-.25-.66-.29c-.49-.08-.87.17-1.57.18a2.61,2.61,0,0,1,2.46-.36c.31.1.67.1.71-.23s-.23-.43-.6-.42-.56.11-.61-.23h0a.83.83,0,0,1,0-.15c.35-.05.92.2,1-.15s-.41-.45-.8-.58a2.69,2.69,0,0,1-.55-.35h0c-.69.34-1.49-.19-2.17,0-1.22.35-2.34-.31-3.5-.45-.63-.08-1.7.18-2.17-.6a.83.83,0,0,0-.43,0c-.45.6-1.64.29-2.12.87-.13.16-.57.26-.57-.1,0-.74-.69-.55-1.24-.67s-1.62.26-1.39-.75c0-.15-.21-.11-.36-.1-.51,0-.7-.34-1-.47-.47-.2-.54-1.42-1.57-.54a.47.47,0,0,1-.54-.05,5.64,5.64,0,0,0-2-.69,20.34,20.34,0,0,0-6.23-.78,9.49,9.49,0,0,0-2.81-.51h0l-.31-.17a15.13,15.13,0,0,0-5.52-.62c.52-.2,1.23-.17,1.2-.77l-.08-.06h0l.08.06c.73-.13,1.64.66,2.3-.13.21-.25.22.45.64.29.26-1.14.26-1.13-1.42-1.21a7.1,7.1,0,0,0-1.61.14c-1.23-.46-2.62-.16-3.85-.69-.1,0-.35.08-.48.16a2.2,2.2,0,0,1-1.18.28c-1.82.06-3.71-.37-5.47.08-.06,0-.12-.12-.17-.11-3,.23-6,0-9-.06s-5.93,0-8.88,0a3.54,3.54,0,0,1-1.75-.22,5.32,5.32,0,0,0-3-.36,22.84,22.84,0,0,1-4.75.1c-1.4-.34-2.78,0-4.18-.19a.32.32,0,0,0-.42.31l-1.63,0c-3.77-.05-7.55-.15-11.29,0-.22-.57,1.55-.41.55-1.22-.38-.3-.66-.45-1.08-.18h0c-.51-.14-.07-.64-.61-.76.29-.22.68-.11,1-.07a9.64,9.64,0,0,0,2.89,0c.42-.08,1.41-.16,1.45.19.09.7.56.37.83.32a20,20,0,0,1,4.92-.38h0v0h0v0c.45.19,1,.25,1.38.73-.24-.78,0-1,1-.78,1.16.25,2.18-.5,3.39-.09h0a1.31,1.31,0,0,0,1.19,0c1.36-.65,3.18.25,4.59-.37,0,0,.12.07.18.12.24.17.49.27.65,0s0-.38-.28-.53a1.53,1.53,0,0,0-1.85.27c-.33-.37-.74-.69.19-.75.13,0,.24-.13.35-.2h0a1.66,1.66,0,0,1,1.8-.05,3.56,3.56,0,0,0,1.27.11l.93.06c.19.29.93.07.89.49s-.67.16-1,.33-.58-.05-.71.19c1.56.57,1.62.6,2.38-.37.4-.52.63-.37.77.07.28.87,1.15.79,1.87.71,1-.11,1.68-1,3-.67,0,0,.06,0,.08-.06a1.86,1.86,0,0,1,1.36-.35h0a11,11,0,0,0,4.91,0c.68-.09.67-.56,0-.91a4.61,4.61,0,0,0-1.13-.32c-.61-.13-1.39-.08-1.78-.5-.79-.84-1.17-.44-1.61.08-.2.24-.3.62-.91.39a4.25,4.25,0,0,0-2.42-.06,10.71,10.71,0,0,1-2.87-.32c-.42-1-1.18-.17-1.76-.24-.35,0-.53.52-.83.58-.85.18-.06-.5-.62-.7a6.31,6.31,0,0,0-3.94.27h0a.39.39,0,0,0-.05.14l-.4.21a1.94,1.94,0,0,1-.29-.28c-.13-.2.4-.44-.06-.61s-.65.13-.87.31-.42.55-1,.44c-.19-.22-.3-.62-.73-.51-1.17.3-2.79-.21-3.54.85-.07-.17,0-.39-.28-.51-.54.08-1.41-.47-1.53.39,0,.22-.32.05-.46,0-.29-.11-.55-.25-.83-.38h0c-1.3-.27-2.71-.11-3.89-.83h0c-.42.06-1.11-.34-1.15.32-.05.88-.68,1.08-1.69.54a1.39,1.39,0,0,0-1.2-.21h0c-.81-.24-1.7-1.19-2.37,0,0,0-.07,0-.11,0a18.83,18.83,0,0,1-3.17-.49c-.28-.08-.37-.55-.82-.28s.15.48.15.79a2.86,2.86,0,0,1-.9-.2c-.51-.39-.58-.44-.67,0s-.66.82-1.14,1.12c-.45-.28.06-.54-.18-.78s0-.59-.47-.68-.5.17-.65.37c-.3.39-.62.26-1-.06-1-.82-1.61-.78-2.32.11h0c-.63.11-1,.53-.39.79,1.18.52.3.6-.08.82h0c-.6-.26-1-.55-.75-1.12.19-.42,0-.85-.56-1.18-.39-.23-.87-.19-.79.09.19.61-.56.45-.8.68h0a24.3,24.3,0,0,1-3.79-.69.85.85,0,0,0-.75-.37h0c-.4,0-1.19-.26-1.1.23.18,1-.68.3-1,.38a1.88,1.88,0,0,1-1-.37c-.68-.66-1.52-.43-2.32-.3a4.3,4.3,0,0,1-3.33.54c-.32.25-.36.6.14.68,1.49.25,1.05,1,1.15,1.68-.59,0-1.65.07-1.67-.14-.06-.86-1.52-1-1.53-1.91,0-.56-.59-1-1.51-.61a3.56,3.56,0,0,1-2,0c-1.39-.25-2.77-.07-4.14-.35l-.35-.31L369.32,8h0c-.65.3-1.58-.23-2.16.26-.25.39-.6.27-1.07.13-.73-.21-1.58-1-2.22-.07a7,7,0,0,1-.8.14c-1.4.08-1.54.22-.8,1.05,0,.17-.19.26-.4.32h-.24c-.18-.18-.17-.5-.42-.63a1.85,1.85,0,0,0-1.43-.59l-2.86-.13-.32-.05c-.33,0-.67-.05-1-.06a2.85,2.85,0,0,0-1.12,0H354A25.72,25.72,0,0,0,351.38,8c-3,0-6.05-.64-9.06-.38a2.15,2.15,0,0,1-1.9-.66l-.12-.15c.12-.12.07-.26-.11-.36-.93-.54-.15-.52.28-.63h.31c.32,0,.64.05,1,.09S342.59,6,343,6h.2a13.63,13.63,0,0,0,1.58.18,3,3,0,0,1,1.42.8.82.82,0,0,0,.69.19l.23,0c.16,0,0,0,.12,0a5.92,5.92,0,0,0,1.86.25,35.16,35.16,0,0,1,5.14-.13h.06c.39.32.77,0,1.15-.11l.71-.13a3.48,3.48,0,0,0,1.49-.19,6.42,6.42,0,0,1,2.66-.37,3.28,3.28,0,0,1,.57.21,1.33,1.33,0,0,0,1.39.54,2.06,2.06,0,0,1,1,0c1.1.55,1.7.25,2.16-.34h0l.33.14c1.42.37,2.84.85,4.23.22a.45.45,0,0,1,.23,0,10.94,10.94,0,0,0,5.12,0,7.14,7.14,0,0,1,.93-.07,4.57,4.57,0,0,0,.82,0,3.71,3.71,0,0,1,2.13.21c.35,0,.79.08.89-.24s-.46-.23-.65-.4-.57-.46-.29-.77l2.58,0,.79.49c-.09.87.89.66,1.42.72,1.36.16,2.72,0,4.1.21.23,0,.6.07.6-.11,0-.38-.45-.6-.88-.77-.12-.1-.37,0-.43-.17a.94.94,0,0,0,.35,0c.32-.17.9-.19.9-.54s-.46-.34-.76-.3c-1.29.15-2.62-.08-3.91,0-.3-.07-.71,0-.73-.39a1,1,0,0,1,1,.15.6.6,0,0,0,.72-.1c.13-.09.35-.16.19-.34a.89.89,0,0,0-.68-.34c-2.12,0-4.26-.3-6.35-.12-.48,0-1-.24-1.43-.07-.31,0-.64-.08-.94-.07-1.19.07-2.45-.35-3.59.06h0a10.08,10.08,0,0,0-1.75-.17,8.16,8.16,0,0,1-2.63-.15A4.23,4.23,0,0,0,366.05,4a4.09,4.09,0,0,0-.7,0,2.82,2.82,0,0,1-.55-.11c-.15,0-.41.12-.47.3l-.48.15c-.58.09-1.61-.53-1.62.47-.07.41.56.34.73.59l-.26.15a2.12,2.12,0,0,1-.93-.22c-.21-.5-.25-1.19-1.16-1.24-1.33-.09-2.66-.27-4-.39a1.57,1.57,0,0,0-1.21.17.39.39,0,0,1-.51,0,1.39,1.39,0,0,0-1.7-.32c-1.57.63-3.35.22-5,.31-.51,0-.79-.54-1.42-.26s-.78-.09-.64-.5c.07-.21.33-.41-.07-.62a.62.62,0,0,0-.3,0c0,.26-.57.34-.34.66s.24.43-.2.41a20.74,20.74,0,0,1-4.38-.08c-.58-.13-1.15-.15-1.09-.78,0-.33-.35-.24-.61-.25-.45,0-1.06-.2-1.28.18s.4.32.63.47c0,.25.82.17.49.57-.59.25-1.32-.17-1.91.09l-3.54,0c-1.52-.37-1.79-.68-1.46-1.7.08-.26-.11-.33-.37-.34s-.69,0-1,0l-1.76-.13c-.58.25-.57.5.08.77s1.11.36,1.87.61c-.93.3-1.8-.15-2.45.2h0c-1-.36-1.4.33-2.09.51a.63.63,0,0,1-.52-.13c-.49-.49,0-1.1-.52-1.58-.39-.19-.41-.82-1-.68s-.11.65-.08,1,.07.41.1.61c0,.64-.53.79-1.28.77-1,0-1.91-.07-2.86-.05a16.76,16.76,0,0,1-3.95-.74c1-.11,1.27-.28,1-.54a1.49,1.49,0,0,0-1.34-.14c-.52.11-.45.4-.16.69-1.34.09-2.53-.51-3.81-.68a8.73,8.73,0,0,1-2.59-.15c-.76-.25-1.1-.43-.1-.82-.43-.07-.68-.18-.94-.06-.85.24-1.67-.2-2.5-.21-.58,0-.93,1-1.73.12a1.5,1.5,0,0,0-.25.15c-.46.46-.73.36-.85-.2,0-.19-.17-.25-.41-.21A6.19,6.19,0,0,1,299.6.55c-.37-.11-.9-.06-.48.32s.55,1.2,1.29,1.62c0,0,.07.15,0,.16a3.8,3.8,0,0,1-3.27-.48,2.92,2.92,0,0,0-2.52-.8,1.44,1.44,0,0,1-.91-.12c-.92-.89-1.89-.56-2.9-.37-.43.08-1,.4-1.31-.29-.18-.35-.67-.3-1-.12a7.05,7.05,0,0,1-4.17.39.83.83,0,0,0-1.11-.07c-.35.27-.09.63.15,1h0c0,.41.37.41.73.42a3.59,3.59,0,0,1,1.71.45c-.79.11-1.61.09-1,.92.23.29-.14.52-.65.5s-1,0-1.42,0a7.39,7.39,0,0,1-2.14-.27c.34-.17.8-.27.34-.72-.61-.59,0-.53.49-.49.24.17.5.33.72.52s.22.36.52.29.1-.3.15-.45c.31-.84-.38-1.54-.85-2.26a.82.82,0,0,0-1.1-.26,4.59,4.59,0,0,1-1.79.14c-.94,0-1.79-.6-2.72-.32a4.3,4.3,0,0,1-1.32.23c-.88,0-1.76-.26-2.56-.14a33.25,33.25,0,0,1-5.4.39c-1.49-.17-3-.15-4.5-.35a16.51,16.51,0,0,0-5.11.08,29.41,29.41,0,0,1-3.87,0,2.72,2.72,0,0,0-2.47.85c-.71,1.08-1,.27-1.52-.08-.35-.25-.62-.89-1-.73-1,.41-1.94,0-2.89,0s-2.21.32-3.13-.24-1,0-1.34.27c-.54.4-.12.66.39.89.18.09.52.08.44.37-.25,0-.52.07-.77.13s-.33.15-.23.34a.45.45,0,0,0,.49.18c.91-.52,1.71.14,2.56.26.61-.13,1.26.05,1.9,0s.45.23.2.44h0c-1.2.14-1.2.14-.33.95a.61.61,0,0,0-.05.12h-.21c-.28-.15-.5,0-.76,0-.46-.23-.91,0-1.37-.07-.67,0-1.34-.06-2-.12-.37,0-.92.08-1.05-.27-.2-.51-.67-.45-1.12-.51L238,3c.39-.39,1.6-.58.43-1-.61-.24-1.28-.47-1.94-.69-1.1,0-2.2-.58-3.25-.35A11.37,11.37,0,0,1,230,.8c-.2,0-.39,0-.59,0-1.17,0-2.28.51-3.54-.15a1.54,1.54,0,0,0-1.51.18c-.46.4.15.65.39.91.42.46-.4.29-.38.52h0c-1.13,0-.51,1-1.05,1.3l-.06.3h0a5.67,5.67,0,0,1-1.64.64,25.23,25.23,0,0,0-5.43,0c-3.52.4-7.14.09-10.64.43-1.81.18-3.69.13-5.51.33a7.76,7.76,0,0,1-1.53,0c-1.5-.15-3,.27-4.51-.27a.27.27,0,0,0-.12,0c-1.85.69-4,.29-5.94.31-1.6,0-3.28-.46-4.76.21a2,2,0,0,1-1.28-.07,15.11,15.11,0,0,0-5.56-.15c-1.36.08-2.75.11-4.1.23a1.06,1.06,0,0,1-.93-.37c-.35-.42-.65-.31-1.05-.08a3.69,3.69,0,0,1-3.75.37,2.31,2.31,0,0,0-1.38,0,3.89,3.89,0,0,1-2.17.14,15.38,15.38,0,0,0-6.41-.51c-2,.11-2.25-.07-2.19-1.56,0-.22.17-.48-.32-.58s-.76-.13-1,.17a.9.9,0,0,0,0,1.33c.48.53.21.67-.43.74a28,28,0,0,1-5.32-.3c-.72-.07-.23-.32,0-.5.6-.48.45-.84-.43-1.1a3.46,3.46,0,0,1-1.2-.37c-1.17-.79-1.17.33-1.66.58s-.24.66.28.92c.78.4.92,1,.17,1.09a25.69,25.69,0,0,1-4.24.73c-1.34,0-2.72-.57-4-.08a1.52,1.52,0,0,1-1.36-.13,5,5,0,0,0-3.07-1.21,13,13,0,0,1-5-1.15c-.28-.15-1.06-.47-1,.3,0,.3-.56.37-1,.15-1.19-.62-1.22-.62-1.66.29-.11.22,0,.6-.52.55s-.49-.35-.6-.62c-.22-.51-.37-1.37-1.19-.3a.41.41,0,0,1-.51.07A4.9,4.9,0,0,0,117.12,4a32,32,0,0,1-4.46.49c-1.16,0-2.25-.22-3.38-.21-1.57,0-3.12-.11-4.71,0-2.34.2-4.8-.12-7.21-.11a36.57,36.57,0,0,0-8,.75,5.24,5.24,0,0,0-2.84.76,7.71,7.71,0,0,0-2.75,1,6.51,6.51,0,0,1-5,.69,2.33,2.33,0,0,0-2.49.62,4.78,4.78,0,0,1-2.24,1.23,9.73,9.73,0,0,0-3,1.45,1.63,1.63,0,0,1-1.27.27,1.18,1.18,0,0,0-1,.23,26.43,26.43,0,0,1-4.7,2.87c-.52.2-.4.59-.1,1,.57.77.33,1.07-.79,1.13s-1.43.24-1,1.15a2.23,2.23,0,0,1,.24,1c0,.26.11.48.56.46.85.31,1.11-.3,1.87-.68a9.82,9.82,0,0,0-.94,4c.08,1.44-1.85,2.45-1.24,4,0,.06-.11.14-.17.22-.68.88-.29,1.42,1.15,1.5a1.15,1.15,0,0,1,1,.47c.16.25-.2.41-.44.54a4.7,4.7,0,0,1-.79.34c-1,.31-1.26.68-.46,1.31s.49,1.35.49,2c0,1-.15,1.13,1.24,1.09a46.92,46.92,0,0,1,5.17.35c1.31.09,2.64.82,4.16.84a31.63,31.63,0,0,1-5.47,2.51c-.7.18-.3.54-.15.85.58,1.14.22,1.47-1.4,1.27-.26,0-.62-.22-.69.06a2.21,2.21,0,0,0,.28,2.13c.67.42,1-.16,1.57-.17,0,.87-1,1.44-1,2.32a3.47,3.47,0,0,1-1.06,2.65c-.62.61-1.21,1.21-.94,2.09.09.31-.23.46-.5.62s-.53.33-.28.66.37.63.94.61a1,1,0,0,1,.83.24c.64.61.49,1-1,1.2-1.15.18-1.2.66-.74,1.24.65.8.2,1.52-.11,2.1s0,.86.61,1a6.4,6.4,0,0,0,2,.27c1.37-.15,2.53.84,3.91.66,2.25,1.3,4.84,1.25,7.36,1.46a15.5,15.5,0,0,1,4.08.62,3.55,3.55,0,0,0,2.71.1,2.09,2.09,0,0,1,1.54,0,27.19,27.19,0,0,0,3.46.82,4.35,4.35,0,0,0,2.78-.16,2.68,2.68,0,0,1,2.72,0,7.79,7.79,0,0,0,2.33.7c.35.08.91-.17,1.11,0a7.48,7.48,0,0,0,4.52,1c1.21-.06,1.9.64,2.82.95,1.69.57,3.46.93,5.13,1.57a5.17,5.17,0,0,0,2.92.33,13.09,13.09,0,0,1,3.77.42.51.51,0,0,1,.3.26c.36.69,1.06.74,1.88.75a18,18,0,0,1,4.34.82,30.55,30.55,0,0,1,4.34,1.18c.49.21.68-.07.76-.41s-.32-.28-.61-.39a4.39,4.39,0,0,1-2.26-1.47c.93.23,1.91-.08,2.78.48a1.19,1.19,0,0,0,1.22-.07,2.69,2.69,0,0,1,2.37-.38c.18.11.53.23.52.32a.45.45,0,0,1-.57.32,1.74,1.74,0,0,0-2,.87c-.49.48-.62.81.4,1.2.63.24,1,1.11,1.78,1,1.48-.16,2.45.68,3.69,1-.49,0-1,0-1.44,0-.22,0-.64,0-.54.15.34.75-.55.56-.92.65-1.3.29-2.57-.33-3.83-.43a70.56,70.56,0,0,0-9.41-.25c-5,.34-10.09.72-15.13,1.08a51.85,51.85,0,0,0-5.74.42,8.27,8.27,0,0,0-2.88.39h-.92a62.19,62.19,0,0,0-7.63.38A46.54,46.54,0,0,0,78,73.92a39.37,39.37,0,0,0-12.22,3.23,13,13,0,0,1-2.15.77c-1.46.43-3.15.65-3.75,2a2.71,2.71,0,0,0-1.19.28c-.78.33-1.14.63-1.21,1.12-.16.11-.23.19-.09.35l.09.12q0,.14.06.3c0,.09-.08.21-.17.29-.3.27-.35.5.21.68.29.08.29.23.27.43-.14,1.22.75,2.12,2.39,2.44.41.08.84.06,1.05.49s.66.29,1.06.3A42.45,42.45,0,0,0,68.21,88c1.27.11,2.53.29,3.8.42,2.46.23,4.61,1.24,7.14,2a1.15,1.15,0,0,0-1,.87c-.14.51-1.55.9-2.11.62-1.18-.58-1.51-.22-1.72.59-.11.42-.28.76.22,1.12.24.18.29.45.07.57-.9.48.32,1.75-1.18,2,.59.83-.78,1.35-.35,2.21a.84.84,0,0,1-.64,1.16A1.66,1.66,0,0,1,70.76,99a2.51,2.51,0,0,0-1.3-1c.85,1,1.75,1.83,1.16,2.86-.14.25.15.45.35.64s.39.32.34.56a16.1,16.1,0,0,0,0,3.4.66.66,0,0,0-.23.46c-2-.19-4-.49-6.07-.75-3.06-.39-6.08-.06-9.15-.66a27.73,27.73,0,0,0-6.86-.38,15.37,15.37,0,0,1-2.63.18c-4.41-.51-8.83-1.22-13.22-1.43a55.21,55.21,0,0,0-15.58,1.47,10.79,10.79,0,0,1-2.9-1,2.7,2.7,0,0,0-2-.47c-.57.06-1,.31-.33,1,.29.28.69.71.49,1-.71,1,.14,1.21.75,1.58-.57.44-1.38.14-2,.46-.73-.05-1,.66-.52.83,1.08.38,1.55,1.64,2.71,1.78a8.62,8.62,0,0,1,3.95.93,1.12,1.12,0,0,1,.74.67c.64,1.85,1,2.08,2.84,2.33,1.47.2,2.82-.37,4.28-.12a2.55,2.55,0,0,0,1.49.26,19.84,19.84,0,0,1,4.56.56c-1.38.39-2.47,1.32-3.47.69a2.67,2.67,0,0,0-2.16-.28c-1.61.21-3.23.37-4.85.55-.36-.53-.66-.77-1.13-.13a2.5,2.5,0,0,1-1.8.81c-.63.1-1.81-.48-1.85.85l-.29-.22c.06-.38.12-.76-.47-.77.31-.52.53-.92-.48-.79-.77.1-1.71.31-1.78-1.18-.41.71-.2,1.45-.49,2l-.07.12a.32.32,0,0,0-.05.23c-.23.94-.94,1.06-1.94.7.53-.08,1.18,0,1.06-.81s-.79-.51-1.23-.68a.86.86,0,0,0-.91.19,3.19,3.19,0,0,0-3,.37c-.45.4-1.18-.24-1.62.25-1.07-.28-2.18,0-3.21-.48,0,.28-.06.64-.09,1-.2.13-.18.34-.15.54a1.82,1.82,0,0,1-.58.17c-.52,0-1,.09-1,.58s.51.72,1.07.76c.91,0,1.82.08,2.73.18.6.06,1,.61,1.08.55.6-.93,1,.09,1.36.33.5-.52,0-1,0-1.39a4.19,4.19,0,0,0,1.35.24,11.45,11.45,0,0,1,5.34.77c.43.33-.29,1,.5,1.26s0-.74.68-.49a1.71,1.71,0,0,0,1.19,1.36h0c-.15.2-.63.15-.5.54s.42.24.66.22l2.19-.17,3.9.22a5.41,5.41,0,0,0,2.77-.14h.43A2.3,2.3,0,0,0,28,123a1.65,1.65,0,0,1,.6-.07h0c.43.66.88.26,1.28.1s.65-.45.9-.26c1,.77,1.95.1,2.91.1a1,1,0,0,0,1.3,0c.65-.78,1.12-.56,1.85.1a1.64,1.64,0,0,0,2.08.2c.59-.47-.41-.66-.42-1.07a13.57,13.57,0,0,1,3.71,0,13.54,13.54,0,0,0,1.91,0c.61-.08,1,.33,1.53.64,1.45.92,4.6.77,5.69-.29.34-.34.76-.45,1.11-.08a2,2,0,0,0,1.77.6c1.42-.08,2.29.89,3.33,1.6-.23.34-.44.07-.63.08-4.29.36-8.66-.08-13,.2-2.71.18-5.48-.09-8.21-.07-2.4,0-4.78.32-7.18.2a33.36,33.36,0,0,0-6.23.42,5,5,0,0,0,.8.2,91.13,91.13,0,0,0,9.34.36c3.25-.14,6.54,0,9.82.16,1.91.08,3.79-.5,5.76.34a3.22,3.22,0,0,0,1.41.15c3.5-.49,7.11-.08,10.64-.34,1.6-.12,3.22.37,4.82.41.24.19.6,0,.79.29-.06.14-.13.29-.19.44,0,.72-.67.86-1,1.31-1.49.4-3.06,0-4.58.05l-2-.05h0c-.66.11-1.06.4-.76,1.17-1.36.14-2.53-1.22-4-1,.24.68.88.57,1.1,1l-1.15.45-.27-.25a1.18,1.18,0,0,0-.33-1c-.36-.32-1-.43-.91.09.22.89-.48.78-.78,1.09l-.74.49a5.68,5.68,0,0,0-2.8-.68.56.56,0,0,0,0,.12h0l.07-.12c-.64-1,.9-.37.78-1.06-.86-.28-1.55-.23-1.76.81-1.29-1.32-1.32-1.32-2.39-.35-.11.1-.15.12-.35.07-.71-.16-1.5-.37-2,.41-.78-.09-1.58-.39-2.3.08-.37-.28-.71,0-1.08-.05s-.75-.14-.75.34.39.54.73.56c1.1.08,2.25.45,3.23-.21a1.6,1.6,0,0,0,1.8.3h0a3.66,3.66,0,0,0,2,.32.43.43,0,0,0,.22.06c.5.52.91.18,1.31,0s.51-.51,1-.32c.12.37-.26.69,0,1.07l1.37-.08a.59.59,0,0,1,.23.05c1,.55,1.35-.13,1.81-.67h0c.27.47.51,1.11,1.07.31a.43.43,0,0,1,.63-.15,2.26,2.26,0,0,0,2.09-.08,7.2,7.2,0,0,1,1.39.08c.22,0,1.27.61.66-.54-.13-.25.29,0,.42-.14a3,3,0,0,0,2.37.81c.89,1.16,1.32,1.18,2.09.09a.56.56,0,0,1,.64-.21c.84.14,1.26.66,1.32,1.91.4-.81.78-.93,1.34-.85.72.11.63-.42.48-.91,1-.25,2.18.72,3.24-.05.18-.13.86,0,.92-.42s-.49-.51-.82-.7c-.15-.09-.31-.17-.25-.41,1.3-.62,2.64.19,4,.29.21.36,1.06.77,0,1-.24.06-.38.12-.22.4s.27.38.49.38a2,2,0,0,0,1.28-.59,1.9,1.9,0,0,1,.29,1.19,5.45,5.45,0,0,0,.93,3.49,1.61,1.61,0,0,0,.64.66c1.87,1.11,3.66,2.28,5.66,3.29a24.94,24.94,0,0,0,9.78,2.77c2.24.17,4.49.28,6.74.53,1.43.16,2.9.14,4.31.26a59.29,59.29,0,0,0,6.65.59,1.51,1.51,0,0,1,.35.06,18.55,18.55,0,0,0,6.42.38c.39,0,.72-.51,1-.27a4.56,4.56,0,0,0,3.8.83c.27,0,.62.2,1-.07.58-.38,1.23-1.06,2.07,0a1.62,1.62,0,0,0,1,.49,36.45,36.45,0,0,1,5,.95c.3.05.61.17.66-.12.1-.65.69-.31,1.06-.2a5.53,5.53,0,0,1,.93.42,24.15,24.15,0,0,0-2.41.37c-1,.22-2,0-2.93.47-2,.11-4.07.2-5.81,1.27a12,12,0,0,0-8,2.23c-2.26-.2-4.31.93-6.61.49-.1,0-.3.08-.29.12.07,1.16-.82.61-1.31.6a5.43,5.43,0,0,0-1.76.07c-1.94.62-4,.2-6,.16-3.34-.07-6.7-.8-10-.77a18.84,18.84,0,0,1-2.79-.22,13.89,13.89,0,0,0-4.29-.22,13.08,13.08,0,0,1-3.19.29c-3.42-.22-6.85-1.06-10.27-.81a4.32,4.32,0,0,1-2.75-.48,3.6,3.6,0,0,0-2.72-.44,7.16,7.16,0,0,1-2.65,0A52.16,52.16,0,0,0,48.26,149a13.89,13.89,0,0,0-3.4.2,7.76,7.76,0,0,0,1,.43c1.84.39,3.68.71,5.51,1.14,1.4.33,2.77.93,4.17,1.17,3.46.6,6.94,1.07,10.4,1.59.33.39,1.2.32,1.14.91s-.84.21-1.27.35c-.22.07-.43.18-.7.29.43.35.78.69,1.17,1s.57.29.51.65-.41.37-.69.38a13.85,13.85,0,0,0-3.27.88c-.77-.12-1.51.24-2.28-.07-.4-.8-1.12-.64-1.69-.56a23.54,23.54,0,0,1-5.81,0,9.07,9.07,0,0,0-5,1.08,3.4,3.4,0,0,0,2.65,1.84c2,.08,4,.45,6,.56.93.05,1.88-.42,2.79.12a2.15,2.15,0,0,0,1.58.26.26.26,0,0,1,.22.05c.33,1.81,1.17,3.17,3.22,3.4.76.29,1.45,1,2.34.63a1.56,1.56,0,0,1,1.48.89,5.11,5.11,0,0,0,4.15,2.12,40.58,40.58,0,0,1,5.68,1.06,47.05,47.05,0,0,0,6.43,1.18c3.94.29,7.72,1.89,11.65,2.1a12.88,12.88,0,0,1,2.23.53c-3.82.38-7.64-.5-11.45-1s-7.63-1.12-11.45-1.52-7.53-1.69-11.49-2c1.38,1.47,2.92,1.48,4.42,1.77,3.2.63,6.44.85,9.61,1.81l.15.08c1,.44,2.21-.06,3.23,1-.94.3-1.79-.07-2.58,0v0c-.87-.66-1.73-.45-2.77-.24a3.18,3.18,0,0,0,1.76.71c.69.14,1,1.28,1.79.93a4.35,4.35,0,0,1,2.32-.05c.67.19,1.29.89,2.05.39h0c-.08.47,1,.94.22,1.32-.39.18-.66.93-1.37.43a.29.29,0,0,0-.47.21.92.92,0,0,0,.13.59.33.33,0,0,0,.54,0c.41-.56.89-.09,1.21.11a2.32,2.32,0,0,0,1.92.37c-.08.77-.78.91-1.25,1.53l1.37.05c.07.15.14.31.22.46s-.41.67.2.79c.43.09.48-.18.46-.6s.28-.27.45,0,.41.42.72.22l1.53.58a.66.66,0,0,1,0,.2.75.75,0,0,0-.21,0c-.86,0-1.31.77-2.19.86-.37,0-.09.74.52.82a1.22,1.22,0,0,1,.15.17.14.14,0,0,1,0,.11c-.71.65-1.69-.38-2.42.17-.37-.34-.32-1.11-1.08-1.06.08-1.34.08-1.34-1.43-1.32,0,0-.08-.11-.12-.16,0-.44.8-.08.73-.63a8.44,8.44,0,0,0-2.72-1.52c-.26.6-.87.22-1.38.5,1.09-.1.35,1.23,1.24,1.25.05.68.57.85,1.1,1s-.07.33,0,.5c-.47-.16-1.15-.2-1.36-.52a1.44,1.44,0,0,0-1.72-.61c-.82-.12-1.51-.78-2.17-1-1.67-.52-3.4-1.29-5.21-.88a1,1,0,0,1-1.36-.62.67.67,0,0,0-1-.26.88.88,0,0,1-.79.16,7.63,7.63,0,0,0-4.84,0c-.27.11-.58.13-.58.5s.29.48.6.56.66.18,1,.28a.68.68,0,0,1,.54.76c0,.72-1,.61-1,1.25a6.2,6.2,0,0,1-.53-.62c-.45-.68-1-1.17-1.8-.81a2.59,2.59,0,0,1-1.58.09c-.65-.07-1.42-.36-1.73.59-.09.28-.41.07-.49-.24v-.86a11.49,11.49,0,0,0,4.43-1.54c-.86-.69-1.51,0-2.05-.2-1.24-.41-2.42-1.17-3.34.22,0,.05-.16,0-.24,0-1.28-.2-2.61,0-3.76-.93l-2.79-.15h0a1.29,1.29,0,0,0-1.81-.51c-.41.2-1.17-.12-1.24.65l-.73,0c-.55-.06-1.24.06-1.61-.23a1.2,1.2,0,0,0-1.5-.09c-.46.27-.78.65-1.13-.17a.46.46,0,0,0-.57-.19c-.36.12,0,.34,0,.49-.12.59.29,1.38-.69,1.65l1.08.54-.89.12c.13.35.71.08.66.48s-.63.62-.69.54c-.41-.52-1.24.52-1.32-.37s-.64-.9-1.19-1.07c-3.45-.75-6.91-1.48-10.25-.38a5,5,0,0,1-3.9-.21.57.57,0,0,0-.81.17l2.22.68c.46.14.81.19.7.9s.24,1.47,1.37,1.34c.54-.07,1.66-.31,1.15,1-.09.23.11.6.17.9-1.45.12-2.83-.51-4.28-.37a3.12,3.12,0,0,1,1.65,2.72c-.32,1.33.55,2.49.72,3.66.28,2,1.85,1.05,2.6,1.74a.81.81,0,0,1,.09.1,3.19,3.19,0,0,0-2.71,1.37.21.21,0,0,0-.07.15l0,0a1.13,1.13,0,0,1,.1-.13c-.29-.4-.91.06-1.14-.51,0-.65-.46-.84-1-.88-.2,0-.45,0-.5.23-.08.43.43.36.56.62-.15.37-.71,0-.85.42H24c-.14-.25-.24-.62-.45-.73-.81-.43-.57-.83-.16-1.26.23-.13.66-.09.58-.46a.56.56,0,0,0-.64-.32c-.95.27-2-.05-2.94.31-.31.12-.85-.05-.85.48s.69.19.86.57c-.21.1-.44.19-.64.31s-.56.1-.4.45.34.46.61.36c.49-.17,1.25-.15.9-1.05.58.37,2.1-.42,1.58,1.31h-.73c-1-.24-1.34.93-2.15,1.11h-.37l-1.16-.39c.89-.65.89-.65-.14-1.21-.14-.54-.42-1.33-.92-1.17-.74.25-1.79-.1-2.23.81-.88-.06-2,.18-2.59-.25-1.72-1.21-2.68-1.38-3.93-.16.54.47,1.38-.36,1.61.21.58,1.43,1.83.8,2.63,1.3a2.19,2.19,0,0,0-1.4.22,5.15,5.15,0,0,1-3.58.63c-.54-.06-1.28.27-1.26-.84,0-.29-.52-.4-.87-.25-1.17.51-2.54.44-3.71.91-.47.19-1.43-.26-1.36.39s1,.47,1.59.69a1.73,1.73,0,0,0,.51,0l4.06.43,0,.34-4.19.94c-.28.07-.79-.27-.81.26s.46.43.76.55a2.9,2.9,0,0,0,.75.21c2.73.17,5.47.11,8.11,1.38.21.1.69.07.71,0,.27-1,.82-.25,1,0,.3.54.77.46,1.16.67,1.29.72,2.88.22,4,1.36.25.17.61,0,.79.34.52.92,1.31.82,2.1.72l.74.12c1.5.45,3,.65,4.54,1.16.73.24,1.89.5,2.52-.43a.42.42,0,0,1,.54-.16c1.27.52,2.6.24,3.87.66,0,.26-.37.5.24.76.92.39,1.72.65,2.39-.19a18.67,18.67,0,0,1,4.82,1.18c1,.38,1.8,1.34,3,1,.06,0,.21.11.27.2.5.66,1.24.34,1.84.61.22.1.65,0,.57-.41a.43.43,0,0,0-.62-.29c-.79.48-1.41-.31-2.12-.4-.55-.06-.45-.49-.4-.75.09-.43.39-.47.74-.12.51.5,1.35.38,1.44.08.47-1.44,1.33-.55,2.07-.29a5.5,5.5,0,0,0,2.41.56,17.48,17.48,0,0,1,4.16-.09c.08.16.16.33.25.49-.45.31-.2.58.17.69s.88,0,.91-.36-.49-.23-.76-.33c0-.77.66-.32,1-.47a42.05,42.05,0,0,0,5.08.75c.52.74.47,1.1-.54,1a7.2,7.2,0,0,0-3-.15c-.21.24-.79.28-.5.8.2.35.52.18.78.07s.66.1,1,.14c1.45.21,2.86,1,4.36.61.63-.16.8-.32.28-.86.09-.32.75-.3.58-.67-.58-1.28.54-.59.88-.79.28.08.5.29.84.27,3.32-.22,6.68.29,10,.39a4.46,4.46,0,0,0-2.32.94,1.67,1.67,0,0,1-1.22.41c-2.1,0-2.09,0-2.27,2.11l0,.12c-.56.49-1,1.18-2,.56a.61.61,0,0,0-.82.36c-.22,1.1-1.12,1.06-2,1.22-.45.08-1.22-.23-1.16.67l-.28.43c-1.76.59-3.64.81-5.38,1.49a13.75,13.75,0,0,0-3.35,1.29c-1.32.17-2,1.12-2.79,2a12.51,12.51,0,0,0,3.59-.88.73.73,0,0,0,.25-.08h0c.81.13,1.29-.57,2-.65h0a1.09,1.09,0,0,0,.91-.25,7.44,7.44,0,0,1,4.1-.83h0c1,.58,1.94,1.16,3.07.66a.6.6,0,0,1,.79.2c.25.43-.14.6-.39.76-.56.36-1.28.52-1.62,1.18a3.18,3.18,0,0,1-1.12-.19c-.85-.37-3.89.29-4.05,1.07-.37,1.73-1.67,1.54-3,1.61-.77,0-1.75-.21-2.22.5-1,1.55-2.71,1.88-4.39,2.26a2.27,2.27,0,0,0-2.51,1.71A2.11,2.11,0,0,1,45,226.83c-.41,0-.79,0-.71.58.12.72-.31,1.26-.46,1.88-1.56.74-2.41,2.35-3.94,3.13-.3.16-.28.58-.45.83-.65,1-.89,2.41-2.23,2.69-2.71.58-4.17,2.79-6.22,4.23a8.89,8.89,0,0,1-2.17,1.49,1.61,1.61,0,0,0-1.16,2,3.29,3.29,0,0,1-1.08,3.62c-.39.4-.73.93-1.08,1.36-.63.77-1,1.88-2.25,2.08-.8-.18-1,.65-1.66.84a11.45,11.45,0,0,0-3.78,2.28c-.39.32.12,1.86-1.25.9,0,0-.16.19-.26.22-1.59.44-1.57,2.09-2.32,3.15-.56.78-.07,1,.64,1.11a4.28,4.28,0,0,0,.87-.09,2.52,2.52,0,0,1,2.8,1.6c0,.1.23.25.28.23.73-.26,1.07.26,1.65.62a3.75,3.75,0,0,1,1.49,2.08A6.19,6.19,0,0,0,24.55,267h0c.12.54.21.62,1,.79.37.08.94,0,.93.49,0,.93.61,1.94.13,2.76-.88,1.51.62,2.24,1.31,3s.59-.56,1-.74a.92.92,0,0,1,.37,0c1.18.13,2.12-.49,3.18-.74a9.48,9.48,0,0,1,3.4-.25c1.06.16,2.06.54,3,0,.3-.17.68-.22.84.25a10,10,0,0,1,.63,2.2c.08,1.08.54,1.59,1.61,1.58.53.42,1.44.31,1.65,1.24.06.28.28.27.45.09,1.17-1.25,2.26-.61,3.34.4h0a7.16,7.16,0,0,1,.43,2.22c.12,1.36,1.38,2.11,3.11,1.54-1.15-.06-1.38-.88-2-1.13.37-.95,1-.48,1.64-.27h0c.43,0,1,1.65,1.31,0,0-.22.35-.12.55-.1s.21.25.25.44c.29,1.8.77,2.22,2.61,2.36.71.16,1.42.06,2.11.68s1.8.39,2-.19c.32-1,1-.89,1.72-1,.13.4.77.51.7,1-.17,1.21.7.91,1.31.93.21,0,.5-.41.63-.17.68,1.28,1.37.25,1.9.11s1.16-.27,1.37-.88c.07-.18-.12-.31-.28-.39a2.21,2.21,0,0,0-1.82.1c-.14,0-.2.25-.33.33s-.56.27-.79,0c-.48-.67-1.4-.9-1.72-1.72-.08-.25-.25-.53.22-.52.61.58,1.44.14,2.09.62s1.75.16,2.57.59c.08.17.35.3.37.21.24-.81.85-.56,1.42-.42a16.37,16.37,0,0,1,1.72.54c.64.29.59.81.08,1a1.69,1.69,0,0,0-1.36,1.63c0,.26-.55.08-.36.43a.56.56,0,0,0,.69.24c1.11-.49,2.32,0,3.46-.1.52.44.86.12,1.3-.33-.43,1.07-.2,1.46.83,1.14a.89.89,0,0,1,.52.58c.17.26.34.51.5.77s.47.55.7.3c.86-.93,1.88-.27,2.86-.14.33,1.2.6,1.35,1.38.76-.13-.63.21-.79.76-.71a2.43,2.43,0,0,0,1.95-.42c.43-.23.21-.64.19-1,0-.18,0-.35,0-.53.61-.19.27-.85.52-1.22h0a2.35,2.35,0,0,1,2,.53.37.37,0,0,1,.18,0c0,.24.1.48-.09.69-.87.93-.86.92.5,1.4a2.91,2.91,0,0,0,1,.29l-.62.53c-.42.35-.17.78,0,1.2.88-.54,1.1.88,1.83.76.37-.12.63-.53,1-.59-.65,1.06.22,2.05.8,3a4.69,4.69,0,0,0,2.14,2.05,10.28,10.28,0,0,0,4.12,2.11,12.25,12.25,0,0,1,2.68,1,30,30,0,0,0,5.78,2.1,22.88,22.88,0,0,1,5.6,2.25c-2.34.19-4.33.9-6.62.66.13-.19.82,0,.56-.41-.16-.22-.6-.06-.91-.07-.5,0-.48.21-.32.48a18.75,18.75,0,0,0-4.17,0,4.4,4.4,0,0,1-1.61-.19c-.43-.09-.77-.22-.7-.69,0-.14.16-.48-.39-.79-1.07-.6-2.15-.41-3.21-.59a21.82,21.82,0,0,0-10,1,4,4,0,0,1-1.34,0c-1,0-2-.71-3.06-.07,1.07.18,1.94.35,2.82.47a2.53,2.53,0,0,1,1,.31c-.42.25.22.63,0,.81a1.28,1.28,0,0,1-1.13,0,1.48,1.48,0,0,0-1.47.19c1,.19,1.83.43,2.67.5,1.06.08,1,.65,1,1.11s-.6.32-1,.31l-4.28-.13a10.66,10.66,0,0,0,3.15.38c.36,0,.85,0,.88.33s.49.74.45,1.21l-3.92-.31c-.2,0-.48-.12-.51.12s.3.23.53.24c1.07.07,2.15.15,3.22.2.71,0,1.36,0,.87.81-.11.17.11.42.18.63.23.76,1,1.41,1.22,2.09.34,1.33,1.6,2,2.87,2.5,3.49,1.4,6.9,3,10.8,3.57.19.28.65.12.87.36a.52.52,0,0,1-.18,0,4.44,4.44,0,0,0-.73,0,3.07,3.07,0,0,0-2.4,1.5c-.14.27-.64.44-.38.81s.69.23,1.07.2l.59.09c.33.25.72.15,1.09.18a2.4,2.4,0,0,0,1.37.35c.35.31.31.92,1.14.86l1.09.38c.87.81,2.09.41,3.11.73l.18,0c-.27.46,0,.87.42,1.25a11.15,11.15,0,0,1-2.75.13,1.34,1.34,0,0,0-1.23.48c-1.22.45-2.7.38-4.23.87a7,7,0,0,0,1.87.25c.64.38,1,.73-.13.84-.2,0-.47,0-.51.2s.3.29.5.39a7,7,0,0,0,.69.23c0,.11-.39.22-.07.27,1,.17,1.92.74,3,.61h0c0,.69-.84,1.27-.21,2.08.14.18-.25.52-.73.54-.22,0-.48.08-.22.29.44.35.32.66,0,1s-.06.42.27.48c.86.15.69.76,1,1.15-.63.2-.49,1-1.22,1s-.51.37-.66.61.22.34-.08.43c-.94.28-.2.52.12.75a1.71,1.71,0,0,0,1.32.26l1.94.41c.18.26.82,0,.82.41s-.29.46-.67.52a.86.86,0,0,0-.38.13c-.43.3-.73.61.16.87.5.16,1,.35,1.49.54a1.53,1.53,0,0,1-1.53.73,3.07,3.07,0,0,0-1.82.51,5.2,5.2,0,0,0-1,.16c-.37.14-1.13,0-1,.61a1.18,1.18,0,0,0,1.24.86h0a13.32,13.32,0,0,0,4,1.77h0a8.48,8.48,0,0,0,2.46.88c.33.06.7.1.8.39.17.46.73.5,1.12.73.94.56,2.63.22,2.95,1.52a.38.38,0,0,0,.26.15c1.52,0,2.84.72,4.28,1,1.75.3,3.48.56,5.2,1a12.7,12.7,0,0,0,4.12.77c.64.11,1.28.24,1.93.32,2.94.33,5.8,1.25,8.78,1.34a11.28,11.28,0,0,0,3.32.4c2.54.27,5.11.3,7.64.75a34.6,34.6,0,0,0,6.32.67c2.87.24,5.72.71,8.61.92,3.16.23,6.33.7,9.49,1.05a21.33,21.33,0,0,1,2.8.2,28.49,28.49,0,0,0,7.05.83h0a3.41,3.41,0,0,0,1.64.37,72.1,72.1,0,0,1,8,.91c1.08.18,2.17.2,3.27.39a6.24,6.24,0,0,0,2.51.13l0,0c.13,0,.3.06.38.15a2,2,0,0,0,2.17.5,7.49,7.49,0,0,1,.83,0l.46-.05.39,0a22.3,22.3,0,0,1,3.05.27c.69.34,1.49.1,2.19.37a5.08,5.08,0,0,0,1.77.63,27.6,27.6,0,0,1,3,.26A.82.82,0,0,0,214,361c1.55,0,3.06.53,4.62.46.11,0,.33.05.37.12.41.67.82.18,1.25.05,0,.59-.63,1-.46,1.59a2.89,2.89,0,0,1-.54,2.17,4.37,4.37,0,0,0-.34,2.06l-.6.11a.63.63,0,0,0-.19,0,4.26,4.26,0,0,0-2.87-.24h0c-.94.1-1.58-.55-2.42-.72a31.47,31.47,0,0,0-9.87-1.27,5.16,5.16,0,0,1-1.7-.26,12.81,12.81,0,0,0-4.83-.62l-1-.22c-2.56-.5-5.14-.87-7.72-1.21a1.74,1.74,0,0,0-1.77-.69h0c-1,0-2.1-.54-3.13-.13a.39.39,0,0,1-.49-.21c-.29-.56-.87-.53-1.45-.39-.26.06-.52.2-.81,0a5.66,5.66,0,0,0-2.93-.39,12.49,12.49,0,0,0-1.49-.13c-1.44,0-2.73-.72-4.16-.72l0,0-4-.6-.2,0a5.85,5.85,0,0,0-2.24-.16c-.22,0-.54,0-.54.28s.33.25.57.3.67,0,.8.32a3.51,3.51,0,0,0,2.32,1.17c.89,0,1.83-.28,2.66.32a4.7,4.7,0,0,0,2.61.21s.11-.09.1-.11c-.88-1,.47-.44.76-.62l.68.17h0c1.55.46,3,1.21,4.75.89a4.58,4.58,0,0,1,2.14.37c-.49.21-1,0-1.51.23l1.75.06a1.15,1.15,0,0,1,1,.39,1.81,1.81,0,0,0,2.42.14c.39-.41,1-.26,1.45-.13s-.46.26,0,.64c1.18-.53,2.47.09,3.78.19h0l1.84.18a6.39,6.39,0,0,1-1.89.64c.78.37,1.39.83,2.11.6a4.47,4.47,0,0,1,1.89-.09c.18.49.57.71,1.26.9,1.09.29,1.16-.53,1.8-.69h0a4,4,0,0,1,1.74-.15,4.09,4.09,0,0,0,2.17,0h0l1.71.08h0c.15.27,1,.13.71.69-.14.31-.49.39-.81.52,1,.17,1.83.37,2.73.48.43.06,1.1.23,1.26-.13s-.66-.26-.83-.55c0,0,0-.09.08-.3.87.75,1.69-.15,2.59.25.6.42,1.34.25,2,.38s1.26.24.48.78c-.14.09-.24.2-.12.35s.36,0,.54,0c.89,0,1.41-.64,2.32-.53a3.3,3.3,0,0,0,3.54.63.73.73,0,0,1,.78.13.33.33,0,0,1,0,.38c-.77.57.06.4.39.46a.79.79,0,0,1,.38,1.11c-.33,1,.49,1,1.27.93a12.61,12.61,0,0,1,3.81.47,6.48,6.48,0,0,0,1.16.16c1.93.18,3.82-.31,5.76.23a1.2,1.2,0,0,0,.82-.1,2.37,2.37,0,0,1,1.92-.11,8.65,8.65,0,0,0,2.15.14c1.47.25,3,0,4.4.31a13.85,13.85,0,0,0,4.32-.06c1.46.32,2.95.58,4.4,1,.93.25,1.7-.18,2.58,0,.19.12.53.23.55.35.11.64.08.64.84.82l.64.21c-.1.52-.26.82-1.08.34a4.32,4.32,0,0,0-3.16.52c1.62-.1,3.1.38,4.62.19a16.25,16.25,0,0,1,4,.35c.36,0,1.06.21,1-.1-.1-.53.31-.31.5-.27.47.1.94.11,1.4.19,2,.31,4.16.05,6,1.14.09.06.28,0,.42,0,.93.09,1.86.17,2.79.32,3.42.54,6.86,1,10.28,1.51a49.87,49.87,0,0,0,7.88.95,1.8,1.8,0,0,1,1,.23,7.12,7.12,0,0,0,3.89,1,15.26,15.26,0,0,1,3.33.46,15.29,15.29,0,0,0,3.44.44c2.89.13,5.79.28,8.67.33,7.11.14,14.25.55,21.3.14,3-.18,6-.12,8.92-.37,4.35-.36,8.65-.91,13-1.37a4,4,0,0,1,1.38,0,11.7,11.7,0,0,0,3.83,0c1.64.25,3.17-.36,4.81-.1a4,4,0,0,0,2-.11,4.55,4.55,0,0,1,1.88-.2,74,74,0,0,0,7.45,0,34.39,34.39,0,0,0,3.66,0,28.35,28.35,0,0,1,5.5-.5,18.68,18.68,0,0,0,3.23-.36,18.87,18.87,0,0,0,3.86-.47c.59-.08,1.27.18,1.76-.14a8.46,8.46,0,0,1,3.52-1.14c2.43-.33,4.75-.8,7.26.13a1.2,1.2,0,0,0,1.53-.39c.3-.61.91-.65,1.6-.68a26.44,26.44,0,0,0,3.8-.36l5.34-.2a18.42,18.42,0,0,0,3.07-.22c.22,0,.36-.09.24-.33-.28-.55.24-.75.74-.94l1.79-.05,0-.21-1.79-.12c-.6-.32-.63-.34-.46-.46A3.21,3.21,0,0,1,420,373a2.71,2.71,0,0,0,1.65-.4,6.08,6.08,0,0,0,2.15-.27,14.26,14.26,0,0,1,1.72.15,23.51,23.51,0,0,0,5.88-.25h.1l.09,0c1.88.12,3.76.35,5.64.53,2.6.26,5.18,0,7.79.43a30.84,30.84,0,0,0,5.84.25,18.52,18.52,0,0,1,2.25-.12c3.75.33,7.51.8,11.25.93a61,61,0,0,0,13.28-.95,11.36,11.36,0,0,1,2.46.64,2.87,2.87,0,0,0,1.73.31c.49,0,.86-.2.28-.63-.24-.18-.58-.46-.41-.64.6-.63-.12-.79-.64-1,.48-.29,1.17-.09,1.69-.3.62,0,.83-.43.44-.54-.92-.25-1.32-1.07-2.3-1.16a9.4,9.4,0,0,1-3.37-.61.89.89,0,0,1-.63-.44c-.54-1.2-.85-1.36-2.42-1.52-1.25-.13-2.4.24-3.65.08a2.64,2.64,0,0,0-1.27-.17,21.75,21.75,0,0,1-3.87-.37c1.17-.25,2.09-.86,2.95-.44a2.86,2.86,0,0,0,1.84.17c1.37-.13,2.75-.24,4.13-.36.3.35.56.51,1,.09a2.51,2.51,0,0,1,1.53-.53c.54-.06,1.55.31,1.58-.55l.25.14c-.05.25-.11.5.4.51-.26.33-.46.6.41.51.65-.07,1.46-.2,1.51.77.35-.47.17-.95.42-1.32l.06-.08h0a.16.16,0,0,0,0-.15c.2-.61.8-.69,1.65-.45-.45.05-1,0-.9.52s.68.33,1.05.45a.86.86,0,0,0,.77-.13,3.37,3.37,0,0,0,2.55-.24c.38-.26,1,.16,1.39-.16a22.58,22.58,0,0,1,2.73.31c0-.18.05-.42.08-.66.16-.08.14-.22.12-.35a1.72,1.72,0,0,1,.5-.11c.44,0,.89-.06.85-.38s-.43-.47-.91-.49c-.77,0-1.55-.05-2.32-.12a2.84,2.84,0,0,1-.92-.36c-.51.6-.84-.06-1.16-.22-.42.34,0,.63,0,.91a4.68,4.68,0,0,0-1.15-.16,12.34,12.34,0,0,1-4.55-.5c-.36-.21.25-.64-.42-.82s0,.48-.58.32c-.07-.42-.45-.72-1-.89.14-.13.54-.09.43-.35s-.36-.16-.56-.15l-1.87.12-3.31-.14a5.83,5.83,0,0,0-2.36.08h-.37a2.29,2.29,0,0,0-2.8-.63,1.38,1.38,0,0,1-.51,0h0c-.36-.43-.74-.17-1.09-.06s-.55.29-.77.17c-.88-.5-1.65-.07-2.47-.07a1.11,1.11,0,0,0-1.11,0c-.55.51-.95.37-1.57-.06a1.75,1.75,0,0,0-1.78-.13c-.5.3.35.43.36.69a14.53,14.53,0,0,1-3.16,0c-.54,0-1.08,0-1.63,0a2.33,2.33,0,0,1-1.3-.41,6.23,6.23,0,0,0-4.85.18.72.72,0,0,1-.94.05,2.14,2.14,0,0,0-1.51-.39,5.22,5.22,0,0,1-2.83-1c.19-.23.37,0,.53-.05,3.66-.24,7.38.05,11.05-.14,2.3-.11,4.66.07,7,0,2,0,4.07-.21,6.11-.13a38.56,38.56,0,0,0,5.31-.27,6.32,6.32,0,0,0-.68-.14c-2.65-.12-5.3-.31-7.95-.23s-5.57,0-8.37-.11c-1.62,0-3.23.33-4.9-.21a3.38,3.38,0,0,0-1.2-.1c-3,.32-6.06.05-9.07.22-1.36.08-2.74-.24-4.11-.27-.19-.12-.5,0-.66-.19.05-.09.1-.19.16-.28,0-.47.57-.57.84-.86a24.17,24.17,0,0,1,3.9,0l1.72,0c.56-.07.91-.26.65-.76,1.16-.1,2.16.79,3.41.67-.21-.44-.75-.38-.94-.64l1-.29.24.16a.66.66,0,0,0,.28.69c.31.21.89.28.77-.06-.19-.58.41-.5.67-.71l.63-.32a6,6,0,0,0,2.38.45.36.36,0,0,0,0-.09h0l-.07.08c.55.68-.77.23-.66.69.73.18,1.32.15,1.5-.53,1.09.86,1.12.86,2,.23.09-.07.12-.08.29-.05.61.11,1.28.24,1.67-.27a3.61,3.61,0,0,0,2,0c.31.18.61,0,.92,0s.64.09.64-.22-.33-.35-.62-.37a5.46,5.46,0,0,0-2.76.14,1.67,1.67,0,0,0-1.53-.19h0a3.82,3.82,0,0,0-1.74-.21.41.41,0,0,0-.19,0c-.42-.34-.77-.12-1.11,0s-.44.34-.82.21c-.1-.24.22-.45,0-.7l-1.16,0a.69.69,0,0,1-.2,0c-.81-.36-1.14.09-1.53.44a.27.27,0,0,0,.08.07h0a.27.27,0,0,1-.08-.07c-.24-.31-.44-.73-.92-.21a.43.43,0,0,1-.54.1,2.53,2.53,0,0,0-1.78.05,7.16,7.16,0,0,1-1.18,0c-.19,0-1.08-.41-.56.35.11.16-.25,0-.36.09a3,3,0,0,0-2-.53c-.75-.76-1.13-.77-1.77-.06a.6.6,0,0,1-.55.14,1.14,1.14,0,0,1-1.13-1.25,1,1,0,0,1-1.14.55c-.61-.07-.53.28-.41.6-.88.16-1.86-.47-2.75,0-.16.09-.74,0-.79.27s.42.34.69.46.27.11.22.27c-1.11.41-2.25-.13-3.38-.19-.18-.23-.9-.5,0-.67.21,0,.32-.08.19-.26a.53.53,0,0,0-.42-.25,2,2,0,0,0-1.17.43c-.42.28.16.35.34.52s-.2.21-.2.36l-.4.12c0-.31-.61-.48-.48-.82s.3-.58-.2-.78-.56.35-.92.44h0a14.1,14.1,0,0,1-2.42-.43c-.75-.57-.8.07-1.08.31h-.46a2.36,2.36,0,0,1-.49-.18,2.13,2.13,0,0,0-2.5-.08,1.1,1.1,0,0,1-1.22.14.26.26,0,0,0-.34.09c-.09.17.06.25.25.3a6,6,0,0,0,.61.14c.3,1,.3,1-1,.93-.09-.3.09-.77-.7-.68a11.12,11.12,0,0,0-2.21-1c-.19,0-.37-.05-.55-.06a12.32,12.32,0,0,0-2.85-.22c-1.65.4-3.41-.08-5,.31-.17.73-.62.87-2.23.69,1.18.09,1.18.09,1.55-.25a26.92,26.92,0,0,0-5-1.17,14.08,14.08,0,0,0,2.95-.62c.64-.32,1.41,0,2.06-.16a.71.71,0,0,0,.91.47,2.9,2.9,0,0,0,2.21-.11c1.3.64,2.62,0,4,.31,1,.21,2-.19,3-.07a20.76,20.76,0,0,0,2.15.07l-1.18-.64a8.06,8.06,0,0,1,2.6-.07c.59,0,0,.15,0,.23-.13,0-.38,0-.31.11a1,1,0,0,0,.77.42,22.11,22.11,0,0,1,2.81.09c.17,0,.39.06.4-.12s-.16-.24-.35-.29h0c-.07-.18-.43,0-.47-.27l.28-.09c.23-.07.7,0,.62-.27s-.49-.14-.75-.15c-1.14,0-2.28-.08-3.42-.11.22-.13.5-.1.65-.27.3,0,.39-.16,0-.27a5,5,0,0,0-1.59-.11,13.24,13.24,0,0,0-3,.05,5,5,0,0,0-2.4,0l-.44,0c-2-.05-3.94-.44-5.81.08.3.41.8.17,1.18.29s.84-.1,1.51.13a34,34,0,0,1-11.16-.16c2.65-.38,5.23.1,7.69-.27a15.8,15.8,0,0,0-2.9-.35,22.77,22.77,0,0,1-3.09.05c-2.37-.06-4.75-.23-7.11-.27a51.13,51.13,0,0,1-7.41-.24c-.52-.09-.92.47-1.56.21-.38-.76.7-.32.88-.62.67,0,1.28-.29,2-.07.2.07.56.42.63,0,0-.21.05-.61-.61-.57a4,4,0,0,1-1.5-.35,6.91,6.91,0,0,0-2.59-.43.73.73,0,0,0-.24-.07,6.9,6.9,0,0,0-1.91-.33c-.33,0-.88,0-.43.47s.44.6-.27.54c-1.84-.17-3.69-.28-5.52-.57a24.47,24.47,0,0,1-3.48-.56c2.9-.73,6-.22,9-.08a1.14,1.14,0,0,0-.92-.47c-1.39-.24-2.79-.48-4.19-.69-1.76-.25-3.56-.37-5-1.38-.1-.08-.44-.05-.23-.25s.26-.05.4-.07c.29.28.47,0,.68,0a45.25,45.25,0,0,0,5.85-.47c1.54-.15,3.11-.22,4.6-.47a11.87,11.87,0,0,0,2.49-.3,13.26,13.26,0,0,0,5-.83,12.59,12.59,0,0,0,6.85-1.46c1.93.13,3.67-.61,5.63-.32.08,0,.25,0,.25-.08-.07-.75.69-.4,1.11-.39a5.74,5.74,0,0,0,1.5-.05,20.36,20.36,0,0,1,5.12-.1c2.85.05,5.71.52,8.56.5a21.27,21.27,0,0,1,2.38.15,15,15,0,0,0,3.65.14,14.47,14.47,0,0,1,2.72-.19c2.91.15,5.83.7,8.75.53a4.72,4.72,0,0,1,2.34.32,3.91,3.91,0,0,0,2.32.28,8.08,8.08,0,0,1,2.25,0,57,57,0,0,0,8.92.58,14.46,14.46,0,0,0,2.89-.13,7.4,7.4,0,0,0-.86-.28c-1.56-.25-3.13-.46-4.69-.74-1.19-.22-2.36-.61-3.55-.77-2.95-.39-5.91-.69-8.86-1-.28-.26-1-.21-1-.6s.72-.14,1.08-.22c.19-.05.37-.12.6-.2-.36-.23-.66-.44-1-.62s-.5-.18-.44-.42.35-.24.59-.25a14.57,14.57,0,0,0,2.78-.57,10.61,10.61,0,0,1,1.95,0c.33.53.95.43,1.43.37a26.41,26.41,0,0,1,4.95,0,9.87,9.87,0,0,0,4.28-.7,3.08,3.08,0,0,0-2.26-1.21c-1.69,0-3.38-.29-5.07-.36-.79,0-1.6.27-2.37-.08a2.28,2.28,0,0,0-1.35-.17.28.28,0,0,1-.18,0,2.72,2.72,0,0,0-2.75-2.22c-.65-.19-1.24-.65-2-.41a1.42,1.42,0,0,1-1.26-.59,5,5,0,0,0-3.54-1.38,43.37,43.37,0,0,1-4.84-.69,51.76,51.76,0,0,0-5.47-.77c-3.36-.19-6.58-1.23-9.92-1.37a14.51,14.51,0,0,1-1.91-.35c3.26-.24,6.51.33,9.76.65s6.49.73,9.75,1,6.42,1.1,9.78,1.27c-1.17-.95-2.48-1-3.76-1.15-2.72-.41-5.49-.56-8.18-1.18l-.13-.05c-.85-.29-1.88,0-2.75-.63a11.52,11.52,0,0,1,2.19,0h0a3.27,3.27,0,0,0,2.36.16,3.26,3.26,0,0,0-1.5-.47c-.59-.09-.87-.83-1.53-.6a4.85,4.85,0,0,1-2,0c-.58-.12-1.11-.58-1.75-.26h0c.07-.31-.87-.62-.19-.86.34-.12.56-.61,1.17-.28.14.07.38,0,.4-.14a.49.49,0,0,0-.11-.38.33.33,0,0,0-.46,0c-.35.37-.76.07-1-.06a2.45,2.45,0,0,0-1.64-.25c.07-.5.67-.59,1.06-1l-1.15,0c-.07-.1-.13-.2-.19-.3s.34-.44-.18-.52c-.36-.05-.41.12-.39.4s-.24.17-.38,0a.44.44,0,0,0-.61-.15l-1.31-.38a.57.57,0,0,1,0-.13h.18c.74,0,1.12-.5,1.86-.56.32,0,.08-.49-.44-.53a1.36,1.36,0,0,1-.12-.12s0-.06,0-.07c.61-.42,1.44.25,2.06-.11.32.22.27.72.92.69-.06.88-.06.87,1.22.86,0,0,.07.07.11.11,0,.29-.68,0-.63.41a8.08,8.08,0,0,0,2.32,1c.22-.39.74-.14,1.18-.33-.93.07-.3-.8-1.07-.81,0-.44-.48-.56-.93-.67s.06-.21,0-.33c.4.11,1,.14,1.16.35a1.46,1.46,0,0,0,1.46.4,11.41,11.41,0,0,1,1.85.64,11.06,11.06,0,0,0,4.44.58c.38-.07.91-.12,1.15.4a.68.68,0,0,0,.85.17,1,1,0,0,1,.67-.11,8.37,8.37,0,0,0,4.13,0c.22-.07.49-.08.49-.33s-.25-.31-.51-.36-.57-.12-.85-.18-.46-.23-.46-.5c0-.47.81-.4.86-.82.15.14.32.27.45.41a1.32,1.32,0,0,0,1.53.53,2.94,2.94,0,0,1,1.35-.06c.55.05,1.21.23,1.47-.39.08-.18.35,0,.42.16s0,.38,0,.56a11.69,11.69,0,0,0-3.77,1c.73.45,1.28,0,1.74.13,1.05.26,2.06.76,2.85-.15,0,0,.13,0,.2,0a7.73,7.73,0,0,1,3.2.61l2.38.1h0a1.29,1.29,0,0,0,1.54.33c.35-.13,1,.08,1.06-.42H453a3.87,3.87,0,0,1,1.37.15,1.28,1.28,0,0,0,1.28.06c.39-.18.66-.42,1,.11.08.15.33.16.49.12s0-.22,0-.31c.1-.39-.25-.91.58-1.08l-.92-.35.76-.08c-.11-.23-.6-.06-.56-.32s.53-.4.59-.35c.35.34,1.05-.34,1.13.24s.53.59,1,.7c2.94.49,5.9,1,8.73.25a5.5,5.5,0,0,1,3.33.14.59.59,0,0,0,.69-.11l-1.9-.45c-.38-.09-.68-.12-.59-.59s-.2-.95-1.17-.87c-.45,0-1.41.2-1-.68.08-.16-.09-.39-.14-.59,1.24-.08,2.41.33,3.64.24-.67-.16-1.57-1.23-1.4-1.77.27-.88-.47-1.63-.61-2.4-.24-1.32-1.58-.68-2.22-1.13l-.08-.07a3,3,0,0,0,2.31-.89.17.17,0,0,0,.07-.1h0l-.09.09c.25.26.78,0,1,.33,0,.43.39.55.85.58.17,0,.38,0,.43-.16s-.38-.23-.48-.4c.13-.24.6,0,.72-.27h.36c.12.17.2.41.38.49.69.27.49.53.14.82-.19.08-.56.05-.5.3s.33.25.55.2c.81-.17,1.71,0,2.5-.19.27-.08.73,0,.73-.32s-.59-.12-.74-.37l.55-.2c.16-.07.48-.07.34-.3a.47.47,0,0,0-.52-.23c-.42.11-1.06.09-.77.68-.49-.24-1.79.28-1.34-.85H474c.88.16,1.14-.61,1.83-.72h.31l1,.25c-.75.42-.75.42.13.79.11.35.36.87.78.76.63-.15,1.52.07,1.9-.52a6.37,6.37,0,0,1,2.2.16c1.47.79,2.29.9,3.35.1-.46-.3-1.17.24-1.37-.13-.5-.93-1.56-.52-2.24-.85a2.29,2.29,0,0,0,1.19-.15,5.56,5.56,0,0,1,3-.4c.46,0,1.09-.18,1.07.54,0,.19.45.26.74.16,1-.33,2.17-.28,3.17-.58.4-.13,1.21.16,1.16-.26s-.89-.31-1.36-.45a2,2,0,0,0-.43,0l-3.47-.28a1.7,1.7,0,0,0,0-.22l3.58-.62c.23,0,.66.18.68-.16s-.39-.29-.65-.36a2.73,2.73,0,0,0-.63-.14,22.48,22.48,0,0,1-6.91-.9c-.18-.07-.59-.05-.61,0-.22.63-.7.17-.82,0-.25-.35-.66-.29-1-.43-1.1-.47-2.45-.14-3.44-.89-.2-.11-.51,0-.67-.22-.44-.6-1.11-.54-1.79-.47l-.63-.08c-1.27-.29-2.58-.42-3.87-.75-.61-.16-1.6-.34-2.13.27a.41.41,0,0,1-.47.1c-1.08-.33-2.21-.15-3.3-.43,0-.16.32-.32-.2-.49-.78-.26-1.46-.42-2,.13a20.6,20.6,0,0,1-4.1-.78c-.81-.24-1.54-.87-2.52-.62-.05,0-.18-.08-.23-.13-.42-.43-1.06-.22-1.57-.4-.19-.07-.55,0-.48.27s.37.26.52.19c.68-.32,1.21.2,1.81.25s.39.33.34.5-.33.3-.63.07-1.15-.24-1.23,0c-.4.93-1.12.35-1.76.18a6,6,0,0,0-2.05-.36,20.86,20.86,0,0,1-3.54.06l-.22-.33c.39-.2.17-.37-.14-.45s-.76,0-.77.24.41.15.64.22c0,.5-.57.2-.85.3-1.44-.24-2.88-.38-4.33-.49-.44-.48-.4-.71.46-.65a8.06,8.06,0,0,0,2.54.1c.18-.16.68-.18.43-.52s-.44-.12-.66,0-.56-.06-.84-.09c-1.23-.14-2.43-.65-3.71-.4-.54.11-.68.21-.24.56-.08.21-.64.2-.49.44.5.83-.46.38-.75.52a2.32,2.32,0,0,0-.71-.18c-2.83.14-5.7-.19-8.56-.26a4.48,4.48,0,0,0,2-.61,1.7,1.7,0,0,1,1-.27c1.79,0,1.79,0,1.94-1.38l0-.07c.47-.32.86-.78,1.71-.37a.59.59,0,0,0,.71-.23c.19-.72.95-.7,1.67-.8.37-.05,1,.15,1-.44l.24-.28c1.5-.39,3.1-.52,4.58-1a13.92,13.92,0,0,0,2.86-.84,4,4,0,0,0,2.38-1.3,13.58,13.58,0,0,0-3.07.58.8.8,0,0,0-.21.05h0c-.69-.08-1.1.38-1.72.43h0a1.12,1.12,0,0,0-.78.16,8,8,0,0,1-3.49.54h0a3.43,3.43,0,0,0-2.62-.43.63.63,0,0,1-.68-.13c-.21-.28.13-.39.34-.49.48-.24,1.09-.35,1.38-.78a3.11,3.11,0,0,1,.95.13c.73.24,3.32-.19,3.46-.7.31-1.13,1.42-1,2.52-1.06.65,0,1.48.14,1.88-.32.88-1,2.31-1.23,3.74-1.47a2,2,0,0,0,2.15-1.12,1.76,1.76,0,0,1,1.8-1.1c.35,0,.68,0,.6-.38s.27-.82.39-1.23c1.34-.48,2.05-1.52,3.36-2,.25-.1.24-.37.38-.54.56-.64.76-1.57,1.9-1.75,2.31-.38,3.56-1.83,5.3-2.77a8.52,8.52,0,0,1,1.85-1c.79-.21,1.23-.73,1-1.33-.43-1,.08-1.7.92-2.36.33-.26.62-.61.92-.89.53-.5.89-1.23,1.91-1.36.68.12.86-.42,1.41-.55a10.72,10.72,0,0,0,3.23-1.49c.33-.2-.11-1.21,1.06-.58,0,0,.14-.13.23-.15,1.35-.28,1.33-1.36,2-2,.48-.51.06-.67-.55-.73a4.71,4.71,0,0,0-.74.06,2.28,2.28,0,0,1-2.38-1,.35.35,0,0,0-.24-.15c-.62.17-.91-.17-1.4-.41a2.63,2.63,0,0,1-1.28-1.35,4.52,4.52,0,0,0-2.4-2.15h0c-.1-.35-.18-.4-.86-.51-.32-.05-.81,0-.8-.32,0-.61-.52-1.27-.11-1.81.76-1-.52-1.45-1.11-2s-.5.37-.86.49a.85.85,0,0,1-.32,0,9.93,9.93,0,0,0-2.71.48,10,10,0,0,1-2.89.17,4.94,4.94,0,0,0-2.59,0c-.25.11-.57.14-.71-.16a5,5,0,0,1-.53-1.44c-.08-.71-.46-1-1.37-1-.46-.28-1.24-.21-1.41-.81-.05-.19-.24-.18-.39-.06-1,.82-1.92.39-2.84-.26h0l0-.07c.75-.68,1.86-.67,2.6-1.31a1.24,1.24,0,0,0,1.83-.14c.71-.74,1.77-.54,2.69-.56.58,0,1,.19,1.26-.51.16-.47.46-.64.62.1.06.26.22.25.36.11a5.34,5.34,0,0,1,2.91-1.09c.56-.12,1.4-.25,1.72-1,.39-.1.62-.69,1.06-.48,2.16,1,3.26-1,5-1.32.65-.1,1.44-.72,2.27-.86.45-.07.91-.08,1.11-.56,1-.66,2.34-.59,3.26-1.38.47-.1,1.15-.08,1.09-.73s-.73-.31-1.12-.46c-1.09-.43-1.85.33-2.77.47-2.82.44-5.34,1.62-8,2.33a16.42,16.42,0,0,1-4.58.92c-.74,0-1.19,0-1.49.61a11,11,0,0,1-2.13.84c-1.73.49-3.65.42-5.21,1.36-1.51-.3-2.62.65-4,.89l-2.14-.1c-.42,0-1,.51-1.21-.08s.67-.62,1.11-.82c.24-.12.59,0,.85-.13.49-.19,1.18-.16,1.28-.9,1-.37,2-.55,3.07-.82s2.47-.44,2.83-1.42c.68-1.91,2.67-2.59,3.52-4.27.51-1,1.8-1.19,2.37-2.15a63.67,63.67,0,0,0,6.08-6.32,1.15,1.15,0,0,0,.77-1c.26-2.13,2-3.6,2.09-5.79a1.28,1.28,0,0,1,.57-1.17c.24,0,.32-.18.42-.37.88-1.67-.19-3.22-.9-4.66a6.52,6.52,0,0,0-2.5-3.14,11.52,11.52,0,0,0-4.84-3.23,12.42,12.42,0,0,1-3.15-1.53,30.49,30.49,0,0,0-6.78-3.22,23.74,23.74,0,0,1-6.57-3.45c2.73-.28,5.08-1.37,7.76-1-.15.3-1,0-.65.63.18.34.7.1,1.06.1.59,0,.57-.3.38-.73a16.76,16.76,0,0,0,4.9,0,4.12,4.12,0,0,1,1.89.29c.5.13.9.33.82,1.05a1.06,1.06,0,0,0,.46,1.22c1.25.92,2.52.63,3.77.9,4.23.92,8.06-.08,11.78-1.51a3.66,3.66,0,0,1,1.58,0c1.11,0,2.28,1.08,3.59.11-1.25-.28-2.28-.55-3.31-.72a2.49,2.49,0,0,1-1.23-.48c.5-.38-.25-1,0-1.25s.9-.19,1.33,0c.66.35,1.11.16,1.72-.29a23.23,23.23,0,0,0-3.13-.77c-1.24-.13-1.15-1-1.16-1.71s.71-.49,1.22-.47c1.67.08,3.34.14,5,.21-1.23-.63-2.47-.45-3.7-.58-.42,0-1,0-1-.52s-.58-1.13-.53-1.84l4.6.47c.24,0,.57.18.6-.19s-.35-.35-.62-.37c-1.26-.1-2.52-.22-3.78-.3-.83,0-1.6-.06-1-1.24.12-.26-.13-.64-.21-1-.27-1.17-1.22-2.16-1.43-3.2-.41-2-1.88-3-3.37-3.83-4.1-2.14-8.11-4.59-12.68-5.47-.23-.43-.77-.19-1-.55a.41.41,0,0,1,.22,0,4.11,4.11,0,0,0,.86,0,3.67,3.67,0,0,0,2.81-2.3c.17-.41.75-.67.44-1.24s-.8-.35-1.25-.31l-.7-.13c-.38-.39-.84-.23-1.28-.28a2.32,2.32,0,0,0-1.6-.54c-.42-.46-.37-1.4-1.34-1.31l-1.28-.59c-1-1.23-2.46-.62-3.65-1.11l-.22-.06a1.67,1.67,0,0,0-.49-1.9,10.15,10.15,0,0,1,3.23-.21,1.41,1.41,0,0,0,1.44-.72c1.44-.7,3.18-.58,5-1.34a6.52,6.52,0,0,0-2.21-.38c-.74-.59-1.22-1.12.16-1.28.24,0,.55-.07.6-.32s-.35-.44-.58-.59a4.93,4.93,0,0,0-.82-.35c0-.17.46-.35.09-.43-1.19-.25-2.26-1.13-3.52-.92h0c0-1.07,1-1.95.24-3.19-.16-.28.3-.8.86-.83.26,0,.57-.13.26-.45a1,1,0,0,1-.05-1.46c.28-.4.07-.64-.32-.73-1-.23-.82-1.18-1.21-1.77.74-.3.58-1.57,1.44-1.57s.59-.56.76-.92c.1-.2-.25-.53.1-.66,1.11-.43.23-.8-.15-1.16a1.64,1.64,0,0,0-1.54-.4l-2.27-.63c-.22-.4-1,0-1-.61,0-.44.34-.71.79-.81a.85.85,0,0,0,.44-.2c.51-.46.86-.92-.18-1.34-.59-.23-1.16-.53-1.76-.81a1.72,1.72,0,0,1,1.8-1.13,3,3,0,0,0,2.14-.78,4.57,4.57,0,0,0,1.19-.24c.43-.22,1.32,0,1.12-.93a1.47,1.47,0,0,0-1.46-1.32h0a14.35,14.35,0,0,0-4.71-2.72h0a8.7,8.7,0,0,0-2.89-1.36c-.38-.09-.82-.15-.95-.59-.19-.71-.84-.77-1.3-1.13a3.11,3.11,0,0,0-1.08-.48.73.73,0,0,1,.45-.06c.37.11.55-.2.6-.48s-.32-.41-.63-.55-.83.06-.95-.42a8.34,8.34,0,0,0,2.94.06,1.22,1.22,0,0,1,.33,0,1.92,1.92,0,0,1,.76,1.09c1.5.81,2.92,1.94,4.72,1.55a.38.38,0,0,1,.44.18c.4.73,1.07.78,1.76.86.27,0,.7.24.76.43.38,1.33,1.33,1.05,2.13.86a9.33,9.33,0,0,1,2.11-.14l1,.58c.25.61,1.78.53,1,1.7-.09.14.07.29.27.35,1.82.55,3.64,1.44,5.42.3a5.3,5.3,0,0,1,1.37-.39,3.32,3.32,0,0,1-.57-.31c-1.67-1.48-3.44-2.64-5.71-2.16h0c-1.86-1.25-3.8-1.93-5.93-1.07,0-.25,0-.38.05-.41.46-.23.8-.53.6-1.15s-.71-.42-1.14-.37-.45-.14-.47-.52a1.36,1.36,0,0,0-.35-.91c.27,0,.55-.05.82-.09.45-.08.44-.32.57-.55.21-.39-.28-.25-.45-.34-.32-.18-.32-.17.26-.39.4-.06.33-.62,1-.44l.06,0c0,.68.47,1.08,1.44,1.1.68-.28,1.46,0,2.18,0a.38.38,0,0,0,0,.15,1.58,1.58,0,0,0-1.3,1.08,4.69,4.69,0,0,1,1.82-.14,1.28,1.28,0,0,0,1.38.29,3.21,3.21,0,0,1,2-.34c.53,0,.72-.15.44-.54.34-.14.84-.09,1-.45,1.46.29,2.32-.52,3.43-.86a2.07,2.07,0,0,1,.83-.2c.17-.53.58-1.11,1.35-.88,1,.3.91-.14,1-.55a2.09,2.09,0,0,1,.13-.49c.07-.12.58-.08.24-.33s-.56-.54-.73-.4c-.76.56-1.7,0-2.53.11-1.82.15-3.64-.56-5.49-.59-.34,0-1-.27-.83-.52.38-.62-.46-.71-.57-.58-.51.59-.7-.71-1.12-.13-.27.39-.46-.12-.71-.13l0-.9c.87-.4,1.76.38,2.63.16a84.75,84.75,0,0,0,14.71-.35,17,17,0,0,0,3.66-.45,19.19,19.19,0,0,1,2.95.38,3.5,3.5,0,0,0,2.13.22c.51-.08.55-.12.46-.37a1.41,1.41,0,0,1-.33-1.59c.45-.09,1,0,1.31-.48-1.61-.32-2.88-1.21-4.63-1.13-1.11,0-2.42-.15-2.92-1.24-.14-.3-.47-.31-.77-.38a8.75,8.75,0,0,0-2.74-.14c-2.07.19-4.2,0-6.3,0a4.06,4.06,0,0,1-1.8-.27c.47-.46,1.33-.39,1.81-.81a4.88,4.88,0,0,0-2-.4,22.47,22.47,0,0,1-4.17-.21,12.52,12.52,0,0,0-2.43-.44c-.32-.3-.74-.21-1.11-.22s-.47-.15-.37-.39h0a7,7,0,0,1,1.39.16.72.72,0,0,0,1-.4c.61.1.83-.56,1.39-.38a1.2,1.2,0,0,0,1.44-.38c.1.06.2.17.28.16a28.2,28.2,0,0,1,3.22-.23c.42,0,.15-.29.08-.47h0c2.08.13,4.29.64,5.94-.63h0a6,6,0,0,0,3.23-.75,1.43,1.43,0,0,1,1-.1l.13,0a3,3,0,0,0,.9,0,12.07,12.07,0,0,0,4.18-1c.06-.06,0-.17,0-.26.32-.21.76-.08,1.13-.11a17.6,17.6,0,0,0,4.73-1c.2-.07.47-.11.28-.44a15.11,15.11,0,0,0-5.06.28c-4.14,1-8.59,1.11-12.8,1.88a42.77,42.77,0,0,1-5.53.57c-2.33.1-4.51.69-7,.5a19.72,19.72,0,0,0-4.41.59c-1.41.18-2.87.12-4.31.27-2.08.23-4.26.58-6.37-.36a10.5,10.5,0,0,0-4.57-.95,4.46,4.46,0,0,0-1.45-.4c-2.13-.49-4.12.15-6.23,0a22.28,22.28,0,0,0-5.36.23h-.43a5.42,5.42,0,0,0-1.28-.21c-1.5.12-3,.3-4.47.45-2.51,0-5-.57-7.52-.49.47-.23,1,0,1.63-.26a12.76,12.76,0,0,1-4.4-.55,13,13,0,0,0-3.14-.51.74.74,0,0,0,0-.14c0-.19-.53-.39-.23-.5.49-.16,1-.58,1.67-.17a1.44,1.44,0,0,0,1.34-.27c.14-.17-.1-.32-.32-.42-.46-.21-.83-.19-1.07.17-.16,0-.32.16-.51,0s0-.26,0-.38,0-.55.31-.47a16.62,16.62,0,0,0,3.52.07l1.37,0c.37-.63-.35-1.16-.51-1.75a3,3,0,0,0,.93-.21.94.94,0,0,1,1.23.09c.32.47,1.38.94.13,1.4-.24.09-.08.37-.06.57.88.12.11.69.55.93h0a.91.91,0,0,0,0,.17h0l-1-.28c0,.45.07.78.75.8.38,0,.79.35,1.16,0a2.8,2.8,0,0,0,2.54-.06.65.65,0,0,1,.83.05c.8.61,1.79.42,2.72.45.32,0,.67-.08.62-.39s-.44-.17-.72-.21c-.91-.14-1.89-.29-1.94-1.22-.06-.46-.34-.71-1-.6s-1-.14-1.48-.24c-.84-.16-1-.6-.4-1,.24-.16.66-.24.52-.58-.23-.58.22-.94.81-.9,1.18.09,2.25-.85,3.5,0-.13.31-1,0-.84.46s.75.19,1.12.31-.05.38,0,.57c.15.34.59.45.77.18s.54-.55.22-.93l-.95-.54c.42-.37.42-.37-.83-1,.19-.24.68-.38.44-.78.65-.41.33.49.77.35.21.9,1.05.91,1.95.85-.22.35,0,.58.48.61.74,0,.95.46,1.24.84,0,.19-.62.29-.1.54a3.5,3.5,0,0,1,1.3,1.15c.11.14.28.36.4.25.55-.5,1.54-.26,2.07-.56a1.33,1.33,0,0,1,1.43-.1,1.28,1.28,0,0,0,.88.38c.73.15,1.73,0,1.59,1,0,.13.11.24.28.26s.36-.11.36-.26c0-.44.49-.29.77-.41a4.94,4.94,0,0,1,3.41.08c.1,0,.25-.09.37-.15.69-.29,1.25.43,1.93.26.43.14.73-.19,1.24-.15-.13.51-1,.65-.73,1.23l-.07,0-.1,0c-.29,0-.73-.34-.77.17s.92,1.38,1.66,1.45c.51,0,.71-.08.66-.46-.09-.71-1-1.54.36-2,.17-.06-.35-.27-.08-.43,1.08,1,1.34,1,3,.56a1.49,1.49,0,0,1,1.82.71l-1.82-.08c.48.2,1,.33.87.68-.38,1.09,1,1.09,1.74,1.55-.26-.42.1-.76,0-1.14,0-.15,0-.31,0-.46-.21-.58.21-.66.81-.63.15.32-.53.27-.31.58,2.3-.16,2.3-.16,2.39-.51-.49-.19-.79.31-1.35.11l.87-1c.32.51,1.14.94,1.37.77.57-.45,2.05,0,1.91-1h0c.15-.51-.69-.67-.8-1.1,0-.06-.37-.19-.22-.19.67,0,.87-.63,1.73-.47s2,.59,2.81,0c.25,0,.52-.06.77-.11s.39-.16.31-.29-.41-.12-.63-.13c.14-.81.14-.81-.53-.92-.51-.5-1.39,0-1.92-.5h0c-.32-.62-1.18-.68-1.79-1s-.79-.57,0-.77h0c.09.43.55.59,1,.69a.76.76,0,0,0,.87-.28.64.64,0,0,0,0-.67.68.68,0,0,0-.89-.06l-.24,0c.05-.27.11-.53.63-.43.16,0,.51.14.35-.09-.49-.75.29-.64.78-.86s1.34-.5,1.48-1.12H464c.3.4,1,0,1.26.38-.08.42.17.72.7.53s.92-.11,1.17-.43a.63.63,0,0,0-.06-.67c-.09-.22-.09-.37.33-.34s.75,0,1.13,0a3.69,3.69,0,0,0,.45.11c.86.08,1.66.92,2.47.48a7.75,7.75,0,0,1,2.32-.78c.56-.11.14-.82.89-.56h0c.4.44-.52.51-.35.88-.72.5.28.45.45.66a9.22,9.22,0,0,1,1.29.1,4.58,4.58,0,0,0,2-.21c1-.22.26-.82.24-1.26,0-.09,0-.25.2-.28.32.29.35.82,1.09.79.3.1.59.35.89.06l1.69.26h0c.08.37-.23.89.71.93a.74.74,0,0,0,.53.17c1.05.68,1.52.19,1.92-.42l.92-.17h0c2,0,3.47-.56,3.8-1.52a4.37,4.37,0,0,1,1.67,1c.38-.29.17-.51,0-.76s0-.41.48-.39c.8,0,1.8.17,1.61-.82-.09-.44.59-.25.77-.53-.46-.3-.84-.73-1.52-.36a.5.5,0,0,1-.76-.18c-.09-.15-.29-.29-.41-.09-.31.53-1,.34-1.43.23-1.54-.37-3.09-.71-4.66-1-.21,0-.56,0-.61-.35-.12-.73-.14-.73-1.07-.32h-.29l-.24-.07c-.45-.18-.77-.61-1.28-.55a2.34,2.34,0,0,1-.84,0l-.59-.21a4.59,4.59,0,0,1-.87-.53c-1-.74-2.13-.71-3.17-1A5.41,5.41,0,0,1,475,106a3.41,3.41,0,0,0-2.45-.21l-1,.18-2.81-.53c.58-.66-.35-.69-.78-.92-.08-.4.54-.25.69-.47l.71-.33a2.48,2.48,0,0,0,1.63-.64c1.38.12,2.05-.42,2.33-1.31.87-.24.79-1.14,1.7-1.37.12,0-.08-.35-.22-.36-1-.1-1.53-1-2.56-1-.13-.1-.49-.12-.38-.29.38-.61,0-.94-.78-1.18-.19-.06-.33-.25-.51-.39l1.55-.52h0c.59-.1,1.41-.08,1.6-.53s.66-.33,1.08-.27c.26,0,.46.19.78.17a34.22,34.22,0,0,0,5.84-.31c.08.31-.5.31-.51.77.25-.35.77.23.88-.33,0-.2.36-.23.68-.2a6.22,6.22,0,0,0,3.11-.36c.47-.21,1.32-.53,1.59-.24.68.73,1.2.35,1.8.18.27-.07.49-.13.7.13a.3.3,0,0,0,.47,0c.12-.16,0-.29-.2-.35-.56-.17-.69-.48-.66-.86A4,4,0,0,0,490.4,94a5.06,5.06,0,0,0,2.16-.45l.23-.15c.54,0,.75-.65,1.44-.28h0c.71-.06,1.38-.83,2.14.08a.16.16,0,0,0,.12,0c.53-.34.84,0,1.26.25a1.63,1.63,0,0,0,2.49-.69c.1-.37,0-.81.38-1.13C501.6,91.11,501.73,90.62,500.9,90.38ZM463.43,70.12l.07,0-.08,0S463.43,70.14,463.43,70.12Zm-2.51-1.53s0,0,0,0l-.08,0ZM460.35,17h0Zm-17.7.63h0Zm-.53,53.56h0ZM440,16.7h0Zm-2.16,1.05h0ZM446.44,11h0Zm-3-.69h.05l-.05,0Zm-20.64,1.15a.3.3,0,0,0,.14.06c-.1.07-.18.17-.36.15C422.69,11.58,422.8,11.53,422.82,11.44ZM411,9.93v0l0,0Zm-13.88-.57,0-.08a.22.22,0,0,0,.05.08Zm-13-3.57h0a.06.06,0,0,1,0,0Zm-3.62-.2h-.16l0,0Zm-18.06-.83.09,0a.1.1,0,0,0,0,0Zm-2.49.16a.08.08,0,0,1,0,0l-.05,0Zm-2.54,1.35h0v0Zm-327.67,113v0h0Zm4.64.07-.28-.06a.2.2,0,0,0-.08,0,2.37,2.37,0,0,1,.36.09Zm16.75,11.79h0l.09.11Zm15.28,24.13,0,0h0Zm19.46,22.26a1.07,1.07,0,0,0,.25,0C86,177.63,86,177.66,85.82,177.54ZM27.16,193.71v0h0Zm10,2.29h0l.09,0Zm20.27,7.57-.26,0a2.91,2.91,0,0,0-1.28,0l-.17.08c-.24-.15-.53-.18-.59,0-.36.88-1,.22-1.46.18a1,1,0,0,0-.34,0,1.25,1.25,0,0,0-.19-.15c.23-.36,1.07-.23.86-.81a2.13,2.13,0,0,1-.09-.28l.23-.11c.11-.07.38.17.59.24a18,18,0,0,0,1.9.43l.86.06a1.5,1.5,0,0,1,.69.34A2.34,2.34,0,0,0,57.41,203.57Zm-3.8,74.86h0Zm21.87-97,.07-.11,0,.11ZM98.87,318.52l0,0h0Zm5.81,10.18Zm66.17,32.41.11,0h-.11Zm296.43,2.39Zm-3.95-.05.23,0,.07,0a1.59,1.59,0,0,1-.3-.06Zm-54.6,7.05h0Zm-20.06-2.43,0,0-.08,0Zm-2.7,8.85a0,0,0,0,0,0,0l0,0Zm-1.68-26.49h0Zm-1.8-.68Zm-.3,21.78.06.06-.15,0Zm-4.12,5.59.06.05h0l0,0,0,0Zm-4.94-6.58,0,0a0,0,0,0,0,0,0ZM436.05,340h0Zm-16.58-14.53a1.47,1.47,0,0,0-.21,0C419.29,325.41,419.35,325.39,419.47,325.47Zm50-10.56v0h0Zm-8.5-1.49h0l-.07,0Zm-17.27-4.94.23,0a3.07,3.07,0,0,0,1.09,0l.14-.05c.2.1.46.12.51,0,.3-.57.81-.14,1.24-.11h.29l.16.09c-.19.24-.91.15-.73.53a.6.6,0,0,1,.07.18l-.19.08c-.1,0-.32-.12-.5-.16-.54-.11-1.07-.22-1.62-.28l-.73,0a1.4,1.4,0,0,1-.59-.23A2.18,2.18,0,0,0,443.66,308.48Zm18.56-120.29,0,0h0A0,0,0,0,0,462.22,188.19Zm-6.82-15.6Zm33.23-36.4h-.15c0,.07,0,0,0,0Zm-18,.59a3.87,3.87,0,0,1-1.36,0Zm-12.78,4.84Zm-2,.49a.14.14,0,0,0,.08.11c.61.45.56.79-.15,1.06a1.05,1.05,0,0,1-.11.07,8.89,8.89,0,0,0-.88-.13,1,1,0,0,1-.24-.09l.69-.22c.34-.11.41-.33,0-.54s-.59-.34-.67-.62C455.31,141.35,455.6,141.72,455.87,142.11Zm-2,.34h-.08l-.17.1a1,1,0,0,0-.71-.19,5.83,5.83,0,0,0,.73-.06A.34.34,0,0,0,453.83,142.45Zm-2-1.64Zm-4.58-.73ZM414.68,72.76s0,0,0,0a.63.63,0,0,0,.45.11c-.2.08-.44.2-.66,0ZM398,13.38c.81-.05,1.43-.47,2.23-.45a35.08,35.08,0,0,0,5-.28c.52-.06.85,0,1,.46h0c-.63,0-1,.2-1,.73s-.24.51-.73.43a11.7,11.7,0,0,0-1.18,0c-.48,0-1,0-1-.59,0-.35-.47-.46-.89-.46s-.92.11-1.38.16-.7.14-.75.44.42.38.72.52a6,6,0,0,0-1.18.32h-.12c-.06-.21-.4-.21-.59-.33C397.7,14,397.61,13.41,398,13.38Zm-1.11-2.44H397l-.06,0A.07.07,0,0,0,396.92,10.94Zm3.55,59c.12.24.55.26.81.4s.58.11.39.43.06.76.42,1.08a1,1,0,0,1-.29.07l-1.34-.28a2.55,2.55,0,0,0-.82-.12,59.31,59.31,0,0,1-8.3-.78l-.47,0s0-.09,0-.17a.56.56,0,0,1,.78-.16c.27.12.7.23.76-.08s-.3-.47-.72-.49c-.18,0-.37.1-.55-.15l1-.07h.28A69.26,69.26,0,0,1,400.47,70ZM367.1,12.64h0a3.66,3.66,0,0,0,1.52.32,23.87,23.87,0,0,0,5.5-.38,17.83,17.83,0,0,1,5.31-.09,13.54,13.54,0,0,0,3.9-.2h.1c.11.5.25.59,1,.51s1.65-.09,2.47-.13c2.08-.09,4.2.23,6.27,0a7.49,7.49,0,0,1,2.47.34.72.72,0,0,1,.63.79c0,.33-.22.5-.65.46-2-.18-3.77.46-5.75.2a2.47,2.47,0,0,0-1.15.12l0,.05a2.67,2.67,0,0,0-.8,0c-.53,0-1.06,0-1.6,0a1.71,1.71,0,0,1-.94-.52c.09-.17.31-.33,0-.53a.91.91,0,0,0-.94,0h0c-.43,0-.87-.07-1.31-.09-.26,0-.62,0-.59.24s.39.25.66.29c.43.07.95-.11,1.31.3-.21.12-.56.09-.79.19h-.14a25.46,25.46,0,0,1-3.28.17,10.43,10.43,0,0,0-4.93.32,1.83,1.83,0,0,1-.93,0l-.88-.2a4,4,0,0,0-1.4-.27,4.17,4.17,0,0,0-1.22,0,1.07,1.07,0,0,0-.31.13,3.16,3.16,0,0,1-.54.15l-.7,0,.2-.3a.05.05,0,0,0,0,0,11.81,11.81,0,0,1,4-.65c-1.11.1-2.15-.45-3.16-.38a10.87,10.87,0,0,1-2.42-.17,1.92,1.92,0,0,0-.75-.18,2.26,2.26,0,0,0-.37,0,9,9,0,0,0-.91-.08C366.09,12.63,366.78,12.87,367.1,12.64Zm40.16,112,.28,0h0A.86.86,0,0,1,407.26,124.62Zm3,1.37h0l0,0ZM380,68.58h0ZM427.53,138Zm-50,24.62h.07l0,0ZM426.05,165h0v0Zm-19,1.78h.07v.07Zm20.33-7.48v0l0,0Zm-25.12-6.6h.06s0,.08,0,.11A.76.76,0,0,0,402.25,152.73Zm-4.49.8h0v0Zm-5.87,16.23H392l-.1.13A.5.5,0,0,1,391.89,169.76Zm-.81.49h0v0Zm-26,2.23h0l0,0Zm-.73,1.3-.09-.1h.13A.25.25,0,0,0,364.36,173.78Zm3.54,2.95-.08,0v-.06Zm4.14,4.64a.38.38,0,0,1,0,.22l-.15,0Zm-15.56-21.14.11,0v.11ZM336.23,5.31a.09.09,0,0,0,0,.05.18.18,0,0,1-.07-.05Zm-5.85-.81s0,0,0,0l0,0Zm-40.7,2.33a.45.45,0,0,0,.17.35,2.56,2.56,0,0,1-1.28-.52A2.49,2.49,0,0,0,289.68,6.83ZM254.07,3.27l.06,0,.08.06-.14,0ZM253.26.64l.06,0-.09,0Zm0,4.19a.6.6,0,0,0,.6-.16.65.65,0,0,1,.7-.06c-.12.46.56.45.79.7-.23.36-.57.76.49.7a4,4,0,0,1,2.47,0,2.41,2.41,0,0,0,.54.16l.09,0A2.54,2.54,0,0,0,260.44,6L260.7,6q.3,0,.6-.06l.16,0a1.74,1.74,0,0,0,1.52,0h.28a2,2,0,0,0,1.28.45c1.81.13,3.49.06,4.62-1.21a2.19,2.19,0,0,0,1.72,1.29c.73.21,2,0,2-.33.05-.6-.58-.9-1.21-1.15-.08,0-.15,0-.15-.06a18.62,18.62,0,0,0,3.8.13,3.49,3.49,0,0,1,1.87.18,2.25,2.25,0,0,0,2.18,0,3.06,3.06,0,0,1,3.48.51l.23.28c0,.22.23.39.56.46A1.47,1.47,0,0,0,285.13,6c.42-.62,1.05-.39,1.49-.16a2.29,2.29,0,0,0,.71.24,1.36,1.36,0,0,0,.5.12c.12,0,.24,0,.35.07l.22.06v.2c-.64.09-1.28.2-1.93.27-.37,0-.56.21-.56.45s.38.23.64.26c0-.13-.05-.27.18-.35a.66.66,0,0,0-.18.35,3.26,3.26,0,0,0,1.5.46c.15,0,.28.07.08.26a3.78,3.78,0,0,1-3.34.19,4.48,4.48,0,0,0-3.52.12A1.32,1.32,0,0,1,280,8.45a2.47,2.47,0,0,0-2.34-.15,1.59,1.59,0,0,1-1.35,0,3,3,0,0,0-1.51-.2,2.26,2.26,0,0,1-1.37-.28,2.94,2.94,0,0,0-2.56-.42.63.63,0,0,1-.44,0c-1.45-.55-1.5-.53-1.9.52l-.32.06a.8.8,0,0,1,0-.45c0-.23.21-.6-.21-.69a.65.65,0,0,0-.81.57c-.07.33-.16.51-.28.58a2.11,2.11,0,0,1-.51-.19l-.3-.33a1,1,0,0,0-.91-.36.4.4,0,0,0-.4.45.69.69,0,0,1-.14.44.39.39,0,0,1-.42.07,2.29,2.29,0,0,0-.53-.17l-.14-.09c-.57-.45-.7-.41-.85.11a2.34,2.34,0,0,1-.09.24c-.19.12-.36.27-.54.4a2.21,2.21,0,0,1-1.37,0,13.57,13.57,0,0,1-2.87-1.2l-.22-.1a1.8,1.8,0,0,0-.79-.26,2.32,2.32,0,0,0-.45-.06H256c-.53,0-1.05-.05-1.58-.05l-1.45,0a8.4,8.4,0,0,1-1.85-.3l.27-.34c-.37-.75-1-.69-1.76-.46h-.81a2.49,2.49,0,0,1,2.73-.06C251.44,4.67,252.33,4.73,253.27,4.83Zm-4.35-2.1c.89,0,1.89.35,2.6-.21h.25a1.8,1.8,0,0,0-.39,1.28h0c-.58,0-1.16-.06-1.75-.05l-.17.05c.19-.34.08-.57-.64-.56l-.11-.08.18,0a.52.52,0,0,0-.38-.47A2.67,2.67,0,0,0,248.92,2.73Zm-1.47,2.59c.1,0,.1.06.07.09l-.25-.11A.37.37,0,0,1,247.45,5.32Zm-7.51.55-.86-.06-.14,0a1.75,1.75,0,0,1-.32-.12c-.48-.27-1.22-.29-1.4-.82a5.59,5.59,0,0,1,1.83,0,7.31,7.31,0,0,0,2.93.48l0,0a.47.47,0,0,0,.31,0l0,0c1.13,0,2.22-.16,3.34-.16a.15.15,0,0,1,0,.07c.54,1.08,1.08,1.31,2.16.93l0,0,.33,0h0c.89.71,2,.26,2.95.44-.13.18-.45.13-.68.18h-.19c-.87.3-.85.83-.38,1.57-1.79-.42-3.46-.06-5.09-.72a4.93,4.93,0,0,0-2.36-.25,11.73,11.73,0,0,1-5.74-.55,3.16,3.16,0,0,0,1.63,0,1.73,1.73,0,0,1,.57-.18,3.07,3.07,0,0,0,1.21,0c.26-.09.69-.16.65-.41S240.23,5.89,239.94,5.87ZM232,2.68a6.69,6.69,0,0,0,1.62.12,5.5,5.5,0,0,0,1.55-.37.62.62,0,0,0,.19-.07c.1,0,.18,0,.1.18a2.24,2.24,0,0,0-.14,1.09.2.2,0,0,0,0,.08,1.48,1.48,0,0,1-.54.21l-.55.07c-.33,0-.67,0-1,.07s-.46,0-.7,0A5.07,5.07,0,0,0,232,4H232c-.06-.19,0-.39-.22-.59C231.31,3,231.44,2.73,232,2.68ZM225.58,2l-.07,0a.28.28,0,0,0,0-.09Zm-1.17.44Zm-.12,4.39a1.52,1.52,0,0,0,.09.25C224.27,6.93,224.22,6.84,224.29,6.78ZM134.43,146.56l-1.34.14C133.29,146,133.48,146,134.43,146.56Zm-13,2.32h0a.27.27,0,0,1-.07.08h0Zm-15.29,29.9.07,0-.21,0Zm-5.68.37Zm-4.67-1.66a0,0,0,0,0,0,0l0,0Zm32.72,159.88h0Zm1.1-3.73v0h0Zm4.5,8.49,0,0h0Zm8.49,3.22,0,0,.07,0Zm3.17-12.87v-.05l.05,0Zm4.09,9.18s0-.05,0-.07a.25.25,0,0,0,0,.07Zm3.89-.5,0,0h0Zm5-10.61h-.06l.09-.09Zm.69-.32h0Zm11.52,5,0,0,0,0Zm.49,11.85h0Zm4.2-24.1a.23.23,0,0,1,0-.14l.13,0Zm3.59,3-.06,0,.06,0Zm2.33,2.77v0h0Zm.59-.81,0-.06.08.07Zm6.39,21.85,0,0h0Zm.26-13v-.07l.09,0Zm174.67,43.64a.9.9,0,0,1-.81-.05c.35,0,.7,0,1-.05Zm25.6-36.26h0a.12.12,0,0,1,.05-.05h0Zm13-19.51h-.06l.18,0Zm4.84-.24Zm4,1.08v0h0ZM428.21,323s0,0,0-.07h.1Zm-5-197h0l-.1,0Zm-2.34.45c.05,0,.05.13,0,.24h-.12A1.18,1.18,0,0,1,420.89,126.48ZM415,125.22l-.08,0,0,0Zm-1.79-.76,0,0h0C413.14,124.33,413.3,124.43,413.23,124.46Zm2.42-2.95v0l0,0Zm4.86-1.49h0Zm.46,2.5,0-.08,0,0Zm13.11-4.86-.05-.07h.06S434.08,117.63,434.08,117.66Zm2.93.57a.35.35,0,0,1,.33-.24A2,2,0,0,1,437,118.23Zm.52-3.3,0,0,.05.06Zm4.16-35.26a3.21,3.21,0,0,0-3.39-1.1l-.31-.06h0a9.19,9.19,0,0,0-4.8,0h0c-.9.12-1.81-.38-2.71-.14h-.09l-.47-.17c-1.09-.39-2.38-.08-3.36-.63a6.6,6.6,0,0,0-3.77-.55,5.79,5.79,0,0,1-3-.38,2.24,2.24,0,0,0-1.49-.08,3.06,3.06,0,0,0-1.82,1.15,1.76,1.76,0,0,1-1.64-.44l0-.06a8.3,8.3,0,0,0-1-1.26,6.58,6.58,0,0,0-2.85-.36,2.25,2.25,0,0,0-1.92.08h-.21l-.16-.12a8.76,8.76,0,0,0-2.43-.67l-.36-.11a5.24,5.24,0,0,0-2.69-.1,4.9,4.9,0,0,1-1.75,0,28.18,28.18,0,0,0-4.89-.46c-1.14.08-2.18.45-3.16-.42a.19.19,0,0,0-.11,0c-1.54.1-3-.51-4.5-.59s-2.85-.42-4.29-.41a.74.74,0,0,1-.73-.33,3.34,3.34,0,0,1,1.81-.11c1.66.21,3.3.57,5,.66s3.6.62,5.35.62,3.46.19,5.21.36c4.64.45,9.28,1.08,13.92,1.52a8.91,8.91,0,0,1,2.77.09l.45.06.59.12a4.36,4.36,0,0,0,.72,0l1,.12.22.1a1.87,1.87,0,0,0,1.64.25,1.65,1.65,0,0,1,.36-.11l1,.1.3.09a14.6,14.6,0,0,0,3.42.4,15.2,15.2,0,0,1,3.87.56,4.52,4.52,0,0,0,2.07.32,8.75,8.75,0,0,1,2.6.14c2.22.41,4.43,1,6.68.61a1.76,1.76,0,0,1,.59.07,5.34,5.34,0,0,0,.76.28,1.62,1.62,0,0,1-.45,0,2,2,0,0,0-.35-.06C442.17,78.43,442.45,79.49,441.69,79.67Zm14.48,33.94-.7.3-.09,0a2.42,2.42,0,0,1-1.67.1,1.28,1.28,0,0,0-1.18.16v0c-1.2-.29-1.87.57-2.94.58h0a1.56,1.56,0,0,0-1.41,0c-.14.05-.16.11-.14.18s0,0,0,0l-.05,0-.05,0h0a.24.24,0,0,0-.14-.14c-.43-.19-1-.09-1.36-.3a4,4,0,0,0-2.56-.44c-.28,0-.55,0-.65-.23h.07a.67.67,0,0,0,.4-.26h.17c.64,0,1.45.14,1.76-.35a1.71,1.71,0,0,1,1.38-.61.22.22,0,0,1-.07.09c-.27.21-.4.42-.09.69a.5.5,0,0,0,.54,0c.27-.15.58-.33.26-.64a.29.29,0,0,1-.11-.25,3.11,3.11,0,0,1,.43,0c.55-.1,1.4,0,.91-.79l-.08,0c.21-.11.61-.07.6-.35l.07,0a2.26,2.26,0,0,1,.93.21c-.63.67,0,.91.79,1.12a4.64,4.64,0,0,0,2.3.24c.67.28.66-.07.78-.39a1,1,0,0,1,1.36-.74h0c.24.09.56,0,.76.2v.55C455.94,112.74,456.46,113.23,456.17,113.61Zm-4.39-31.12c0-.06,0,0,.06,0Zm3.13-1.34h0l0,0h0Zm3.06,37a5.25,5.25,0,0,0,.22-.63,1.09,1.09,0,0,0,.14.65A.56.56,0,0,0,458,118.19Zm2.36,1.22-.17,0,0,0Zm-.22-.89a.74.74,0,0,0-.26,0,1.3,1.3,0,0,0,0-.25A.71.71,0,0,0,460.11,118.52Zm-1.08,0a.4.4,0,0,1,.47.16l0,0c-.1.17,0,.31.13.43a2.1,2.1,0,0,1-.65-.33C459.1,118.73,459.12,118.64,459,118.53Zm3.8-6.37-.51.23.91.65h0c-.15.32-.73-.19-.88.12v0l-.07-.08c-.24,0-.39.09-.39.24,0,.68-.6.88-1.32,1a.71.71,0,0,0-.39-.39c.06-.5.67-.38,1.08-.43s.8-.4.44-.55c-.72-.31-.36-.78-.66-1.11-.53-.73-1.6-.66-2.4-1,.21-.68.91-.66,1.63-.48.34.09.62.33.95.09a3.28,3.28,0,0,1,1.66.66C464,111.76,463.46,111.88,462.83,112.16Zm-2.21-11.8.13,0a.07.07,0,0,0,0,0A.35.35,0,0,1,460.62,100.36Zm2.08.44.11,0,0,0Zm3-19.75c-.36,0-.85,0-.87.35h-.07a.81.81,0,0,0-.46-.14h0a1.55,1.55,0,0,0-2-.19,2.07,2.07,0,0,1-2.43,0,.87.87,0,0,0-.56-.14c-1.94.05-4-.53-5.84,0h0a2.88,2.88,0,0,0-2.78-1l-.25-.07c-.33,0-.62,0-.7.29a1,1,0,0,0-.19.14.44.44,0,0,1,.12-.22c-.51-.15-.69.11-.89.36a1.09,1.09,0,0,1-1.56.2l-.13-.08h0c.54,0,.58-.49,1.12-.49.25,0,.27-.18.13-.33a.41.41,0,0,0-.5-.1c-.19.1-.24.49-.58.22-.64-.49-.82-.1-1.1.18a.19.19,0,0,1-.07.13s0,.09.05.13c-.28.13-.54.28-.8.42l-.16,0c-.18-.34-.66-.3-1-.38s-.6-.2-.65-.47.24-.32.49-.39.79-.09.73-.42a.37.37,0,0,0-.14-.22,1.81,1.81,0,0,0,.75-.1,2.58,2.58,0,0,1,1.48,0l.35.07a36.84,36.84,0,0,0,5.92.73,1.36,1.36,0,0,0,1.13-.31s0,0,0,0l.05,0h0l.14.12.37.1c.41.28.73.72,1.3.48a6.75,6.75,0,0,1,1.25-.32c.23,0,.45,0,.68.05a7.22,7.22,0,0,1,1.75.17,4.26,4.26,0,0,0,3-.17h.22c.16.47.32.51,1.2.61a6.77,6.77,0,0,1,2.94.57A3.17,3.17,0,0,1,465.66,81.05Zm9.08,19.29.12,0h-.12Zm-2.48-.39.07,0h-.08A0,0,0,0,0,472.26,100Zm13-4.63v0h0Z"></path><path class="cls-1" d="M458.28,6.2a4.08,4.08,0,0,0,.81.18c1.91,0,3.89.22,5.71-.26.32-.09.81,0,.63-.44a.85.85,0,0,0-1-.42,4.09,4.09,0,0,1-2.71-.13,2,2,0,0,0-1.37,0,2.67,2.67,0,0,1-1.34.15l-.6,0c-.4,0-.71.08-.75.39S457.94,6.11,458.28,6.2Z"></path><path class="cls-1" d="M449.14,10.89c.45-.09.87.12,1.34,0a1.59,1.59,0,0,1,1.74,1.3c0,.23-.07.53.31.62s.57-.14.72-.39a1.65,1.65,0,0,1,1.65-1.06c.51,0,1.15-.49.14-1l-.11,0c-.43-.19-.55-.7-1.05-.71a4.8,4.8,0,0,0-2.72.59h0l-2-.09c-.3,0-.58,0-.55.3A.49.49,0,0,0,449.14,10.89Zm5.56-.42Zm-3-.15,0,0v0Z"></path><path class="cls-1" d="M484.56,81.16a11.58,11.58,0,0,0-3.17,0,2.23,2.23,0,0,0-1.8.77l5.06-.17c.26,0,.44-.15.43-.33S484.81,81.2,484.56,81.16Z"></path><path class="cls-1" d="M468,69.53a3.08,3.08,0,0,1-2.07-.12c-.29-.09-.68-.22-.8.09s.16.52.63.62a6,6,0,0,0,2.2.24l.63,0c.44,0,1.07.12,1.14-.2s-.62-.46-1-.59A1.33,1.33,0,0,0,468,69.53Z"></path><path class="cls-1" d="M139.62,3.71a7.24,7.24,0,0,0,1.12.34,1.21,1.21,0,0,0,1.35-.46c.26-.5-.51-.5-.84-.7a2.05,2.05,0,0,0-1.06-.17,3.2,3.2,0,0,1-.45,0c-.58-.05-.89.15-1,.55S139.31,3.6,139.62,3.71Z"></path><path class="cls-1" d="M458.28,76.39c.22.12.39,0,.46-.1a2.64,2.64,0,0,1,2.51-1.44.35.35,0,0,0,.34-.47.17.17,0,0,1,0-.12,2.78,2.78,0,0,0-4.11-.77,13.13,13.13,0,0,1-2-.41c-.38-.07-.77,0-.78.31s.34.39.68.4a7.71,7.71,0,0,1,2.39.43l0,0c.25.52.82,1,.11,1.55C457.7,75.93,458,76.23,458.28,76.39Z"></path><path class="cls-1" d="M136.93,4.77c.55.07.8-.11.75-.53s-.92-1.13-1.79-1.16c-.36,0-.88,0-.67.37A2.16,2.16,0,0,0,136.93,4.77Z"></path><path class="cls-1" d="M397.23,7.6c.82-.59,1.75.05,2.59,0,.53.16,1.22.4,1.44-.06.34-.71,1.82-.93,1.32-2,0-.07.23-.19.36-.29a8.23,8.23,0,0,0-1.65-.39c-.59-.14-1.26-.37-1.47.22-.15.44-.45,1,.7,1.18.16,0,.65.15.53.48-1.22-.11-1.25-.11-1.69-.71-.14-.19-.26-.32-.53-.29s-.52.16-.54.38.12.35.37.44.64,0,.9.2h0c-.78-.11-1.54.25-2.3-.11a1.07,1.07,0,0,0-1.08.07c-.18.09-.18.25-.05.39C396.41,7.41,397.09,7.7,397.23,7.6Z"></path><path class="cls-1" d="M131.63,4.25c.24,0,1,.08,1-.28s-.71-.72-1.31-.81c-.41-.06-.81.1-.72.49S130.78,4.33,131.63,4.25Z"></path><path class="cls-1" d="M430.68,122.36c.17-.34-.15-.46-.57-.49-.05,0-.11-.14-.16-.22-.28-.68-1-.34-1.49-.41s-.39.23-.37.45-.44.94.51.67a1.37,1.37,0,0,1,1.17.11C430,122.59,430.52,122.67,430.68,122.36Z"></path><path class="cls-1" d="M489.71,132.55a16.05,16.05,0,0,0,4.58.23A16.4,16.4,0,0,0,489.71,132.55Z"></path><path class="cls-1" d="M465.17,116.76a2.46,2.46,0,0,0-.49-.13,1.78,1.78,0,0,0-.52.11c-.28.15-.93.14-.7.53s.73.21,1.1.11.51-.3.67-.25c.37.12.86.41.93,0S465.49,116.93,465.17,116.76Z"></path><path class="cls-1" d="M393.86,6.36a5.89,5.89,0,0,1,1.63-.1c.25,0,.5,0,.43-.29s-.27-.17-.47-.13a5.93,5.93,0,0,1-1.68,0,.55.55,0,0,0-.69.12c-.1.1-.15.24,0,.32A1,1,0,0,0,393.86,6.36Z"></path><path class="cls-1" d="M150.19,3.84c.19,0,.35,0,.38-.17a3.64,3.64,0,0,0-1.19-1.15c-.4,0-.48.25-.46.5C149,3.64,149.77,3.58,150.19,3.84Z"></path><path class="cls-1" d="M190,3.69c.37.05.86-.09.81-.44s-.61-.23-1-.32c-.32.13-1-.24-1,.22S189.56,3.62,190,3.69Z"></path><path class="cls-1" d="M168.71,3.64c.59.76,1.44.31,2.17.39.41,0,.58-.13.5-.41a.49.49,0,0,0-.65-.37.94.94,0,0,1-.84-.09l-1-.16c-.27,0-.65,0-.71.15S168.36,3.57,168.71,3.64Z"></path><path class="cls-1" d="M468.06,77.5c-.08.54-.36.93-.27,1.41C468.73,78.8,468.81,78.51,468.06,77.5Z"></path><polygon class="cls-1" points="467.79 78.91 467.78 78.91 467.78 78.92 467.79 78.92 467.79 78.91"></polygon><path class="cls-1" d="M430.17,73.56c-.29,0-.52.1-.53.35s.4.38.74.38.61,0,.58-.28S430.55,73.56,430.17,73.56Z"></path><path class="cls-1" d="M428.79,123.84c0,.27.42.28.65.32s.69,0,.66-.31-.37-.29-.66-.35S428.77,123.53,428.79,123.84Z"></path><path class="cls-1" d="M424.1,13.66c0,.22.28.32.5.32s.75-.12.8-.36-.36-.25-.64-.28S424.1,13.33,424.1,13.66Z"></path><path class="cls-1" d="M475,142.32a3.36,3.36,0,0,0-1.37-.2C473.72,142.79,473.72,142.79,475,142.32Z"></path><polygon class="cls-1" points="473.65 142.11 473.64 142.12 473.65 142.12 473.65 142.11"></polygon><path class="cls-1" d="M417.9,122.19c-.45,0-.49.31-.53.57s.15.39.48.45,1,.26,1.12-.16-.37-.31-.68-.31S418.43,122.2,417.9,122.19Z"></path><path class="cls-1" d="M484.09,107.5a1.29,1.29,0,0,0,1.25.37c.15,0,.21-.18.08-.28A1.28,1.28,0,0,0,484.09,107.5Z"></path><path class="cls-1" d="M456,125.17a4.4,4.4,0,0,0,2,.12A1.86,1.86,0,0,0,456,125.17Z"></path><path class="cls-1" d="M419,122c-.07.17.12.38.36.4s.85,0,.56-.43C419.58,121.81,419.19,121.48,419,122Z"></path><polygon class="cls-1" points="419.92 121.92 419.92 121.92 419.92 121.92 419.92 121.92"></polygon><polygon class="cls-1" points="419.91 121.92 419.92 121.92 419.92 121.91 419.91 121.91 419.91 121.92"></polygon><path class="cls-1" d="M428.35,72.19c0-.09,0-.17,0-.26l-1.64-.18A1.63,1.63,0,0,0,428.35,72.19Z"></path><path class="cls-1" d="M480.39,98c.61.12,1,.29,1.24-.08a.3.3,0,0,0-.23-.45C480.94,97.35,480.89,97.74,480.39,98Z"></path><path class="cls-1" d="M335.8,2.79a.86.86,0,0,0,.23,0c.28.1.55.17.72-.05s.06-.28-.11-.4c-.36-.26-.55,0-.78.1-.47,0-1.31-.28-1.25.2S335.38,2.61,335.8,2.79Z"></path><path class="cls-1" d="M313.42,2c.26,0,.48-.09.49-.27s-.33-.27-.65-.32c-.13.05-.47,0-.37.26A.56.56,0,0,0,313.42,2Z"></path><path class="cls-1" d="M422.2,13.85c.08.06.19.2.29.2a.49.49,0,0,0,.53-.35.27.27,0,0,0-.32-.3A.52.52,0,0,0,422.2,13.85Z"></path><path class="cls-1" d="M430.8,120.54a.41.41,0,0,0-.45-.22c-.25,0-.42.1-.41.32a.53.53,0,0,0,.54.27C430.72,120.88,430.88,120.74,430.8,120.54Z"></path><path class="cls-1" d="M487.11,21.52c.19,0,.36-.11.3-.29s-.3-.17-.49-.16-.3.08-.25.21S486.88,21.52,487.11,21.52Z"></path><path class="cls-1" d="M63.77,15.76c0-.14,0-.35-.26-.33s-.25.17-.31.22c-.07.21,0,.31.19.34S63.76,15.92,63.77,15.76Z"></path><path class="cls-1" d="M370.43,7.85h0Z"></path><polygon class="cls-1" points="443.51 10.3 443.51 10.3 443.51 10.3 443.51 10.3 443.51 10.3"></polygon><path class="cls-1" d="M380.5,13.79c-.65-.22-1.24-.45-1.8-.11-.15.1,0,.3.15.38A1.29,1.29,0,0,0,380.5,13.79Z"></path><path class="cls-1" d="M359.07,6.92c.07.17.1.37.39.41s.45,0,.43-.27-.17-.33-.43-.37A.31.31,0,0,0,359.07,6.92Z"></path><path class="cls-1" d="M243.32,5.86c-.1-.3-.49-.26-.79-.26s-.49,0-.46.27a.78.78,0,0,0,.79.28C243.1,6.13,243.39,6.06,243.32,5.86Z"></path><path class="cls-1" d="M449.52,112.92c-.29,0-.46.08-.44.3a.57.57,0,0,0,.62.48c.29,0,.5-.18.43-.41A.57.57,0,0,0,449.52,112.92Z"></path><path class="cls-1" d="M399,13.5c-.5-.05-.91,0-1.15.35C398.66,14,398.66,14,399,13.5Z"></path><path class="cls-1" d="M62.5,143.47a9.2,9.2,0,0,0,2.67.86c3.5-.06,6.89,1.17,10.35,1.5a4.6,4.6,0,0,0,2.29.59c.52,0,1.41.21,1.38-.34s-.87-.39-1.38-.42a10.19,10.19,0,0,0-1.47-.5c-4.23-.73-8.45-1.52-12.69-2A1.16,1.16,0,0,0,62.5,143.47Z"></path><path class="cls-1" d="M10.93,178.91A4.63,4.63,0,0,0,9,178c-.87-.12-.87.81-1.09,1.4s.06,1,.7,1.06l1.14.17c.76,0,1.57.25,1.91-.47C11.87,179.62,11.29,179.17,10.93,178.91Z"></path><path class="cls-1" d="M463.2,180.83c-.62,0-1,0-1.38,0s-.62,0-.75.29.19.51.39.73a2.81,2.81,0,0,0,3.76.43c.25-.17.64-.33.54-.72s-.56-.49-.92-.55C464.22,180.94,463.58,180.88,463.2,180.83Z"></path><path class="cls-1" d="M24.27,182.86c-4.17-.85-8.23-1.62-12.64-2.21C12.7,181.55,23,183.21,24.27,182.86Z"></path><path class="cls-1" d="M9.07,110.6a16.51,16.51,0,0,0,4.64.36,10.68,10.68,0,0,0-4.63-1.12c-.26,0-.58,0-.58.32S8.8,110.54,9.07,110.6Z"></path><path class="cls-1" d="M50.55,206.64c0-.6-1.12-.67-1.86-.74-.48.11-1.42-.2-1.43.46s.94.39,1.42.64a.31.31,0,0,0,.25,0C49.46,206.76,50.57,207.53,50.55,206.64Z"></path><path class="cls-1" d="M29.18,135.23a.44.44,0,0,0-.43-.4,12.34,12.34,0,0,0-4.81.56l4.86.19C29.07,135.59,29.19,135.48,29.18,135.23Z"></path><path class="cls-1" d="M70.25,135.17c-.41,1.09.5.79,1,.9s.82.16.73-.35-.3-1.21-1.11-1.22C70.39,134.49,69.77,134.39,70.25,135.17Z"></path><path class="cls-1" d="M35.73,130.85a.39.39,0,0,0,.5-.4c0-.35-.33-.33-.58-.34-.55,0-1.1,0-1.66-.06a2.32,2.32,0,0,0-2-.25c-.29.06-.76-.1-.74.38s.47.41.76.56a.46.46,0,0,0,.64.43A4.81,4.81,0,0,1,35.73,130.85Z"></path><path class="cls-1" d="M18.38,177.09a20.21,20.21,0,0,0,4.33.64C19.26,176.4,19.26,176.4,18.38,177.09Z"></path><path class="cls-1" d="M81.56,177.26c.14-.41-.35-.43-.59-.47-.67-.12-1.19.26-1.77.38a.57.57,0,0,0,.64.59C80.45,177.68,81.29,178.09,81.56,177.26Z"></path><path class="cls-1" d="M58,175.62c0-.51-.48-.77-.88-.83a.77.77,0,0,0-.87.66c0,.53.56.38.85.55S58,176.14,58,175.62Z"></path><path class="cls-1" d="M48.75,176.09a6.79,6.79,0,0,0,1.21-.18c.35-.11.72-.31.25-.79-.36-1-1.28-.86-2-1.17C48.68,174.62,47.69,175.52,48.75,176.09Z"></path><path class="cls-1" d="M48.35,218.93c-.08.31.33.48.64.44a1.28,1.28,0,0,0,1.12-.9c.08-.27-.32-.31-.61-.35A1.25,1.25,0,0,0,48.35,218.93Z"></path><path class="cls-1" d="M73.61,134c-1.77-.71-1.77-.71-2.63-.06C71.8,134.49,72.55,134,73.61,134Z"></path><path class="cls-1" d="M471.15,217.58c0,.59.49.22.72.37.41,0,1,.13,1-.44,0-.36-.52-.45-.82-.45S471.18,217.18,471.15,217.58Z"></path><path class="cls-1" d="M50.57,129.6c.34-.1.89-.13.53-.92-.42.75-1.1.49-1.85.26A1,1,0,0,0,50.57,129.6Z"></path><path class="cls-1" d="M66.83,284.24c-.26,0-.5,0-.46.41s.3.71.73.74.51-.22.46-.57A.68.68,0,0,0,66.83,284.24Z"></path><path class="cls-1" d="M65.26,207.7a1.2,1.2,0,0,0-1.25-.6.22.22,0,0,0-.06.39A1,1,0,0,0,65.26,207.7Z"></path><path class="cls-1" d="M11.94,201a.4.4,0,0,0,.05.32,1,1,0,0,0,1.33-.15C12.86,201,12.4,200.68,11.94,201Z"></path><path class="cls-1" d="M6.26,192.24c.26,0,.53,0,.5-.35s-.32-.35-.57-.38a.43.43,0,0,0-.52.36C5.76,192.18,6,192.23,6.26,192.24Z"></path><path class="cls-1" d="M32.64,176.35c.46.3.85.42,1.23.16.17-.13.09-.31-.08-.39A.8.8,0,0,0,32.64,176.35Z"></path><path class="cls-1" d="M162.58,358.58c-.72-.39-1.39,0-2.09-.06-.39,0-.79-.1-1.17-.09a25.72,25.72,0,0,1-3.62-.56l-3.53-.75a3.5,3.5,0,0,0-.3-.24c-1.28-.75-2.7-.49-4.08-.57a58.85,58.85,0,0,1-6.47-1.32,19.26,19.26,0,0,0-3.61-.65,20,20,0,0,0-2.65-.74,7.23,7.23,0,0,0-1.72-.43h0a11.73,11.73,0,0,0-3.11-.72h0a10.43,10.43,0,0,0-3.08-.79c-.91-.16-1.77-.83-2.77-.39-.08,0-.27-.07-.41-.1-1-.2-1.9-.43-2.86-.6-.39-.06-1-.22-1.08.22s.5.62,1,.71a7.61,7.61,0,0,0,1.51.09,3.41,3.41,0,0,1,3.11,1.32,1.47,1.47,0,0,0,1.23.46,7.48,7.48,0,0,1,2.57.26h0c.37,1,1.41.83,2.32.86a4.56,4.56,0,0,0,.64,0c1.23-.08,1.57.12,1.84,1.06a.27.27,0,0,0,.3.19,14.72,14.72,0,0,0,1.69.21,15.54,15.54,0,0,1,3.14-.23l.64,0a4.72,4.72,0,0,0,2.21.58,4.33,4.33,0,0,1,3.13,1,1.1,1.1,0,0,0,.58.23c1.66,0,3.3.52,5,.47.25,0,.49-.11.63.14-.12.33-.77.1-.87.53a16.31,16.31,0,0,1,2.13.28c.25.2.63.42.37.7s-.58,0-.87,0a7,7,0,0,0-3.51.25,10.71,10.71,0,0,0,4,.47c.7-.09,1.58-.17,2,.2.73.71,1.63.45,2.42.68.15,0,.39,0,.45-.13s-.13-.28-.29-.3c-.82-.08-.9-.56-1.1-1a.79.79,0,0,1,.75,0c.79.76,2,.11,2.87.76.2.16.3-.11.44-.19.68-.34.9-1.24,2.14-.93.27.06.7.11.76-.25S162.85,358.72,162.58,358.58Zm-28.4-5h.06v0Zm21.78,5.6a2.17,2.17,0,0,0,0-.55h0C156.5,359.08,156.3,359.16,156,359.18Z"></path><path class="cls-1" d="M108.62,347h0c-1.28-.52-2.49-1.26-4-1a.38.38,0,0,1-.37-.11c-.34-.49-.91-.52-1.5-.57-.23,0-.6-.15-.64-.28-.33-.87-1.14-.69-1.82-.56a9.77,9.77,0,0,1-1.79.09l-.87-.38h0c-.22-.39-1.51-.35-.87-1.11.07-.09-.07-.19-.24-.23-1.55-.36-3.09-.94-4.61-.19a5.69,5.69,0,0,1-1.17.25,4.1,4.1,0,0,1,.49.2,6.47,6.47,0,0,0,4.86,1.42h0a6.49,6.49,0,0,0,5,.7c0,.16,0,.24,0,.26-.4.15-.68.35-.51.75s.6.28,1,.24.38.09.4.35c0,.61.52.88,1.32.85.64,0,1.29.14,1.93.18s1,.67,1.68.56a10.79,10.79,0,0,1,2.72.1,4,4,0,0,0,1.48,0C110.1,348,108.92,347.94,108.62,347Z"></path><path class="cls-1" d="M439.33,347.71a9.52,9.52,0,0,0-2.27-.56c-3,0-5.87-.77-8.82-1a4.82,4.82,0,0,0-1.95-.39c-.44,0-1.2-.14-1.17.23s.74.25,1.17.27a10.91,10.91,0,0,0,1.25.32c3.6.48,7.2,1,10.81,1.32A1.16,1.16,0,0,0,439.33,347.71Z"></path><path class="cls-1" d="M483.26,324.57a4.58,4.58,0,0,0,1.68.6c.75.07.74-.53.93-.91s-.05-.63-.6-.7l-1-.11c-.65,0-1.34-.16-1.63.31S483,324.4,483.26,324.57Z"></path><path class="cls-1" d="M98,323.32l1.18,0c.26,0,.53,0,.64-.18s-.16-.34-.33-.48a2.92,2.92,0,0,0-3.2-.28c-.22.11-.55.21-.47.47s.48.32.79.36C97.17,323.25,97.71,323.29,98,323.32Z"></path><path class="cls-1" d="M471.9,322c3.54.55,7,1.05,10.76,1.43C481.75,322.85,473,321.76,471.9,322Z"></path><path class="cls-1" d="M484.84,369.16a19.23,19.23,0,0,0-3.95-.23,11.42,11.42,0,0,0,3.94.73c.22,0,.49,0,.5-.21S485.07,369.21,484.84,369.16Z"></path><path class="cls-1" d="M449.51,306.47c0,.39.95.44,1.58.49.42-.07,1.21.12,1.22-.31s-.8-.25-1.21-.42a.38.38,0,0,0-.21,0C450.44,306.39,449.49,305.89,449.51,306.47Z"></path><path class="cls-1" d="M467.71,353.09c0,.16.18.24.37.26a13.61,13.61,0,0,0,4.1-.37l-4.15-.12C467.8,352.85,467.7,352.93,467.71,353.09Z"></path><path class="cls-1" d="M432.73,353.13c.35-.72-.43-.52-.82-.59s-.69-.11-.62.22a.87.87,0,0,0,.94.8C432.61,353.57,433.14,353.64,432.73,353.13Z"></path><path class="cls-1" d="M462.13,355.94c-.2-.05-.43.09-.42.27s.28.21.49.22l1.41,0a2.53,2.53,0,0,0,1.73.16c.24,0,.64.07.63-.25s-.41-.27-.65-.36c-.06-.25-.26-.35-.55-.28A5.18,5.18,0,0,1,462.13,355.94Z"></path><path class="cls-1" d="M476.91,325.76a22.44,22.44,0,0,0-3.69-.42C476.16,326.21,476.16,326.21,476.91,325.76Z"></path><path class="cls-1" d="M423.09,325.65c-.11.27.31.28.51.31a4.64,4.64,0,0,0,1.51-.25.47.47,0,0,0-.55-.39C424,325.38,423.32,325.11,423.09,325.65Z"></path><path class="cls-1" d="M443.17,326.72c0,.34.4.51.74.54a.65.65,0,0,0,.75-.43c0-.35-.48-.24-.73-.36S443.18,326.39,443.17,326.72Z"></path><path class="cls-1" d="M451,326.41a8.53,8.53,0,0,0-1,.12c-.3.07-.61.21-.21.52.3.62,1.09.56,1.69.76C451.1,327.37,452,326.79,451,326.41Z"></path><path class="cls-1" d="M451.38,298.45c.07-.21-.28-.31-.54-.29a1.09,1.09,0,0,0-1,.59c-.07.18.28.2.53.23C450.83,298.93,451.27,298.79,451.38,298.45Z"></path><path class="cls-1" d="M427.22,375a3.94,3.94,0,0,0,2.67.1A5.57,5.57,0,0,0,427.22,375Z"></path><path class="cls-1" d="M429.87,353.92c1.5.47,1.5.47,2.24,0C431.41,353.57,430.77,353.9,429.87,353.92Z"></path><path class="cls-1" d="M91.26,299.33c0-.39-.42-.14-.61-.24-.35,0-.83-.09-.82.29s.44.29.69.29S91.23,299.59,91.26,299.33Z"></path><path class="cls-1" d="M449.49,356.76c-.28.06-.76.09-.45.6.36-.49.93-.32,1.57-.17A.91.91,0,0,0,449.49,356.76Z"></path><path class="cls-1" d="M260.16,376.22s0,.19,0,.22a1.49,1.49,0,0,0,1.44-.08C261,376.23,260.59,375.91,260.16,376.22Z"></path><path class="cls-1" d="M437,305.78a1.14,1.14,0,0,0,1.06.39c.15,0,.18-.16,0-.25A1,1,0,0,0,437,305.78Z"></path><path class="cls-1" d="M481.22,310c.39.14.79.33,1.17.11,0,0,0-.19,0-.21A1.07,1.07,0,0,0,481.22,310Z"></path><path class="cls-1" d="M486.8,316.1c0,.21.28.23.49.25s.4-.05.44-.24-.28-.23-.5-.24S486.78,315.89,486.8,316.1Z"></path><path class="cls-1" d="M464.76,326.24a1.1,1.1,0,0,0-1-.1c-.15.08-.08.2.06.25A.8.8,0,0,0,464.76,326.24Z"></path></g><g id="Calque_5" data-name="Calque 5"><path class="cls-2" d="M352.45,116.42a13.66,13.66,0,0,0-13.66-13.66h-3.42V113a6.83,6.83,0,0,1-6.84,6.83H321.7a6.83,6.83,0,0,0,6.83-6.83V92.5a6.83,6.83,0,0,0-13.66,0v10.26H297.78V113a6.83,6.83,0,0,1-6.84,6.83h-6.83a6.83,6.83,0,0,0,6.83-6.83V92.5a6.83,6.83,0,1,0-13.66,0v10.26H256.77V113a6.83,6.83,0,0,1-6.83,6.83H243.1a6.83,6.83,0,0,0,6.84-6.83V92.5a6.84,6.84,0,0,0-13.67,0v10.26H219.18V113a6.83,6.83,0,0,1-6.83,6.83h-6.84a6.83,6.83,0,0,0,6.84-6.83V92.5a6.84,6.84,0,0,0-13.67,0v10.26H188.43a13.67,13.67,0,0,0-13.67,13.66v20.51H352.45Z"></path><path class="cls-2" d="M342.2,215.52a37.59,37.59,0,1,0,37.59,37.59A37.59,37.59,0,0,0,342.2,215.52Zm0,44.43a6.79,6.79,0,0,1-2.47-.48l-12.48,10L323,264.11l12.49-10a6.65,6.65,0,0,1-.1-1,6.78,6.78,0,0,1,3.42-5.88V225.78h6.83v21.45A6.81,6.81,0,0,1,342.2,260Z"></path><path class="cls-2" d="M188.43,270.2H301.2a44.42,44.42,0,0,1,23.91-58.09H308V191.6h20.5v19.25a43.75,43.75,0,0,1,23.92-.92V143.76H174.76V256.53A13.67,13.67,0,0,0,188.43,270.2ZM308,154h20.5v20.51H308Zm-37.59,0h20.5v20.51h-20.5Zm0,37.59h20.5v20.51h-20.5Zm0,37.59h20.5V249.7h-20.5ZM232.85,154h20.51v20.51H232.85Zm0,37.59h20.51v20.51H232.85Zm0,37.59h20.51V249.7H232.85ZM195.26,154h20.51v20.51H195.26Zm0,37.59h20.51v20.51H195.26Zm0,37.59h20.51V249.7H195.26Z"></path></g></svg> 