<?xml version="1.0" encoding="UTF-8"?> <!-- Generator: Adobe Illustrator 23.0.2, SVG Export Plug-In . SVG Version: 6.00 Build 0) --> <svg xmlns="http://www.w3.org/2000/svg" xmlns:xlink="http://www.w3.org/1999/xlink" version="1.1" id="Calque_1" x="0px" y="0px" viewBox="0 0 1029 922" style="enable-background:new 0 0 1029 922;" xml:space="preserve"> <style type="text/css"> .st0{fill:#5E95C6;} .st1{fill:#FFFFFF;} .st2{fill:#F70000;} </style> <g id="Calque_3"> <path class="st0" d="M108.5,494.3L108.5,494.3L108.5,494.3L108.5,494.3L108.5,494.3z M88.2,482.9L88.2,482.9 C88.2,482.8,88.2,482.8,88.2,482.9C88.2,482.8,88.2,482.9,88.2,482.9L88.2,482.9z M117.2,311.8c0,0-0.1,0-0.1-0.1 c0.1-0.2,0.5-0.4,0.8-0.6c-0.4,0.4-0.2,0.8,0.1,1.1c0.3,0.2,0.7,0.3,1.1-0.1c0.1-0.1,0.4,0.1,0.1,0.1 C118.1,312.7,117.6,312.3,117.2,311.8L117.2,311.8z M118.3,310.7c0.1,0,0.2,0.1,0.3,0.2c0,0,0,0,0,0.1c-0.1,0-0.2,0-0.3-0.1 c-0.1,0-0.1,0.1-0.2,0.1C118.2,310.9,118.2,310.8,118.3,310.7L118.3,310.7z M114.6,323L114.6,323L114.6,323L114.6,323L114.6,323 L114.6,323z M98.6,336.9C98.6,336.9,98.7,336.9,98.6,336.9c0.8,0.1,1.9-0.3,2.3,0.4C100.1,337.3,99.4,337.1,98.6,336.9L98.6,336.9z M91.3,342.4c0.4-0.8,1.6-1.2,1.5-2c1,0.1,1.9-0.9,2.9-0.9C94.3,340.5,93,341.5,91.3,342.4L91.3,342.4z M128.1,313.3 C128.2,313.3,128.2,313.3,128.1,313.3C128.2,313.3,128.2,313.3,128.1,313.3L128.1,313.3L128.1,313.3z M311.7,608.5 c0,0.1,0,0.3,0,0.4c-0.1-0.1-0.2-0.2-0.2-0.3C311.5,608.5,311.6,608.5,311.7,608.5L311.7,608.5z M321.2,613.8 C321.2,613.8,321.2,613.9,321.2,613.8c0,0.1-0.1,0.1-0.1,0.1C321.1,613.9,321.1,613.8,321.2,613.8L321.2,613.8z M158.3,279.8 c1.1,0.2,2.3-0.6,3.3-0.6c-0.5,0.2-1.3,0.2-1.6,0.8c0,0,0,0-0.1-0.1c-0.5-0.1-1.1,0.1-1.7,0.2C158.2,280,158.3,279.9,158.3,279.8 L158.3,279.8z M160.5,274.2c0.1-0.1,0.3-0.1,0.4-0.2c-0.1,0.8,0.5,1.7-1.2,2.4C160.1,275.6,161.6,274.9,160.5,274.2L160.5,274.2z M163,276.9c-0.4,0.3-0.6,0.1-0.9,0c-0.1,0-0.1,0-0.1-0.1l0,0C162.2,277,162.7,276.7,163,276.9L163,276.9z M331.7,616.1 c0.1,0,0.2,0.1,0.2,0.1c-0.1,0-0.1,0.1-0.2,0.1l0,0C331.8,616.2,331.7,616.2,331.7,616.1L331.7,616.1z M173.6,271.4 c-0.2,0.1-0.5,0.2-0.7,0.2C172.9,271.1,173.3,271.2,173.6,271.4L173.6,271.4z M199.8,244.7c0.1,0,0.2-0.1,0.3-0.1 C200,244.7,199.9,244.7,199.8,244.7C199.8,244.8,199.8,244.7,199.8,244.7L199.8,244.7z M285.1,189c0.1,0,0.1,0,0.2,0.1 c-0.1,0-0.2,0-0.3,0C285,189.1,285.1,189.1,285.1,189L285.1,189z M298.5,179.8c0.9-1.4,2.6-1.2,3.9-1.8c0.3-0.1,0.3,0.4,0.3,0.6 c-0.9,0.5-2,0.8-3,1.8c1.6-0.1,2.6-0.6,3.5-1.3l0,0c0.3,0,0.6-0.1,0.8-0.3c0-0.1,0.1-0.1,0.1-0.2c0.5,0.1,0.9,0.3,0.8,0.8 c-0.1,0-0.3,0.1-0.4,0.1c-1.6,0.4-3.2,1.1-4.8,1.6c-0.1,0-0.1,0-0.2,0.1C299.4,180.5,298.9,180.2,298.5,179.8L298.5,179.8 L298.5,179.8z M359.8,151.2L359.8,151.2L359.8,151.2L359.8,151.2L359.8,151.2z M359.7,150.5C359.8,150.5,359.8,150.5,359.7,150.5 C359.8,150.5,359.8,150.5,359.7,150.5L359.7,150.5L359.7,150.5L359.7,150.5z M359.2,146h0.1C359.3,146,359.2,146,359.2,146 L359.2,146L359.2,146L359.2,146z M665.9,758.2L665.9,758.2L665.9,758.2L665.9,758.2L665.9,758.2z M666.5,758.8 C666.5,758.8,666.6,758.8,666.5,758.8C666.6,758.8,666.6,758.8,666.5,758.8L666.5,758.8L666.5,758.8L666.5,758.8z M371.7,143.2 c0.2,0,0.3,0,0.5,0.1c-0.1,0.1-0.2,0.1-0.4,0.2C371.7,143.4,371.7,143.3,371.7,143.2L371.7,143.2z M755.5,735.4 c-0.5-0.2-0.7-0.5-0.9-0.8C754.8,734.9,755.2,735.2,755.5,735.4L755.5,735.4z M754.3,733.7C754.3,733.7,754.4,733.7,754.3,733.7 L754.3,733.7L754.3,733.7L754.3,733.7z M763.6,723.5c0.4-0.1,0.8-0.2,1.4-0.4c-0.1,0.1-0.1,0.3-0.2,0.4c-0.7,0.1-1.1,0.2-1.1,0.1 L763.6,723.5L763.6,723.5z M763.3,720.6c-0.1-0.1-0.2-0.1-0.3-0.1c0.6-0.1,1.6-0.4,2.9-0.7c0,0,0,0.1-0.1,0.1 c-0.2,0.4,0,0.8,0.5,0.9c-2.2,0.6-3.5,0.9-3.4,0.8C763.4,721.2,763.5,720.9,763.3,720.6L763.3,720.6z M759.4,713.7L759.4,713.7 L759.4,713.7L759.4,713.7L759.4,713.7z M760.2,711.6c0.6-0.6,1-0.6,1.5-0.4C761.1,711.3,760.7,711.5,760.2,711.6L760.2,711.6 L760.2,711.6z M769,722c0.7-0.2,1.5-0.4,2.3-0.7l0.1,0.1c-0.2,0.2-0.4,0.4-0.4,0.6c-1,0.2-1.9,0.5-2.7,0.7 C768.5,722.4,768.7,722.2,769,722L769,722z M766.1,711.9L766.1,711.9L766.1,711.9L766.1,711.9L766.1,711.9L766.1,711.9L766.1,711.9 z M769,708.9c0-0.6,0.7,0.1,1.2-0.1c0.9,0,1.5-0.6,2.2-0.9c1.4,0.4-0.2,0.9-0.4,1.1c-0.7,0.5-1.4,0.8-0.9,1.4 c-1.4,0.4-2.7,0.8-3.9,1.2C766.4,710.6,769,709.8,769,708.9L769,708.9z M764.9,705.3L764.9,705.3 C764.8,705.3,764.8,705.3,764.9,705.3C764.8,705.3,764.9,705.3,764.9,705.3L764.9,705.3z M767.7,707.9L767.7,707.9L767.7,707.9 L767.7,707.9L767.7,707.9z M766.4,708.5L766.4,708.5L766.4,708.5L766.4,708.5L766.4,708.5L766.4,708.5L766.4,708.5L766.4,708.5z M777.5,716.4c1-0.3,2-0.6,3-0.9c0.1,0.1,0.1,0.2,0.2,0.2c0.2,0,0.3-0.2,0.4-0.4c0.4-0.1,0.8-0.2,1.2-0.4c0.4,0.4,0.3,1,1.3,0.8 c-1.6,0.5-3.2,0.9-4.7,1.3c-0.2,0-0.4,0-0.6,0.1c-0.1,0-0.3,0.1-0.4,0.2c-1.4,0.4-2.8,0.8-4,1.1c0.1-0.1,0.2-0.2,0.3-0.2 C775.9,718.1,776.9,717.4,777.5,716.4L777.5,716.4z M775,708.3L775,708.3C775,708.4,775,708.4,775,708.3L775,708.3L775,708.3z M771.9,719.1c0-0.1-0.1-0.1-0.1-0.2c0.2,0,0.4,0,0.6,0C772.3,719,772.1,719,771.9,719.1L771.9,719.1z M773.6,723.4 c-0.4,0-0.4-0.2-0.4-0.5C773.4,723.1,773.5,723.2,773.6,723.4L773.6,723.4z M787.1,703.4c1.3-0.9,3-0.3,4.3-1.1 c0.7-0.2,0-0.9,0.8-1.1c1.8-0.5,0.8-0.9,0.2-1.3c0.5-0.9,1.8-0.4,2.5-1.1c1.4-0.4,1.5,0.5,2.1,0.9c1.1,0.8,2.1,0.3,3.2-0.4 c0.9,0.2,0.9,1,1.4,1.5c0,0.2-0.1,0.5-0.1,0.6c-5,1.4-12.2,3.5-19.2,5.6C784.3,706.1,785.4,704.5,787.1,703.4L787.1,703.4z M801.8,698.8c0.1-0.1,0.1-0.2,0.1-0.3l0,0c1.2-0.3,0.9-1.2,1.2-1.9c0.7-0.1,0.3-2.1,1.7-0.7c0.1,0.1,0.2,0.3,0.3,0.4 c-0.3,0.8,0.4,1.3,0.3,2c-0.7-0.1-1.4,0.3-2.1,0.5c-0.3,0-0.7,0.1-1,0c-0.1,0-0.2,0.1-0.3,0.1C801.9,699,801.9,698.9,801.8,698.8 C801.9,698.8,801.8,698.8,801.8,698.8L801.8,698.8z M811,688.8c-0.7-0.2-1.5-0.1-2.3,0.2c-1.1,0.4-1.9,1.2-3.1,1.3 c-0.3-0.3-1.5-0.1-1.1-0.8c0.3-0.6,1-0.1,1.5-0.2c0.2-0.1,0.4-0.2,0.6-0.2c0.6-0.2,1.3-0.4,1.9-0.7c0.6-0.3,1.5-0.9,1.2-1.3 c-0.6-0.8-1.1,0.3-1.7,0.5c-0.4,0.1-0.7,0.3-1,0.5c-0.5-0.3-1.1,0.3-1.8,0.2c-1.2-0.3-1.9,0.5-2.2,1.4c-0.2,0.1-0.5,0.2-0.7,0.3 c-0.4-0.6-0.6-1.3-0.3-1.9c0.3-0.2,0.6-0.4,1-0.5c3.7-0.6,6.8-2.1,9.8-4.1c0.4-0.5,0.9-0.8,1.5-1.2c0,0,0,0,0.1,0 c0.3,0,0.5,0,0.8,0.2c0.9,0.6,1.4,0.1,1.8-0.5c0.3-0.4,0.4-0.9,1-1.2c1.5,0.6,1.4,1.9,1.9,2.9c0,0.1,0,0.2,0,0.2 c-0.1,0-0.2,0.1-0.2,0.1c-2.6-0.7-2.5,1.5-3.7,2.2c-0.4,0.2-1,0.8-0.4,1.2c0.5,0.3,1.3,0.4,1.8,0c0.9-0.7,2.1-0.9,3.2-1.2 c0.1,0.6-0.2,1.5,1.4,0.7l0,0c0,0.3,0,0.6-0.1,0.9c-0.2,0.1-0.5,0.2-1.1,0.4c-1.4,0.3-1.3-1-2.3-0.7c-1.5,0.5,0.7,1.5-0.9,2.1 c-0.2,0.1-0.4,0.3-0.4,0.4c-0.3,0.6,0.2,1.1,0.6,1.4c0.5,0.5,0.9-0.2,1.2-0.4c1.3-0.8,2.5-1,3.9-0.5c1.1,0.4-0.1,1.1,0,1.7 c-0.1,0.1-0.1,0.3-0.1,0.4c0,0,0,0,0.1,0c-0.3,0.5-1.5,0.6-1.2,1.3h0.1c0.5,0.2,0,1.9,1.5,0.4c0.9,0.4,1.6-0.3,2.4-0.6 c0.1,0,0.1,0,0.2,0c-0.2,0.2-0.3,0.4,0,0.6c-0.2,0-0.4,0-0.6,0.2l0,0c-1.5,0-3,0.8-4.6,0.7c0,0-0.1,0-0.1,0.1 c0.6-0.6,1-1.3-0.4-1.5c0,0.1-0.1,0.1-0.1,0.2v-0.1l0,0c0-0.6-1-0.3-1.1-0.8c-0.1-0.3,0.2-0.8-0.5-0.7c-0.5,0.1-0.7,0.4-0.8,0.8 c-0.2,0.5-0.4,1-0.7,1.5c-0.1,0.2-0.2,0.5-0.3,0.7c0,0-0.1,0-0.1-0.1c-1.9-0.4-3.6,0.3-5.2,1.2c0,0.1,0,0.2,0,0.3c0,0,0,0-0.1-0.1 c-1.1,0.4-1.4,1-1.4,1.7c-0.9,0.4-1.5,2-2.8,0.8c-0.1-0.1-0.2-0.2-0.3-0.3c0.1-0.6,0.4-1.2,1.2-1.7c0.3-0.9-0.6-1.8,0.7-2.8 c0.5-0.7,0.9-1.4,1-2.2c0.3-0.2,0.5-0.5,0.8-0.6C812.4,690.5,812.5,690,811,688.8L811,688.8z M812.9,674.5 C812.8,674.5,812.8,674.5,812.9,674.5C812.8,674.6,812.8,674.5,812.9,674.5C812.8,674.5,812.8,674.5,812.9,674.5L812.9,674.5z M812.8,676L812.8,676L812.8,676L812.8,676L812.8,676z M815.3,670.7L815.3,670.7L815.3,670.7C815.3,670.7,815.3,670.8,815.3,670.7 C815.3,670.8,815.3,670.8,815.3,670.7L815.3,670.7z M805.7,698.8L805.7,698.8L805.7,698.8L805.7,698.8L805.7,698.8L805.7,698.8 L805.7,698.8L805.7,698.8L805.7,698.8z M806,702.1c0-0.1-0.1-0.1-0.1-0.2c0-0.1,0-0.2-0.1-0.4c0.1,0,0.2-0.1,0.3-0.2 C806.5,701.4,806.3,701.7,806,702.1L806,702.1z M793,707.5c0.3-0.3,0.7-0.5,1-0.6C793.7,707.2,793.4,707.4,793,707.5L793,707.5z M786.8,709.2L786.8,709.2L786.8,709.2L786.8,709.2L786.8,709.2L786.8,709.2C786.8,709.1,786.9,709.1,786.8,709.2 C786.9,709.1,786.9,709.2,786.8,709.2L786.8,709.2z M784.9,709.9C784.9,709.8,784.9,709.8,784.9,709.9L784.9,709.9 c0.1,0,0.2,0,0.2,0C785,709.9,785,709.9,784.9,709.9L784.9,709.9z M822.1,680.9C822.1,680.9,822.1,681,822.1,680.9 C822.2,681,822.1,681,822.1,680.9C822.1,681,822.1,681,822.1,680.9C822.1,681,822.1,681,822.1,680.9L822.1,680.9z M820.8,676.8 L820.8,676.8L820.8,676.8L820.8,676.8C820.8,676.8,820.8,676.7,820.8,676.8C820.9,676.8,820.8,676.8,820.8,676.8L820.8,676.8 L820.8,676.8L820.8,676.8L820.8,676.8z M822,676.2L822,676.2L822,676.2L822,676.2L822,676.2z M815.2,634.3L815.2,634.3 c-0.2,0.1-0.3,0.1-0.5,0.2C814.9,634.4,815,634.3,815.2,634.3L815.2,634.3z M834.9,670.9C834.8,670.9,834.8,670.9,834.9,670.9 c-0.2,0-0.2,0-0.3,0C834.6,670.9,834.8,670.9,834.9,670.9L834.9,670.9z M821,634.4C821,634.4,821,634.5,821,634.4 C820.9,634.5,820.9,634.4,821,634.4C821,634.4,821,634.4,821,634.4L821,634.4z M839.3,666.6L839.3,666.6 C839.3,666.7,839.3,666.7,839.3,666.6C839.3,666.7,839.3,666.6,839.3,666.6L839.3,666.6z M843.6,675L843.6,675L843.6,675L843.6,675 L843.6,675z M844.5,674.7L844.5,674.7c0,0.1-0.1,0.1-0.2,0.1C844.3,674.8,844.4,674.8,844.5,674.7L844.5,674.7z M550.6,73.4 C550.7,73.4,550.7,73.4,550.6,73.4C550.7,73.4,550.7,73.5,550.6,73.4C550.6,73.5,550.6,73.4,550.6,73.4L550.6,73.4z M827,622.5 L827,622.5L827,622.5L827,622.5L827,622.5z M620.2,186.9c-0.1,0-0.1,0.1-0.2,0.1h-0.1C620,187,620.1,187,620.2,186.9L620.2,186.9z M834.9,617.1L834.9,617.1L834.9,617.1C834.8,617.1,834.9,617.1,834.9,617.1L834.9,617.1z M837.7,619.6L837.7,619.6 C837.7,619.7,837.6,619.7,837.7,619.6C837.6,619.6,837.6,619.6,837.7,619.6L837.7,619.6z M628.1,181.7L628.1,181.7L628.1,181.7 L628.1,181.7L628.1,181.7z M805,537.2L805,537.2L805,537.2C805.1,537.2,805,537.2,805,537.2L805,537.2L805,537.2z M636.1,179.5 L636.1,179.5L636.1,179.5L636.1,179.5L636.1,179.5z M633,31.1L633,31.1L633,31.1L633,31.1L633,31.1L633,31.1L633,31.1z M663.6,157.6c0,0.1,0,0.1,0,0.2V157.6C663.5,157.7,663.5,157.7,663.6,157.6L663.6,157.6z M675.8,117.6c0.1-0.1,0.3-0.1,0.4-0.2 c0.7-0.3,1.3-0.6,1.9-1.1c0.1-0.1,0.1-0.2,0.2-0.2c0.5,0,0.9-0.3,0.9-0.5c0-1.3,1.3-1.1,2-1.5c0.2-0.1,0.4-0.2,0.5-0.3 c0.1,0,0.2,0,0.4,0c-0.1,0.6-1.4,1.2-0.7,1.6c0.1,0.1,0.2,0.2,0.3,0.2c-0.1,0.1-0.2,0.2-0.3,0.3c-0.1,0.2-0.7,0.1-1,0.2 c-1,0.4-2.1,0.7-3.1,1.2c-0.4,0.2-0.9,0.5-1.3,0.7c-0.4,0.1-0.8,0.3-1.2,0.2C675.2,118.1,675.6,117.9,675.8,117.6L675.8,117.6z M710.7,108.5L710.7,108.5C710.7,108.6,710.6,108.6,710.7,108.5C710.6,108.6,710.7,108.6,710.7,108.5L710.7,108.5z M726.9,102.5 L726.9,102.5L726.9,102.5L726.9,102.5L726.9,102.5z M650.9,170.9c-0.1,0.1-0.2,0.1-0.4,0.2C650.5,171,650.6,170.9,650.9,170.9 L650.9,170.9z M815.6,538.3c0.8-0.6,2-0.7,2.8-1.3c7.5-2.5,15-4.8,22.5-7.4c1.6-0.8,3.1-1.7,4.9-2c0.3-0.1,0.6-0.2,0.8-0.3 c0.4-0.1,0.7-0.2,1.1-0.3c0.4-0.1,0.9-0.3,1.3-0.5c0.6-0.2,1.3-0.4,1.9-0.6c0.1,0,0.3,0,0.5,0c1.1,0.1,2.2-0.1,3.1-0.9 c0.2-0.2,0.4-0.3,0.6-0.5c0.6-0.2,1.3-0.4,1.9-0.6c0.2,0,0.4-0.1,0.6-0.1c2.2-0.3,4.2-1.3,6.3-2c2.4-0.9,4.7-1.9,7.2-2.1 c1.4-0.1,2.7-0.4,3.9-1.1c1.4-0.8,3-1.4,4.7-1.8c4.2-1,8.5-1.8,12.1-4.2c0.3-0.2,0.7-0.2,1.1-0.3c0.5,0,1,0,1.5-0.1 c-0.3,0.1-0.5,0.3-0.8,0.3c-0.2,0-0.4,0.1-0.7,0.2c-2.2,0.7-0.9,2.2-2.1,3.1c-2.6-1.1-4.8-0.8-6.8,0.8c-0.2,0-0.4,0.1-2.7-4l0,0 c-0.2,4.3-4.7,6.3-6.4,7.9l0,0c-1.5,0.9-3.5,0.8-4.6,2.4l-0.2,0.1c-0.5-0.4-0.9-0.4-1.2-0.4c-2.2,0.2-4.2,1.7-6.4,1.6 c-2.7-0.2-4.8,0.9-7,2c-1.8,0.9-3.5,1.8-5.5,1.7c-1,0-1.9,0.4-2.7,1c-1.4,1-1.9,2.2-2.3,3.4c-1.2,0.8-2.2,0.9-3.2,0.5l-0.1-0.1 c-0.7-0.6-1.8-0.9-2.7-1.4c-1.8,0.4-3.7,0.5-5.3,1.6c-1.5,0-2.5,0.7-3.3,1.7c-0.1,0.1-0.3,0.1-0.4,0.2c-0.1,0-0.3-0.1-0.4-0.1 c-1.6-0.2-3.2,0.5-4.8,0.8c-0.2,0-0.5,0-0.7,0.1c-1.8,0.3-3.4,0.9-4.8,2c-0.9,0.7-2,1-3.1,1.4c-0.9,0.3-1.8,0.5-2.6,0.8 C814.4,539.2,815,538.8,815.6,538.3L815.6,538.3z M654.6,208.1c-1.4-0.3,0.1-1-0.3-1.4c0-0.1,0-0.2,0-0.3c1.4-0.7,2.7-1.3,4.1-2 c0.1,0.3,0.8,0.5,1.2,0.8c0.5,0.3,0.5,0.7,0.2,1c-1.4,1.4-0.3,1.2,0.8,1.2c0.9,0,1.3,0.3,1.2,1.2c0,0.3,0.9,1,0.2,1.1 c-2,0.3-2.7,1.8-4,2.8c-0.7,0.5-1.3,0.2-1.8-0.2s-0.5-1-0.3-1.5C656.9,208.9,656.8,208.8,654.6,208.1L654.6,208.1z M663,202.1 c0.3-0.2,0.6-0.3,0.9-0.5c-0.4,0.4-0.6,0.8-0.6,1.7C663.1,202.8,663.4,202.3,663,202.1L663,202.1z M665.3,200.8 c0.2-0.1,0.4-0.2,0.6-0.3c0.1,0.1,0.2,0.3,0.1,0.5c-0.5,0-0.9,0.1-1.3,0.2C664.9,201,665.1,200.9,665.3,200.8L665.3,200.8z M684.2,216.3L684.2,216.3C684.3,216.3,684.3,216.3,684.2,216.3C684.3,216.3,684.3,216.3,684.2,216.3L684.2,216.3L684.2,216.3z M838.2,525.3C838.2,525.3,838.2,525.2,838.2,525.3c0.4,0,0.6-0.1,0.9-0.2c-0.3,0.3-0.6,0.7-1.2,0.5 C838,525.5,838.1,525.4,838.2,525.3L838.2,525.3z M896.2,511.1c0.7-0.6,1.6-0.9,2.6-1.1c0.2,0,0.4-0.1,0.7-0.2 c3.8-0.6,7.3-2.2,10.9-3.4c0.8-0.3,1.5-0.7,1.8-1.4c0,0,0,0-0.1,0h0.1l0,0l0,0l0,0c0.1,0,0.2,0.1,0.3,0.1c0.2,0,0.5-0.1,0.7-0.1 c0.9,0.2,1.8,0.7,2.7-0.2c0.6-0.6,1.3-1,1.9-1.5c0.4-0.2,0.8-0.3,1.2-0.5c1.1-0.4,2.1-1,3.2-1.1c2.2-0.2,3.8-1.3,5.1-2.6 c0.1-0.1,0.3-0.1,0.4-0.2c0.6,0.7,0.9,0.6,2.6,0.1c1.8-0.6,3.6-1.6,5.6-1.3c-0.6,0.7-1.4,1.1-2.2,1.5c-0.6,0.3-1.5,0.6-1.3,1.3 h-0.1c-0.3,0-0.6,0-0.9,0.1l0,0c-1.6-0.4-2.4-0.1-3.6,1.2c-1.1,1.2-2.2,2.3-4.3,1.8c-0.3-0.1-0.7,0-1.1,0.2 c-3.4,1.6-7.4,2.2-10.2,4.7l0,0c-1.9-0.9-4-0.8-5.7,0.4c-0.2,0-0.3,0.1-0.5,0.1c-0.6,0.2-1.1,0.5-1,1c-0.1,0.1-0.2,0.3-0.2,0.4 c0-0.1,0-0.3,0-0.5c-1,0.2-1.1,0.7-1.3,1.3c-0.3,1.1-1.1,1.7-2.6,1.6c-0.1,0-0.2,0-0.3,0l0,0c1-0.4,0.6-1.3,1.6-1.7 c0.4-0.2,0.3-0.5,0-0.7c-0.3-0.1-0.7-0.1-1,0.2c-0.2,0.3,0,1-0.8,0.8c-1.5-0.3-1.5,0.5-1.8,1.2c0,0.1,0,0.2,0,0.3 c0.1,0.1,0.1,0.1,0.2,0.2c-0.4,0.4-0.7,0.9-1.1,1.3c-0.1,0-0.2,0.1-0.3,0.1c-0.6-0.4-1.4,0-2.1,0.2c-0.6,0.1-1.2,0.1-1.5-0.3 c-0.3-0.4,0.2-0.7,0.6-1.1c0.5-0.4,1.3-0.8,1-1.3c-0.1-0.2-0.3-0.2-0.4-0.3C895.4,511.7,895.9,511.5,896.2,511.1L896.2,511.1z M943.7,535.1c0.1,0,0.1-0.1,0.2-0.1h0.1C943.9,535.1,943.8,535.1,943.7,535.1L943.7,535.1z M939.7,536c0.1,0,0.1-0.1,0.2-0.1 c0,0,0,0.1,0.1,0.1C939.9,536,939.8,536,939.7,536L939.7,536z M915.1,507.8C915,507.8,915,507.8,915.1,507.8 C915,507.8,915,507.8,915.1,507.8C915,507.8,915,507.8,915.1,507.8L915.1,507.8L915.1,507.8z M910.6,512.6 C910.5,512.5,910.6,512.5,910.6,512.6C910.6,512.5,910.6,512.5,910.6,512.6L910.6,512.6z M912.9,551.9 C912.8,551.9,912.9,551.9,912.9,551.9C913,551.8,912.9,551.9,912.9,551.9L912.9,551.9z M902.4,569.3c-0.2,0.2-0.4,0.5-0.7,0.8 c0.8,0.1,1.4,0.3,2.1,0.4h0.1c0,0.7-1.4,0.3-1.5,0.9l0,0c-0.1,0-0.1,0-0.2-0.1c-0.4,0.2-0.6,0.5-0.5,0.7c0.5,1.2-0.4,2-1.6,2.7 c-0.2-0.2-0.5-0.4-1-0.4c-0.3-0.9,0.9-1.2,1.5-1.6c0.8-0.5,1.1-1.3,0.4-1.3c-1.5,0-1.2-1-2-1.4c-1.5-0.8-3.3,0.1-5,0.2 c-0.1-1.3,1.1-1.8,2.5-2.1c0.7-0.1,1.3,0.1,1.7-0.6c1.2-0.5,2.2-0.3,3.4-0.2C904.2,567.7,903.3,568.3,902.4,569.3L902.4,569.3z M901.6,583C901.6,583.1,901.6,583.1,901.6,583c-0.1,0.4,0.2,0.6,0.5,0.7c-0.5,0.1-0.9,0-1.4-0.1c0.2-0.2,0.2-0.4-0.1-0.5 C900.9,582.9,901.2,582.9,901.6,583L901.6,583z M898.5,583.4c0-0.4,0-0.8-0.1-1.3c0.2,0.4,0.3,0.8,0.7,1 C898.9,583.2,898.7,583.3,898.5,583.4L898.5,583.4z M891.2,574.8c-0.4,0.9,0.9,1.4,0.7,2.2c-0.3,0.4-0.7,0.7-1,1.1 c-0.1,0-0.1,0-0.2,0c-0.8,0.7-1.6,1.4-2.8,1.5c-0.9,0.1-1.5,0.6-1.9,1.2l0,0c-2.3,0.5-2.8,2.5-4.7,3.3l0,0 c-1.1-0.1-1.8,0.5-2.5,1.1c-0.2,0.2-0.2,0.3-0.1,0.4h-0.1l-0.1,0.1h-0.1l0,0c-0.1-0.1-0.2-0.1-0.3-0.1c-0.9,0-1.8,0.6-2.6,0.6 c-1.7-0.1-3.3,0.3-4.8,1.3c-0.5,0.3-1,0.4-1.3,0.1c0,0,0.1,0,0.1-0.1c0.3-0.3,0.5-0.5,0.5-0.8c0.1,0,0.2-0.1,0.3-0.1 c1.1-0.5,2.6-0.9,2.8-2c0.2-1,1-1.6,1.9-2.1c0,0.1,0,0.1-0.1,0.2c-0.3,0.6-0.4,1,0.4,1.2c0.4,0.1,0.8-0.1,1-0.4 c0.4-0.5,0.8-1,0-1.3c-0.3-0.1-0.4-0.2-0.4-0.3c0.2-0.1,0.5-0.3,0.7-0.4c0.9-0.6,2.4-1.1,1-2.1c-0.1,0-0.1,0-0.2,0 c0.3-0.4,1-0.6,0.8-1.1l0.1-0.1c0.6-0.2,1.2-0.4,1.8-0.4c-0.6,1.6,0.6,1.6,2.3,1.3c1.5-0.3,3-0.5,4.2-1.4c1.4-0.1,1.1-0.6,1.1-1.3 c-0.1-1,0-2,1.8-2.3l0,0c0.5-0.1,1-0.5,1.5-0.3C890.9,574.2,891,574.5,891.2,574.8L891.2,574.8z M860.2,594 C860.3,594,860.3,594,860.2,594c0.1-0.1,0.1,0,0.2,0C860.4,594,860.3,594,860.2,594L860.2,594z M861.9,600c0-0.3,0.1-0.5,0.4-0.7 C862.2,599.6,862,599.8,861.9,600L861.9,600z M856.5,601.7L856.5,601.7L856.5,601.7C856.4,601.7,856.5,601.7,856.5,601.7 L856.5,601.7z M694.1,178.8L694.1,178.8C694.1,178.8,694.1,178.9,694.1,178.8C694.1,178.9,694.1,178.8,694.1,178.8L694.1,178.8z M771.7,386.8c-0.1,0-0.2,0.1-0.2,0.1h-0.1C771.4,386.9,771.6,386.8,771.7,386.8L771.7,386.8z M689.3,197.2 c-0.2,0.6-0.5,1.3,0.1,1.9c0.1,0.1,0.3,0,0.5,0.1c1.5,0.2,3.2-1.6,4.5,0.4c-0.3,0.4-0.7,0.3-1.1,0.4c-3.8,0.5-5.3,0.2-6.3-1.8 C687.7,197.9,688.5,197.6,689.3,197.2L689.3,197.2z M782,380.9L782,380.9L782,380.9L782,380.9L782,380.9z M698.3,193.4 c2-0.9,4.1-1.8,6.1-2.7c0,0.4,0,0.9,0,1.3c0,0.5,0,1-0.5,1.3c-1.8,0.9-2.8,3.4-5.6,2C698.9,194.2,698.7,193.7,698.3,193.4 L698.3,193.4z M790.3,380.2L790.3,380.2L790.3,380.2L790.3,380.2L790.3,380.2z M822.1,356.3c0,0.1,0,0.2,0,0.2s-0.1-0.1-0.2-0.2 C821.9,356.3,822,356.3,822.1,356.3L822.1,356.3z M761.5,177.5c0.2-0.2,0.5-0.3,0.7-0.4c0.1,0.2,0.2,0.4-0.3,0.6 c-0.2-0.1-0.4,0-0.6,0C761.3,177.6,761.4,177.6,761.5,177.5L761.5,177.5z M779.4,175.2L779.4,175.2L779.4,175.2L779.4,175.2 L779.4,175.2L779.4,175.2z M834.8,303.8c0.2-0.1,0.3-0.1,0.5-0.2c0.8-0.2,1.6-0.5,2.2-1.1c0.1-0.1,0.2-0.2,0.2-0.3 c0.5,0,1.1-0.1,1.1-0.4c-0.1-1.8,1.5-1.2,2.4-1.5c0.2-0.1,0.4-0.2,0.6-0.3c0.1,0,0.3,0.1,0.4,0.1c-0.1,0.8-1.7,1.3-0.8,2.1 c0.2,0.2,0.3,0.3,0.4,0.4c-0.1,0.1-0.2,0.2-0.3,0.4c-0.1,0.2-0.8,0-1.2,0.1c-1.2,0.3-2.4,0.5-3.6,0.9c-0.5,0.2-1,0.4-1.5,0.6 c-0.5,0.1-1,0.2-1.5,0C834.1,304.4,834.5,304.2,834.8,303.8L834.8,303.8z M876,299.3L876,299.3l-0.1,0.1 C875.9,299.3,876,299.3,876,299.3L876,299.3z M895.1,294.6L895.1,294.6L895.1,294.6L895.1,294.6L895.1,294.6z M807.5,371.6 c-0.1,0.1-0.3,0.1-0.4,0.2C807.1,371.7,807.2,371.6,807.5,371.6L807.5,371.6z M836.5,413.2L836.5,413.2 C836.5,413.3,836.5,413.3,836.5,413.2C836.5,413.3,836.5,413.3,836.5,413.2L836.5,413.2z M885,501L885,501L885,501L885,501L885,501 z M845.4,410.3L845.4,410.3L845.4,410.3L845.4,410.3L845.4,410.3L845.4,410.3z M859.5,392.4L859.5,392.4L859.5,392.4L859.5,392.4 L859.5,392.4z M915.9,481.6C915.9,481.6,916,481.6,915.9,481.6c0.1,0.1,0,0.1,0,0.1S915.9,481.7,915.9,481.6L915.9,481.6z M885.7,387.5c0.1-0.3,0.3-0.1,0.6,0c-0.2,0-0.4,0.1-0.7,0.1C885.7,387.6,885.7,387.6,885.7,387.5L885.7,387.5z M944.4,425.3 c0.2,0,0.3-0.1,0.5-0.1c0.1,0,0.1,0,0.2,0C944.8,425.2,944.6,425.2,944.4,425.3L944.4,425.3L944.4,425.3z M952.4,421.4L952.4,421.4 c-0.1,0.1-0.2,0.1-0.2,0.1S952.3,421.5,952.4,421.4L952.4,421.4z M921.5,482.3c0.1,0,0.1,0,0.2,0 C921.6,482.3,921.5,482.3,921.5,482.3L921.5,482.3L921.5,482.3z M978.8,507.5L978.8,507.5C978.8,507.6,978.8,507.5,978.8,507.5 L978.8,507.5L978.8,507.5z M959.8,526.1L959.8,526.1C959.9,526.1,959.8,526.2,959.8,526.1C959.8,526.2,959.8,526.1,959.8,526.1 L959.8,526.1z M964.4,524.8c0.1,0,0.2,0,0.2,0C964.6,524.8,964.5,524.9,964.4,524.8C964.4,524.9,964.4,524.9,964.4,524.8 L964.4,524.8z M902.5,582.3c-0.2,0-0.3,0.1-0.5,0.1c-0.1-0.2-0.2-0.4-0.2-0.4C901.9,582.2,902.2,582.3,902.5,582.3L902.5,582.3z M903.3,583.8C903.3,583.8,903.2,583.8,903.3,583.8c0-0.1,0.2-0.1,0.3-0.2C903.5,583.7,903.4,583.7,903.3,583.8L903.3,583.8z M825,629.5L825,629.5C824.9,629.4,824.9,629.4,825,629.5C824.8,629.3,825.1,629.4,825,629.5L825,629.5z M828.7,629.3L828.7,629.3 c-0.1,0.1-0.1,0.1-0.2,0.1C828.6,629.4,828.7,629.4,828.7,629.3L828.7,629.3z M850.3,652.6L850.3,652.6L850.3,652.6L850.3,652.6 L850.3,652.6z M840.6,628.1c0.1,0.1,0.2,0.2,0.1,0.4l0,0l0,0l0,0l0,0l0,0c-0.1,0-0.1,0-0.2,0.1 C840.5,628.5,840.6,628.3,840.6,628.1L840.6,628.1z M844.5,623.8C844.6,623.8,844.6,623.8,844.5,623.8s-0.1,0-0.2,0 C844.4,623.8,844.5,623.8,844.5,623.8L844.5,623.8z M862.4,659.4c-0.1,0-0.1,0.1-0.2,0.1c0-0.1-0.1-0.1-0.1-0.2 C862.2,659.3,862.3,659.4,862.4,659.4L862.4,659.4z M861.1,642.5L861.1,642.5L861.1,642.5L861.1,642.5L861.1,642.5z M868,639.1 L868,639.1C868.1,639.1,868,639.1,868,639.1L868,639.1L868,639.1L868,639.1z M883.4,664.2C883.5,664.3,883.5,664.3,883.4,664.2 L883.4,664.2L883.4,664.2C883.5,664.3,883.5,664.3,883.4,664.2c-0.2,0.5,0,1-0.4,1.5C882.6,665.2,882.4,664.7,883.4,664.2 L883.4,664.2z M883.4,660.5c1-0.6,1.2-1.2,1.2-2c0.1,0,0.2-0.1,0.3-0.2c0,0,0,0,0.1,0.1c1.8-0.7,3.7,1.1,5.5-0.9 c-0.2,0.7-0.4,1.4,0.9,1.2c0,0,0,0,0.1,0c0.3,0.2,0.6,0.5,0.2,0.7c-1.5,0.5-0.8,1-0.6,1.5c0,0,0,0,0,0.1s0,0.3,0.1,0.3 c-0.2,0.5,0.2,0.7,0.8,0.8c0.1,0,0.1,0,0.2-0.1c0.1-0.2,0.1,0.2-0.1,0.1c-0.9,0-1.7-0.2-2.6-0.2c-0.2-1.5-0.5-1.7-2.1-1.1l0,0 c-1,0.2-1.9,0.7-2.8,0.9c-0.2,0-0.5,0.1-0.7,0.1s-0.4,0.1-0.6,0.1C882.4,661.6,882.1,661.2,883.4,660.5L883.4,660.5z M874.5,640.7 L874.5,640.7L874.5,640.7L874.5,640.7L874.5,640.7z M882.5,642.2C882.5,642.2,882.5,642.3,882.5,642.2 C882.5,642.3,882.5,642.3,882.5,642.2C882.5,642.3,882.5,642.3,882.5,642.2L882.5,642.2z M888,648.2 C888,648.2,888.1,648.2,888,648.2L888,648.2L888,648.2L888,648.2z M888.1,647.2L888.1,647.2L888.1,647.2L888.1,647.2L888.1,647.2z M888.1,647.1C888.1,647.2,888.1,647.2,888.1,647.1C888.1,647.2,888.1,647.2,888.1,647.1C888.1,647.2,888.1,647.1,888.1,647.1 L888.1,647.1z M896.5,629.2L896.5,629.2L896.5,629.2L896.5,629.2L896.5,629.2z M904.6,625.8L904.6,625.8L904.6,625.8L904.6,625.8 L904.6,625.8z M909.3,627.9c0.1,0.1,0.3,0.1,0.5,0.1c0,0-0.1,0-0.1,0.1c-0.5,0.7-1,1.4-2.2,1.4 C907.5,628.6,908.7,628.4,909.3,627.9L909.3,627.9z M916.3,623.4L916.3,623.4L916.3,623.4L916.3,623.4L916.3,623.4z M935,605.1 c-0.7,0.5-1.5,0.8-2.4,1.1C933.4,605.8,934.2,605.4,935,605.1L935,605.1z M965.9,589.9c-0.1,0-0.2,0.1-0.3,0.1 c0.1,0.1-0.1,0.1-0.1,0C965.7,589.9,965.8,589.9,965.9,589.9L965.9,589.9z M786.1,715.9c0,0-0.1,0-0.2,0.1c0,0,0,0-0.1-0.1 C785.9,715.9,786,715.9,786.1,715.9L786.1,715.9z M780.3,725.7L780.3,725.7L780.3,725.7L780.3,725.7L780.3,725.7z M204.3,743.3 c-0.1,0-0.2,0-0.2,0c0.3,0,0.6-0.1,0.9-0.3c0.5-0.4,1.1-0.7,1.8-1C206.4,742.4,205.6,742.8,204.3,743.3L204.3,743.3z M175.1,693.7 L175.1,693.7L175.1,693.7L175.1,693.7L175.1,693.7z M150.8,674.2L150.8,674.2C150.8,674.2,150.8,674.1,150.8,674.2L150.8,674.2 L150.8,674.2z M99.6,648c-0.5,1.1,1.2,1.4,1,2.1c-0.3,0.8-1.4,1.1-2.3,1.1c-1.4,0-2,0.7-2.7,1.9c2.2-0.5,4.2-0.7,6-1.4 c2.2-0.8,2.8,0.7,3.4,1.9c0.7,1.4-0.8,1.4-1.7,1.8c-2.9,1.3-5.8,2.6-8.7,3.9c2.6,0,4.6-1.3,6.8-2.2c0.8-0.3,1.7-0.9,2.2,0 c0.6,1,1.9,1.4,2.4,2.6c-2.8,1.1-5.5,2.1-8.2,3.1c-0.4,0.2-1.1,0.2-0.9,0.8c0.3,0.8,0.9,0.3,1.4,0.1c2.2-0.9,4.5-1.8,6.7-2.7 c1.5-0.6,2.8-1.2,2.8,1.2c0,0.5,0.8,1,1.1,1.4c1.4,1.7,3.9,2.5,5.1,4.1c2.4,3,5.7,3.5,8.9,3.5c8.8,0.1,17.6,0.8,26.1-1.6 c0.7,0.5,1.5-0.3,2.2,0c-0.1,0.1-0.2,0.2-0.3,0.2c-0.5,0.2-1.1,0.4-1.5,0.7c-2,1.6-3.1,3.6-2.9,6.2c0,0.8-0.7,1.8,0.3,2.4 c0.9,0.6,1.7-0.1,2.4-0.5c0.4-0.1,0.9-0.2,1.3-0.4c1,0.3,1.6-0.3,2.4-0.6c1.1,0.2,2.2,0.2,3.2-0.5c1.1,0.4,1.8,2,3.4,1 c0.9,0,1.8-0.1,2.7-0.1c2.8,1.2,4.7-1,7.1-1.2c0.1,0,0.3-0.1,0.4-0.1c0,1.4,1,2.2,2.4,2.7c-1.6,1.5-3.6,2.2-5.3,3.1 c-1.1,0.6-1.9,1.2-1.9,2.4c-1.9,2.4-4.9,3.6-7.4,6.4c1.9-0.3,3-0.7,4.1-1.2l0,0c1.7,0.4,3,0.8,0.8,2.3c-0.4,0.2-0.9,0.6-0.8,1 c0.2,0.7,1,0.4,1.5,0.5c0.6,0,1.1-0.1,1.7-0.1c0.2,0.3-0.5,1,0.2,0.8c2.2-0.6,4.8,0,6.8-1.4l0,0l0,0l0,0l0,0 c0.9,1.8-0.1,4.1,2.2,5.5c0.5,0.3,0.2,1.6-0.8,2.1c-0.4,0.2-0.9,0.7-0.1,1c1.3,0.5,1.5,1.3,1.3,2.4c-0.2,0.9,0.4,1.1,1.1,1 c1.1-0.3,1.7,0.2,2.2,0.7c-0.6,0.5-0.4,1,0.6,1.8c0.1,0.1,0.2,0.2,0.4,0.4c-0.2,1.1,0.3,2.3-0.8,2.9c-1.4,0.7-0.5,1.4-0.5,2.2 c0,0.4,0.9,0.7,0.4,1.2c-1.5,1.6,0.3,1.5,1.2,1.8c1.1,0.3,2.1,0,3-0.7c1.1-0.2,2.1-0.4,3.2-0.6c0.7,2.3-1.3,5.3,0.8,7.3 c0.1,0.1-0.1,0.3-0.1,0.5c-0.4,1.8,0.4,2.4,2.2,1.9c-0.3,0.4-0.6,0.9-0.9,1.4c-0.6,0.5-1.4,0.8-1.8,1.4c-0.6,0.7-2.2,1.2-1.2,2.5 c0.9,1.1,2.1,1.6,3.6,1l-0.4,0.2c1.3,0.4,2.7,0.6,4.1,0.7c0.1,0.3,0.2,0.6,0.3,0.8c0.8,1.7,0.6,2,3,0.9c1.4-0.7,2.9-1.2,4.3-1.7 c1.6,0.1,3.2,0.1,4.8-0.3c0.7-0.2,1.5-0.4,2.1,0.2c0.8,0.8,1.7,0.7,2.6,0.7c-1,1.2-2.1,2.4-3.3,3.5c-3.1-0.1-6.3-0.6-9,1.4 c-0.3,0.2-0.6,0.3-0.9,0.1c-1.3-0.9-2.5-0.4-3.8,0c-0.5,0.2-1.4,0.2-1.7-0.1c-1.8-1.9-3.2-0.6-4.4,0.4c-1.1,0.9-2.3,1.4-3.5,2 c-0.7,0-1.5-0.1-2.2-0.1c-0.9-0.8-3.5,0.6-3.2-2c0-0.3-0.4-0.4-0.8-0.3c-3.6,0.6-7.5,0.7-9.6,4.1c-0.4,0.7-1.3,1.2-2,1.8 c0.5,0,0.9-0.1,1.2,0c4.1,1.1,8.1,1.5,11.6-1.2l0,0c4.3,0.5,8.2,0,11.1-3.3c0.2,0.4,0.3,0.6,0.2,0.7c-0.6,0.8-0.9,1.6-0.1,2.4 c1,1,1.6,0.1,2.3-0.3c0.6-0.4,0.9-0.2,1.2,0.5c0.9,1.5,2.2,1.7,3.8,0.9c1.3-0.7,2.8-0.9,4.1-1.5c1.1-0.4,2.2,0.2,3.2,0.1 c-0.5,0.1-1,0.1-0.9,0.6c0.2,1.3,0.6,2.6,2.1,3.4c1.5,0.2,1.7-1.1,2.6-1.5c0.6,1.5-0.7,3.3,0,4.8c0.8,1.7,0.9,3.5,0.2,5.4 c-0.6,1.5-1.2,3,0,4.3c0.4,0.5-0.1,1-0.4,1.5c-0.4,0.5-0.7,1,0,1.3c0.6,0.3,1.1,0.8,2.1,0.3c0.5-0.3,1-0.5,1.6-0.3 c1.6,0.5,1.6,1.3-0.9,2.9c-1.9,1.2-1.6,2.1-0.3,2.7c1.8,0.9,1.5,2.5,1.4,3.7c-0.1,1.4,0.8,1.4,1.8,1.2c1.2-0.3,2.6-0.4,3.7-1.1 c2.3-1.3,5.1-0.6,7.4-2c5,0.4,9.4-1.7,14-3.3c2.5-0.9,5-2,7.6-2.2c2-0.2,3.6-0.6,4.8-2c0.7-0.8,1.5-1.1,2.7-1.2 c2.2-0.3,4.5-0.7,6.7-1.3c1.7-0.5,3.8-1.1,4.7-2.5c1.2-1.7,3.1-2.4,4.8-2.2c1.7,0.2,3.1-0.3,4.6-0.6c0.7-0.1,1.5-1,1.9-0.9 c3.1,0.4,6-0.5,8.7-1.9c2.1-1.1,3.8-0.4,5.7-0.6c3.4-0.4,6.8-1.1,10.2-1.4c1.6-0.1,3.5-0.4,5.4-1.7c1.8-1.2,4.6-1.6,6.9-2.3 c0.2-0.1,0.6,0.1,0.7,0.2c1.1,0.9,2.4,0.4,3.9-0.2c2.6-1.2,5.5-1.6,8.3-2c2.8-0.5,5.7-1.3,8.5-1.4c1,0,1.1-0.7,1-1.3 c-0.2-0.9-0.8-0.2-1.4-0.2c-1.8,0.2-3.7,0.1-5.1-0.7c1.8-0.3,3.3-1.7,5.3-1.4c0.7,0.1,1.8-0.4,2.1-1.1c0.7-1.5,2.2-2.1,3.9-2.5 c0.4,0,1.1,0,1.2,0.1c0.1,0.4-0.2,0.9-0.8,1c-2.3,0.5-2.5,1.8-2.9,3.1c-0.5,1.2-0.5,1.9,1.6,1.7c1.3-0.1,2.6,1.1,3.9,0.3 c2.5-1.5,4.8-0.8,7.2-1.3c-0.8,0.4-1.7,0.8-2.5,1.1c-0.4,0.2-1.2,0.4-0.8,0.7c1.2,1-0.5,1.4-1.1,1.8c-2.1,1.5-4.8,1.5-7.1,2.3 c-5.7,2.1-11.4,4.2-16.7,7c-8.6,4.6-17.1,9.2-25.7,13.8c-3.4,1.6-6.6,3.4-9.7,5.3c-1.9,0.7-3.4,1.8-4.8,3c-0.5,0.2-1.1,0.5-1.6,0.7 c-4.6,2-8.9,4.3-13.1,6.7c-6.3,3-12.3,6.3-17.5,10.5c-7.6,4.1-13.5,9.5-19,15.2c-1,1-1.9,2.1-3.2,3c-2.2,1.9-5,3.6-5.1,6.3 c-0.7,0.4-1.4,0.8-1.9,1.4c-1.1,1.2-1.5,2-1.3,2.9c-0.2,0.3-0.3,0.5,0.1,0.7c0.1,0,0.2,0.1,0.3,0.1c0.1,0.1,0.2,0.3,0.3,0.5 c0.1,0.1,0,0.4-0.1,0.6c-0.3,0.7-0.2,1.1,0.9,1c0.6-0.1,0.7,0.2,0.8,0.5c0.7,2.2,3,3,6.1,2.3c0.8-0.2,1.5-0.6,2.2,0 c0.5,0.4,1.4,0,2.1-0.3c3.8-0.8,7.6-1,11.4-2.3c2.3-0.8,4.7-1.5,7-2.3c4.5-1.5,9-1.5,14-2.3c-1,0.8-1.2,1.5-1,2.3 c0.2,1-2,2.8-3.2,2.7c-2.5-0.1-2.8,0.8-2.6,2.4c0.1,0.8,0.1,1.5,1.3,1.7c0.5,0.1,0.8,0.5,0.6,0.9c-1.2,1.5,1.9,2.7-0.5,4.3 c1.7,0.9-0.3,2.9,1.1,4c0.6,0.5,0.8,1.7-0.2,2.5c-1.1,0.9-2.3,0.8-3.5,0.3c-0.7-0.3-1.5-0.8-3-0.6c2.3,1,4.5,1.7,4.2,4 c-0.1,0.5,0.6,0.6,1.1,0.8c0.4,0.2,0.9,0.2,1,0.7c0.4,2.1,1.7,3.9,2.5,5.9c-0.5,0.9,1,1.9-1.1,2.6c-4.8,1.7-9.4,3.9-13.7,6.4 c-2.5,1.5-5.1,2.7-7.9,4.8c2.8-0.2,5.1-1,6.9-1.9c2-1,4.2-1.7,6-1.9c3.5-0.5,6.6-1.5,9.7-2.9c1.2-0.6,2.4-0.9,3.7-0.9 c2.7,1.9,7.1,0.8,10.2,1.9c2.7,0.1,0.6,1.3,0.2,1.9c-0.3,0.5-1.4,0.8-1.6,1.5c-1.6,1.7-4.5,1.4-6.2,2.9c-1.9,0.6-3.7,1.5-5.1,2.8 c-1.2,1.1-2.5,2.1-4.4,2.1c-0.4,0-1,0.4-1.5,0.6c-0.6,0.3-1.1,0.6-1,1.1c0.1,0.6,0.8,0.4,1.4,0.4c2.1,0,3.6-1.4,5.4-2.1 c0.1-0.1,0.2-0.1,0.4-0.1c0.1,0.2,0.2,0.4,0.3,0.6c1.3,1.5,2.9,0.1,4.4-0.3l0,0l0,0c1.2,0.3,2.5,0.6,3.2-0.9l0,0 c1.6-0.5,3.4-0.5,5-1.3c0.2,0.9-0.1,2.4,1.9,1.9c2.2-0.5,1,1.6,2.5,1.4c0.1,0,0.2,0,0.2,0c1.1-1,2.6-0.4,3.8-1l0,0 c0.7,0.5,1.5,0.7,2.5-0.1c1.4-1.1,2.1-0.6,2,0.4c-0.1,1.2,0.7,1.1,1.8,0.7c1.7-0.8,3.2-1.9,5.2-1.7c1.5,0.1,3-0.4,4.3-1.1 c1.8-0.9,3.8-1.6,5.8-2.1c0.7,0.1,1.3-0.3,1.8-0.7c0.8-0.5,0.5,0.2,0.7,0.3c-0.9,1.7-2.1,3.2-4.4,3.9c-3.3,0.8-6.3,2.2-9.5,3.1 c0-0.5,0.6-0.8,0.9-1.3c-1.5,0.4-2.9,0.8-4.2,1.1c-0.4,0.1-0.9,0.3-1.1-0.1c-0.4-0.9-1.4-0.5-2.2-0.2c-2.4,0.8-5.1,0.7-7.1,2.4 c-0.1,0.1-0.4,0-0.6,0c-2.1-0.2-4.9,0.9-6.2,2.2c-0.3,0.3-0.7,0.6-0.3,0.9c0.3,0.2,0.8,0.2,1.2,0c1-0.5,1.8-0.7,2.4,0.1 c0.2,0.3,0.8,0,1.2-0.1c1.6-0.6,3.2-1.2,4.7-1.7c0.8,0.3-0.1,1.7,1,1.4c1.5-0.4-0.7-0.9,0.2-1.6c0.1-0.1,0.2-0.2,0.3-0.3l0,0 c1.5,0.2,2.3,0.6,1.1,1.9c-0.1,0.1,0.1,0.3,0.1,0.5c-1.3,1.2-2.9,2.2-3.8,3.6c-0.3,0.5-1.1,0.4-1.6,0.6c-0.2,0-0.5,0.1-0.7,0.2 c-1.6,0.3-3.4,0-4.7,1.8c2-0.3,3.7-0.5,5.4-1c0.8-0.2,1.9-0.6,2.1,0.3c1.2,2.5,1.3,2.5,4.5,1.2c0.8-0.3,1.6-0.5,2.4-0.7 c0.3,0.1,0.4,0.3,0.5,0.5c-0.1-0.2-0.3-0.3-0.5-0.5c-0.1,1.3,0.3,2.3,1.6,3.2c0,0.1-0.1,0.2-0.2,0.2l0,0c-0.9,0.4-1.7,0.7-2.4,1 l-3.5,2.1c0.7,1.6,3.2,2.3,3.5,3.9c0.5,2.3,2.4,3.7,4.3,5.2c0.4,0.3,1,0.6,1.6,0.6c4.1,0.4,8.2,1,12.5,1.1c6.6,0.2,12.8-0.6,19.3-3 c4.1-1.5,8.1-3.1,12.2-4.4c2.6-0.9,5.2-2.1,7.8-3c4-1.4,8.2-2.4,12.1-4.3c0.2-0.1,0.4-0.1,0.7-0.2c4.2-0.7,7.9-2.4,11.6-4.4 c0.7-0.4,0.9-1.4,1.6-1.3c2.7,0.8,4.9-0.2,7.3-1.6c0.5-0.3,1.2-0.1,1.7-0.9c0.7-1.1,1.3-2.8,3.6-1.6c0.5,0.2,1.5,0.3,2.1,0 c3.1-1.3,6.4-1.5,9.5-2.4c0.6-0.1,1.2-0.2,1.1-0.7c-0.3-1.2,1-1.1,1.7-1.2c0.9-0.1,1.8,0,2.8,0c-0.4-2-0.2-2.1,2.3-1.8 c0.4,0,1.7,1,1.6-0.6c0-0.2,0.2,0,0.3,0.1c1.5,0.6,3.3,0.3,4.9-0.1c1.7-0.4,3.7-1,4.5-2.8c0.5-1.2,1.4-2.6,3.6-1.9 c0.4,0.1,0.8,0,1-0.3c0.8-1.2,1.4-0.6,1.9-0.1c0.7,0.7,1.6,1,2.8,0.3c2.7-1.4,5.5-2.4,8.1-3.9c1.1-0.6,3.3-0.7,2.5-2.4 c0-0.1,0.5-0.3,0.7-0.5c1.2-1.2,2.9-1.4,4.5-2.1c-0.2,0.8-0.6,1.8,1.3,1.3c-0.2,0.7,0,1.4,0.9,1.4c1.3-0.1,0.5-0.8,0.6-1.3 c0.1-0.6,0.8-0.5,1.2-0.6c1.6-0.5,3.5-0.8,4.7-2c0.8-0.5,1.6-0.2,2.4-0.2c2.4-0.1,3.8-1.4,3.1-2.7c1.8-0.5,3.9,0.1,5.4-1 c2.1-1.5,4.7-2.5,6.9-3.1c2.3-0.6,2.9-1.4,3.5-2.7c1.2-0.6,2.4-1,3.8-1c0.1,0,0.1,0,0.2,0.1c-0.1,0.6-1.2,0.9-0.6,1.4 c0.1,0.1,0.6,0.1,0.8,0c1.7-1.2,4.4-1.3,5.3-3.3c1.3,1,2.6,0.4,4-0.4c0.4-0.2,1.2,0.1,1.5-0.1c0.6-0.5,2.2-0.4,2-1.4 c-0.2-1.2-0.3-1.3,1.5-1.3c1.3,0,2.3,0,2.9-1.3c0.6-1.2,1.4-1.4,2.4-0.4c0.7,0.7,2.3,0.7,3.2,0.2c1.2-0.6,3.2-0.8,3.3-2.4 c0-1.1,1.1-1,1.7-0.8c1.3,0.5,2.4,0,3.4-0.8c0.8-0.7,1.7-0.9,2.7-1.1c4.3-0.8,8.7-1.2,12.1-4.3c0.1-0.1,0.4-0.2,0.6-0.3 c2.6-0.8,5.5-0.7,7.7-2.6c0.2-0.1,0.6-0.1,0.9-0.2c2.8-0.4,5.5-1.2,8.1-2.1c4.5-1.6,8.5-4,13.1-5.4c0.7-0.2,1-0.5,0.8-1.1 c-0.2-0.8,0.3-1.3,1.4-1c1.3,0.4,2.4,0.2,3.6-0.8c0.8-0.6,1.9-1,2.9-1.3c6.6-2,13-4.4,19.5-6.7c1.7-0.6,2.4-1.6,2.3-2.3 c-0.1-0.7,1.1-2.5-1.6-2.2c-1,0.1-2.4-0.5-2.6-1.2c-0.2-0.7,1.4-0.7,2.1-1.3c0.3-0.3,1-0.4,1.4-0.7c0.7-0.6,2-1.4,2.3-1.1 c1.6,1.5,3.8,0.5,5.8,0.3c0.1,0,0.1,0.2,0.3,0.4c-1.9,0.4-2.5,1.9-4.3,2.5c-0.8,0.3-1.7,1.2-1.3,1.9c0.4,0.8,1.7,0.4,2.6,0.1 c1.3-0.3,2.6-0.5,3.8-0.3c1.1,0.2,1.7-0.3,2.6-0.8c1.6-0.9,2.9-2.1,4.8-2.8c2.6-1,5.2-2.2,7.9-3c1-0.3,1.8-1.4,3-1 c1.3,0.4,2.6-0.1,3.7-0.6c2.7-1.2,5.4-2.5,8-3.9c2.4-1.3,6.2-1.4,6.9-4.4c0-0.1,0.4-0.2,0.6-0.3c0.5-0.2,1.2-0.4,1-0.9 s-0.9-0.2-1.5-0.2c-1.8,0.1-3.1,1.5-4.9,1.6c0-1.3,2-2,2.2-3.3c0-0.3,0.6-0.4,1-0.3c3.4,0.7,6.2-0.9,8.9-2.6 c0.8-0.5,1.7-0.8,2.7-0.4c1.5,0.6,2.5,0,3.1-1.3c0.2-0.5,0.5-1,0.9-1.5c0.7-1,0.8-1.6-0.9-1.5c-0.9,0-2.1-0.1-1.8-0.9 c0.9-2.1-1-2-2.6-2.1c0.9-0.7,1.6-1.7,3.2-1.3c0.2,0,0.7-0.2,0.8-0.3c0.7-1,1.8-1.1,2.9-1.2c0.7-0.1,1.4-0.1,1.6-0.8 c0.2-0.5,0.7-0.6,1-0.5c1.5,0.8,2.5,0.1,3.4-1c0.3-0.4,0.9-0.5,1.4-0.6c1.2-0.1,2.2-0.5,3.3-1c1.3-0.6,2.6-1.3,2.1,0.6 c-0.1,0.4,0.3,0.4,0.7,0.4c1.2,0.1,2.4,0.3,3.7-0.3c0.2,0.2,0.8,0.5,0.2,0.8c-1.5,0.9-3.2,1.7-5,2.1c-0.6,0.1-1-0.1-0.6-0.7 c0.2-0.4,0.9-1,0-1.1c-1.1-0.1-2.4,0.1-3.2,0.8c-1,0.8,0.7,0.6,0.8,1.1c-1,0.6-2.2,0.9-3,1.7c-0.6,0.5-0.6,0.5-1.2-0.2 c0.4-0.5,2-0.7,1.2-1.4c-0.6-0.6-1.4,0.1-2,0.6c-0.4,0.4-1.1,0.5-1.6,0.9s-0.5,0.7,0.2,0.8c1,0,1.6,0.4,1.6,1.1 c-0.6,0.6-1.1,1-2,0.5c-0.5-0.3-1.7-0.1-1.7,0.4c-0.1,1.2-0.1,2.5,1.4,3.1c1.1,0.4,2.2-0.2,3.1-0.8c0.4-0.3,0.3-0.9-0.1-1.2 c-0.6-0.3-0.6-0.3-0.1-0.8c1-0.4,2.1-0.8,3.2-0.8c0.1,0,0.2,0.1,0.2,0.2c0.1,0,0.1,0,0.2,0c1.6,0,3.7,1.6,4.5-1.4 c0,0-0.7,0.4-0.7,0.3c0.9,1.3,1.9,1.4,3.8,0.3c0.1-0.1,0.2-0.1,0.4-0.1c2-0.5,3.5-1.6,5-2.6c0.2-0.1,0.4-0.3,0.6-0.4 c-0.1-0.5,0.2-0.6,0.9-0.6s1.8-0.2,1.8-0.8c-0.1-0.8,0.5-2.2-0.5-2.1c-1.9,0.2-2.7-1.1-4.6-0.6c-1.6,0.4-1.7-0.2-1.9-1 c1.1-0.2,2.1,0.3,3.1-0.4c1.3-0.3,2.4-1.5,3.9-1.2c-0.1,0.7-2.1,1.5-0.4,2c1.3,0.6,2.3,0.5,2.5-1c0.5-0.4,0.9-0.2,1.4-0.2 c0.9,0.2,1.6-0.4,2.3-0.7c0.8,0.1,2.3-0.9,2.4-0.4c0.4,1.3,2.4,0.9,3.1,1.8c0.2,0.2,0.8,0.2,0.6,0.6c-0.2,0.4-0.7,0.4-1.1,0.4 c-1.2,0.1-1.5,1-2.4,1.5c0.5,0.3,1,0.9,1.6,0.8c1.2-0.2,2.6-0.3,3.5-1.2c0.8-0.9,1.5-1.5,3.1-1.2c1.5,0.3,3-0.7,3.9-1.9 c0.8-1,0.2-1.5-1-1.7c-0.2-0.5-1-0.5-1.4-0.7c-0.2-0.5-0.9-0.4-1.5-0.5c-1.7-0.2-3.3-0.7-3.8-1.9c1.3,0.1,2-0.9,3-1.3 c0.6,0,1-0.7,1.6-0.6c0.7,0.4,1.4,0.8-0.3,1.4c-0.6,0.2-0.9,0.5-0.8,0.9c0,0.3,0.3,0.4,0.7,0.3c1-0.1,1.5-0.6,1.8-1.2l0,0 c0.2-2,2.5-2.5,4.4-3.1c0.1,1.4-2.2,3.3,0.5,4c-0.1,0.7,0.2,1.4,1.2,1.1c1-0.2,0.9-0.9,0.6-1.5l0,0c-0.2-0.2-0.5-0.5-0.7-0.7 c1.7-0.9,3.2-1.5,4.5-0.3c0.5,0.5,1.6,0.4,2.2-0.6c0-0.1,0-0.2,0-0.3c1.1,0.3,2,0.9,3.6,0.1c1.2-0.6,0.6-1.3,0.9-2.2 c0.5,0.9,1,1.2,2,0.2c0.3-0.2,0.8-0.6,1.5-0.6c1.3,0,2-0.7,2.1-1.7c1-0.4,2-0.8,3-1.2c0.9-0.2,1.4,1,2.6-0.1 c0.4-0.4,0.9-0.7,0.6-1.2c-0.3-0.3-0.7-0.8-1.2-0.5c-0.9,0.4-2.3-0.1-2.7,1.2c-0.6,0.3-1,1.2-1.6,0.9c-1.4-0.7-3.6-0.1-5.2-0.8 c1.8-0.7,3.3-1.4,4.8-2c0.4-0.4,1.3-0.3,1.5-0.9c0.4-0.3,0.8-0.5,1.1-0.8c2.7,0.5,5.1-0.2,7.1-2.3c0.6-0.1,0.8-0.5,1.2-0.7 c0.1,0.2,0.2,0.3,0.4,0.5c0.5,0.6,1.9,0.7,2,0c0.1-1.5,1-1,2-1.1c0.7,0,1.6-0.2,2-0.5c1.6-1.3,2.7-0.7,3.9-0.4 c0.7,0.2,1.3,0.7,2.3,0.2c1.3-0.5,0.7-1,0.4-1.4s-0.7-0.8-1.1-1.2c0.7-0.3,1.5-0.6,2.2-0.9c0.3-0.1,0.5-0.2,0.8-0.3 c1.8-0.1,2.8-1.1,4-2l0,0c0.6-0.1,0.3-1,1.3-0.8c0.1,0.4,0.5,0.7,1,0.5c1.8-0.7,3.2-0.2,4.8-0.2c0.4,0.2,0.8,0.1,1.1-0.3 c1.1-1,2.1-0.9,3.1-0.6c0.6-0.1,1.3-0.1,1.9-0.2c0.7,0.3,1.4-0.2,2.1-0.5c1.8-0.7,3.3-1.6,4.9-2.5c1.1-0.6,1.3-0.7,0.5-1.2 s-0.7-1,0.7-1.8c-0.7,1.1-0.7,1.6,0.9,1c0.6-0.3,1.3-0.5,1.9-0.8c0.5,0.8,1.8,0.9,2.4,0c0.5-0.7,1-1,1.7-1.5c0.4-0.3,0.7-0.7,0.3-1 c-0.5-0.3-1,0-1.2,0.4c-0.6,1.1-2,0.8-2.9,1.3l0,0c-0.6,0.1-1.6,1.1-1.6-0.1c0.5-0.4,0.9-0.8,1.4-1.2c0.6-0.3,1.2-0.5,1.8-0.8 c0.1,0,0.2-0.1,0.3-0.1l0,0c1-0.5,2.8-0.6,1.5-1.8c-0.4-0.4,0.7-0.5,0.9-0.8c0.7-0.3,1.5-0.7,2.2-0.5c1.1,0.7,0.6,2.4,2.9,2.3 c0.1,0,0.2-0.1,0.3,0c1.9-0.6,4.3,0,5.7-2c0.3-0.1,0.6-0.3,0.8-0.4c0.2-0.1,0.6-0.2,0.6-0.3c0.3-1.1,0.8-2.3,0.7-3.4 c-0.1-1.2,0.4-2.2,2-3.2c1.5-0.9,3.1-1.1,4.7-1.5c0,0.3-0.2,0.6-0.6,0.8c-0.4,0.2-1.2,0.5-0.6,0.9c0.4,0.2,0.5,0.9,1.3,0.6 c0.6-0.2,0.6-0.6,0.8-1c0.1-0.2,0.4-0.5,0.6-0.7c1.2-0.6,1.3-1.3,0.6-1.9c0.1-0.1,0.2-0.1,0.4-0.2l0,0c-6.4,1.9-13,3.7-18.1,5.1 c0.2-0.2,0.4-0.4,0.7-0.4c1.6-0.4,1.8-0.7,1.6-1c1.3-0.4,2.7-0.9,4.1-1.3c0.2,0,0.4,0,0.7,0c0.3-0.1,0.5-0.3,0.6-0.4 c3.8-1.3,7.8-2.6,11.6-3.9l0,0h0.1c4.5-1.5,8.6-3,11.8-4.2c-0.6-0.2-1.4-0.2-2.6,0.7c-0.1,0-0.3,0-0.4,0c0-0.1-0.1-0.2-0.3-0.2 c-4.6,1.4-10.2,3.1-15.7,4.8c0.9-0.3,1.5-0.7,1.6-1.6c-0.2,0-0.3,0-0.4,0.1c4.8-1.5,9.6-3,13.5-4.1c0.2-1.1-0.8-0.9-1.9-0.5 c-0.3-0.2-0.6-0.1-1,0c-0.2-0.1-0.5-0.2-0.7-0.3c-0.1,0-0.1,0-0.2,0c0.7-0.7,1.5-1.4,2.3-2c1.2-0.1,2.4-0.1,3.6-0.7 c0.7-0.5,1.2-1.3,2.3-1.6c0.5-0.5,1.4-0.9,2-1.4c0.3,0.1,0.8,0.1,1.4,0c2.4-0.7,3.7-1.8,3.8-3.3c0-0.5-0.1-1.1,0.8-1.4 c2-0.6,3.7-1.6,5.5-2.5c0.3,1.1,1.5-0.1,2.2,0c1,1.4,1.7,1.4,3.4,0.1c1,0.3,2.1-0.1,3.1-0.3c1.4-0.4,2.9-0.6,3.7-1.8 c0.2-0.2,0.4-0.4,0.6-0.6c1.4-0.5,1.6-2.2,3.7-2.1c2.3,0,4-1.2,5.7-2.3c0.3-0.2,0.3-0.4,0.1-0.5s-0.6-0.3-0.7-0.1 c-0.6,1.4-2.1,0.6-3,1.1c-0.7-0.2-2.4-0.1-1.8-0.9c1.5-2.1-0.7-1-1.7-1c-0.2-0.1-0.5-0.3-0.4-0.4c0.1-0.5,0.3-0.9-0.7-0.7 c-0.8,0.2-1.1,0.6-0.9,1.1c0.1,0.2,0.1,0.5,0.2,0.7c-0.8,0.3-1.5,0.7-2.3,0.9c-1.7,0.4-2.2,0-1.3-1.3c1.1-1.5-0.1-2.2-1.1-2.9 c-0.6-0.2-1.7,0.2-1.8-0.6c0.1-0.3-0.4-0.7,0.4-1c1.7-0.6,1.8-1.2,0.6-1.7c-1-0.4-0.3-1,0.4-1.1c1.5-0.2,2.4-1,3.6-1.6 c0,0,0,0,0.1,0c0,0,0,0,0.1,0c0.9,0.6,1.5,1.2,0.8,2.3c-0.2,0.3-0.2,0.6,0.2,0.8c0.5,0.2,1,0,1.4-0.3c0.4-0.2,0.5-0.8,1.3-0.7 c0.1,0.6-1.5,1-0.9,1.6c0.4,0.4,1.2,0.6,1.9,0.2c1.7-0.8,1.8,0.1,2.2,0.7c0.1,0.3,2.3,4.6,2.4,4.9c0,1,1.5,1.1,1.7,2.1 c0.1,0.6,1,0.1,1.1-0.3c0.3-1,0.7-1.4,2.1-1c0.5,0.2,2-0.3,2.1-1.1s-1-0.5-1.7-0.4c-0.1,0-0.3,0-0.4,0c0.6-0.6-0.2-0.6-0.5-0.9 c0.6-1,2.1-1.8,1.7-2.9c1.7-0.5,1.5,0.8,2.3,1.3c0.6-0.4-0.4-1.1,0.8-1.4c-0.1,1.4,0.9,1,2.1,0.6c1.6-0.6,2.8-1.5,3.2-2.8 c0.3-0.9,1-1.4,1.9-1.1c1.2,0.4,2.1,0.2,3-0.5c1.3-0.9,1.7,0.3,2.6,0.3c0.6,0.1,0.3,0.8-0.3,1.3c-0.6,0.4-1.1,0.9-0.2,1.2 c0.7,0.2,1.3-0.1,1.7-0.7c0.6-1,2-2,0.9-3.1c-0.1-0.1-0.4-0.4,0-0.6c0.3-0.2,0.7-0.2,0.8,0c0.1,0.7,1.6,0.9,0.8,1.8 c-0.2,0.3-0.3,0.5,0,0.5c1.1,0,2.1-0.5,3-1c0.8-0.5,0.4-0.9,0-1.3c-0.4-0.4-1.2-1.3-0.3-1.6c1.4-0.5,2-1.6,3.3-2.1 c1.4-0.6,2.8-0.6,3,0.6c0.3,2,2.2,1.7,4,1.6c0.5-0.3,0.8,0.4,1.5-0.1c-0.9-0.5-0.3-1.2,0-1.9c2.4-0.3,4.8-0.4,6.1-2.6 c0.2-0.4,0.9-0.6,1.2-0.4c1.9,1.3,4.5,0.2,7,0.7c-0.8-1.1-3-0.9-2.4-2.5c0.5,0,0.9,1.6,1.6-0.3c0.5-1.4,2.2-3,3.8-3.8 c2-1,1.6-1.4,0.4-2.2c1.8-0.6,1.7-1.3,1.7-2.6c0.1-1.6-1.6-1.2-2.3-1.7c-0.8-0.5-2.2-0.3-3.1,0.5c-1.7,1.3-2.5,0.8-3.1-0.4 c0.2-1.1,1.4-1.3,2.2-1.2c1.9,0.3,3.5,0.4,4.6-1.4c0.1-0.1,0.4-0.1,0.6-0.2c0.9-0.2,6.1-2.7,7-3.4c0.1-0.2,0.1-0.3,0.2-0.5 c-1.5,0.4-1.9-0.4-2.3-1.2c-0.1-0.2-0.4-0.3-0.8-0.1c-0.4,0.2-0.9,0.3-1.3,0.5c-2,0.2-3.6,1.1-5,2.3c-0.2,0.2-0.7,0.4-0.5,0.7 s0.7,0.4,1.1,0c1-1,0.9-0.3,0.9,0.2c-0.2,0.2-0.4,0.4-0.7,0.7c-0.7,0.7-1.5,0.4-2.3,0.6c-0.3-0.9,0.4-2.6-2.3-1.5 c-0.6,0.2-1-0.7-0.5-0.9c2.2-1.2,1-1.9,0.2-2.8c0.7-0.6,1.4-0.7,2.2-0.5c0.9,0.3,1.6,0.1,1.9-0.8c0.3-0.9-0.4-0.8-1.3-0.7 c-0.5,0.1-1.4,0.2-1.1-0.4c0.7-1.2-1.3-0.8-1.3-1.7c1.8,0,1.3-0.8,1-1.5s-1.1-0.7-2-0.6l0,0c-0.9-0.1-1.2-0.6-1.2-1.2 c0.8-0.6,1.6,0.7,2.4-0.3c1.1-0.1,2-1.1,3.2-0.8c1.5-0.4,3.1-0.5,4.2-1.6c0.1-0.1,0.1-0.1,0.2-0.2c0.1-0.1,0.3-0.1,0.4-0.2 c1.8,2.7,2.5-0.7,3.8-0.9c0.7-0.1,0.8-0.8,0.7-1.3c-0.2-0.7-0.9-0.5-1.5-0.5s-1.4,0.8-2,0c1.9-0.6,3.7-1.1,5.2-2.2 c0.9-0.7,2.1-0.8,3.2-0.7c0.5-0.1,1-0.3,1.5-0.4c1.6-1.4,3.1-2.8,4.7-4.2c0.5-0.5,0.5-0.9-0.4-1c-0.7-0.1-1.3-0.1-1.7-0.6 c0.9-1.3,1.7-0.8,2.5-0.4c0,0.1,0.1,0.1,0.2,0.1c1.4,0.3,1.6,0.9,0.6,2c-0.4,0.4-0.6,0.9-0.1,1.3c0.4,0.3,0.8,0.2,1.2-0.1 c1.7-0.9,3.5-1.8,5.1-2.9c0.7-0.5,0.5-0.9,0.6-1.4c0.1-0.9-0.7-0.2-1.1-0.2c-0.7-0.1-0.7,0,0.2-0.9c0.7-0.4,0.1-1.4,1.3-1.5 l0.1-0.1c0.6,1.2,1.7,1.5,3.4,0.8c1-1,2.6-1.2,3.8-1.8c0,0.1,0.1,0.2,0.1,0.3c-1.1,0.8-1.6,1.8-1.4,2.9c0.9-0.8,2-1.3,3.1-1.7 c1,0.2,2.1,0.2,2.7-0.6c0.8-1.1,1.9-1.7,3.2-2.2c1-0.4,1.1-0.8,0.3-1.3c0.5-0.5,1.4-0.8,1.3-1.6c2.8-0.6,3.7-2.7,5.4-4.2 c0.4-0.4,0.7-0.8,1.3-1c-0.1-1.1,0.2-2.4,1.7-2.6c2.1-0.3,1.5-1,1.3-1.7c-0.1-0.3-0.2-0.6-0.2-1c0-0.3,0.9-0.6,0.2-0.8 c-0.5-0.1-1.4-0.5-1.6-0.1c-0.9,1.6-2.9,1.4-4.3,2.2c-3.1,1.7-6.9,1.9-10.1,3.3c-0.6,0.3-1.9,0.3-1.9-0.3c0.2-1.4-1.4-0.9-1.5-0.5 c-0.4,1.4-1.8-0.7-2.1,0.7c-0.2,0.9-0.9,0.2-1.4,0.3c-0.3-0.5-0.5-1-0.8-1.6c1.2-1.4,3.4-0.7,4.8-1.8c9.1-3.2,17.4-7.7,25.6-12.3 c2.1-1.2,4.4-2.1,6.1-3.7c1.8-0.6,3.7-1.4,5.5-1.7c1.5-0.2,2.8-0.3,3.9-1.3c0.8-0.5,0.9-0.7,0.5-1c-1.1-0.6-1.9-1.3-1.8-2.5 c0.7-0.5,1.7-0.9,1.9-1.9c-3.1,0.7-6,0.2-9.1,1.7c-1.9,1-4.4,1.7-6.1,0.1c-0.5-0.4-1.1-0.2-1.7,0c-1.8,0.4-3.5,1.1-5.1,2 c-3.3,1.9-6.8,3.3-10.4,4.7c-1.1,0.4-2.4,1.3-3.9,1.2c0.5-1.2,2-1.7,2.5-2.9c-1.4,0-2.6,0.4-3.8,0.9c-2.5,1-4.8,2.4-7.5,2.9 c-1.6,0-3.1,0.8-4.6,1.1c-0.8-0.3-1.5,0.2-2.1,0.5c-0.8,0.3-0.9,0.1-1-0.4l0,0c0.8-0.3,1.7-0.7,2.5-0.8c1.3-0.2,1.4-0.8,1.5-1.5 c1.2-0.3,1-1.6,2.2-1.8c1.5-0.2,1.9-0.9,2.2-1.8c0.2,0,0.5,0.1,0.6,0.1c1.9-0.9,3.4-2.2,5.5-3c0.8-0.3,0-0.6-0.2-0.9l0,0 c3.8-1.4,8.1-2.3,10-5.8l0,0c2-1.1,4.1-2.1,5.1-3.9c0.3-0.6,1-0.8,1.7-1c0.1,0,0.2,0,0.3-0.1c0.6-0.2,1.1-0.4,1.6-0.7 c2.5-1.4,6.2-4.1,6.6-5c0.1-0.1-0.1-0.3-0.2-0.5c0.4-0.6,1.3-0.7,1.9-1.1c2.8-1.6,5.4-3.3,7.5-5.5c0.3-0.3,0.7-0.6,0.1-1 c-3.2,1-6.3,2.7-8.7,4.5c-6.5,5-14.2,8.8-21.1,13.5c-2.8,1.9-6.1,3.8-9.3,5.4c-4,2-7.4,4.8-11.9,6.4c-2.7,1-4.9,3-7.3,4.5 c-2.3,1.4-5,2.5-7.4,3.9c-3.5,2-7,4.4-11.5,4.4c-3.1,0-6,0.6-8.8,1.9c-1-0.1-1.9,0.3-2.9,0.4c-4.1,0.8-7.1,3.5-11,4.9 c-3.3,1.1-6.4,2.8-9.3,4.7c-0.3,0.1-0.5,0.2-0.8,0.3c-0.8,0.2-1.7,0.3-2.4,0.7c-2.6,1.4-5,2.9-7.5,4.3c-4.4,1.9-9.3,3-13.6,5.1 c0.7-0.8,1.8-0.8,2.7-1.8c-2.8,1.4-5.5,2.2-8.2,2.5c-2.1,0.3-4,0.8-5.9,1.6c-0.1-0.1-0.1-0.1-0.2-0.2c-0.1-0.4-1.3-0.3-0.8-0.7 c0.7-0.7,1.3-1.8,2.8-1.6c1-0.3,1.9-0.7,2.1-1.5c0.1-0.4-0.4-0.5-0.9-0.5c-1,0-1.6,0.3-1.7,1.1c-0.3,0.2-0.4,0.5-0.9,0.4 c-0.4-0.1-0.2-0.4-0.2-0.7c0-0.4-0.5-0.9,0.2-1.1c2.4-0.4,4.1-1.9,6.2-2.7c0.8-0.3,1.6-0.7,2.5-1c0.2-1.4-1.5-1.8-2.3-2.7 c0.5-0.3,1.1-0.6,1.5-1.1c0.5-0.6,1.2-1.3,2.2-0.8c0.9,0.6,3.2,0.5,1.3,2.4c-0.3,0.3,0.2,0.7,0.3,1.1c1.7-0.5,0.7,1.1,1.7,1.2l0,0 l0,0c0,0.1,0.1,0.2,0.1,0.3l0,0c-0.6,0.1-1.2,0.2-1.9,0.3c0.4,0.8,0.7,1.3,1.9,0.8c0.7-0.3,1.7,0,2.1-0.9c1.8-0.2,3.5-0.6,4.4-2.1 c0.3-0.5,0.7-0.8,1.5-0.6c1.9,0.4,3.5-0.7,5.1-1.4c0.6-0.2,1.1-0.7,0.8-1.2c-0.4-0.6-0.9,0-1.4,0.2c-1.7,0.5-3.5,1-4.4-0.6 c-0.5-0.8-1.2-1-2.2-0.3c-0.8,0.7-1.9,0.5-2.8,0.8c-1.6,0.4-2.2-0.3-1.5-1.5c0.3-0.5,1-1,0.5-1.4c-0.9-0.8-0.4-1.8,0.7-2.2 c2.2-0.8,3.3-3.3,6.2-2.7c0,0.6-1.8,0.7-1.1,1.5c0.6,0.6,1.5-0.3,2.2-0.4c0.6,0.2,0.2,0.7,0.5,1c0.5,0.5,1.4,0.3,1.5-0.3 s0.5-1.4-0.4-1.8c-0.7-0.1-1.4-0.1-2.1-0.2c0.4-1,0.4-1-2.3-1.1c0.1-0.6,0.9-1.2,0.2-1.7c0.8-1.2,1,0.6,1.6,0 c1.1,1.4,2.6,0.8,4.1-0.1c-0.1,0.8,0.5,1,1.3,0.7c1.3-0.5,2,0.1,2.9,0.5c0.2,0.3-0.9,1,0.3,1c1.3,0,2.2,0.5,3.2,1 c0.3,0.1,0.8,0.4,0.9,0.1c0.6-1.3,2.5-1.7,3.2-2.6c0.7-1,1.3-1.3,2.4-1.3c0.6,0.1,1.2,0.3,1.8,0c1.4-0.3,3.1-1.3,3.6,0.5 c0.1,0.2,0.4,0.3,0.7,0.2c0.5-0.1,0.5-0.5,0.4-0.7c-0.4-0.8,0.6-0.9,1-1.3c1.6-1.8,3.8-2.2,6.1-2.6c0.2,0,0.3-0.4,0.5-0.6 c1-1.1,2.5-0.2,3.6-1.1c0.9-0.1,1.1-0.9,2.1-1.3c0.2,1-1.3,2-0.3,2.7l-0.1,0.1l-0.2,0.1c-0.5,0.2-1.6,0-1.2,0.9 c0.4,1,2.7,1.7,4.1,1.2c1-0.3,1.2-0.7,0.8-1.3c-0.7-1.2-2.9-1.9-1-3.9c0.3-0.2-0.8-0.2-0.5-0.7c2.6,0.8,3.1,0.6,5.7-1.4 c1.2-0.9,2.5-1.1,3.8-0.2c-1.1,0.4-2.1,0.8-3.3,1.3c1,0,2-0.2,2.1,0.5c0.2,2.2,2.6,1.1,4.3,1.4c-0.8-0.5-0.4-1.4-1-2 c-0.1-0.3-0.3-0.5-0.4-0.8c-0.8-0.8-0.2-1.3,0.9-1.7c0.5,0.4-0.7,0.9-0.1,1.3c3.9-2.1,3.9-2.1,3.8-2.8c-1,0.1-1.2,1.2-2.3,1.3 c0.2-0.8,0.5-1.6,0.7-2.5c1,0.7,2.8,0.8,3,0.3c0.6-1.2,3.6-1.6,2.5-3.3l0,0c-0.1-1-1.7-0.6-2.3-1.3c-0.1-0.1-0.8-0.1-0.5-0.2 c1.2-0.5,1-1.8,2.7-2.2s3.9-0.5,4.9-2.2c0.4-0.3,0.9-0.5,1.3-0.8c0.3-0.2,0.6-0.6,0.3-0.8c-0.4-0.2-0.8,0.1-1.2,0.3 c-0.4-1.5-0.4-1.5-1.6-1.2c-1.3-0.5-2.5,1.1-3.8,0.6l0,0l0,0c-1-0.8-2.6-0.3-3.9-0.3c-1.6-0.1-1.8-0.4-0.6-1.4l0,0 c0.5,0.7,1.4,0.6,2.3,0.4c0.7-0.2,1.3-0.7,1.3-1.2c0-0.4-0.2-1-0.6-1.2c-0.4-0.1-1.3-0.2-1.6,0.6c-0.1,0-0.3,0.1-0.4,0.1 c-0.1-0.5-0.2-1,0.8-1.3c0.3-0.1,1-0.1,0.6-0.4c-1.5-0.9,0-1.4,0.7-2.1c0.8-0.9,2-1.9,1.7-3.2c0.3-0.1,0.6-0.2,0.8-0.3 c0.8,0.5,1.7-0.8,2.5-0.3c0.2,0.8,0.9,1.1,1.7,0.4c0.6-0.5,1.5-0.9,1.7-1.7c0-0.5-0.1-0.9-0.6-1.1c-0.4-0.3-0.5-0.6,0.3-0.9 c0.7-0.2,1.3-0.6,2-0.9c0.3-0.1,0.6-0.1,0.9-0.2c1.6-0.5,3.7,0.3,4.7-1.1c0.9-1.3,2.2-2.3,3.5-3.2c0.9-0.6-0.4-1.6,1.1-1.7l0,0 c1,0.4-0.5,1.3,0.1,1.8c-0.9,1.4,0.8,0.6,1.3,0.8c0.8-0.3,1.6-0.7,2.4-0.9c1.4-0.3,2.4-1.2,3.4-2c1.6-1.2-0.2-1.7-0.6-2.4 c-0.1-0.2-0.3-0.4,0.1-0.6c0.8,0.3,1.3,1.2,2.5,0.5c0.6-0.1,1.3,0.2,1.6-0.6c1.1-0.3,2.1-0.6,3.2-0.9l0,0c0.4,0.6,0.3,1.7,2,1.1 c0.3,0.1,0.7,0,1.1-0.1c2.4,0.4,2.8-0.9,3-2.3c0.5-0.3,1-0.7,1.5-1l0,0c3.6-1.6,5.7-3.7,5.5-5.7c1.4-0.1,2.6,0.1,3.8,0.5 c0.4-0.8-0.1-1-0.6-1.3c-0.6-0.4-0.3-0.7,0.5-1.1c1.4-0.6,3.3-1.1,2.2-2.7c-0.5-0.7,0.8-0.9,0.9-1.5c-1.1-0.2-2.1-0.6-3,0.6 c-0.4,0.5-0.9,0.7-1.5,0.3c-0.3-0.2-0.7-0.3-0.8,0.1c-0.1,1.2-1.5,1.4-2.3,1.5c-3,0.6-6,1.2-9,2c-0.4,0.1-1,0.4-1.4-0.1 c-0.8-1.2-0.8-1.2-2.1,0.3c-0.2,0.1-0.3,0.2-0.5,0.2s-0.3,0.1-0.5,0.1c-0.9,0-1.8-0.5-2.7,0.1c-0.5,0.3-1,0.5-1.5,0.6 c-0.4,0-0.8,0.1-1.2,0.1c-0.8,0-1.5-0.1-2-0.3c-1.1-0.3-2.2-0.1-3.2,0.1c3.5-1,7.3-2.2,11.1-3.3c0.6,0,1.2-0.1,1.6-0.4l0,0 c10.6-3.1,20.3-6,19.5-5.8c0-0.1,0-0.1,0-0.2c-5.1,1.5-12.2,3.7-19.4,5.8c0-0.1,0-0.3-0.2-0.3c-0.9-0.2-1.6,0.2-2.4,0.9 c0.2,0.1,0.3,0,0.5,0.1c-4.2,1.3-8.3,2.5-12,3.6c-0.7,0.2-1.3,0.3-2,0.4c-1.2,0.5-2.5,0.6-3.8,0.6c-1.2,0,26-8,39.2-11.6 c-0.3-0.5-1.4-0.2-2.1-0.2c-0.5-0.6,0.8-0.9,0.8-1.4c0.3-0.4,0.7-0.8,1-1.1c1.4-0.5,1.8-1.5,2.4-2.4c2.5-0.9,3.3-2.4,3.1-4.2 c1.3-1.1,0.5-2.6,1.9-3.8c0.2-0.1-0.4-0.5-0.7-0.5c-1.8,0.6-3.4-0.5-5.3,0.4c-0.3-0.1-1,0.2-0.9-0.2c0.2-1.4-0.7-1.7-2.3-1.5 c-0.4,0.1-0.8-0.2-1.2-0.3c0.8-0.7,1.6-1.4,2.3-2.1l0,0l0,0c1-0.7,2.4-1.3,2.4-2.2c0-1.1,0.9-1.1,1.7-1.3c0.5-0.1,1,0,1.5-0.3 c3.3-1.7,7.1-2.9,10-5.2c0.4,0.5-0.6,0.9-0.3,1.8c0.2-0.8,1.5-0.2,1.3-1.3c-0.1-0.4,0.4-0.7,1-0.9c2-0.7,3.9-1.6,5.2-3.1 c0.7-0.7,1.9-2,2.6-1.7c1.8,0.7,2.4-0.3,3.3-1.1c0.4-0.3,0.8-0.6,1.3-0.3c0.3,0.2,0.7,0.1,0.9-0.3c0.1-0.4-0.2-0.5-0.6-0.5 c-1.1,0.2-1.6-0.3-1.8-1c0.8-0.5,1-1.2,1.6-1.8c1.2-0.8,2.7-1.3,3.4-2.5c0.1-0.1,0.2-0.3,0.3-0.4c1-0.4,0.8-1.7,2.3-1.6l0,0 c1.2-0.7,1.8-2.6,3.8-1.6c0,0,0.2,0,0.2-0.1c0.7-1,1.5-0.7,2.4-0.6c2.3,0.2,4.1-1.4,3.8-3.2c-0.1-0.7-0.6-1.4-0.2-2.3 c1.3-1.7,1.1-2.7-0.5-2.5c-1.7,0.2-3.8-0.1-5,1.6c0,0.1,0,0.1,0,0.2l-0.8,0.4l0,0c0.2,0.2,0.2,0.2,0.2,0.1 c-3.5,0.1-3.6,0.4-4.2,0.5c-1.5,0.3-3.2-0.3-4,1.6c-0.8-1.2-0.8-1.3-2-0.5c-1,0.7-1.7,1.1-2-0.1c-0.1-0.4-0.6-0.4-1-0.5 c-1.5-0.4-5.7-1.5-5.7-1.5s-1.2,0.6-1.3,0.7c-1,0.4-1.6-0.3-2.5-0.1c-1.4-0.1-2.8-0.2-4.2-0.3l0,0c-1.1,0-0.9-0.4-0.3-1 c0.7-0.8,2.3-0.8,2.7-2.1c-2.4,0.7-4.8,1-6.8,1.7c-4,1.4-8,3-11.7,4.9c-1,0.5-2.2,0.9-3.3,1.3c-0.7,0.3-1,0.1-0.6-0.5 c0.5-0.4,1-0.8,1.8-0.9c0.9-0.2,0.9-0.6,0.5-1.1c0-1.6-3.7,0.7-3.1-1.4c-0.2,0-0.4,0.1-0.6,0.1c-0.6,0.2-1.1,0.6-1.7,0.9 c-1.3,0.7-2.7,1.3-4.2,1.1c0.1-0.1,0.2-0.1,0.3-0.2c0.9-0.3,1.5-0.7,1.7-1.6c-1.3,0.4-2.5,0-3.5,0.9c-1.1,0.4-2.2,0.9-3.3,1.3 c-0.3,0-0.7,0-1,0.1c-0.7-0.3-1.8,0.6-2.5,0c-0.4,0.3-0.7,0.8-1.2,0.7c-2-0.2-3.6,0.7-5.1,1.8l0,0c-4.6,1.8-9.3,3-13.9,4.9 c-2.8,1.2-5.7,1.9-8.6,2.6c-5.5,1.4-10.8,3.2-16.1,5.3c-1.5,0.6-3.1,1.1-4.6,1.7c-0.4,0.1-0.8,0.4-1.2,0.3c-2.5-0.5-4.7,0.6-7,1.6 c-1.3,0.6-2.6,1.4-4,1.7c-4.5,1-8.7,3-13.1,4.3c-1.3,0.4-2.7,0.8-4,1.4c-2.5,1.2-5.1,1.9-7.7,2.6c-0.3,0-0.5-0.1-0.8-0.1 c-1.4,0.2-2.9,1-3.7-0.4c-0.4-0.6-1.4-0.8-2.1,0.3c-0.5,0.8-1.2,1.2-2.2,1.5c-0.1-0.2-0.2-0.3-0.3-0.5c0.1-0.5,0.3-0.9,0.7-1.4 c0.4,0,0.7-0.1,1.1-0.1c1.3,0,2.2-0.8,2.4-1.9c0.3-0.1,0.7-0.1,1-0.1c1,0.2,1.7-0.1,2.6-0.4c-0.4,0.4-0.2,1-0.9,1.2 c-0.3,0.1-0.9,0-0.7,0.4c0.1,0.2,0.7,0.3,0.9,0.2c1.5-0.7,3.4-1.2,3.8-2.7c0.2-0.7,0.4-1.1,1.4-1.2c0.6-0.1,1-0.6,1.2-1 c0.9-0.8,2.1-0.7,3.1-0.8c1.6-0.2,2-1.3,2.4-1.9c0.5-0.9-1.3-0.3-1.9-0.7c2-0.9,4.1-0.7,6-1.4l0,0c0.7,0.1,1.4,0.4,2.2,0.4 c0.9,0.1,2.2,0.5,2.6-0.1c1-1.4,2.7-1.2,4-1.8c0.2-0.1,0.5-0.2,0.7-0.3l0,0c2,0.3,3.1-1.8,5.1-1.8c0.4,0,0.2-0.8-0.2-1 c-0.7-0.3-1.4-0.6-2.4-0.2c-0.1-0.2-0.2-0.4-0.3-0.6c0.7-1.1,2.6-2,3.3-1.6c1,0.5,2,0.1,2.9,0.1c0.7-0.1,1.5-0.2,2.3-0.3 c0,0.9-1.4,1.3-1.6,2.1c1.5,0.3,2.1-0.4,2.6-1.3c0.3-0.6,0.3-1.4,1.5-1.6l0,0c0.4,0.7,0.3,1.9,1.9,1.5c1.8-0.4,3.6-0.9,3.1-2.8 c0.8,0.3,1.4,0.9,1.8-0.1c0.4-1,1-1.3,2-0.6c0.2,0.2,0.9-0.2,0.8-0.4c-1.1-1.1,1-0.8,1.2-1.3c0.4-0.1,0.8-0.3,1.3-0.4 c0.6,0.7,1.4,0.1,2.1-0.2c1.5-0.5,3-1.2,4.5-1.7c1.3-0.4,2.4-1,1.8-2c-0.5-0.9-1.7-0.6-2.8,0c-0.1,0.1-0.3,0.1-0.4,0.2 c-0.7-0.9-2.2,0.2-2.9-0.3c-1.6-1.1-2.3,0-2.8,1c-0.5,0.8-1.2,1.2-2.2,1.3c-0.9,0.2-1.9,0.6-2.7,0.7c-2.3,0.3-4.5,1.7-6.8,1.2 c1.1-0.7,2.1-1.5,3.2-2.2c3.9-1.6,7.7-3.2,11.5-4.8c3.8-0.6,6.7-2.7,10-4.1c0.4-0.1,0.7-0.3,1.1-0.4c4-1.1,6.9-3.9,10.8-5.2 c0.4-0.1,0.9-0.9,0.5-0.9c-2-0.3-1.4-1.3-1-2.4c0.2-0.6-0.2-1.2-0.9-1.5c-1.3-0.6-2.5,0.5-3.7,0.7c-0.1,0-0.2-0.1-0.3-0.2 c0.4-1.4-1.7-0.2-1.9-1c0.6-0.2,1.1-0.5,1.4-1c0.3-0.2,0.4-0.4,0.5-0.6c0.8-1.1,1.7-2.2,1.1-3.4c1.8-1.8,4.2-3.4,5.7-5.4 c2.7-1,5.3-2.3,7.8-3.7c1.4-0.8,2.7-1.9,4.3-2.5c7.8-2.8,15.8-5.3,23.3-8.6c9.1-4,17.4-9.1,24.9-15.3c1.9-0.3,3.8-1,5.6-0.8 c1.6,0.2,2.7-0.2,3.8-0.9c0.9-0.6,1.4-1.3-0.2-1.8c-0.7-0.2-1.7-0.6-1.6-1.2c0.4-2.2-1.2-1.8-2.5-2c0.6-1.2,2.2-1.4,3-2.4 c1.3-0.5,1.1-1.9,0.2-1.8c-2.1,0.3-3.9-1.4-6-0.7c-2.2,1.3-4.8,1.6-7.4,1.8c-0.7,0-1.2,0-1.8-0.5c-2.6-2.5-3.4-2.6-6.6-1.4 c-2.6,0.9-4.4,2.9-7.1,3.7c-1-0.1-1.9,0.4-2.7,0.8c-2.3,1.2-4.8,2-8.1,2.8c2-1.8,3.1-4.2,5.3-4c1.9,0.2,2.7-0.6,3.8-1.3 c2.5-1.7,5.1-3.3,7.7-4.9c1,0.6,1.7,0.7,2-0.7c0.2-1.2,1.2-2,2.4-2.8c1-0.7,3.4-0.7,2.4-2.9c0.2,0,0.4,0.1,0.7,0.1 c0.2,0.7,0.4,1.3,1.4,0.9c-0.1,1.1-0.2,1.9,1.4,0.9c1.2-0.8,2.6-1.9,3.9,0.4c0.1-1.5-0.8-2.5-0.8-3.7c0-0.1,0-0.2,0-0.3 c0-0.1,0-0.3-0.1-0.4c-0.4-1.7,0.7-2.5,2.7-2.7c-0.8,0.6-2,1-1.1,2.2c0.8,1.1,1.7,0.2,2.6,0.1c0.7-0.1,1.1-0.5,1.4-1.1 c2-0.5,3.9-1.1,4.7-3.1c0.4-1,2.2-0.6,2.5-1.7c2-0.4,3.7-1.7,5.8-1.9c-0.2-0.5-0.4-1.1-0.7-1.7c0.2-0.4,0-0.7-0.2-1 c0.3-0.3,0.5-0.6,0.8-0.8c0.9-0.3,1.7-1,1.2-1.8c-0.3-0.5-1.4-0.8-2.4-0.3c-1.6,0.7-3.1,1.4-4.7,2c-1.1,0.4-2.2-0.1-2.3,0 c-0.3,2-1.7,0.7-2.5,0.6c-0.4,1.3,0.9,1.5,1.2,2.2c-0.8,0.2-1.8,0.3-2.5,0.7c-2.8,2-6.2,2.6-9.6,3.2c-1-0.2-0.3-1.8-1.9-1.6 c-1.3,0.2,0.6,1.2-0.7,1.4c-0.7-1-1.8-1.4-3.1-1.2l0,0c0.1-0.4,0.9-0.8,0.4-1.3c-0.4-0.4-0.9,0-1.3,0.2c-1.2,0.7-2.4,1.4-3.5,2.1 c-2.2,1-4.5,1.9-6.7,2.9c-1.6,0.7-3.4,1.1-4.5,2.5c-0.2,0.1-0.5,0.2-0.7,0.4c-2.3-1.5-4.9-1-6.3,1.2c-0.2,0.3-0.6,0.4-1,0.6l0,0 c-1.3-0.7-1.7,0.3-2.2,0.9c-0.4,0.4-0.7,1.3-1.3,1.2c-2.4-0.4-3.3,1.4-5,2.2c-1,0-2,0.3-2.2,1.1c-0.5,1.8-1.4,1.8-3.2,1.4 c-1.4-0.4-3,0.1-3.7,1.4c-0.6,1.2,1.2,0.7,1.6,1.4c-1.9,1.4-4,2.2-6.2,3c-0.2,0.1-0.3,0.2-0.5,0.2c-0.8,0.2-1.5,0.4-2.3,0.6 c-1.4,0.3-2.7,0.7-4.1,1.1c-2.3,0-5.4,1.4-7.2,3.2c-1,0.4-1.9,0.7-3,0.9c0.1-0.4-1.8,0.5-0.6-0.6c0.5-0.4,0.6-0.8,0.8-1.2 c0.4-0.9,1.1-1.6,2-2.2c0.5-0.2,1-0.5,1.4-0.7c0.1-0.1,0.2-0.1,0.4-0.2c3.3-1,6.5-2.3,9.7-3.6c1-0.4,2-1.6,2.3-2.7 c3.2-1.5,6.5-2.9,9.7-4.5c4-2,7.7-4.5,11.9-6.3c3.5-1.5,6.7-3.6,10.1-5.8c-0.8,0.2-1.2,0.2-1.5,0.3c-5.4,2.3-10.8,4.4-15.9,7.2 c-4.8,2.6-9.9,4.9-15,7.2c-0.9-0.5-0.6-1.2-0.4-2c0.5-0.6,1.1-1.2,0.7-1.7c-1-1.5,0.5-2.4,2.1-3.3c0.9-0.5,1.5-0.9,0.9-1.6 c0-0.2-0.2-0.4-0.2-0.6c0.2-0.2,0.3-0.4,0.1-0.8c-0.3-0.5-0.7-0.6-1.2-0.5c-0.7-0.3-1.8-0.4-3.1-0.2c3.4-2.1,3-4.2,1.9-6.2 c-0.4-0.8-0.7-1.9-2.6-0.9c-0.8,0.4-1.6-0.1-1.7-0.5c-0.2-0.7,0.7-0.7,1.4-0.8c0.9-0.2,2.1-0.3,1.5-1.4c-0.3-0.5,0.5-1.1,1.1-1.5 c0.8-0.5,1.5-1,0.9-1.7c-0.7-0.8-1.6-0.3-2.5,0.2c-0.7,0.1-1.4,0.1-2.1,0.4c-0.2-0.5-1-0.3-1.3-0.5c-1.5-0.9-3.6-1.2-4.4-2.6l0,0 c0.1-0.1,2-1,2.1-1c2.1-0.9,4.6-0.5,6.4-1.9c1.5-1.1,3.9-1.5,4.9-3.2c0.2-0.4,0.8-0.3,1.2-0.3c1,0,2.3,0.1,1.1-1.1 c-0.1-0.1,0.2-0.7,0.6-0.9c1-0.7,2.3-0.3,3.4-1.2c0.5-0.4,0.5,0.9,1.6,0.8c0.3-1.6,2.3-1.6,3.6-2.4c1.4-0.8,2.5-1,3.7-0.5 c2.1-0.3,2.7-1.9,4-2.8c0.6-0.4,0-1-0.3-1.4s-0.9-0.1-1.4,0c-0.9,0.2-1.4,1-2.7,1.6c1.1-1.7,2.3-2.4,4.2-2.6c0.6-0.1,1.3-0.4,1.1-1 s-0.8-0.6-1.4-0.2c-0.5,0.2-0.9,0.6-1.3,0.1l0,0l0,0c0-0.1,0-0.2,0-0.3c0.6-0.4,1.8-0.4,1.7-1.1c-0.1-0.6-1.1-0.5-1.9-0.4 c-0.4,0-0.9-0.1-1.3-0.2l0,0l0,0c-1,1.1-2.8,0.9-3.9,1.8c-1.9,1.6-4.5,1.4-6.7,2.1c-1.2,0.4-2.9,1.7-4.4,0.7c0,0-0.7,0.3-0.7,0.4 c-0.3,1.4-2.7,1.9-3.1,3.3c-0.1,0.4-0.8,0.9-1.1,0.3c-0.6-1.3-1.7-0.4-2.8-0.2c-1.1,0.2-2.7,1.8-3.1-0.2c-0.1-0.3-0.5,0-0.7,0.1 c-0.9,0.5-1.5,0-2.2,0c-1,0-2.1-2.1-3.3,0.3c-0.2,0.3-0.7,0.4-1,0.4c-1.4-0.3-2.7,0.2-4.2,0.4c-4.2,0.7-8.1,1.8-11.9,3.7 c-0.1,0-0.2,0-0.3,0c1.8-0.9,3.7-1.6,5.5-3.2c-1,0.1-1.6,0-2.2,0.1c-3.6,0.9-7.1,2-10.8,2.9c-0.6,0.2-1.3,0.2-1.9,0.4 c-0.4-2.1-0.5-2.1-3.5-0.9c-1,0.4-1.9,1-2.8,1.6c-2.6,0.2-4.9,1.9-7.5,1.9c-0.2,0-0.6,0.4-0.8,0.7c-0.2,0.3-0.5,0.6-0.8,0.8 c-3.6,1.2-7.3,2.4-10.9,3.6c-0.9-0.4-2.4,0.5-2.8-0.6c-0.4-1.2,1.3-1.1,2-1.7c0.3-0.3,0.6-0.7,1-1.1c-0.8-0.2-1.5-0.3-2.2-0.5 c0.2-0.8,0.6-1.6,2-2.3c0.9-0.4,1.7-1.8-0.5-1.8h-0.1c0.8-0.8,1.6-1.6,2.4-2.4c1.5-0.5,2.5-1.7,4.1-1.9c1.4,1,2.5,0.1,3.5-0.5 c3.2-2.2,6.7-3.7,10.3-5.1c3.6-1.3,5.9-3.7,8-6.3c-2.1-1.3-4.4-1.7-6.3-0.9c-3.6,1.6-7.4,2.7-11,4.3c-1.7,0.7-3,2.4-5.1,2.2 c-1.3-0.1-2.1,0.3-3,0.9c-0.1,0.1-0.3,0.1-0.4,0.1c-0.2-0.3-0.4-0.4-0.6-0.7c0.2,0,0.5,0,0.7,0c0.5-0.1,1.1-0.1,1.6-0.3 c3.4-1.6,7.2-2.8,10.1-5.1c0.5-0.4,1.4-0.7,0.8-1.3c-0.5-0.4-1.3-0.5-2.1,0c-1.5,1.1-2.9,1.9-5,2c-0.8,0-2,0.6-2.4,1.2 c-0.6,0.7-1.4,1-2.3,1.4c-0.4,0.2-0.7,0.3-1.1,0.4c-0.6,0.2-1,0.6-1,1c-1.9-1.9-4.2-2.8-7.3-1.6c-1.6,0.2-3.4-0.4-4.7,1 c-1.2,0.6-2,0.6-3.4-0.2c-2.9-1.7-6.2-1.2-9.2,0c-3.5,1.4-7.3,2.2-11,3.2c-4.2,1.1-8.5,2-12.4,3.6c-7.2,3-15.3,3.5-22.5,6.6 c-1.3,0.6-2.9,0.7-4.4,1c6.5-4,14-5.8,21.2-8.3s14.5-4.8,21.6-7.4c7.1-2.7,14.8-3.7,22.1-6.7c-3.7-1.3-6.4,0-9.3,0.8 c-6.2,1.7-12.2,4.2-18.6,5.3c-0.1,0-0.2,0-0.3,0c-2.1,0.1-3.9,2-6.5,1.2c1.4-1.3,3.2-1.4,4.5-2.3l0,0c2.1,0.4,3.4-0.7,5.1-2 c-1.5-0.3-2.6-0.1-3.7,0.3c-1.3,0.4-2.9-1.3-4,0s-2.6,1.6-4.1,2.1c-1.4,0.3-3.1-0.4-4,1.1l0,0c-0.3-0.9-2.6-0.7-1.5-2.1 c0.5-0.7,0.4-2.2,2.1-2c0.4,0.1,0.8-0.3,0.7-0.8c-0.1-0.3-0.4-0.7-0.7-0.9c-0.5-0.2-0.9,0.1-0.9,0.5c-0.2,1.3-1.5,1-2.2,0.9 c-1.4-0.1-2.6,0.1-3.7,1c-0.5-1.4,0.6-2.2,0.9-3.7c-1,0.5-1.7,0.8-2.5,1.1c-0.3-0.2-0.5-0.4-0.8-0.6c-0.4-0.3,0.2-1.5-1-1.2 c-0.8,0.2-0.7,0.7-0.3,1.4c0.4,0.7-0.3,0.7-0.8,0.4c-0.6-0.4-1.1-0.4-1.5,0.2c-1.1,0.1-2.1,0.2-3.2,0.3c-0.1-0.1-0.1-0.2-0.2-0.3 c0.1-0.1,0.3-0.1,0.4-0.2c1.6-0.7,1.7-2.5,3.1-3.4c0.6-0.4-0.5-1.4-1.6-1c-0.1-0.1-0.3-0.1-0.4-0.2c-0.1,0-0.1-0.2-0.1-0.2 c0.7-1.7,3.3-0.8,4.1-2.4c0.9,0.3,1.5,1.6,2.8,0.9c1,2.4,1,2.4,3.7,1c0.1,0,0.3,0.1,0.4,0.2c0.3,0.8-1.4,0.8-0.8,1.7 c0.3,0.4,6.1,0.6,6.1,0.2c-0.1-1.3,1.3-1.1,2-2.1c-1.8,1.1-1.7-1.8-3.3-1.1c-0.7-1.1-1.7-1-2.8-0.8c-0.9,0-0.2-0.6-0.4-0.9 c1-0.1,2.2-0.7,2.9-0.3c1.5,0.9,2.5,0.3,3.6-0.5c1.6-0.5,3.3,0,4.7-0.2c3.4-0.6,7.1-0.8,10-3c0.7-0.6,1.8-1.2,2.9-0.1 c0.5,0.5,1.5,0.3,2-0.4c0.3-0.5,0.5-0.8,1.2-1c3.2-0.8,6.4-1.7,8.6-4.2c0.4-0.4,0.9-0.7,0.6-1.4c-0.3-0.7-0.9-0.6-1.5-0.4 c-0.7,0.2-1.3,0.3-2,0.4c-0.8,0.1-1.3-0.1-1.6-0.8c-0.6-1.2,1.2-1.9,0.7-3.1c0.5,0.2,1,0.4,1.5,0.6c1.4,0.8,2.9,1.1,3.9-0.2 c0.7-0.9,1.7-1.2,2.7-1.5c1.2-0.4,2.8-0.6,2.6-2.5c-0.1-0.6,0.7-0.5,1.1,0c0.3,0.5,0.5,1,0.7,1.5c-2.4,1.9-5,3.7-6.5,6.5 c2.1,0.4,2.7-1.3,3.8-1.4c2.5-0.4,5.3-0.1,5.7-3.3c0-0.1,0.2-0.2,0.4-0.3c2.4-0.8,4.6-2.3,7.5-1.7c1.7-0.7,3.4-1.5,5.1-2.2l0,0 c1.5,1,2.9,0.3,3.6-0.7c0.6-0.7,2.2-0.8,1.7-2.2c0.4-0.2,0.9-0.4,1.3-0.6c1-0.4,2.2-1.2,3.1-1c1.5,0.3,2.2-0.4,2.7-1.2 c0.6-0.9,0.8-1.8,2.2-0.7c0.4,0.3,0.9,0.1,1.2-0.2c0.5-0.5-0.4-0.5-0.4-0.8c-0.3-1.1-1.7-2.1-0.2-3.4c-1,0-1.6,0-2.4,0 c0.6-0.4,1-0.7,1.5-1c-0.5-0.5-1.3,0.5-1.6-0.3c-0.2-0.6,0.6-1.6,0.8-1.5c1.2,0.5,1.8-2,2.7-0.5c0.9,1.4,1.9,1,3,0.8 c6.8-1.7,13.5-3.5,18.5-8.3c2-1.9,4.2-2.9,7.1-3.1c0.5,0,1.2-0.1,1.3-1c-1.6,0.3-3.1,0.5-4.5,0.8c-0.9,0.2-1.6,0.4-2-1 c-0.5-1.5-1.7-2.3-3.6-1.1c-0.9,0.6-2.7,2-2.9-0.8c0-0.5-0.7-0.9-1.1-1.4c2.5-1.5,5.5-1.6,7.9-3.1c-1.6,0.3-4.9-1.6-5.2-3.2 c-0.6-2.6-3.1-3.8-4.4-5.7c-2.2-3.3-4.2-0.2-6.1-0.7c-0.1,0-0.2-0.1-0.2-0.1c1.9-1.1,3.4-2.5,3.6-4.7c0-0.1,0-0.2,0-0.3 c0,0,0,0,0.1,0c0,0.1,0,0.2-0.1,0.3c0.9,0.4,1.6-0.9,2.5-0.1c0.6,1.1,1.5,1,2.5,0.7c0.4-0.1,0.8-0.3,0.7-0.9 c-0.2-0.8-1.1-0.2-1.5-0.6c-0.1-0.8,1.2-0.7,1.1-1.5c0.2-0.1-1.2,0.6-1.2,0.6s1.9,2.9,2.4,2.9c1.8,0,1.7,0.9,1.3,2 c-0.3,0.4-1.1,0.7-0.6,1.3c0.2,0.3,1,0.3,1.4,0c1.4-1.2,3.5-1.6,4.8-3c0.4-0.5,1.5-0.6,1.1-1.5c-0.5-1-1.3,0.3-2-0.2 c0.3-0.4,0.6-0.7,0.9-1.1c0.2-0.3,0.9-0.6,0.3-1.1c-0.4-0.3-1-0.5-1.4-0.1c-0.7,0.7-2,1.3-0.7,2.5c-1.3-0.1-3.3,2.5-3.8-0.8 c0.4-0.2,0.8-0.4,1.2-0.7c2-0.5,2.7-3.9,2.7-3.9l0.6-0.3l0,0l0,0c0.2-0.1,0.4-0.2,0.6-0.3c0.7-0.1,1.5-0.2,2.3-0.3 c-1,1.8-1,1.8,1.3,1.9c0.7,0.8,1.8,1.9,2.6,1.2c1.1-1,3.2-1.4,3.2-3.3c1.6-0.6,3.2-2,4.7-1.8c4,0.6,5.8,0,6.9-3.1 c-1.3-0.3-2.1,1.8-3,1c-2.2-1.9-3.8,0.2-5.6,0.1c0.8-0.3,1.8-0.8,2.2-1.6c1.2-2.1,3.3-3.2,5.7-4.1c1-0.4,2-1.6,2.9,0.3 c0.2,0.5,1.2,0.2,1.7-0.3c1.6-1.9,4.1-2.9,5.7-4.7c0.7-0.7,2.7-0.8,2-1.8c-0.7-1.2-2.2,0.1-3.3,0.2c-0.3,0-0.6,0.3-0.9,0.4 c-2.5,0.9-4.9,1.8-7.4,2.8c-0.1-0.2-0.2-0.4-0.4-0.5c2.2-1.7,4.3-3.4,6.5-5.2c0.4-0.3,1.6-0.2,1.2-1.1c-0.4-0.8-1.2-0.3-1.8-0.3 c-0.5,0-1,0.1-1.5,0.3c-4.9,2-9.6,4.5-15.2,4.6c-0.4,0-1.2,0.5-1.2,0.6c0.3,1.9-1.2,1.1-1.7,0.8c-1-0.7-1.7-0.1-2.6-0.1 c-2.8-0.1-5.2,2.1-8.1,1.2c-0.6-0.1-1.1,0.5-1.7,0.1c-1.7-1.1-3-0.3-4.2,0.6c-0.5,0.1-0.9,0.3-1.4,0.4c-3,0.5-5.8,1.5-8.8,1.9 c-1.5,0.2-3.7,0.8-4,2.9c-0.1,0.4-0.3,0.7-0.8,0.7c-2.6,0.2-4.7,1.8-7.3,2.2c-0.3-0.4,0.2-1.2-1-1.1c-1.9,0.1-3.5,0.4-4,2.4 c-3,1.1-6.1,1.8-9.4,2.1c-2,0.2-4.2-0.7-5.9,0.9c-0.1,0.1-0.4,0-0.6-0.1c-1.4-0.7-2.4,0.5-3.7,0.6c-0.5,0-1.2,0.5-0.6,1.2 c0.4,0.5,1.1,0.3,1.3,0c1-1.5,2.7-0.7,4-1.2c1-0.4,1.2,0.4,1.3,0.9c0.2,0.8-0.3,1.1-1.2,0.8c-1.3-0.4-2.6,0.5-2.6,1.1 c0.4,2.8-1.8,2.1-3.3,2.2c-1.6,0.2-3.1,0.2-4.6,1.1c-2.3,1.4-4.5,2.9-7.1,3.7c-0.3-0.2-0.6-0.4-0.9-0.6c0.5-0.9-0.1-1.1-0.9-1 c-0.7,0.1-1.5,0.7-1.3,1.4c0.4,0.9,1,0,1.6-0.1c0.6,1.3-0.9,1.1-1.3,1.7c-3.2,0.8-6.4,1.9-9.4,3.1c-1.5-0.8-1.7-1.5,0.1-2.2 s3.9-0.9,5.3-2.3c0.2-0.6,1.1-1.2,0.2-1.8c-0.6-0.4-1.1,0.1-1.4,0.6c-0.5,0.5-1.2,0.4-1.8,0.6c-2.7,0.9-5.8,0.8-8.1,2.7 c-1,0.8-1.1,1.2,0.2,1.7c0.1,0.6-1.1,1.2-0.4,1.6c2.1,1.7-0.5,1.5-0.9,2.1c-0.6,0.1-1.1-0.1-1.7,0.3c-5.6,3.2-11.8,5.2-17.7,7.9 c1.4-1,2.6-2.1,3.3-3.6c0.4-0.9,0.9-1.3,1.8-1.7c3.6-1.8,3.6-1.9,2.2-5.5c0-0.1,0-0.2-0.1-0.2c0.6-1.3,0.8-2.9,3-2.7 c0.6,0,1.3-0.7,1.1-1.3c-0.5-2,1.1-2.8,2.4-3.7c0.7-0.5,2.3-0.7,1.4-2.1c0-0.3,0.1-0.6,0.1-1c2.5-2.5,5.6-4.5,8.1-7.1 c1.6-1.7,3.6-3,4.7-5.1c2.1-1.4,2.6-3.6,3.2-5.8c-2.2,1.2-3.9,2.9-5.5,4.6c-0.1,0.1-0.3,0.2-0.4,0.4l0,0c-1.5,0.5-1.8,2.1-3,2.8 l0,0c-0.7,0.1-1,0.7-1.4,1.2c-1.6,2.3-3.8,3.8-6.4,4.9c-2.2-0.1-4.3-0.3-5.9,1.5c-0.3,0.4-1,0.7-1.5,0.3c-0.8-0.5-0.2-1.1,0-1.6 c0.7-1.1,1.8-2,1.8-3.4c0.7-0.3,1.3-0.6,2.1-0.6c1.8-0.1,6.5-3.8,6.1-5.3c-0.8-3.2,1.6-4,3.8-5.3c1.3-0.7,3.2-1.1,3.4-2.7 c0.5-3.5,3.1-5.5,5.7-7.6c2.4-1,3.2-2.9,2.9-5.1c-0.3-2.2,0.4-3.6,2.3-4.7c0.7-0.4,1.4-0.7,0.8-1.6c-0.8-1.1-0.5-2.4-0.8-3.6 c2.1-2.6,2.2-6,4.2-8.7c0.4-0.5,0-1.2,0.1-1.8c0.3-2.2-0.5-4.8,1.6-6.5c4.2-3.3,4.9-8.3,7.3-12.5c0.8-1.5,1.2-3.1,2.5-4.4 c1.3-1.3,1.6-3.1,0.3-4.4c-2.2-2.3-2-4.5-1.2-7c0.3-1,0.5-2.2,0.7-3.2c0.4-1.8,0.2-4.1,2.2-5.4c1.5-0.4,1.2-1.9,2.2-2.8 c2.1-1.9,3.4-4.5,4.7-7.1c0.4-0.9-1.8-3,1.4-2.6c0.1,0,0.1-0.5,0.3-0.6c2.4-2.1,1-4.9,1.4-7.3c0.3-1.8-0.7-1.8-2.1-1.3 c-0.5,0.2-0.9,0.6-1.4,0.9c-2.3,1.4-4.4,1.3-6.2-0.3c-0.2-0.1-0.6-0.2-0.7-0.1c-1.1,1.1-2.1,0.5-3.4,0.4c-2-0.2-3.3-1.3-4.3-2.2 c-2.2-2-4.7-3-7.6-3.1l0,0c-0.7-0.8-0.9-0.9-2.4-0.5c-0.7,0.2-1.7,0.8-2,0c-0.7-1.6-2.7-2.7-2.5-4.5c0.3-3.3-2.9-3.2-4.8-4 c-1.6-0.6-0.6,1.4-1.1,2.1c-0.2,0.2-0.4,0.3-0.6,0.4c-2.2,0.8-3.3,2.6-4.9,4c-1.7,1.4-3.6,2.7-5.7,3.3c-2,0.6-4,0.9-5.2,2.6 c-0.4,0.5-1,0.9-1.7,0.3c-0.3-0.3-0.6-0.6-1-0.9c0.3-0.3,0.6-0.7,0.8-1.1c0.4-0.8,1.9-0.7,2.3-1.7c1.8-0.6,3.3-1.9,5.1-2.2 c-0.1-0.3-0.3-0.8-0.5-1.2c0.2-0.3,0-0.5-0.1-0.7c0.3-0.2,0.5-0.5,0.8-0.7c0.8-0.4,1.5-1,1.1-1.5c-0.3-0.4-1.2-0.4-2.1,0.1 c-1.4,0.7-2.8,1.5-4.2,2.2c-0.9,0.4-2,0.2-2,0.3c-0.3,1.6-1.5,0.8-2.2,0.8c-0.4,1,0.7,1,1,1.5c-0.7,0.3-1.6,0.5-2.2,0.9 c-0.1,0.1-0.3,0.2-0.4,0.3c-0.9-0.9-1.9-1.1-3.4-0.4c-1.3-0.3-2.8,0.7-3.9-0.7c-0.3-0.4-0.7-0.2-0.9,0.2c-1,3.1-3.4,3-6.1,2.2l0,0 c-1.1-1-1.9-2.2-2.6-3.4c-1.3-2.2-4.1-2.4-6.7,0.1c2-0.9,3.1,0.3,4.4,0.2c0.2,1.9-1.4,1.7-2.6,1.9l0,0c-0.7,0.4-3.1-1.9-2.3,1.1 c0.1,0.4-0.5,0.5-0.9,0.6c-0.6,0.2-0.6-0.2-0.8-0.5c-2-2.8-3.2-3.1-6.5-1.7c-1.4,0.3-2.5,1.1-4.2,0.7c-1.5-0.4-3.4,0.9-3.3,2 c0.3,1.9-1,2.4-2.1,3.2c-0.6-0.6-1.8-0.2-2.1-1.1c-0.7-2.2-2-0.9-3.1-0.5c-0.4,0.2-0.5,1.1-1,0.8c-2.2-1.6-2.6,0.8-3.4,1.5 c-0.7,0.6-1.8,1.4-1.6,2.7c0,0.4,0.5,0.4,0.8,0.4c1.4,0,2.2-0.9,3.1-1.7c0.2-0.2,0.1-0.6,0.3-0.8c0.3-0.5,0.8-0.9,1.4-0.6 c1.2,0.6,2.7,0.4,3.9,1.1c-0.2,0-0.3,0.1-0.5,0.1c-0.3-0.4-0.8-0.3-1.2,0.1c-0.7,0.7-1.4,1.4-2.2,1.9c-1.7-0.1-3,1.2-4.6,1.2 c-0.3-0.2-0.9-0.2-0.8,0c0.3,1.6-1,1.7-2.1,1.9s-2.3,0.5-3.4,0.6c-1.4,0.1-1.7-0.9-1-1.6c1.2-1.2,1.6-2.4,1-3.9 c-0.2-0.4,0.9-0.6,0.3-1c-0.5-0.3-1.1-0.1-1.4,0.2c-1.5,1.8-4,2-5.9,3.1c-1.3-0.3-1.6,0.5-2,1.7c-0.1-2.2-0.9-2.6-2.4-1.2 c-0.6,0.1-1-0.2-1.4-0.5c-0.5-0.3-1-0.6-1.5-0.9c-0.5-0.4-1.3-0.5-1.5,0.1c-0.7,2.3-3.1,2.1-4.9,2.7c-1.6-1.7-2.2-1.7-3-0.1 c0.7,1,0.3,1.5-0.7,1.8c-1.3,0.4-2.5,1.1-3,2.4c-0.6,0.7,0.2,1.2,0.5,1.8c0.2,0.3,0.3,0.6,0.5,0.9c-0.9,0.9,0.2,1.7,0.1,2.5 c-1.2,0.9-2.5,1.2-4,0.9c-0.1,0.1-0.2,0.1-0.3,0.1c-0.3-0.4-0.6-0.7-0.4-1.2c0.7-2.3,0.7-2.3-2-1.9c-0.6,0.1-1.3,0.1-1.9,0.3 c0.2-0.5,0.4-1,0.6-1.4c0.4-1-0.3-1.5-0.9-2.1c-1.1,1.7-2.6-0.5-3.8,0.3c-0.7,0.7-0.6,2.2-2.3,2.1c-0.6,0-1.6-0.8-1.3,0.7 c0.1,0.6,0.1,1.1,0.2,1.7c-0.5,0.1-0.9,0.3-1.3,0.5c-2,1.2-4.2,2.2-6.3,3.1c-0.4-0.1-0.7-0.1-1-0.3c0.3-0.7,1.7-1.1,0.6-2.2 c-0.5-0.5-0.8-1.1-1.6-0.9c-0.8,0.2-1.5,1-1.3,1.4c0.4,1.2-0.8,2.2-0.3,3.3c0,0,0,0.1-0.1,0.1c-0.4,0.2-0.8,0.3-1.3,0.5 c-1.3-0.6-1.9,0.5-2.8,1c0.1,0.1,0,0.1,0.1,0.2c-0.8,0.4-1.7,0.7-2.5,1.1c-0.1,0-0.1,0-0.2,0c-0.1-0.4-0.3-0.9-0.4-1.5 c-0.1-0.5-0.3-1.2-1-1.1c-0.6,0-1.5,0.1-1.4,1c0.2,2.2-1.3,1.4-2.4,1.1c-1.4-2.2-2.2-0.2-3.2,0.3c-0.8-0.2-1.5-0.4-2.2,0.1 c-0.9-1-1.6-0.7-2,0.3c-0.3,0.6-0.3,1.2-1,1.5c-1.5,0.1-3,0.3-4.5,0.3c0.4-0.2,0.7-0.4,1.1-0.5c2.3-1,4.7-2,6.5-3.5 c0.6-0.4,1.1-0.9,1.7-1.3c0,0.1,0,0.3,0.1,0.5c0.4,0.5,0.9,0.7,1.5,0.5c0.5-0.2,0.8-0.5,0.6-1.1c-0.5-0.5-1-0.6-1.6-0.4 c0.7-0.5,1.5-1,2.3-1.4c5.2-2.7,10.9-4.7,15.8-8c1.3-0.9,2.8-1.7,4.4-1.8c1.7-0.1,3.1-0.9,4.3-1.9s2.5-1.7,3.9-2.3 c5.6-2.3,11-5,16.2-8.1c1.6-1,3.3-1.7,4.9-3.2c-0.8,0.2-1.3,0.2-1.8,0.4c-3,1.2-5.9,2.4-8.9,3.5c-2.3,0.8-4.7,1.4-7,2.3 c-5.5,2.3-11,4.8-16.5,7.2c-0.7-0.2-2,0.7-2.3,0c-0.3-0.8,1.1-1,1.7-1.5c0.3-0.3,0.5-0.6,0.8-0.9c-0.9,0-1.6-0.1-2.4-0.1 c-0.5,0-1,0.2-1.2-0.3c-0.1-0.4,0.4-0.8,0.8-1c1.7-1.1,2.9-2.5,4.3-3.8c1.2-0.5,2.1-1.6,3.4-1.9c1.1,0.6,2.1-0.2,2.9-0.8 c2.7-2,5.6-3.6,8.7-5c3-1.4,4.9-3.4,6.8-5.6c-1.7-0.7-3.6-0.6-5.2,0.2c-3,1.6-6.2,2.9-9.2,4.5c-1.4,0.8-2.5,2.1-4.2,2.3 c-1,0.1-1.8,0.5-2.5,1.1c-0.1,0.1-0.2,0.1-0.4,0.1c-1.7-1.7-3.8-2.5-7-1c-1.3,0.3-2.8,0.2-3.9,1.3c-1,0.5-1.7,0.7-2.8,0.3 c-2.3-0.8-5.1,0-7.6,1.2c-2.9,1.5-6.1,2.6-9.1,3.7c-3.5,1.3-7.1,2.6-10.3,4.2c-6,3.1-12.7,4.6-18.7,7.8c-1.1,0.6-2.4,0.9-3.7,1.3 c5.4-3.7,11.7-6.1,17.7-8.8c6-2.8,12.1-5.4,18-8.2c5.9-2.9,12.3-4.6,18.4-7.8c-3-0.4-5.3,0.9-7.7,1.8c-5.2,2.1-10.1,4.6-15.5,6.3 c-0.1,0-0.2,0-0.3,0c-1.8,0.4-3.2,2-5.4,1.7c1.2-1.1,2.7-1.5,3.8-2.3l0,0c1.7,0,2.9-1,4.3-2.1c-1.2,0-2.2,0.3-3.1,0.7 c-1.1,0.4-2.3-0.5-3.3,0.5c-0.9,1.1-2.2,1.5-3.4,2.1c-1.1,0.4-2.5,0.1-3.3,1.3l0,0c-0.2-0.6-2.1-0.2-1.2-1.3 c0.5-0.5,0.4-1.6,1.8-1.7c0.3,0,0.7-0.3,0.6-0.6c-0.1-0.2-0.3-0.5-0.6-0.5c-0.4-0.1-0.7,0.2-0.8,0.5c-0.2,1-1.3,0.9-1.9,0.9 c-1.2,0.1-2.2,0.4-3.1,1.2c-0.4-0.9,0.6-1.7,0.9-2.8c-0.9,0.5-1.5,0.8-2.1,1.1c-0.2-0.1-0.4-0.2-0.6-0.3c-0.4-0.2,0.2-1.1-0.8-0.7 c-0.7,0.3-0.6,0.6-0.3,1.1c0.3,0.4-0.2,0.5-0.7,0.4c-0.5-0.2-0.9-0.1-1.2,0.4c-0.9,0.2-1.8,0.5-2.7,0.7c-0.1-0.1-0.1-0.1-0.1-0.2 c0.1-0.1,0.2-0.1,0.3-0.2c1.3-0.7,1.4-2,2.7-2.9c0.5-0.4-0.3-0.9-1.3-0.5c-0.1,0-0.2,0-0.3-0.1c0,0-0.1-0.1,0-0.1 c0.6-1.3,2.8-1,3.5-2.3c0.8,0.1,1.2,1,2.3,0.2c0.8,1.6,0.8,1.6,3,0.2c0.1,0,0.2,0.1,0.3,0.1c0.2,0.5-1.1,0.8-0.7,1.3 c0.2,0.3,5.1-0.4,5.1-0.7c0-0.9,1.1-1,1.7-1.8c-1.6,1.1-1.3-1.1-2.7-0.3c-0.5-0.7-1.4-0.5-2.3-0.2c-0.8,0.1-0.1-0.4-0.3-0.6 c0.8-0.2,1.8-0.8,2.4-0.6c1.2,0.4,2.1-0.1,3-0.8c1.3-0.6,2.8-0.4,3.9-0.8c2.8-0.9,5.9-1.5,8.3-3.5c0.6-0.5,1.5-1.1,2.4-0.5 c0.4,0.3,1.2,0,1.7-0.6c0.3-0.4,0.5-0.6,1.1-0.9c2.7-1,5.3-2.1,7.2-4.2c0.3-0.4,0.8-0.7,0.5-1.1c-0.3-0.4-0.7-0.3-1.3-0.1 c-0.5,0.2-1.1,0.4-1.7,0.5c-0.7,0.2-1,0.1-1.3-0.4c-0.5-0.8,1-1.5,0.7-2.3c0.4,0.1,0.8,0.1,1.2,0.3c1.1,0.4,2.3,0.4,3.2-0.7 c0.6-0.8,1.4-1.1,2.3-1.5c1-0.5,2.4-0.8,2.2-2.2c-0.1-0.4,0.6-0.4,0.9-0.1c0.2,0.3,0.4,0.6,0.6,1c-2,1.7-4.2,3.3-5.6,5.6 c1.7,0,2.3-1.3,3.2-1.5c2.1-0.6,4.4-0.8,4.8-3.2c0-0.1,0.2-0.2,0.3-0.2c2-0.9,3.9-2.2,6.2-2.2c1.4-0.8,2.8-1.5,4.2-2.3l0,0 c1.2,0.5,2.3-0.2,3-1c0.5-0.6,1.8-0.9,1.4-1.8c0.4-0.2,0.7-0.4,1.1-0.6c0.9-0.4,1.8-1.1,2.5-1.1c1.2,0,1.8-0.6,2.3-1.2 c0.5-0.7,0.7-1.4,1.8-0.8c0.3,0.2,0.7-0.1,1-0.3c0.4-0.4-0.3-0.3-0.3-0.5c-0.2-0.8-1.3-1.3-0.1-2.4c-0.8,0.1-1.3,0.2-2,0.3 c0.5-0.4,0.9-0.6,1.3-0.9c-0.4-0.3-1.1,0.5-1.3,0c-0.1-0.4,0.5-1.2,0.7-1.2c1,0.2,1.5-1.7,2.2-0.7c0.7,0.9,1.5,0.5,2.5,0.2 c5.6-2.2,11.3-4.3,15.5-8.5c1.7-1.7,3.6-2.7,5.9-3.2c0.4-0.1,1-0.3,1.1-0.9c-1.3,0.4-2.5,0.8-3.8,1.2c-0.8,0.2-1.3,0.5-1.6-0.4 c-0.4-1-1.3-1.4-2.9-0.3c-0.8,0.5-2.3,1.8-2.4-0.2c0-0.3-0.6-0.6-0.8-0.9c2.1-1.4,4.5-1.9,6.6-3.3c-1.3,0.4-4-0.5-4.2-1.6 c-0.4-1.8-2.5-2.3-3.5-3.5c-1.8-2-3.4,0.4-5,0.3c-0.1,0-0.1,0-0.2,0c1.6-1.1,2.9-2.3,3.1-3.9c0-0.1,0-0.2,0-0.2s0,0,0.1,0 c0,0.1,0,0.2-0.1,0.2c0.7,0.2,1.3-0.9,2-0.4c0.4,0.7,1.2,0.5,2.1,0.1c0.3-0.1,0.7-0.4,0.6-0.7c-0.2-0.5-0.9,0-1.2-0.2 c0-0.6,1-0.7,1-1.2c0.2-0.1,0.4-0.2,0.6-0.4c0.4,0.2,0.8,0.5,1.2,0.4c1.5-0.2,1.4,0.4,1.1,1.3c-0.2,0.3-0.9,0.7-0.6,1 c0.2,0.2,0.8,0.1,1.2-0.2c1.2-1.1,3-1.7,4.2-2.9c0.4-0.4,1.3-0.7,1-1.3c-0.4-0.6-1.1,0.4-1.7,0.1c0.3-0.3,0.5-0.6,0.8-0.9 c0.2-0.3,0.8-0.6,0.3-0.8c-0.3-0.2-0.8-0.2-1.2,0.1c-0.6,0.6-1.7,1.2-0.6,2c-1.1,0.1-2.9,2.3-3.2-0.1c0.4-0.2,0.7-0.4,1.1-0.6 c1.7-0.6,1.4-2.2,2.5-3.1h-0.1l0,0l0,0c0.2-0.1,0.4-0.2,0.5-0.3c0.6-0.2,1.2-0.4,2-0.6c-0.9,1.4-0.9,1.4,1,1.2 c0.5,0.5,1.5,1.1,2.1,0.5c0.9-0.9,2.7-1.4,2.8-2.8c1.3-0.7,2.8-1.9,4-1.9c3.3-0.2,4.8-0.8,5.9-3.2c-1.1,0-1.8,1.6-2.5,1.2 c-1.8-1-3.2,0.7-4.7,0.9c0.7-0.4,1.5-0.8,1.9-1.4c1.1-1.7,2.9-2.8,4.9-3.7c0.8-0.4,1.7-1.4,2.4-0.2c0.2,0.3,1,0,1.4-0.5 c1.4-1.5,3.5-2.6,4.9-4.1c0.6-0.6,2.3-0.9,1.8-1.6c-0.6-0.7-1.8,0.4-2.8,0.6c-0.3,0.1-0.5,0.3-0.8,0.4c-2.1,1-4.2,2-6.3,3 c-0.1-0.1-0.2-0.2-0.3-0.3c1.9-1.5,3.7-3.1,5.6-4.6c0.4-0.3,1.3-0.4,1-1c-0.3-0.5-1-0.1-1.5,0.1c-0.4,0.1-0.9,0.2-1.2,0.4 c-4.1,2.2-8.2,4.6-12.9,5.5c-0.4,0.1-1.1,0.5-1,0.6c0.2,1.3-1.1,1-1.4,0.8c-0.8-0.3-1.4,0.2-2.1,0.3c-2.4,0.3-4.4,2.2-6.8,2 c-0.5,0-0.9,0.5-1.4,0.3c-1.3-0.5-2.5,0.3-3.6,1c-0.4,0.2-0.8,0.3-1.2,0.5c-2.5,0.8-4.9,1.9-7.4,2.7c-1.2,0.4-3.1,1.1-3.4,2.6 c-0.1,0.3-0.3,0.5-0.7,0.6c-2.2,0.5-4,2-6.1,2.6c-0.2-0.2,0.2-0.9-0.8-0.6c-1.6,0.4-3,0.8-3.4,2.3c-2.5,1.2-5.1,2.2-7.9,2.9 c-1.6,0.4-3.5,0.1-5,1.5c-0.1,0.1-0.4,0.1-0.5,0c-1.1-0.3-2,0.7-3.1,0.9c-0.4,0.1-1,0.5-0.6,0.9c0.3,0.3,0.9,0.1,1.1-0.2 c0.9-1.2,2.3-0.9,3.4-1.4c0.9-0.4,1,0.1,1.1,0.5c0.1,0.5-0.3,0.8-1,0.8c-1.1-0.1-2.2,0.7-2.2,1.2c0.2,1.9-1.6,1.7-2.9,2.1 c-1.3,0.4-2.6,0.6-3.9,1.5c-2,1.3-3.9,2.7-6.1,3.7c-0.2-0.1-0.5-0.2-0.7-0.3c0.5-0.7-0.1-0.8-0.7-0.6c-0.6,0.2-1.3,0.7-1.1,1.2 c0.3,0.6,0.9-0.2,1.3-0.3c0.5,0.8-0.8,0.9-1.2,1.4c-2.7,1-5.4,2.3-8,3.6c-1.2-0.4-1.4-0.8,0.2-1.5c1.5-0.7,3.3-1.2,4.5-2.4 c0.2-0.4,1-1,0.2-1.3c-0.5-0.2-0.9,0.3-1.2,0.6c-0.4,0.5-1,0.5-1.5,0.7c-2.3,1-4.8,1.4-6.8,3.1c-0.8,0.7-1,1,0.1,1.2 c0.1,0.4-0.9,1-0.4,1.2c1.7,0.9-0.4,1.1-0.8,1.6c-0.5,0.2-0.9,0.1-1.4,0.4c-4.8,3.1-10.1,5.4-15.1,8.2c1.2-0.9,2.3-1.9,2.8-3 c0.3-0.7,0.8-1.1,1.5-1.5c3.1-1.8,3.1-1.8,2-4.2c0,0,0-0.1,0-0.2c0.5-1,0.8-2.1,2.6-2.3c0.5-0.1,1.1-0.7,1-1.1 c-0.4-1.4,1-2.1,2.1-3c0.6-0.5,1.9-0.8,1.3-1.7c0-0.2,0.1-0.5,0.1-0.7c2.2-2.1,4.9-4,7-6.2c1.4-1.4,3.1-2.6,4.1-4.2 c1.9-1.3,2.3-2.9,2.9-4.5c-1.9,1.2-3.3,2.6-4.8,4c-0.1,0.1-0.2,0.2-0.3,0.3l0,0c-1.3,0.6-1.6,1.7-2.6,2.4l0,0 c-0.6,0.2-0.9,0.6-1.2,1c-1.4,1.8-3.3,3.2-5.5,4.4l0,0c-1.8,0.2-3.6,0.4-5,1.9c-0.3,0.3-0.8,0.6-1.3,0.5c-0.6-0.2-0.2-0.8,0.1-1.1 c0.6-0.9,1.6-1.7,1.7-2.7c0.6-0.3,1.1-0.6,1.8-0.8c1.5-0.3,5.6-3.6,5.3-4.6c-0.5-2.2,1.5-3.1,3.4-4.3c1.1-0.7,2.7-1.3,3-2.4 c0.5-2.5,2.8-4.3,5.1-6.2c2.1-1,2.8-2.5,2.6-4s0.4-2.6,2.1-3.6c0.6-0.4,1.2-0.7,0.7-1.2c-0.6-0.7-0.3-1.6-0.5-2.4 c1.9-2.1,2.1-4.6,3.8-6.7c0.3-0.4,0.1-0.9,0.2-1.3c0.3-1.6-0.2-3.3,1.6-4.8c3.6-2.9,4.4-6.5,6.5-9.8c0.7-1.2,1.2-2.4,2.3-3.5 c1.2-1.1,1.4-2.4,0.4-3.2c-1.8-1.3-1.5-2.9-0.7-4.8c0.3-0.8,0.5-1.6,0.7-2.4c0.4-1.4,0.4-2.9,2-4.2c1.3-0.5,1.1-1.5,1.9-2.3 c1.8-1.7,3-3.7,4.2-5.7c0.4-0.7-1.4-1.9,1.3-2c0,0,0.1-0.3,0.2-0.5c2.1-1.8,1-3.6,1.4-5.3c0.3-1.3-0.6-1.1-1.7-0.6 c-0.4,0.2-0.8,0.6-1.2,0.8c-2,1.3-3.7,1.5-5.1,0.7c-0.1-0.1-0.5-0.1-0.6,0c-0.9,0.9-1.7,0.6-2.8,0.7c-1.7,0.2-2.7-0.4-3.5-0.9 c-1.8-1.1-3.8-1.4-6.2-1.1l0,0c-0.5-0.5-0.7-0.5-2,0c-0.6,0.2-1.4,0.8-1.7,0.3c-0.5-1-2.1-1.5-1.9-2.8c0.4-2.4-2.3-1.8-3.8-2.1 c-1.3-0.2-0.5,1.1-1,1.7c-0.1,0.1-0.3,0.3-0.5,0.4c-1.8,0.9-2.8,2.3-4.2,3.5c-1.4,1.2-3.1,2.4-4.9,3.2c-1.7,0.7-3.4,1.2-4.5,2.6 c-0.3,0.4-0.9,0.8-1.4,0.4c-0.8-0.6-1.8-1.1-2.3-1.8c-0.8-1.1-1.8-1.2-3.4-0.3c-1.1,0-2.3,0.9-3.2,0.1c-0.3-0.3-0.6,0-0.7,0.3 c-0.9,2.3-2.9,2.6-5.2,2.4l0,0c-0.9-0.5-1.5-1.3-2-2c-1-1.3-3.4-1.1-5.6,1c1.7-0.9,2.6-0.2,3.7-0.5c0.1,1.3-1.2,1.4-2.2,1.7l0,0 c-0.6,0.4-2.5-0.9-2,1.1c0.1,0.3-0.4,0.4-0.8,0.6c-0.5,0.3-0.5-0.1-0.6-0.3c-1.6-1.7-2.5-1.7-5.4-0.3c-1.2,0.4-2.1,1.2-3.6,1.1 c-1.2-0.1-2.9,1.1-2.8,1.9c0.1,1.3-0.9,1.8-1.9,2.5c-0.5-0.3-1.5,0.1-1.7-0.5c-0.5-1.4-1.6-0.4-2.5,0.1c-0.3,0.2-0.5,0.9-0.8,0.7 c-1.8-0.8-2.2,0.9-2.9,1.5c-0.6,0.5-1.5,1.3-1.5,2.1c0,0.2,0.4,0.2,0.7,0.2c1.2-0.2,1.9-1,2.6-1.7c0.2-0.2,0.1-0.4,0.3-0.6 c0.3-0.4,0.7-0.8,1.2-0.6c1.1,0.3,2.6-0.2,3.6,0.4c0.3,0.2,0.7,0.4,0,0.7c-1.3-0.1-2.2,1.1-3.5,1.1c-1.5,0.1-2.7,1.3-4.2,1.6 c-0.2-0.1-0.7,0-0.7,0.1c0.2,1.1-0.9,1.3-1.8,1.7c-1,0.3-1.9,0.7-2.9,0.9c-1.1,0.3-1.4-0.4-0.7-1c1.1-1,1.5-1.9,1-2.9 c-0.1-0.3,0.8-0.6,0.3-0.8c-0.4-0.2-0.9,0.1-1.2,0.3c-1.3,1.5-3.4,2-5.1,3.1c-1,0-1.4,0.6-1.7,1.5c0-1.5-0.6-1.7-1.9-0.5 c-0.5,0.1-0.8,0-1.1-0.2c-0.4-0.1-0.8-0.3-1.2-0.4c-0.4-0.2-1-0.2-1.2,0.3c-0.7,1.7-2.6,1.9-4.2,2.6c-1.2-1-1.7-0.9-2.5,0.4 c0.6,0.6,0.2,1-0.7,1.4c-1.1,0.5-2.1,1.2-2.6,2.1c-0.5,0.6,0.1,0.9,0.3,1.2c0.1,0.2,0.2,0.4,0.4,0.5c-0.8,0.7,0.1,1.1,0,1.8 c-1,0.8-2.1,1.2-3.4,1.2c-0.1,0.1-0.2,0.1-0.3,0.1c-0.2-0.2-0.5-0.4-0.3-0.8c0.7-1.7,0.7-1.7-1.6-1.1c-0.5,0.2-1.1,0.2-1.6,0.5 c0.2-0.4,0.4-0.7,0.6-1.1c0.4-0.7-0.2-1-0.7-1.3c-1,1.3-2.2,0-3.2,0.8c-0.6,0.6-0.6,1.7-2,1.8c-0.5,0.1-1.3-0.4-1.1,0.7 c0.2,0.9,0.1,2,0.1,3c0,0.3,0,0.7-0.4,1c-1.5,0.9-2.5,2.8-4.8,2.2c1.2-2.1-1.2-1.1-2.1-1.4c0.2-0.5,1.5-1,0.6-1.6 c-0.4-0.3-0.6-0.7-1.3-0.4c-0.6,0.2-1.3,0.9-1.2,1.2c0.3,0.8-0.7,1.6-0.4,2.4c-0.2,0.3-0.3,0.9-1,0.6c-1.1-0.3-1.7,0.6-2.5,1.1 c0.8,0.6-0.7,1.7,0.1,2.2c0.1,0,0.3,0,0.4,0c1.2-0.1,2.7-1.6,3.7-0.3c-0.2,0.3-0.6,0.3-0.9,0.4c-4.3,1.2-5.1,0.9-5.8-1.9 c-0.1-0.3-0.2-0.8-0.8-0.6c-0.5,0.1-1.3,0.3-1.2,0.9c0.1,1.5-1.1,1.2-2.1,1.1c-1.1-1.3-1.8,0.1-2.6,0.7c-0.6,0-1.3-0.1-1.9,0.4 c-0.7-0.6-1.3-0.3-1.7,0.5c-0.2,0.4-0.3,0.9-0.9,1.2c-2,0.4-4,1.2-6.1,1.2c0.1-0.3,0.3-0.7,0.4-1c0.3,0,0.6,0,0.9-0.1 c1.2,0.4,2,0.2,1.9-1.1c-0.1-0.2-0.2-0.4-0.4-0.5c-0.2-0.3-0.2-0.9-0.9-0.7c-1.6,0.3-3,2.2-2.6,3.4c-1,1,1,0.6,0.7,1.4 c-1.3,0.2-2.4,0.7-2.5,2.1c-0.1-0.3,0.2-0.7-0.2-0.8c-1.7-0.3-2.4,1-3.4,1.7c-1.2,0.8-0.1,0.8,0.5,0.9c0.4,0.1,0.4,0.4,0.1,0.7 c-1.2,1.2-0.3,0.9,0.6,0.7c0.8-0.2,1.1,0,1,0.7c0,0.2,0.7,0.5,0.1,0.7c-1.7,0.5-2.4,1.7-3.5,2.5c-0.6,0.4-1.1,0.3-1.5,0.1 c-0.4-0.2-0.4-0.6-0.1-1c0.8-1.4,0.8-1.5-1-1.7c-1.2,0,0.2-0.7-0.2-1c0.2-1.3,0.2-2.4-2.1-1.7c-1.3,0.1-2.1,0.3-1.2,1.4 c0.3,0.4,0.8,0.9-0.6,0.8c-1.4-0.2-2.2,0.1-2.2,1.4c-0.5,0.4-0.7,1-1.8,1c-1,0-2.1,0.7-2.8,1.5c-0.6,1.8-1.9,2.8-4.3,3.1 c-0.4,0.1-1.1,0.2-1.2,0.4c-0.8,1.9-2.6,1.6-4.2,1.8c-0.6,0.1-1.3,0.5-1.7,0.8c-0.8,0.9-2,1.4-3,2c-0.4-0.9,0.5-1.3,1.4-1.9 c1.3-0.8,1.3-1.7,0-1.9c-1.8-0.3-3.6-0.9-5.5,0.9c-0.9-0.3-1.6,0.2-2.4,0.6c-1.5,0.9-3,1.7-4.6,0.9c-0.4-0.2-1,0.1-1,0.3 c0,0.6,0.2,1.3,0.6,1.8c0.3,0.3,1,0.1,1.7-0.3c0.5-0.4,1.3-0.4,1.7-0.8c1.2-0.9,2.1-0.8,2.9-0.1c0.1,0.2,0.2,0.3,0.4,0.5 c-0.3,0.3-0.5,0.7-0.8,1c0.4,0.2,0.9-0.1,1.3-0.1c0.9,0,1.5-1.1,2.3-0.7c-0.8,1-2.4,1.5-3.2,2.5c-1.7,0.6-3.5,0.8-4.9,1.9 c-1.6,0-1.2-1.2-1.8-1.9c-0.1-0.1-0.2-0.2-0.2-0.2c-2.2,0.8-4.5,1.3-6.4,2.5c-0.8,0.5-1.2,0.6-2,0.3c1-0.5,2-0.8,2.8-1.3 c0.5-0.3,1.5-0.4,1.4-1c0-0.6-1-0.2-1.5-0.4c-0.2-0.3-0.3-0.5-0.5-0.8c-0.2-0.4,0-1.1-0.9-0.9c-1,0.2-0.8,0.8-0.9,1.3 c0,0.1-0.3,0.3-0.4,0.4c-1.1,0.4-2.1,0.9-1.7,1.9c-1.6,0.1-2.5,1.5-4.1,1.8c-1.8,0.4-4,0.9-5.3,1.9s-2.3,1.2-3.6,1.2 c-0.1-0.1-0.1-0.2-0.2-0.3c0.1-0.3,0.3-0.7-0.5-0.5s-1.6,0.6-2.3,1c-1.3,1-2.7,1.7-4.4,2l0,0c-1.4,0.3-2.8,0.6-3.4,1.9 c-0.6,0.2,0.7,1.1-0.8,1.1c-0.6-0.4-1.5-0.8-1.7,0.4c-0.2,1.2-1.3,1.6-2.3,2.2c-0.6,0.4-1.5,0.5-1.8,1.2c0.4,0.6,1.4-0.3,1.9,0.3 c-0.7,0.8-1,1.8-2.5,2.1c-0.8,0.2-1.6,0.6-2.4,1.1c-0.9,0.5-1.3-1.1-2.3,0.2c-0.6,0.8,0.5,1.1,0.1,1.7c-0.5,0.8-4.6,2-5.6,1.6 s-2-0.3-3.1,0.3c-1,0.5-2.2,1-3.1,0.5c-1-0.6-1.4,0.1-1.9,0.7c-1.8,2.4-2.1,2.5-4.7,2c-0.1,0.5-0.3,1-0.4,1.4 c-0.3,1.1-3.8,2.8-4.6,2.1c-1.2-1-2.4-0.6-3.8,0.2c-0.1,0.1-0.3,0.3-0.5,0.4c-1.8,1.4-2,1.9-0.6,2c1.9,0-0.8,1.9,0.9,1.9 c0.6,0,1.1-0.1,1.6-0.5c0.7-0.5,1.3-1,2-1.5c0.2-0.1,0.3-0.3,0.5-0.4c0,0,0,0,0,0.1c-0.2,0.1-0.3,0.3-0.5,0.4 c-1.1,0.8-2.2,1.5-0.6,2.2c0.1,0.1-0.1,0.3-0.2,0.5c-0.3,0.2-0.5,0.5-0.8,0.7c-0.6,0.2-1.2,0.4-1.7,0.6c-0.1,0-0.2,0-0.3-0.1 c-1.9,0.9-4,1.5-4.8,3.4c-0.2,0.5-0.8,0.8-1.4,0.9c-2.3,0.6-4.5,1.4-6.6,2.7c-0.8,0.5-1.6,0.5-1.4-0.5c0-0.2-0.1-0.3-0.1-0.4 c0.3-0.5,0.5-1,0.9-1.5c0.2-0.1,0.5-0.3,0.7-0.4c0.7-0.5,0.9,0,1.3,0.2c2.2,1.1,5.5-0.2,6.4-2.4c0.2-0.6,0.6-0.9,1.3-1.1 c0.8-0.2,1.6-0.6,1.2-1.3c-0.4-0.6-0.8-1.3-2.2-0.4c-0.1,0.8-0.2,1.4-1.7,1.3c-1.1-0.1-2.4,0.4-3.5,0.9c-1.1,0.6-2,0.5-3.5,1.1 c0.6-0.5,0.9-0.9,1-0.9c1.3,0.1,2.3-1,3.6-1.2c0.7-0.1,1.1-0.5,0.9-1c-0.3-0.6-2.6-0.8-3.2-0.2c-0.9,1-2,1.2-3.1,1.6 c-1.6,0.6-2.9,1.3-2.6,2.8c-2-0.2-3.2,0.6-4.5,1.7c-0.5,0.4,0.8,1-0.6,1c-0.5-0.4-1.5-0.2-3.5,0.6c-0.9,0.6-1.6,1.6-3,1.4 c-0.7-0.1-1.4,0.7-1.1,1c1,1-0.2,1.4-1,1.9c-0.6-0.1-1.1,0.3-1.6,0.5c-2.1,1.2-4.2,2.3-6.3,3.5c-0.6,0.3-1.2,0.8-2,0.5 c0.2-0.5,0.9-0.6,1.2-1c0.5-0.5,1.9-0.8,1.3-1.5c-0.5-0.5-1.4,0.1-2,0.5c-3,2.2-7.3,2-9.8,4.9c0,0-0.1,0.1-0.2,0.1 c-1.4,0-2.4,0.8-3.5,1.4c-2.3,0.8-4,2.4-6.1,3.3c-3.7,1.7-7.4,3.6-11.2,5.1c-1,0.4-2,1-2.9,1.6c-1,0.7-1.7,1.7-3,2 c-2.4,0.6-4.3,2.4-6.7,3c-0.5,0.1-1.3,0.9-0.5,0.9c3.1,0.1,2.5,1.6,1.4,3.3c-1.6,0.5-3,1.2-4.3,2.1c-1.5,0.3-2.7,1.2-4,1.8 c-0.1-0.4,0.7-1.2-0.3-1.3c-0.9-0.1-1.4,0.5-1.9,1c-0.3,0.3-0.7,0.6-1,1c-0.2,0-0.4,0-0.5-0.1c-0.7-0.2-1.4-0.3-2.2-0.3l0,0 c-1.3,0-1.4-0.3-0.1-1c0.5-0.2,1.1-0.6,0.9-0.9c-0.3-0.5-0.9,0-1.4,0.2c-1.4,0.5-2.8,1.1-4.1,1.8c-5.2,1.9-9.3,5.1-13.6,8.2 c2.7-1,5.6-1.6,7.4-3.9c1.4,0.7,0.7,2.3,1.9,3c0.8-0.4,0.5-0.8,0.4-1.1c-0.1-0.9,0.7-1.7,1-2.6c0.6-1.5,1.7-0.2,2.6-0.5 c1,0.1,0.1,1,0.5,1.3c1.3,0.9,2-0.5,2.9-1c1.1,0.3,2.3-0.4,3.5-0.5c0.1,0,0.3-0.1,0.4-0.1c0,0,0.1,0,0.1,0.1 c-0.8,2-2.6,3.4-4.8,4.4c-2.9,1.3-5.8,2.4-8.5,4c-1-0.8-2.7-0.3-4-0.5c-0.6-1-2.1-0.7-3.1-0.3c-2.1,0.9-3.4,0.2-5.1,0 c-0.8-0.4-1.6-0.3-2.8,0.2c-1.8,0.7-3.3,1.9-5,2.7c-3.4,1.5-6.4,3.5-9.8,5.1c-0.7,0.3-1.3,1.1-1,1.8c0.2,0.4-0.5,0.7-0.8,1.1 c-0.8,0.9-0.8,0-1.1-0.1c-0.4-0.2-0.9-0.1-1.3,0.2c-0.3,0.3-0.7,0.6-1,0.8c-0.5,0-1-0.1-1.6,0.1c-1.3,0.1-2,0.9-2.5,1.6 c-0.3,0.4,0.8,0.3,1.1,0.5c0.1,0.8-1.3,1.7-0.8,2.4c0.9,1.3-0.3,2.1-1.5,3.1c-0.4-0.7-1.2,0.2-1.8,0c-1.1-0.6,0.9-1,0.6-1.5 c0-0.3,0.1-0.8-0.4-0.7c-1.3,0.4-0.8,0.1-0.4-0.5c0.3-0.5,0.4-1.3-0.2-1.5c-0.6-0.3-1.5,0.3-1.8,0.8c-0.8,1.2-2.3,2.3-2.3,3.7 c0.4,0.2-0.2,0.9,0.6,1c1.8,0.1,1.1,0.9,0.2,1.7c-0.1,0.1-0.2,0.2-0.3,0.2c-0.6,0.3-1.3,0.5-1.8,1.3c0.7-0.1,1.3-0.6,1.8-0.3 c-1,1.5-2.5,1.7-4.1,1.5c-1.5-0.3-2.1,1.8-3.8,1.4c1.6-1.1,0.3-3.1,3.2-3.6c0.1,0,0.1-0.3,0.2-0.5c0.8-1.2-0.7-0.9-1.2-1.3 c-1-0.7-1.4-0.3-1.9,0.5c-2.1-0.2-2.3,1.3-3.1,2.3c0.8,0.1,1.9-0.1,2,0.8c0,0.2,0,0.3-0.1,0.5c-0.1,0.8-2.1,2.1,0.4,2.1 c-0.1,0.3,0.1,0.7-0.1,1l0,0c0,0-1.3-1.8-1.7-1.8c-1.5,0-2.5,0-1.9,1.6c0.1,0.1-0.5,0.5-0.8,0.8c-1.1,0-1.8,1-3.1,1.3 c0.6-0.8,1.5-1.2,1.7-1.9c-0.9,0.4-2.4,0.8-2.5,1.2c-0.7,2.2-2.6,2.2-4.5,2.5c-0.7-0.5-1.7-0.6-2.6-0.7c0.4-0.4,0.9-0.7,1.3-1.1 c0.6-0.3,1.4-0.5,1.8-1.1c-0.6-0.8-1.5,0.5-2.2,0.2c0-0.2,0.1-0.3,0.1-0.5c0.2-0.4,0.6-0.9-0.2-1.1c-0.4-0.1-0.9-0.3-1.3,0.1 c-0.5,0.5-0.4,1.1,0,1.3c0.5,0.3,0.5,0.6,0.3,1c-0.2,0.1-0.5,0.3-0.7,0.4c0-0.5,0.2-1.3-0.9-1c-1.1,0.4-0.3,1.1-0.4,1.6 c-0.4,0.5-0.2,0.8,0.2,1c0.2,0.5,0.3,1,0.5,1.6c-0.2,0.3-0.4,0.7-0.9,0.9c-1.2,0.4,0,1.6-1.4,1.9c-0.8,0-1.5,0.8-2.3,0.4 c-0.8-0.8-2,0.1-3,0.1c-0.2-0.4-0.7-0.6-0.4-1.2c0.3,0.3,0.9,0.6,1.1,0.1c0.3-0.7,0.6-1.5,0.1-2.2c-0.4-0.6-0.9-0.4-1.5,0.1 s-1.1,1-1.9,1.4c-1.2,0.5-1.5,1.3,0.1,1.4c-0.3,0.3-0.6,0.6-0.5,1c-1.3,0-2,1.1-3,1.6c-1.4,0-2.2,0.6-2.5,1.7 c1.3,0.1,2.1-0.5,2.9-1.2c1.3-0.7,2.5-1.3,3.8-2c0.2,0,0.4-0.1,0.7-0.1c0.7,0.6,1.9,0.2,2.8,0.3c0.8,0.9-0.7,1.3-1.1,1.6 c-2.6,2-6.2,2.8-8.5,5.2c-0.1,0.1-0.3,0-0.4,0.1c-0.2-1-0.3-2.1-2.2-0.6c-0.2,0.2-0.8,0.1-1.1-0.1l0,0l0.7,1.5h-0.1 c-0.7-0.1-1.7-0.4-2,0.6c-0.2,0.7,0.3,1.3,1.5,1.2c0.5,0,1.2-0.4,1.3,0.3c-0.2,0.2,0,0.5-0.1,0.6c-0.2,0.5,1.6,0.4,0.3,1.2 c-0.8,0.5-1.3,0.6-1.6-0.1c-0.3-0.6-0.7-0.1-1.2,0c-2,0.5-3,2.1-4.6,3.2c-1.2,0.7-3,1.2-3.3,2.7c-0.8,0.4-1.5,0.4-2-0.1 c-0.2-0.2-0.5-0.4-0.9-0.1c-0.4,0.2-0.3,0.5-0.2,0.7c0.8,1.3-0.3,1.7-1.7,2c-0.9,0.2-1.6,0.5-2.1,1.2s-0.9,1.5-2.2,1.5 c-0.4,0-0.7,0.5-0.5,0.8c0.1,0.3,0.4,0.3,0.8,0.2c2.3-1,4.7-1.9,6.9-3c0.6-0.3,1.8-1.2,1.3-1.4c-1.1-0.6-0.1-0.9,0.3-1.3 c0.7,0.9,2.5,0.5,2.7-0.1c0.6-1.4,1.2-1.6,2.8-1.9c2.1-0.5,4.1-1.8,6.2-2.8c-0.1,1-0.4,2.2,1.7,1.6c0.9-0.3,1,0.3,0.9,0.8 c-0.1,0.6-0.5,0.7-1.2,0.8c-0.6,0.1-1-0.6-1.7-0.1c-0.3,0-0.6,0-0.9-0.1c-0.4-0.1-0.9-0.3-1.3,0.1c-0.3,0.3-0.2,0.6,0.1,0.7 c0.5,0.4,1,0.1,1.4-0.3c0.1-0.1,0.3,0,0.5,0c0.5,1-1.7,1.6-1.1,2.5c0.7,1.1-0.9,1.3-1.2,1.2c-1.7-0.8-2.6,0.3-3.6,1.3 c-0.6,0.6-1.9,1-2,0.3c-0.1-0.6-0.7-1.7,0.9-2.3c0.5-0.2,1.1-0.7,0.6-1.1c-0.5-0.4-1.4-0.1-1.7,0.3c-1.3,1.5-3.4,2.1-4.9,3.4 c-0.6,0.5-1.8,1.1-1.2,1.6c0.6,0.6,1.5-0.2,2.1-0.7c0.4-0.3,0.8-0.8,1.3-1c0.7-0.4,1.4-1.1,2.3-0.6c-1.6,1.8-4,2.5-6,3.8 c-1.5,1-2.8,1.5-1,2.9c-1-0.4-1.7-0.2-2.1,0.4c-0.4,0.7,0.6,0.5,0.8,0.8c0.4,0.4,1.4,0.9,1,1.1c-1.6,0.7-1.6,2.5-3.5,2.9 c-0.4,0.1-0.9,0.5-1.1,0.2c-0.1-0.2,0.3-0.6,0.4-0.9c0.7-0.8,1.9-1.6,0.2-2.1c-0.6-0.2-4,1-4.3,1.5c-0.2,0.4-0.1,0.6,0.2,0.9 c0.3,0.3,0.6,0.6,0.9,0.9c-1.2,0.8-2.5,1.6-3.6,2.5c-0.7,0.5-2.2,0.5-2.1,1.4c0,0.8,1.6-0.3,2,0.3c-0.2,0.5-0.7,0.8-1.1,0.9 c-1.5,0.3-2.4,1.1-3.6,2c-1.6,1.1-3.1,2.4-5.5,2.4c-0.9,0-2.4-0.1-3.4,0.7c-1.7,1.3-4.2,1.9-4.9,4c-0.1,0.5-0.9,0.4-1.2,0.7 c-1.7,1-3.2,2.2-3.5,3.9c0.6,0.2,0.7,1.2,1.8,0.5c1.5-1,3.4-1.5,4.7-3c0.7-0.8,1.7-1.5,3-2.1c-0.5,0.7-1.4,1.2-0.9,1.7 c0.5,0.4,1.3-0.1,1.9-0.4c2.2-0.9,3.9-2.7,6.3-3.4c0.6-0.2,0.6-0.7,0.4-1c-0.4-0.8,0.3-1.2,1.1-1.7c1.7-1.1,3.7-1.3,5.4-2.3 c0.6-0.3,0.8-0.1,0.9,0.4c0.1,1.2-1,2.2-2.9,2.7c0.1-0.4,0.5-0.8,0.2-1.2c-0.2-0.3-0.4-0.5-0.9-0.4s-1,0.4-0.8,0.7 c0.3,0.6-0.1,1.3,0,2c-0.1,0.2-0.2,0.4-0.3,0.6c-4.1,2.6-8.5,4.9-12.7,7.3c-0.8,0.4-1.3,0.3-1.8-0.2c-0.3-0.4-0.8-0.5-1.4-0.2 c-0.5,0.2-0.7,0.6-0.8,1l0,0c-0.5-0.8-1.1-0.6-2.7,0.3c-0.5,0.6-1,1.3-1.8,0.5c-0.4-0.4,1.5-1.9-0.8-1.4c-0.3-0.3-0.6-0.7-0.4-1.2 c0.8-0.8,0.6-1.7-0.3-1.7c-1.7,0.1-2.8,1.3-3.7,2.5c1.3-0.8,2.1-0.6,2.7,0.3c0.6,1.2-1.1,1.5-1.8,2.1c-1,0.3-1,1.3-1.9,1.8 c-1.1,1.2-1.4,0.3-1.8-0.2c-0.7-1-1.4-1.1-2.4,0.2c-0.8-0.5-1.4-1.4-2.1,0.5c-0.2,0.6-0.9,1.3-0.9,2.1c0,0.7-0.6,1.4-1.4,1.6 c-2.2,0.5-3.4,1.6-3.2,3.3c-1.2,1.2-3.5,1.8-3.7,3.6c0.4,0.1,0.9-0.4,1.3-0.1c-0.1,0.6-0.8,1.5,0.5,1.8c0.4-1,1.3-1.6,2.3-2.2 c1.1,0.1,2.2,0,2.9-1.1l0,0l0,0c-0.1-0.1-0.1-0.2-0.2-0.3l0,0c1.8-1.4,1.8-0.1,2.1,0.7c0.5,0.6-0.1,0.9-0.8,1.3 c-1.1,0.8-2.5,0.2-3.5,1.2c-2.3,2.1-5.2,3.6-7.4,5.8c-0.8,0.8-2.4,0.8-3.1,1.8c-0.8,0.2-0.8,1-1.4,1.4c-1.2,0.8-1.2,0.8-0.7,1.6 c1.9-0.4,2.6-2.1,4.2-2.8c0.3-0.1,0.7-0.1,1-0.3c0.3-0.6,0.8-0.9,1.5-0.8c1.4,0.4,2.4,0.9,0.8,2.4c0,0,0,0.1,0,0.2 c-0.7,2.1-3.9,1.9-5.1,3.7c0,0-0.3,0-0.4,0c-0.4,0.1-0.7,0.5-0.5,0.7c0.8,1.2-0.6,1.7-1.5,2c-1.2,0.4-1.2,2-2.8,1.8 c-1.7-0.9-3.3,1.7-5,1c-0.2-0.1-0.5,0.4-0.3,0.7c0.5,1.3-0.7,1.2-1.6,1.3c0-0.7-0.4-0.6-1-0.2c-1.5,1.1-0.8,2.5-1.8,3.6l0,0 c-0.8,0.2-1.5,0.9-2.5,0.9c-0.7,0-0.9,0.3-0.7,0.7c-0.5,1.2-2.4,1.7-2.7,3c-0.7,0.3-1.3,0.6-2,1c-0.5-1.3,1.1-1.9,1.8-2.7 c0.5-0.6-1.2-1.4,1-1.8c-1.1,0-1.9,0.4-2.6,0.2c-0.1-0.4,0-0.7,0.7-0.8c1.1-0.4,2.1-1.2,3.7-0.7c-0.4-0.7-0.7-1-0.5-1.5 c0.2-1.1-0.5-1.2-1.5-0.6c-0.3,0.2-0.5,0.7-0.9,0.7c-2.4,0.1-3.1,2.1-4.7,3c-0.5,0.6-1.4,0.7-2,1c-0.8,0.4-1.5,0.9-1,1.6l0,0 c-0.5,0.7,1.2,0.6,0.6,1.3c-0.8,0.8-0.5,1.5-0.5,2.3c0,1.5-1.8,3.9-3.2,3.9c-1.3,0-1.3,0.5-1.6,1c-0.3,0.4-0.4,0.9-0.8,1.3 c-0.6,0.6-1.4,1-2.2,1.5c-0.3-0.6-0.6-1.1-0.7-1.7c-0.1-0.3,0.6-0.8,0-1c-0.4-0.1-0.8,0.2-1.2,0.4c-0.5,0.4-0.7,0.7-0.4,1.2 c0.4,0.5,0.7,1.1-0.7,1.2c-0.4,0-0.4,0.3-0.2,0.4c0.7,0.5,0.2,0.7-0.5,0.9c-1.7,0.5-3,1.6-3.8,2.7c-0.6,0.8-2.4,0.6-2.2,1.8 c-1,1-2,2-3.4,2.6l0,0c-2.1,1.6-4.2,3.3-6.4,4.9c-1.1,0.8-1.5,1.5-0.8,2.3c-2.4,1.9-4.8,3.8-7.2,5.7c-0.3,0.1-0.6,0.4-0.8,0.3 c-1.8-0.1-2.5,0.5-2.7,2c-0.1,0.7-0.7,1.5-1.7,2c-0.6,0.3-1.2,0.6-0.9,1.2c-0.3,0.3-0.6,0.6-0.8,0.9c-1.1,0.5-1.7,1.2-1.9,2.1 c0.8-1.2,2.7-1.4,3.5-2.7c1.2-0.8,2.3-1.6,3.5-2.4c1.2-0.2,1.2-1.3,2.1-1.8c0.1,0.1,0.1,0.2,0.2,0.3c0.9,0.9,0.2,2.6-1.4,3.7 c-2.2,1.5-2.2,1.5-2.8,3.4c0.7-0.5,1.5-1,2.1-1.6c1.5-1.4,3.4-2.5,4.5-4.2c0.8-0.5,1.5-0.9,2.1-1.6c1.6-1.1,3.2-2.3,4.8-3.4 c1.4-0.9,2.2-0.7,2.2,0.6c-0.8,0.7-1.6,1.4-2.3,2.1c-0.9,0.9-2.6,1.3-3,2.6c-0.4,0.4-0.7,0.8-1.2,1.1c-3.6,2-5.9,5-9.1,7.3 c-1.1,0.8-2.3,1.8-3,3l0,0c-0.7,0.5-1.5,1.1-2.2,1.6c-1.3,0.9-2.9,1.6-3.5,3.1c-0.1,0.4-0.7,0.9-0.1,1.1c0.5,0.2,1.1-0.1,1.5-0.6 c1.4-1.3,3-2.5,4.3-3.8c1.7-1.8,4.3-3,5.5-5.1c3.1-1.6,4.8-4.5,7.9-6.1c0.3-0.1,0.4-0.5,0.6-0.7c1.9-2,4.4-3.6,6.5-5.4 c2.3-2,4.4-4.3,7.8-5.1c0.7-0.2,0.9-0.8,1.1-1.3c2.6-1.5,5.2-2.9,7.2-5l0,0c1.3-1,3.2-1.4,4.1-2.8c1.2-1,2.3-1.9,3.4-2.8 c2.9-1.4,5.4-3.4,8.8-3.7c-0.2,0.4-0.3,0.7-0.5,1c-2.5,1.7-4.9,3.3-7.2,5.2c-1.8,1.5-3.5,3.2-6,4.2c-1.3,0.6,0.9,0.8,0.3,1.5 c-0.1,0.1-0.4,0.5,0.3,0.2c1.1-0.5,2.4-0.8,3.4-1.6c1.2-1.1,2.7-1.9,3.9-2.9c2.4-2,6-2.7,8-5.1c0.2-0.3,0.9-0.6,1.6-0.5 c-1.5,1.5-2.7,3-4.5,4.1c-1.4,0.8-2.6,1.8-3.2,3.1c-1.1,0.4-2,0.9-3,1.5c-2.3,1.4-4.5,2.9-6.5,4.6c-2.7,2.3-6,4.2-8.8,6.5 c-1.5,1.2-1.5,1.4-1.5,2.7c1.7-2.1,4.1-3.2,6.1-4.6c4.3-3.1,8.1-6.7,12.9-9.3c0.5-0.3,1.1-0.7,1.6-1c0.1,0,0.3-0.1,0.4-0.1 c0.5-0.1,0.9,0,1.4,0.6c-2.2,1.6-5.1,2.3-7,4.6c-1.1,1.3-3.5,2.4-5.3,3.6c-4.4,3-8.5,6.2-12.9,9.2c-1.5,1.6-3.9,2.5-5.3,4.3 c0.5,0.2,1.8-0.7,1.3,0.5c-0.4,0.6-1.1,0.9-1.7,1.3c-2.5,0-2.8,0.2-3.3,2.4c0,0.2-0.1,0.3-0.3,0.4c-1,0.2-1.7,1.1-2.8,1.1 c-2.8,0.8-2.5,2.4-2.5,3.9c-1.2,0.7-2.5,1.4-3.2,2.5c-0.3,0.5-0.9,0.8-1.4,0.5c-1.1-0.7-1.1-0.7-2,0.5c-2.1,0.6-3,2.2-4.5,3.4 c-0.4,0.3-0.4,1,0.3,1.2c0.3,0.3,0.8,0,1.2,0.1v0.1c-0.9,1.3-2.3,2.2-3.7,3.1c-1.3,0.7-2.4,1.5-2.9,2.7c-2.7-0.1-2.7-0.1-3.1,2.2 c-0.1,0.3-0.4,1-0.9,0.8c-1.8-0.8-1.6,0.7-2.7,1.5c1.3-0.5,2.1-0.7,2.3,0c-0.4,0.5-0.7,0.9-1.1,1.4c-1.1,0.6-2.1,1.3-2.4,2.8 c1.2-1,2.6-1.3,3.1-2.4l0,0c0.2-0.2,0.5-0.3,0.7-0.5c0.4,0.5,0.6,1,0.6,1.6h0.1c-1.6,1.1-1.6,2.8-3.1,3.9l0,0l0,0 c-0.9,0.8-2,1.7-1.8,2.8c-0.6,0.6-1.8-0.2-2,0.6c-0.5,1.7-2.5,2.6-3.2,4.1l0,0c-1.4,0-2.2,0.6-2.6,1.8c-0.6,1.4-2.3,2.1-3.6,2.9 c-0.9,0.5-1.7,0.7-1.5,1.7c0.1,0.7-0.3,1.1-1,0.4c-0.3-0.2-0.5-0.1-0.6,0.2c-0.7,1.6-2.2,2.6-3.6,3.7c-0.7,0.6-1.9,1.5-1.9,2.6 c-0.5,0.5-0.5,1.3-1.3,1.5c-3.9,0.7-4.1,4-6.5,5.8c-0.9,0.7-1.7,2-2.8,2.9c-0.6,0.5-1.3,0.9-1.3,1.6c-1,1.6-3.1,2.7-3.9,4.4 c-0.6,0.5-1.7,1.1-1.1,1.8c0.6,0.8,1.3-0.3,2-0.5c1.9-0.5,2.5-2,3.8-2.9c3.9-2.9,6.9-6.4,10.4-9.6c2-1.7,3.8-3.7,6.2-5 c1.1-0.6,1.8-1,1.8-2c0.8-1,1.6-1.9,2.6-2.8c2.2-2,5.1-3.6,6.8-6c2.4-1,3.5-3,5.3-4.4c1.1-0.6,2.2-1.2,3.2-1.7 c0.6-0.3,1.2-1.5,1.9-1c0.7,0.5-0.6,1.3-1.1,1.9c-0.3,0.3-0.9,0.5-1.2,0.9c-0.6,0.6-1.6,1.2-1.3,2.1c-1.2,1.3-2.7,2.4-4,3.6 s-3.4,2.6-3.3,4c0.2,2.7-2.3,5.2-2.4,7.8c-0.1,1.6-1.9,2.9-2.1,4.4c-2,4.1-3.5,8.2-4.9,12.3c-0.7,0.6-0.7,1.4-0.5,1.8 c1,2.6-0.6,5.7,0.7,8.3c0.3,0.5,0.4,1.1-0.1,1.8c-0.3,0.2-0.4,0.5-0.4,0.8c-0.2,2.6,2.4,3.4,4.4,4.4c1.6,0.8,3.4,1.7,5.8,1.3 c3,0.5,6.1,0.3,9.3-0.6c1.9-0.5,3.8-1,5.7-1c4.1-0.1,8.1-1.3,12.2-2.3c3.9-0.9,7.8-1.9,12-1.8c-3.9,2.7-6.6,5.9-10.9,7.8 c0-0.5,1.4-0.9,0.6-1.3c-0.5-0.2-1.1,0.5-1.7,0.8c-0.9,0.5-0.6,0.8-0.1,1.1c-2.5,1.3-5.1,2.5-7.3,4.2c-0.9,0.7-2,1-3,1.3 c-0.8,0.3-1.6,0.4-1.9-0.5c-0.1-0.3-0.2-1-1.5-1c-2.5,0.1-4.2,1.5-6.2,2.3c-6.9,2.6-11.9,7.1-16.5,11.9c-0.7,0.7-1.5,1-2.3,1.4 c-1.7,0.9-4.1,0.8-5.4,3c2-0.8,3.7-1.4,5.4-2.1c0.7-0.3,1.4-0.5,2.1-0.5c-0.5,0.9,1,0.9,0.8,1.4c-0.3,0.6-1.2,1-2,1.1 c-1.2,0.2-1.8,0.8-2.4,1.8c1.9-0.7,3.6-1.1,5.1-1.9c1.9-0.9,2.4,0.1,2.8,0.9c0.6,0.9-0.7,1.2-1.5,1.6c-2.5,1.4-5.1,2.7-7.6,4.1 c2.2-0.4,4-1.6,5.9-2.6c0.7-0.3,1.5-0.9,1.9-0.3c0.5,0.7,1.6,0.8,2,1.6c-2.4,1.2-4.8,2.3-7.1,3.5c-0.4,0.2-1,0.3-0.8,0.7 c0.3,0.6,0.7,0.1,1.2-0.1c1.9-1,3.9-1.9,5.8-2.9c1.3-0.7,2.4-1.3,2.3,0.5c0,0.4,0.6,0.6,0.9,0.9c1.1,1,2.9,1.3,4,2.1 c2.1,1.6,4.9,2,7.5,1.6c7.6-1.2,15.2-1.9,22.6-4.9c0.6,0.3,1.3-0.5,1.9-0.3c-0.1,0.1-0.2,0.2-0.3,0.2c-0.4,0.2-0.9,0.5-1.3,0.7 c-1.8,1.5-2.7,3.1-2.7,5c0,0.6-0.7,1.4,0.1,1.8c0.8,0.3,1.4-0.3,2.1-0.7c0.4-0.2,0.8-0.3,1.1-0.5c0.8,0.1,1.4-0.5,2.1-0.8 c1,0,1.9-0.2,2.7-0.8c0.9,0.2,1.5,1.3,2.9,0.3c0.8-0.2,1.5-0.3,2.3-0.5c2.3,0.5,4.1-1.4,6.1-1.9c0.1,0,0.2-0.1,0.4-0.1 c0,1.1,0.8,1.5,2,1.7c-1.4,1.4-3.1,2.1-4.6,3c-0.9,0.6-1.6,1.1-1.7,2.1c-1.7,2-4.3,3.4-6.5,5.8c1.7-0.5,2.6-0.9,3.5-1.5 c1.5,0,2.6,0.2,0.6,1.6c-0.3,0.2-0.8,0.5-0.7,0.9c0.2,0.5,0.8,0.2,1.2,0.2c0.5,0,1-0.2,1.4-0.3c0.1,0.2-0.5,0.8,0.1,0.6 c1.9-0.7,4.1-0.7,5.8-2l0,0l0,0l0,0c0.6,1.1-0.2,2.7,1.6,3.4c0.4,0.2,0.1,1-0.7,1.5c-0.3,0.2-0.7,0.6-0.1,0.7 c1,0.1,1.1,0.7,0.9,1.4c-0.1,0.6,0.3,0.7,0.9,0.5c1.5-0.6,1.8,0.6,2.7,0.8c-0.7,0.8-0.1,1.7-0.7,2.4c-0.1,0-0.2,0-0.2,0.1 c-0.7,0.3-1,0.9-0.8,1.5c0.1,0.2,0.2,0.3,0.3,0.3c0.1,0.2,0.6,0.3,0.2,0.7c-1.2,1.3,0.2,1,0.9,1.1c0.9,0.1,1.6-0.3,2.3-0.8 c1.1-0.4,2.3-0.8,3.4-1.1c0.2,0.1,0.4,0,0.6-0.1c0,0.2,0.1,0.3,0.3,0.4c0.2,0.1,0.5,0.1,0.8,0.1c-0.1,0.3-0.2,0.6-0.6,0.9 c-0.2,0.2-0.4,0.4-0.5,0.5c-0.4,0.9-0.6,1.6,1,1.2c0.9-0.2,1.9-0.4,2.8-0.6c0,0.2-0.1,0.4-0.2,0.6c-0.3,0.3-0.6,0.6-1.1,0.8 c-0.2,0.1,0.1,0.3,0.5,0.5c-0.3,0.3-0.5,0.5-0.9,0.8c-1.2,0.6-1.9,1.5-2.4,2.5c-0.5,0.4-1.1,0.7-1.5,1.2c-0.5,0.6-1.8,1.1-1,1.8 c0.7,0.6,1.6,0.8,2.7,0.2l-0.4,0.2c2.6,0.3,5.3-0.3,8-0.9c0.1,0.2,0.3,0.5,0.6,0.6c0.4,0.5,1,0.2,1.5,0.4v0.1 c-0.9,1.4-2.4,2.3-3.9,3.2c-1-0.3-1.9,0.1-2.9,0.6c-0.4,0.2-1.2,0.3-1.4,0.2c-1.4-1.1-2.6,0-3.7,0.9c-0.9,0.8-2,1.3-3,1.9 c-0.6,0.1-1.2,0.1-1.9,0.2l0,0c-0.8-0.4-2.9,0.9-2.6-1c0-0.2-0.3-0.3-0.6-0.1c-3,0.9-6.2,1.5-8.1,4.3c-0.4,0.6-1.1,1-1.8,1.6 c0.4-0.1,0.7-0.2,1-0.1c3.4,0.2,6.7,0,9.8-2.5l0,0c3.5-0.2,6.8-1.1,9.4-3.9c0.1,0.3,0.2,0.4,0.2,0.5c-0.1,0.1-0.2,0.2-0.3,0.4 c-1,0-1.2,0.6-1.4,2.6c-0.1,0.4-0.4,1.3-1,0.9c-2.2-1.5-1.9,0.6-3.1,1.5c1.5-0.4,2.4-0.5,2.8,0.6c-0.4,0.5-0.8,1.1-1.2,1.6 c-1.3,0.6-2.4,1.3-2.7,3.3c1.3-1.2,3-1.1,3.5-2.6c0.3-0.2,0.6-0.3,0.9-0.5c0.5,0.7,0.8,1.5,0.7,2.3l0,0c-1.8,1.1-1.8,3.5-3.5,4.7 c-1,0.9-2.2,1.8-2,3.4c-0.7,0.7-2.1-0.6-2.4,0.3c-0.5,2.2-2.8,3-3.6,4.9l0,0c-1.6-0.3-2.5,0.4-3,1.8c-0.6,1.8-2.6,2.4-4.1,3.2 c-1,0.5-1.9,0.6-1.7,1.9c0.1,0.9-0.3,1.5-1.1,0.4c-0.3-0.4-0.6-0.2-0.7,0.1c-0.7,2-2.5,3-4.1,4.3c-0.9,0.7-2.2,1.6-2.1,3.1 c-0.6,0.5-0.5,1.7-1.4,1.7c-4.5,0.1-4.7,4.5-7.4,6.4c-1,0.7-1.9,2.4-3.2,3.3c-0.7,0.5-1.5,0.9-1.4,1.9c-1.1,1.9-3.5,3-4.4,5 c-0.7,0.6-1.9,1.1-1.3,2.1c0.7,1.2,1.5-0.1,2.3-0.2c2.2-0.2,2.9-2.1,4.4-3.1c4.4-3.1,7.8-7.2,11.8-10.6c2.2-1.9,4.3-4.1,7.1-5.4 c1.3-0.6,2-1,2-2.3c0.9-1.2,1.9-2.2,3-3.2c2.5-2.3,5.9-3.8,7.8-6.7c2.8-0.8,3.9-3.3,6-4.8c1.2-0.6,2.5-1.1,3.7-1.6 c0.7-0.3,1.4-1.7,2.1-0.9c0.8,0.9-0.6,1.6-1.2,2.3c-0.3,0.4-1,0.5-1.3,0.9c-0.7,0.7-1.9,1.3-1.4,2.6c-1.4,1.5-3,2.6-4.6,4 c-1.5,1.3-3.9,2.8-3.7,4.7c0.4,3.8-2.4,6.5-2.5,10.1c0,2.1-2.1,3.5-2.3,5.6c-2.1,5.1-3.8,10.3-5.2,15.6c-0.8,0.7-0.7,1.7-0.5,2.3 c1.3,3.8-0.5,7.7,1.2,11.4c0.3,0.8,0.6,1.6,0,2.4c-0.4,0.2-0.4,0.6-0.4,1c-0.1,3.5,3,5.2,5.4,7c1.9,1.4,4.1,3,6.8,3.1 c3.7,1.5,7.6,1.8,11.6,1.2c2-0.3,4-0.3,6,0c4.8,0.7,9.5,0,14.2-0.4c4.5-0.4,9.1-0.9,14,0.2c-4.4,2.8-7.5,6.6-12.4,8.2 c0-0.6,1.6-0.9,0.6-1.6c-0.6-0.4-1.3,0.4-1.9,0.7c-1,0.5-0.7,1,0,1.5c-2.9,1.2-5.9,2.2-8.3,4.2c-1,0.8-2.3,0.9-3.5,1.1 c-1,0.2-1.8,0.2-2.3-1.1c-0.1-0.4-0.3-1.4-1.8-1.6c-2.9-0.5-4.8,1.1-7.2,1.7c-8,2-13.7,6.9-18.9,12.5c-0.7,0.8-1.7,1-2.6,1.4 c-1.9,0.9-4.8,0.1-6.2,2.8c2.4-0.6,4.3-1,6.3-1.6C97.9,648,98.7,647.8,99.6,648L99.6,648z"></path> </g> <g id="Calque_7"> <path class="st1" d="M487.3,418.8c0-22.3,7.3-44.1,21.3-62.3c-21.1-7.3-45.4-11.4-72.8-11.4C329.7,345.1,262,420,262,493.7 c0,39.9,19.9,78.1,60,104.4c-1.6,13.2-7.4,25.4-16.8,34.7l-17.4,17.4h24.5c24.5,0,47.9-10,65.1-27.7c18.2,4.8,38.7,7.4,58.2,7.4 c90.5,0,147.6-45.1,166.1-101.5C527.6,521.1,487.3,471.6,487.3,418.8z"></path> <g id="Speech_Bubble_2_"> <g> <path class="st1" d="M667.8,510.4c-13,3.4-27.5,5.3-41.4,5.3c-79.5,0-122.8-49-122.8-101.4c0-52.1,42.8-101.1,122.8-101.1 c75.4,0,123.6,53.3,123.6,105.7c0,28.4-14.2,55.5-42.7,74.2c1.1,9.4,5.3,18,11.9,24.7l12.3,12.3H714 C696.7,530.1,680.1,522.9,667.8,510.4z"></path> </g> </g> <path class="st2" d="M688.5,397.7c0,28.4-61.5,75.4-61.5,75.4l0,0c-0.8-0.6-61.5-47.2-61.5-75.4c0-28.4,42.6-42.6,61.5-5.9 c11.4-22.1,31.4-25.7,45.5-18.9C681.8,377.4,688.5,386.4,688.5,397.7z"></path> </g> </svg> 