<?xml version="1.0" encoding="UTF-8"?> <!-- Generator: Adobe Illustrator 23.0.2, SVG Export Plug-In . SVG Version: 6.00 Build 0) --> <svg xmlns="http://www.w3.org/2000/svg" xmlns:xlink="http://www.w3.org/1999/xlink" version="1.1" id="Calque_1" x="0px" y="0px" viewBox="0 0 1029 922" style="enable-background:new 0 0 1029 922;" xml:space="preserve"> <style type="text/css"> .st0{fill:#5E95C6;} .st1{fill:none;stroke:#FFFFFF;stroke-width:21;stroke-miterlimit:10;} .st2{display:none;fill:#FFFFFF;} .st3{fill:#FFFFFF;} .st4{fill:#F70000;} .st5{display:none;} .st6{display:inline;fill:#FFFFFF;} .st7{fill:#5E95C6;stroke:#5E95C6;stroke-width:8;stroke-miterlimit:10;} </style> <g> <g id="Calque_3"> <path class="st0" d="M109.5,494.3L109.5,494.3L109.5,494.3L109.5,494.3L109.5,494.3z M89.2,482.9L89.2,482.9 C89.2,482.8,89.2,482.8,89.2,482.9C89.2,482.8,89.2,482.9,89.2,482.9L89.2,482.9z M118.2,311.8c0,0-0.1,0-0.1-0.1 c0.1-0.2,0.5-0.4,0.8-0.6c-0.4,0.4-0.2,0.8,0.1,1.1c0.3,0.2,0.7,0.3,1.1-0.1c0.1-0.1,0.4,0.1,0.1,0.1 C119.1,312.7,118.6,312.3,118.2,311.8L118.2,311.8z M119.3,310.7c0.1,0,0.2,0.1,0.3,0.2c0,0,0,0,0,0.1c-0.1,0-0.2,0-0.3-0.1 c-0.1,0-0.1,0.1-0.2,0.1C119.2,310.9,119.2,310.8,119.3,310.7L119.3,310.7z M115.6,323L115.6,323L115.6,323L115.6,323L115.6,323 L115.6,323z M99.6,336.9C99.6,336.9,99.7,336.9,99.6,336.9c0.8,0.1,1.9-0.3,2.3,0.4C101.1,337.3,100.4,337.1,99.6,336.9 L99.6,336.9z M92.3,342.4c0.4-0.8,1.6-1.2,1.5-2c1,0.1,1.9-0.9,2.9-0.9C95.3,340.5,94,341.5,92.3,342.4L92.3,342.4z M129.1,313.3 C129.2,313.3,129.2,313.3,129.1,313.3C129.2,313.3,129.2,313.3,129.1,313.3L129.1,313.3L129.1,313.3z M312.7,608.5 c0,0.1,0,0.3,0,0.4c-0.1-0.1-0.2-0.2-0.2-0.3C312.5,608.5,312.6,608.5,312.7,608.5L312.7,608.5z M322.2,613.8 C322.2,613.8,322.2,613.9,322.2,613.8c0,0.1-0.1,0.1-0.1,0.1C322.1,613.9,322.1,613.8,322.2,613.8L322.2,613.8z M159.3,279.8 c1.1,0.2,2.3-0.6,3.3-0.6c-0.5,0.2-1.3,0.2-1.6,0.8c0,0,0,0-0.1-0.1c-0.5-0.1-1.1,0.1-1.7,0.2C159.2,280,159.3,279.9,159.3,279.8 L159.3,279.8z M161.5,274.2c0.1-0.1,0.3-0.1,0.4-0.2c-0.1,0.8,0.5,1.7-1.2,2.4C161.1,275.6,162.6,274.9,161.5,274.2L161.5,274.2z M164,276.9c-0.4,0.3-0.6,0.1-0.9,0c-0.1,0-0.1,0-0.1-0.1l0,0C163.2,277,163.7,276.7,164,276.9L164,276.9z M332.7,616.1 c0.1,0,0.2,0.1,0.2,0.1c-0.1,0-0.1,0.1-0.2,0.1l0,0C332.8,616.2,332.7,616.2,332.7,616.1L332.7,616.1z M174.6,271.4 c-0.2,0.1-0.5,0.2-0.7,0.2C173.9,271.1,174.3,271.2,174.6,271.4L174.6,271.4z M200.8,244.7c0.1,0,0.2-0.1,0.3-0.1 C201,244.7,200.9,244.7,200.8,244.7C200.8,244.8,200.8,244.7,200.8,244.7L200.8,244.7z M286.1,189c0.1,0,0.1,0,0.2,0.1 c-0.1,0-0.2,0-0.3,0C286,189.1,286.1,189.1,286.1,189L286.1,189z M299.5,179.8c0.9-1.4,2.6-1.2,3.9-1.8c0.3-0.1,0.3,0.4,0.3,0.6 c-0.9,0.5-2,0.8-3,1.8c1.6-0.1,2.6-0.6,3.5-1.3l0,0c0.3,0,0.6-0.1,0.8-0.3c0-0.1,0.1-0.1,0.1-0.2c0.5,0.1,0.9,0.3,0.8,0.8 c-0.1,0-0.3,0.1-0.4,0.1c-1.6,0.4-3.2,1.1-4.8,1.6c-0.1,0-0.1,0-0.2,0.1C300.4,180.5,299.9,180.2,299.5,179.8L299.5,179.8 L299.5,179.8z M360.8,151.2L360.8,151.2L360.8,151.2L360.8,151.2L360.8,151.2z M360.7,150.5C360.8,150.5,360.8,150.5,360.7,150.5 C360.8,150.5,360.8,150.5,360.7,150.5L360.7,150.5L360.7,150.5L360.7,150.5z M360.2,146h0.1C360.3,146,360.2,146,360.2,146 L360.2,146L360.2,146L360.2,146z M666.9,758.2L666.9,758.2L666.9,758.2L666.9,758.2L666.9,758.2z M667.5,758.8 C667.5,758.8,667.6,758.8,667.5,758.8C667.6,758.8,667.6,758.8,667.5,758.8L667.5,758.8L667.5,758.8L667.5,758.8z M372.7,143.2 c0.2,0,0.3,0,0.5,0.1c-0.1,0.1-0.2,0.1-0.4,0.2C372.7,143.4,372.7,143.3,372.7,143.2L372.7,143.2z M756.5,735.4 c-0.5-0.2-0.7-0.5-0.9-0.8C755.8,734.9,756.2,735.2,756.5,735.4L756.5,735.4z M755.3,733.7C755.3,733.7,755.4,733.7,755.3,733.7 L755.3,733.7L755.3,733.7L755.3,733.7z M764.6,723.5c0.4-0.1,0.8-0.2,1.4-0.4c-0.1,0.1-0.1,0.3-0.2,0.4c-0.7,0.1-1.1,0.2-1.1,0.1 L764.6,723.5L764.6,723.5z M764.3,720.6c-0.1-0.1-0.2-0.1-0.3-0.1c0.6-0.1,1.6-0.4,2.9-0.7c0,0,0,0.1-0.1,0.1 c-0.2,0.4,0,0.8,0.5,0.9c-2.2,0.6-3.5,0.9-3.4,0.8C764.4,721.2,764.5,720.9,764.3,720.6L764.3,720.6z M760.4,713.7L760.4,713.7 L760.4,713.7L760.4,713.7L760.4,713.7z M761.2,711.6c0.6-0.6,1-0.6,1.5-0.4C762.1,711.3,761.7,711.5,761.2,711.6L761.2,711.6 L761.2,711.6z M770,722c0.7-0.2,1.5-0.4,2.3-0.7l0.1,0.1c-0.2,0.2-0.4,0.4-0.4,0.6c-1,0.2-1.9,0.5-2.7,0.7 C769.5,722.4,769.7,722.2,770,722L770,722z M767.1,711.9L767.1,711.9L767.1,711.9L767.1,711.9L767.1,711.9L767.1,711.9 L767.1,711.9z M770,708.9c0-0.6,0.7,0.1,1.2-0.1c0.9,0,1.5-0.6,2.2-0.9c1.4,0.4-0.2,0.9-0.4,1.1c-0.7,0.5-1.4,0.8-0.9,1.4 c-1.4,0.4-2.7,0.8-3.9,1.2C767.4,710.6,770,709.8,770,708.9L770,708.9z M765.9,705.3L765.9,705.3 C765.8,705.3,765.8,705.3,765.9,705.3C765.8,705.3,765.9,705.3,765.9,705.3L765.9,705.3z M768.7,707.9L768.7,707.9L768.7,707.9 L768.7,707.9L768.7,707.9z M767.4,708.5L767.4,708.5L767.4,708.5L767.4,708.5L767.4,708.5L767.4,708.5L767.4,708.5L767.4,708.5z M778.5,716.4c1-0.3,2-0.6,3-0.9c0.1,0.1,0.1,0.2,0.2,0.2c0.2,0,0.3-0.2,0.4-0.4c0.4-0.1,0.8-0.2,1.2-0.4c0.4,0.4,0.3,1,1.3,0.8 c-1.6,0.5-3.2,0.9-4.7,1.3c-0.2,0-0.4,0-0.6,0.1c-0.1,0-0.3,0.1-0.4,0.2c-1.4,0.4-2.8,0.8-4,1.1c0.1-0.1,0.2-0.2,0.3-0.2 C776.9,718.1,777.9,717.4,778.5,716.4L778.5,716.4z M776,708.3L776,708.3C776,708.4,776,708.4,776,708.3L776,708.3L776,708.3z M772.9,719.1c0-0.1-0.1-0.1-0.1-0.2c0.2,0,0.4,0,0.6,0C773.3,719,773.1,719,772.9,719.1L772.9,719.1z M774.6,723.4 c-0.4,0-0.4-0.2-0.4-0.5C774.4,723.1,774.5,723.2,774.6,723.4L774.6,723.4z M788.1,703.4c1.3-0.9,3-0.3,4.3-1.1 c0.7-0.2,0-0.9,0.8-1.1c1.8-0.5,0.8-0.9,0.2-1.3c0.5-0.9,1.8-0.4,2.5-1.1c1.4-0.4,1.5,0.5,2.1,0.9c1.1,0.8,2.1,0.3,3.2-0.4 c0.9,0.2,0.9,1,1.4,1.5c0,0.2-0.1,0.5-0.1,0.6c-5,1.4-12.2,3.5-19.2,5.6C785.3,706.1,786.4,704.5,788.1,703.4L788.1,703.4z M802.8,698.8c0.1-0.1,0.1-0.2,0.1-0.3l0,0c1.2-0.3,0.9-1.2,1.2-1.9c0.7-0.1,0.3-2.1,1.7-0.7c0.1,0.1,0.2,0.3,0.3,0.4 c-0.3,0.8,0.4,1.3,0.3,2c-0.7-0.1-1.4,0.3-2.1,0.5c-0.3,0-0.7,0.1-1,0c-0.1,0-0.2,0.1-0.3,0.1C802.9,699,802.9,698.9,802.8,698.8 C802.9,698.8,802.8,698.8,802.8,698.8L802.8,698.8z M812,688.8c-0.7-0.2-1.5-0.1-2.3,0.2c-1.1,0.4-1.9,1.2-3.1,1.3 c-0.3-0.3-1.5-0.1-1.1-0.8c0.3-0.6,1-0.1,1.5-0.2c0.2-0.1,0.4-0.2,0.6-0.2c0.6-0.2,1.3-0.4,1.9-0.7c0.6-0.3,1.5-0.9,1.2-1.3 c-0.6-0.8-1.1,0.3-1.7,0.5c-0.4,0.1-0.7,0.3-1,0.5c-0.5-0.3-1.1,0.3-1.8,0.2c-1.2-0.3-1.9,0.5-2.2,1.4c-0.2,0.1-0.5,0.2-0.7,0.3 c-0.4-0.6-0.6-1.3-0.3-1.9c0.3-0.2,0.6-0.4,1-0.5c3.7-0.6,6.8-2.1,9.8-4.1c0.4-0.5,0.9-0.8,1.5-1.2c0,0,0,0,0.1,0 c0.3,0,0.5,0,0.8,0.2c0.9,0.6,1.4,0.1,1.8-0.5c0.3-0.4,0.4-0.9,1-1.2c1.5,0.6,1.4,1.9,1.9,2.9c0,0.1,0,0.2,0,0.2 c-0.1,0-0.2,0.1-0.2,0.1c-2.6-0.7-2.5,1.5-3.7,2.2c-0.4,0.2-1,0.8-0.4,1.2c0.5,0.3,1.3,0.4,1.8,0c0.9-0.7,2.1-0.9,3.2-1.2 c0.1,0.6-0.2,1.5,1.4,0.7l0,0c0,0.3,0,0.6-0.1,0.9c-0.2,0.1-0.5,0.2-1.1,0.4c-1.4,0.3-1.3-1-2.3-0.7c-1.5,0.5,0.7,1.5-0.9,2.1 c-0.2,0.1-0.4,0.3-0.4,0.4c-0.3,0.6,0.2,1.1,0.6,1.4c0.5,0.5,0.9-0.2,1.2-0.4c1.3-0.8,2.5-1,3.9-0.5c1.1,0.4-0.1,1.1,0,1.7 c-0.1,0.1-0.1,0.3-0.1,0.4c0,0,0,0,0.1,0c-0.3,0.5-1.5,0.6-1.2,1.3h0.1c0.5,0.2,0,1.9,1.5,0.4c0.9,0.4,1.6-0.3,2.4-0.6 c0.1,0,0.1,0,0.2,0c-0.2,0.2-0.3,0.4,0,0.6c-0.2,0-0.4,0-0.6,0.2l0,0c-1.5,0-3,0.8-4.6,0.7c0,0-0.1,0-0.1,0.1 c0.6-0.6,1-1.3-0.4-1.5c0,0.1-0.1,0.1-0.1,0.2v-0.1l0,0c0-0.6-1-0.3-1.1-0.8c-0.1-0.3,0.2-0.8-0.5-0.7c-0.5,0.1-0.7,0.4-0.8,0.8 c-0.2,0.5-0.4,1-0.7,1.5c-0.1,0.2-0.2,0.5-0.3,0.7c0,0-0.1,0-0.1-0.1c-1.9-0.4-3.6,0.3-5.2,1.2c0,0.1,0,0.2,0,0.3c0,0,0,0-0.1-0.1 c-1.1,0.4-1.4,1-1.4,1.7c-0.9,0.4-1.5,2-2.8,0.8c-0.1-0.1-0.2-0.2-0.3-0.3c0.1-0.6,0.4-1.2,1.2-1.7c0.3-0.9-0.6-1.8,0.7-2.8 c0.5-0.7,0.9-1.4,1-2.2c0.3-0.2,0.5-0.5,0.8-0.6C813.4,690.5,813.5,690,812,688.8L812,688.8z M813.9,674.5 C813.8,674.5,813.8,674.5,813.9,674.5C813.8,674.6,813.8,674.5,813.9,674.5C813.8,674.5,813.8,674.5,813.9,674.5L813.9,674.5z M813.8,676L813.8,676L813.8,676L813.8,676L813.8,676z M816.3,670.7L816.3,670.7L816.3,670.7C816.3,670.7,816.3,670.8,816.3,670.7 C816.3,670.8,816.3,670.8,816.3,670.7L816.3,670.7z M806.7,698.8L806.7,698.8L806.7,698.8L806.7,698.8L806.7,698.8L806.7,698.8 L806.7,698.8L806.7,698.8L806.7,698.8z M807,702.1c0-0.1-0.1-0.1-0.1-0.2c0-0.1,0-0.2-0.1-0.4c0.1,0,0.2-0.1,0.3-0.2 C807.5,701.4,807.3,701.7,807,702.1L807,702.1z M794,707.5c0.3-0.3,0.7-0.5,1-0.6C794.7,707.2,794.4,707.4,794,707.5L794,707.5z M787.8,709.2L787.8,709.2L787.8,709.2L787.8,709.2L787.8,709.2L787.8,709.2C787.8,709.1,787.9,709.1,787.8,709.2 C787.9,709.1,787.9,709.2,787.8,709.2L787.8,709.2z M785.9,709.9C785.9,709.8,785.9,709.8,785.9,709.9L785.9,709.9 c0.1,0,0.2,0,0.2,0C786,709.9,786,709.9,785.9,709.9L785.9,709.9z M823.1,680.9C823.1,680.9,823.1,681,823.1,680.9 C823.2,681,823.1,681,823.1,680.9C823.1,681,823.1,681,823.1,680.9C823.1,681,823.1,681,823.1,680.9L823.1,680.9z M821.8,676.8 L821.8,676.8L821.8,676.8L821.8,676.8C821.8,676.8,821.8,676.7,821.8,676.8C821.9,676.8,821.8,676.8,821.8,676.8L821.8,676.8 L821.8,676.8L821.8,676.8L821.8,676.8z M823,676.2L823,676.2L823,676.2L823,676.2L823,676.2z M816.2,634.3L816.2,634.3 c-0.2,0.1-0.3,0.1-0.5,0.2C815.9,634.4,816,634.3,816.2,634.3L816.2,634.3z M835.9,670.9C835.8,670.9,835.8,670.9,835.9,670.9 c-0.2,0-0.2,0-0.3,0C835.6,670.9,835.8,670.9,835.9,670.9L835.9,670.9z M822,634.4C822,634.4,822,634.5,822,634.4 C821.9,634.5,821.9,634.4,822,634.4L822,634.4L822,634.4z M840.3,666.6L840.3,666.6C840.3,666.7,840.3,666.7,840.3,666.6 C840.3,666.7,840.3,666.6,840.3,666.6L840.3,666.6z M844.6,675L844.6,675L844.6,675L844.6,675L844.6,675z M845.5,674.7 L845.5,674.7c0,0.1-0.1,0.1-0.2,0.1C845.3,674.8,845.4,674.8,845.5,674.7L845.5,674.7z M551.6,73.4 C551.7,73.4,551.7,73.4,551.6,73.4C551.7,73.4,551.7,73.5,551.6,73.4C551.6,73.5,551.6,73.4,551.6,73.4L551.6,73.4z M828,622.5 L828,622.5L828,622.5L828,622.5L828,622.5z M621.2,186.9c-0.1,0-0.1,0.1-0.2,0.1h-0.1C621,187,621.1,187,621.2,186.9L621.2,186.9z M835.9,617.1L835.9,617.1L835.9,617.1C835.8,617.1,835.9,617.1,835.9,617.1L835.9,617.1z M838.7,619.6L838.7,619.6 C838.7,619.7,838.6,619.7,838.7,619.6C838.6,619.6,838.6,619.6,838.7,619.6L838.7,619.6z M629.1,181.7L629.1,181.7L629.1,181.7 L629.1,181.7L629.1,181.7z M806,537.2L806,537.2L806,537.2C806.1,537.2,806,537.2,806,537.2L806,537.2L806,537.2z M637.1,179.5 L637.1,179.5L637.1,179.5L637.1,179.5L637.1,179.5z M634,31.1L634,31.1L634,31.1L634,31.1L634,31.1L634,31.1L634,31.1z M664.6,157.6c0,0.1,0,0.1,0,0.2V157.6C664.5,157.7,664.5,157.7,664.6,157.6L664.6,157.6z M676.8,117.6c0.1-0.1,0.3-0.1,0.4-0.2 c0.7-0.3,1.3-0.6,1.9-1.1c0.1-0.1,0.1-0.2,0.2-0.2c0.5,0,0.9-0.3,0.9-0.5c0-1.3,1.3-1.1,2-1.5c0.2-0.1,0.4-0.2,0.5-0.3 c0.1,0,0.2,0,0.4,0c-0.1,0.6-1.4,1.2-0.7,1.6c0.1,0.1,0.2,0.2,0.3,0.2c-0.1,0.1-0.2,0.2-0.3,0.3c-0.1,0.2-0.7,0.1-1,0.2 c-1,0.4-2.1,0.7-3.1,1.2c-0.4,0.2-0.9,0.5-1.3,0.7c-0.4,0.1-0.8,0.3-1.2,0.2C676.2,118.1,676.6,117.9,676.8,117.6L676.8,117.6z M711.7,108.5L711.7,108.5C711.7,108.6,711.6,108.6,711.7,108.5C711.6,108.6,711.7,108.6,711.7,108.5L711.7,108.5z M727.9,102.5 L727.9,102.5L727.9,102.5L727.9,102.5L727.9,102.5z M651.9,170.9c-0.1,0.1-0.2,0.1-0.4,0.2C651.5,171,651.6,170.9,651.9,170.9 L651.9,170.9z M816.6,538.3c0.8-0.6,2-0.7,2.8-1.3c7.5-2.5,15-4.8,22.5-7.4c1.6-0.8,3.1-1.7,4.9-2c0.3-0.1,0.6-0.2,0.8-0.3 c0.4-0.1,0.7-0.2,1.1-0.3c0.4-0.1,0.9-0.3,1.3-0.5c0.6-0.2,1.3-0.4,1.9-0.6c0.1,0,0.3,0,0.5,0c1.1,0.1,2.2-0.1,3.1-0.9 c0.2-0.2,0.4-0.3,0.6-0.5c0.6-0.2,1.3-0.4,1.9-0.6c0.2,0,0.4-0.1,0.6-0.1c2.2-0.3,4.2-1.3,6.3-2c2.4-0.9,4.7-1.9,7.2-2.1 c1.4-0.1,2.7-0.4,3.9-1.1c1.4-0.8,3-1.4,4.7-1.8c4.2-1,8.5-1.8,12.1-4.2c0.3-0.2,0.7-0.2,1.1-0.3c0.5,0,1,0,1.5-0.1 c-0.3,0.1-0.5,0.3-0.8,0.3c-0.2,0-0.4,0.1-0.7,0.2c-2.2,0.7-0.9,2.2-2.1,3.1c-2.6-1.1-4.8-0.8-6.8,0.8c-0.2,0-0.4,0.1-2.7-4l0,0 c-0.2,4.3-4.7,6.3-6.4,7.9l0,0c-1.5,0.9-3.5,0.8-4.6,2.4l-0.2,0.1c-0.5-0.4-0.9-0.4-1.2-0.4c-2.2,0.2-4.2,1.7-6.4,1.6 c-2.7-0.2-4.8,0.9-7,2c-1.8,0.9-3.5,1.8-5.5,1.7c-1,0-1.9,0.4-2.7,1c-1.4,1-1.9,2.2-2.3,3.4c-1.2,0.8-2.2,0.9-3.2,0.5l-0.1-0.1 c-0.7-0.6-1.8-0.9-2.7-1.4c-1.8,0.4-3.7,0.5-5.3,1.6c-1.5,0-2.5,0.7-3.3,1.7c-0.1,0.1-0.3,0.1-0.4,0.2c-0.1,0-0.3-0.1-0.4-0.1 c-1.6-0.2-3.2,0.5-4.8,0.8c-0.2,0-0.5,0-0.7,0.1c-1.8,0.3-3.4,0.9-4.8,2c-0.9,0.7-2,1-3.1,1.4c-0.9,0.3-1.8,0.5-2.6,0.8 C815.4,539.2,816,538.8,816.6,538.3L816.6,538.3z M655.6,208.1c-1.4-0.3,0.1-1-0.3-1.4c0-0.1,0-0.2,0-0.3c1.4-0.7,2.7-1.3,4.1-2 c0.1,0.3,0.8,0.5,1.2,0.8c0.5,0.3,0.5,0.7,0.2,1c-1.4,1.4-0.3,1.2,0.8,1.2c0.9,0,1.3,0.3,1.2,1.2c0,0.3,0.9,1,0.2,1.1 c-2,0.3-2.7,1.8-4,2.8c-0.7,0.5-1.3,0.2-1.8-0.2s-0.5-1-0.3-1.5C657.9,208.9,657.8,208.8,655.6,208.1L655.6,208.1z M664,202.1 c0.3-0.2,0.6-0.3,0.9-0.5c-0.4,0.4-0.6,0.8-0.6,1.7C664.1,202.8,664.4,202.3,664,202.1L664,202.1z M666.3,200.8 c0.2-0.1,0.4-0.2,0.6-0.3c0.1,0.1,0.2,0.3,0.1,0.5c-0.5,0-0.9,0.1-1.3,0.2C665.9,201,666.1,200.9,666.3,200.8L666.3,200.8z M685.2,216.3L685.2,216.3C685.3,216.3,685.3,216.3,685.2,216.3C685.3,216.3,685.3,216.3,685.2,216.3L685.2,216.3L685.2,216.3z M839.2,525.3C839.2,525.3,839.2,525.2,839.2,525.3c0.4,0,0.6-0.1,0.9-0.2c-0.3,0.3-0.6,0.7-1.2,0.5 C839,525.5,839.1,525.4,839.2,525.3L839.2,525.3z M897.2,511.1c0.7-0.6,1.6-0.9,2.6-1.1c0.2,0,0.4-0.1,0.7-0.2 c3.8-0.6,7.3-2.2,10.9-3.4c0.8-0.3,1.5-0.7,1.8-1.4c0,0,0,0-0.1,0h0.1l0,0l0,0l0,0c0.1,0,0.2,0.1,0.3,0.1c0.2,0,0.5-0.1,0.7-0.1 c0.9,0.2,1.8,0.7,2.7-0.2c0.6-0.6,1.3-1,1.9-1.5c0.4-0.2,0.8-0.3,1.2-0.5c1.1-0.4,2.1-1,3.2-1.1c2.2-0.2,3.8-1.3,5.1-2.6 c0.1-0.1,0.3-0.1,0.4-0.2c0.6,0.7,0.9,0.6,2.6,0.1c1.8-0.6,3.6-1.6,5.6-1.3c-0.6,0.7-1.4,1.1-2.2,1.5c-0.6,0.3-1.5,0.6-1.3,1.3 h-0.1c-0.3,0-0.6,0-0.9,0.1l0,0c-1.6-0.4-2.4-0.1-3.6,1.2c-1.1,1.2-2.2,2.3-4.3,1.8c-0.3-0.1-0.7,0-1.1,0.2 c-3.4,1.6-7.4,2.2-10.2,4.7l0,0c-1.9-0.9-4-0.8-5.7,0.4c-0.2,0-0.3,0.1-0.5,0.1c-0.6,0.2-1.1,0.5-1,1c-0.1,0.1-0.2,0.3-0.2,0.4 c0-0.1,0-0.3,0-0.5c-1,0.2-1.1,0.7-1.3,1.3c-0.3,1.1-1.1,1.7-2.6,1.6c-0.1,0-0.2,0-0.3,0l0,0c1-0.4,0.6-1.3,1.6-1.7 c0.4-0.2,0.3-0.5,0-0.7c-0.3-0.1-0.7-0.1-1,0.2c-0.2,0.3,0,1-0.8,0.8c-1.5-0.3-1.5,0.5-1.8,1.2c0,0.1,0,0.2,0,0.3 c0.1,0.1,0.1,0.1,0.2,0.2c-0.4,0.4-0.7,0.9-1.1,1.3c-0.1,0-0.2,0.1-0.3,0.1c-0.6-0.4-1.4,0-2.1,0.2c-0.6,0.1-1.2,0.1-1.5-0.3 c-0.3-0.4,0.2-0.7,0.6-1.1c0.5-0.4,1.3-0.8,1-1.3c-0.1-0.2-0.3-0.2-0.4-0.3C896.4,511.7,896.9,511.5,897.2,511.1L897.2,511.1z M944.7,535.1c0.1,0,0.1-0.1,0.2-0.1h0.1C944.9,535.1,944.8,535.1,944.7,535.1L944.7,535.1z M940.7,536c0.1,0,0.1-0.1,0.2-0.1 c0,0,0,0.1,0.1,0.1C940.9,536,940.8,536,940.7,536L940.7,536z M916.1,507.8C916,507.8,916,507.8,916.1,507.8 C916,507.8,916,507.8,916.1,507.8C916,507.8,916,507.8,916.1,507.8L916.1,507.8L916.1,507.8z M911.6,512.6 C911.5,512.5,911.6,512.5,911.6,512.6C911.6,512.5,911.6,512.5,911.6,512.6L911.6,512.6z M913.9,551.9 C913.8,551.9,913.9,551.9,913.9,551.9C914,551.8,913.9,551.9,913.9,551.9L913.9,551.9z M903.4,569.3c-0.2,0.2-0.4,0.5-0.7,0.8 c0.8,0.1,1.4,0.3,2.1,0.4h0.1c0,0.7-1.4,0.3-1.5,0.9l0,0c-0.1,0-0.1,0-0.2-0.1c-0.4,0.2-0.6,0.5-0.5,0.7c0.5,1.2-0.4,2-1.6,2.7 c-0.2-0.2-0.5-0.4-1-0.4c-0.3-0.9,0.9-1.2,1.5-1.6c0.8-0.5,1.1-1.3,0.4-1.3c-1.5,0-1.2-1-2-1.4c-1.5-0.8-3.3,0.1-5,0.2 c-0.1-1.3,1.1-1.8,2.5-2.1c0.7-0.1,1.3,0.1,1.7-0.6c1.2-0.5,2.2-0.3,3.4-0.2C905.2,567.7,904.3,568.3,903.4,569.3L903.4,569.3z M902.6,583C902.6,583.1,902.6,583.1,902.6,583c-0.1,0.4,0.2,0.6,0.5,0.7c-0.5,0.1-0.9,0-1.4-0.1c0.2-0.2,0.2-0.4-0.1-0.5 C901.9,582.9,902.2,582.9,902.6,583L902.6,583z M899.5,583.4c0-0.4,0-0.8-0.1-1.3c0.2,0.4,0.3,0.8,0.7,1 C899.9,583.2,899.7,583.3,899.5,583.4L899.5,583.4z M892.2,574.8c-0.4,0.9,0.9,1.4,0.7,2.2c-0.3,0.4-0.7,0.7-1,1.1 c-0.1,0-0.1,0-0.2,0c-0.8,0.7-1.6,1.4-2.8,1.5c-0.9,0.1-1.5,0.6-1.9,1.2l0,0c-2.3,0.5-2.8,2.5-4.7,3.3l0,0 c-1.1-0.1-1.8,0.5-2.5,1.1c-0.2,0.2-0.2,0.3-0.1,0.4h-0.1l-0.1,0.1h-0.1l0,0c-0.1-0.1-0.2-0.1-0.3-0.1c-0.9,0-1.8,0.6-2.6,0.6 c-1.7-0.1-3.3,0.3-4.8,1.3c-0.5,0.3-1,0.4-1.3,0.1c0,0,0.1,0,0.1-0.1c0.3-0.3,0.5-0.5,0.5-0.8c0.1,0,0.2-0.1,0.3-0.1 c1.1-0.5,2.6-0.9,2.8-2c0.2-1,1-1.6,1.9-2.1c0,0.1,0,0.1-0.1,0.2c-0.3,0.6-0.4,1,0.4,1.2c0.4,0.1,0.8-0.1,1-0.4 c0.4-0.5,0.8-1,0-1.3c-0.3-0.1-0.4-0.2-0.4-0.3c0.2-0.1,0.5-0.3,0.7-0.4c0.9-0.6,2.4-1.1,1-2.1c-0.1,0-0.1,0-0.2,0 c0.3-0.4,1-0.6,0.8-1.1l0.1-0.1c0.6-0.2,1.2-0.4,1.8-0.4c-0.6,1.6,0.6,1.6,2.3,1.3c1.5-0.3,3-0.5,4.2-1.4c1.4-0.1,1.1-0.6,1.1-1.3 c-0.1-1,0-2,1.8-2.3l0,0c0.5-0.1,1-0.5,1.5-0.3C891.9,574.2,892,574.5,892.2,574.8L892.2,574.8z M861.2,594 C861.3,594,861.3,594,861.2,594c0.1-0.1,0.1,0,0.2,0C861.4,594,861.3,594,861.2,594L861.2,594z M862.9,600c0-0.3,0.1-0.5,0.4-0.7 C863.2,599.6,863,599.8,862.9,600L862.9,600z M857.5,601.7L857.5,601.7L857.5,601.7C857.4,601.7,857.5,601.7,857.5,601.7 L857.5,601.7z M695.1,178.8L695.1,178.8C695.1,178.8,695.1,178.9,695.1,178.8C695.1,178.9,695.1,178.8,695.1,178.8L695.1,178.8z M772.7,386.8c-0.1,0-0.2,0.1-0.2,0.1h-0.1C772.4,386.9,772.6,386.8,772.7,386.8L772.7,386.8z M690.3,197.2 c-0.2,0.6-0.5,1.3,0.1,1.9c0.1,0.1,0.3,0,0.5,0.1c1.5,0.2,3.2-1.6,4.5,0.4c-0.3,0.4-0.7,0.3-1.1,0.4c-3.8,0.5-5.3,0.2-6.3-1.8 C688.7,197.9,689.5,197.6,690.3,197.2L690.3,197.2z M783,380.9L783,380.9L783,380.9L783,380.9L783,380.9z M699.3,193.4 c2-0.9,4.1-1.8,6.1-2.7c0,0.4,0,0.9,0,1.3c0,0.5,0,1-0.5,1.3c-1.8,0.9-2.8,3.4-5.6,2C699.9,194.2,699.7,193.7,699.3,193.4 L699.3,193.4z M791.3,380.2L791.3,380.2L791.3,380.2L791.3,380.2L791.3,380.2z M823.1,356.3c0,0.1,0,0.2,0,0.2s-0.1-0.1-0.2-0.2 C822.9,356.3,823,356.3,823.1,356.3L823.1,356.3z M762.5,177.5c0.2-0.2,0.5-0.3,0.7-0.4c0.1,0.2,0.2,0.4-0.3,0.6 c-0.2-0.1-0.4,0-0.6,0C762.3,177.6,762.4,177.6,762.5,177.5L762.5,177.5z M780.4,175.2L780.4,175.2L780.4,175.2L780.4,175.2 L780.4,175.2L780.4,175.2z M835.8,303.8c0.2-0.1,0.3-0.1,0.5-0.2c0.8-0.2,1.6-0.5,2.2-1.1c0.1-0.1,0.2-0.2,0.2-0.3 c0.5,0,1.1-0.1,1.1-0.4c-0.1-1.8,1.5-1.2,2.4-1.5c0.2-0.1,0.4-0.2,0.6-0.3c0.1,0,0.3,0.1,0.4,0.1c-0.1,0.8-1.7,1.3-0.8,2.1 c0.2,0.2,0.3,0.3,0.4,0.4c-0.1,0.1-0.2,0.2-0.3,0.4c-0.1,0.2-0.8,0-1.2,0.1c-1.2,0.3-2.4,0.5-3.6,0.9c-0.5,0.2-1,0.4-1.5,0.6 c-0.5,0.1-1,0.2-1.5,0C835.1,304.4,835.5,304.2,835.8,303.8L835.8,303.8z M877,299.3L877,299.3l-0.1,0.1 C876.9,299.3,877,299.3,877,299.3L877,299.3z M896.1,294.6L896.1,294.6L896.1,294.6L896.1,294.6L896.1,294.6z M808.5,371.6 c-0.1,0.1-0.3,0.1-0.4,0.2C808.1,371.7,808.2,371.6,808.5,371.6L808.5,371.6z M837.5,413.2L837.5,413.2 C837.5,413.3,837.5,413.3,837.5,413.2C837.5,413.3,837.5,413.3,837.5,413.2L837.5,413.2z M886,501L886,501L886,501L886,501 L886,501z M846.4,410.3L846.4,410.3L846.4,410.3L846.4,410.3L846.4,410.3L846.4,410.3z M860.5,392.4L860.5,392.4L860.5,392.4 L860.5,392.4L860.5,392.4z M916.9,481.6C916.9,481.6,917,481.6,916.9,481.6c0.1,0.1,0,0.1,0,0.1S916.9,481.7,916.9,481.6 L916.9,481.6z M886.7,387.5c0.1-0.3,0.3-0.1,0.6,0c-0.2,0-0.4,0.1-0.7,0.1C886.7,387.6,886.7,387.6,886.7,387.5L886.7,387.5z M945.4,425.3c0.2,0,0.3-0.1,0.5-0.1c0.1,0,0.1,0,0.2,0C945.8,425.2,945.6,425.2,945.4,425.3L945.4,425.3L945.4,425.3z M953.4,421.4L953.4,421.4c-0.1,0.1-0.2,0.1-0.2,0.1S953.3,421.5,953.4,421.4L953.4,421.4z M922.5,482.3c0.1,0,0.1,0,0.2,0 C922.6,482.3,922.5,482.3,922.5,482.3L922.5,482.3L922.5,482.3z M979.8,507.5L979.8,507.5C979.8,507.6,979.8,507.5,979.8,507.5 L979.8,507.5L979.8,507.5z M960.8,526.1L960.8,526.1C960.9,526.1,960.8,526.2,960.8,526.1C960.8,526.2,960.8,526.1,960.8,526.1 L960.8,526.1z M965.4,524.8c0.1,0,0.2,0,0.2,0C965.6,524.8,965.5,524.9,965.4,524.8C965.4,524.9,965.4,524.9,965.4,524.8 L965.4,524.8z M903.5,582.3c-0.2,0-0.3,0.1-0.5,0.1c-0.1-0.2-0.2-0.4-0.2-0.4C902.9,582.2,903.2,582.3,903.5,582.3L903.5,582.3z M904.3,583.8C904.3,583.8,904.2,583.8,904.3,583.8c0-0.1,0.2-0.1,0.3-0.2C904.5,583.7,904.4,583.7,904.3,583.8L904.3,583.8z M826,629.5L826,629.5C825.9,629.4,825.9,629.4,826,629.5C825.8,629.3,826.1,629.4,826,629.5L826,629.5z M829.7,629.3L829.7,629.3 c-0.1,0.1-0.1,0.1-0.2,0.1C829.6,629.4,829.7,629.4,829.7,629.3L829.7,629.3z M851.3,652.6L851.3,652.6L851.3,652.6L851.3,652.6 L851.3,652.6z M841.6,628.1c0.1,0.1,0.2,0.2,0.1,0.4l0,0l0,0l0,0l0,0l0,0c-0.1,0-0.1,0-0.2,0.1 C841.5,628.5,841.6,628.3,841.6,628.1L841.6,628.1z M845.5,623.8C845.6,623.8,845.6,623.8,845.5,623.8s-0.1,0-0.2,0 C845.4,623.8,845.5,623.8,845.5,623.8L845.5,623.8z M863.4,659.4c-0.1,0-0.1,0.1-0.2,0.1c0-0.1-0.1-0.1-0.1-0.2 C863.2,659.3,863.3,659.4,863.4,659.4L863.4,659.4z M862.1,642.5L862.1,642.5L862.1,642.5L862.1,642.5L862.1,642.5z M869,639.1 L869,639.1C869.1,639.1,869,639.1,869,639.1L869,639.1L869,639.1L869,639.1z M884.4,664.2C884.5,664.3,884.5,664.3,884.4,664.2 L884.4,664.2L884.4,664.2C884.5,664.3,884.5,664.3,884.4,664.2c-0.2,0.5,0,1-0.4,1.5C883.6,665.2,883.4,664.7,884.4,664.2 L884.4,664.2z M884.4,660.5c1-0.6,1.2-1.2,1.2-2c0.1,0,0.2-0.1,0.3-0.2c0,0,0,0,0.1,0.1c1.8-0.7,3.7,1.1,5.5-0.9 c-0.2,0.7-0.4,1.4,0.9,1.2c0,0,0,0,0.1,0c0.3,0.2,0.6,0.5,0.2,0.7c-1.5,0.5-0.8,1-0.6,1.5c0,0,0,0,0,0.1s0,0.3,0.1,0.3 c-0.2,0.5,0.2,0.7,0.8,0.8c0.1,0,0.1,0,0.2-0.1c0.1-0.2,0.1,0.2-0.1,0.1c-0.9,0-1.7-0.2-2.6-0.2c-0.2-1.5-0.5-1.7-2.1-1.1l0,0 c-1,0.2-1.9,0.7-2.8,0.9c-0.2,0-0.5,0.1-0.7,0.1s-0.4,0.1-0.6,0.1C883.4,661.6,883.1,661.2,884.4,660.5L884.4,660.5z M875.5,640.7 L875.5,640.7L875.5,640.7L875.5,640.7L875.5,640.7z M883.5,642.2C883.5,642.2,883.5,642.3,883.5,642.2 C883.5,642.3,883.5,642.3,883.5,642.2C883.5,642.3,883.5,642.3,883.5,642.2L883.5,642.2z M889,648.2 C889,648.2,889.1,648.2,889,648.2L889,648.2L889,648.2L889,648.2z M889.1,647.2L889.1,647.2L889.1,647.2L889.1,647.2L889.1,647.2z M889.1,647.1C889.1,647.2,889.1,647.2,889.1,647.1C889.1,647.2,889.1,647.2,889.1,647.1C889.1,647.2,889.1,647.1,889.1,647.1 L889.1,647.1z M897.5,629.2L897.5,629.2L897.5,629.2L897.5,629.2L897.5,629.2z M905.6,625.8L905.6,625.8L905.6,625.8L905.6,625.8 L905.6,625.8z M910.3,627.9c0.1,0.1,0.3,0.1,0.5,0.1c0,0-0.1,0-0.1,0.1c-0.5,0.7-1,1.4-2.2,1.4 C908.5,628.6,909.7,628.4,910.3,627.9L910.3,627.9z M917.3,623.4L917.3,623.4L917.3,623.4L917.3,623.4L917.3,623.4z M936,605.1 c-0.7,0.5-1.5,0.8-2.4,1.1C934.4,605.8,935.2,605.4,936,605.1L936,605.1z M966.9,589.9c-0.1,0-0.2,0.1-0.3,0.1 c0.1,0.1-0.1,0.1-0.1,0C966.7,589.9,966.8,589.9,966.9,589.9L966.9,589.9z M787.1,715.9c0,0-0.1,0-0.2,0.1c0,0,0,0-0.1-0.1 C786.9,715.9,787,715.9,787.1,715.9L787.1,715.9z M781.3,725.7L781.3,725.7L781.3,725.7L781.3,725.7L781.3,725.7z M205.3,743.3 c-0.1,0-0.2,0-0.2,0c0.3,0,0.6-0.1,0.9-0.3c0.5-0.4,1.1-0.7,1.8-1C207.4,742.4,206.6,742.8,205.3,743.3L205.3,743.3z M176.1,693.7 L176.1,693.7L176.1,693.7L176.1,693.7L176.1,693.7z M151.8,674.2L151.8,674.2C151.8,674.2,151.8,674.1,151.8,674.2L151.8,674.2 L151.8,674.2z M100.6,648c-0.5,1.1,1.2,1.4,1,2.1c-0.3,0.8-1.4,1.1-2.3,1.1c-1.4,0-2,0.7-2.7,1.9c2.2-0.5,4.2-0.7,6-1.4 c2.2-0.8,2.8,0.7,3.4,1.9c0.7,1.4-0.8,1.4-1.7,1.8c-2.9,1.3-5.8,2.6-8.7,3.9c2.6,0,4.6-1.3,6.8-2.2c0.8-0.3,1.7-0.9,2.2,0 c0.6,1,1.9,1.4,2.4,2.6c-2.8,1.1-5.5,2.1-8.2,3.1c-0.4,0.2-1.1,0.2-0.9,0.8c0.3,0.8,0.9,0.3,1.4,0.1c2.2-0.9,4.5-1.8,6.7-2.7 c1.5-0.6,2.8-1.2,2.8,1.2c0,0.5,0.8,1,1.1,1.4c1.4,1.7,3.9,2.5,5.1,4.1c2.4,3,5.7,3.5,8.9,3.5c8.8,0.1,17.6,0.8,26.1-1.6 c0.7,0.5,1.5-0.3,2.2,0c-0.1,0.1-0.2,0.2-0.3,0.2c-0.5,0.2-1.1,0.4-1.5,0.7c-2,1.6-3.1,3.6-2.9,6.2c0,0.8-0.7,1.8,0.3,2.4 c0.9,0.6,1.7-0.1,2.4-0.5c0.4-0.1,0.9-0.2,1.3-0.4c1,0.3,1.6-0.3,2.4-0.6c1.1,0.2,2.2,0.2,3.2-0.5c1.1,0.4,1.8,2,3.4,1 c0.9,0,1.8-0.1,2.7-0.1c2.8,1.2,4.7-1,7.1-1.2c0.1,0,0.3-0.1,0.4-0.1c0,1.4,1,2.2,2.4,2.7c-1.6,1.5-3.6,2.2-5.3,3.1 c-1.1,0.6-1.9,1.2-1.9,2.4c-1.9,2.4-4.9,3.6-7.4,6.4c1.9-0.3,3-0.7,4.1-1.2l0,0c1.7,0.4,3,0.8,0.8,2.3c-0.4,0.2-0.9,0.6-0.8,1 c0.2,0.7,1,0.4,1.5,0.5c0.6,0,1.1-0.1,1.7-0.1c0.2,0.3-0.5,1,0.2,0.8c2.2-0.6,4.8,0,6.8-1.4l0,0l0,0l0,0l0,0 c0.9,1.8-0.1,4.1,2.2,5.5c0.5,0.3,0.2,1.6-0.8,2.1c-0.4,0.2-0.9,0.7-0.1,1c1.3,0.5,1.5,1.3,1.3,2.4c-0.2,0.9,0.4,1.1,1.1,1 c1.1-0.3,1.7,0.2,2.2,0.7c-0.6,0.5-0.4,1,0.6,1.8c0.1,0.1,0.2,0.2,0.4,0.4c-0.2,1.1,0.3,2.3-0.8,2.9c-1.4,0.7-0.5,1.4-0.5,2.2 c0,0.4,0.9,0.7,0.4,1.2c-1.5,1.6,0.3,1.5,1.2,1.8c1.1,0.3,2.1,0,3-0.7c1.1-0.2,2.1-0.4,3.2-0.6c0.7,2.3-1.3,5.3,0.8,7.3 c0.1,0.1-0.1,0.3-0.1,0.5c-0.4,1.8,0.4,2.4,2.2,1.9c-0.3,0.4-0.6,0.9-0.9,1.4c-0.6,0.5-1.4,0.8-1.8,1.4c-0.6,0.7-2.2,1.2-1.2,2.5 c0.9,1.1,2.1,1.6,3.6,1l-0.4,0.2c1.3,0.4,2.7,0.6,4.1,0.7c0.1,0.3,0.2,0.6,0.3,0.8c0.8,1.7,0.6,2,3,0.9c1.4-0.7,2.9-1.2,4.3-1.7 c1.6,0.1,3.2,0.1,4.8-0.3c0.7-0.2,1.5-0.4,2.1,0.2c0.8,0.8,1.7,0.7,2.6,0.7c-1,1.2-2.1,2.4-3.3,3.5c-3.1-0.1-6.3-0.6-9,1.4 c-0.3,0.2-0.6,0.3-0.9,0.1c-1.3-0.9-2.5-0.4-3.8,0c-0.5,0.2-1.4,0.2-1.7-0.1c-1.8-1.9-3.2-0.6-4.4,0.4c-1.1,0.9-2.3,1.4-3.5,2 c-0.7,0-1.5-0.1-2.2-0.1c-0.9-0.8-3.5,0.6-3.2-2c0-0.3-0.4-0.4-0.8-0.3c-3.6,0.6-7.5,0.7-9.6,4.1c-0.4,0.7-1.3,1.2-2,1.8 c0.5,0,0.9-0.1,1.2,0c4.1,1.1,8.1,1.5,11.6-1.2l0,0c4.3,0.5,8.2,0,11.1-3.3c0.2,0.4,0.3,0.6,0.2,0.7c-0.6,0.8-0.9,1.6-0.1,2.4 c1,1,1.6,0.1,2.3-0.3c0.6-0.4,0.9-0.2,1.2,0.5c0.9,1.5,2.2,1.7,3.8,0.9c1.3-0.7,2.8-0.9,4.1-1.5c1.1-0.4,2.2,0.2,3.2,0.1 c-0.5,0.1-1,0.1-0.9,0.6c0.2,1.3,0.6,2.6,2.1,3.4c1.5,0.2,1.7-1.1,2.6-1.5c0.6,1.5-0.7,3.3,0,4.8c0.8,1.7,0.9,3.5,0.2,5.4 c-0.6,1.5-1.2,3,0,4.3c0.4,0.5-0.1,1-0.4,1.5c-0.4,0.5-0.7,1,0,1.3c0.6,0.3,1.1,0.8,2.1,0.3c0.5-0.3,1-0.5,1.6-0.3 c1.6,0.5,1.6,1.3-0.9,2.9c-1.9,1.2-1.6,2.1-0.3,2.7c1.8,0.9,1.5,2.5,1.4,3.7c-0.1,1.4,0.8,1.4,1.8,1.2c1.2-0.3,2.6-0.4,3.7-1.1 c2.3-1.3,5.1-0.6,7.4-2c5,0.4,9.4-1.7,14-3.3c2.5-0.9,5-2,7.6-2.2c2-0.2,3.6-0.6,4.8-2c0.7-0.8,1.5-1.1,2.7-1.2 c2.2-0.3,4.5-0.7,6.7-1.3c1.7-0.5,3.8-1.1,4.7-2.5c1.2-1.7,3.1-2.4,4.8-2.2c1.7,0.2,3.1-0.3,4.6-0.6c0.7-0.1,1.5-1,1.9-0.9 c3.1,0.4,6-0.5,8.7-1.9c2.1-1.1,3.8-0.4,5.7-0.6c3.4-0.4,6.8-1.1,10.2-1.4c1.6-0.1,3.5-0.4,5.4-1.7c1.8-1.2,4.6-1.6,6.9-2.3 c0.2-0.1,0.6,0.1,0.7,0.2c1.1,0.9,2.4,0.4,3.9-0.2c2.6-1.2,5.5-1.6,8.3-2c2.8-0.5,5.7-1.3,8.5-1.4c1,0,1.1-0.7,1-1.3 c-0.2-0.9-0.8-0.2-1.4-0.2c-1.8,0.2-3.7,0.1-5.1-0.7c1.8-0.3,3.3-1.7,5.3-1.4c0.7,0.1,1.8-0.4,2.1-1.1c0.7-1.5,2.2-2.1,3.9-2.5 c0.4,0,1.1,0,1.2,0.1c0.1,0.4-0.2,0.9-0.8,1c-2.3,0.5-2.5,1.8-2.9,3.1c-0.5,1.2-0.5,1.9,1.6,1.7c1.3-0.1,2.6,1.1,3.9,0.3 c2.5-1.5,4.8-0.8,7.2-1.3c-0.8,0.4-1.7,0.8-2.5,1.1c-0.4,0.2-1.2,0.4-0.8,0.7c1.2,1-0.5,1.4-1.1,1.8c-2.1,1.5-4.8,1.5-7.1,2.3 c-5.7,2.1-11.4,4.2-16.7,7c-8.6,4.6-17.1,9.2-25.7,13.8c-3.4,1.6-6.6,3.4-9.7,5.3c-1.9,0.7-3.4,1.8-4.8,3 c-0.5,0.2-1.1,0.5-1.6,0.7c-4.6,2-8.9,4.3-13.1,6.7c-6.3,3-12.3,6.3-17.5,10.5c-7.6,4.1-13.5,9.5-19,15.2c-1,1-1.9,2.1-3.2,3 c-2.2,1.9-5,3.6-5.1,6.3c-0.7,0.4-1.4,0.8-1.9,1.4c-1.1,1.2-1.5,2-1.3,2.9c-0.2,0.3-0.3,0.5,0.1,0.7c0.1,0,0.2,0.1,0.3,0.1 c0.1,0.1,0.2,0.3,0.3,0.5c0.1,0.1,0,0.4-0.1,0.6c-0.3,0.7-0.2,1.1,0.9,1c0.6-0.1,0.7,0.2,0.8,0.5c0.7,2.2,3,3,6.1,2.3 c0.8-0.2,1.5-0.6,2.2,0c0.5,0.4,1.4,0,2.1-0.3c3.8-0.8,7.6-1,11.4-2.3c2.3-0.8,4.7-1.5,7-2.3c4.5-1.5,9-1.5,14-2.3 c-1,0.8-1.2,1.5-1,2.3c0.2,1-2,2.8-3.2,2.7c-2.5-0.1-2.8,0.8-2.6,2.4c0.1,0.8,0.1,1.5,1.3,1.7c0.5,0.1,0.8,0.5,0.6,0.9 c-1.2,1.5,1.9,2.7-0.5,4.3c1.7,0.9-0.3,2.9,1.1,4c0.6,0.5,0.8,1.7-0.2,2.5c-1.1,0.9-2.3,0.8-3.5,0.3c-0.7-0.3-1.5-0.8-3-0.6 c2.3,1,4.5,1.7,4.2,4c-0.1,0.5,0.6,0.6,1.1,0.8c0.4,0.2,0.9,0.2,1,0.7c0.4,2.1,1.7,3.9,2.5,5.9c-0.5,0.9,1,1.9-1.1,2.6 c-4.8,1.7-9.4,3.9-13.7,6.4c-2.5,1.5-5.1,2.7-7.9,4.8c2.8-0.2,5.1-1,6.9-1.9c2-1,4.2-1.7,6-1.9c3.5-0.5,6.6-1.5,9.7-2.9 c1.2-0.6,2.4-0.9,3.7-0.9c2.7,1.9,7.1,0.8,10.2,1.9c2.7,0.1,0.6,1.3,0.2,1.9c-0.3,0.5-1.4,0.8-1.6,1.5c-1.6,1.7-4.5,1.4-6.2,2.9 c-1.9,0.6-3.7,1.5-5.1,2.8c-1.2,1.1-2.5,2.1-4.4,2.1c-0.4,0-1,0.4-1.5,0.6c-0.6,0.3-1.1,0.6-1,1.1c0.1,0.6,0.8,0.4,1.4,0.4 c2.1,0,3.6-1.4,5.4-2.1c0.1-0.1,0.2-0.1,0.4-0.1c0.1,0.2,0.2,0.4,0.3,0.6c1.3,1.5,2.9,0.1,4.4-0.3l0,0l0,0 c1.2,0.3,2.5,0.6,3.2-0.9l0,0c1.6-0.5,3.4-0.5,5-1.3c0.2,0.9-0.1,2.4,1.9,1.9c2.2-0.5,1,1.6,2.5,1.4c0.1,0,0.2,0,0.2,0 c1.1-1,2.6-0.4,3.8-1l0,0c0.7,0.5,1.5,0.7,2.5-0.1c1.4-1.1,2.1-0.6,2,0.4c-0.1,1.2,0.7,1.1,1.8,0.7c1.7-0.8,3.2-1.9,5.2-1.7 c1.5,0.1,3-0.4,4.3-1.1c1.8-0.9,3.8-1.6,5.8-2.1c0.7,0.1,1.3-0.3,1.8-0.7c0.8-0.5,0.5,0.2,0.7,0.3c-0.9,1.7-2.1,3.2-4.4,3.9 c-3.3,0.8-6.3,2.2-9.5,3.1c0-0.5,0.6-0.8,0.9-1.3c-1.5,0.4-2.9,0.8-4.2,1.1c-0.4,0.1-0.9,0.3-1.1-0.1c-0.4-0.9-1.4-0.5-2.2-0.2 c-2.4,0.8-5.1,0.7-7.1,2.4c-0.1,0.1-0.4,0-0.6,0c-2.1-0.2-4.9,0.9-6.2,2.2c-0.3,0.3-0.7,0.6-0.3,0.9c0.3,0.2,0.8,0.2,1.2,0 c1-0.5,1.8-0.7,2.4,0.1c0.2,0.3,0.8,0,1.2-0.1c1.6-0.6,3.2-1.2,4.7-1.7c0.8,0.3-0.1,1.7,1,1.4c1.5-0.4-0.7-0.9,0.2-1.6 c0.1-0.1,0.2-0.2,0.3-0.3l0,0c1.5,0.2,2.3,0.6,1.1,1.9c-0.1,0.1,0.1,0.3,0.1,0.5c-1.3,1.2-2.9,2.2-3.8,3.6 c-0.3,0.5-1.1,0.4-1.6,0.6c-0.2,0-0.5,0.1-0.7,0.2c-1.6,0.3-3.4,0-4.7,1.8c2-0.3,3.7-0.5,5.4-1c0.8-0.2,1.9-0.6,2.1,0.3 c1.2,2.5,1.3,2.5,4.5,1.2c0.8-0.3,1.6-0.5,2.4-0.7c0.3,0.1,0.4,0.3,0.5,0.5c-0.1-0.2-0.3-0.3-0.5-0.5c-0.1,1.3,0.3,2.3,1.6,3.2 c0,0.1-0.1,0.2-0.2,0.2l0,0c-0.9,0.4-1.7,0.7-2.4,1l-3.5,2.1c0.7,1.6,3.2,2.3,3.5,3.9c0.5,2.3,2.4,3.7,4.3,5.2 c0.4,0.3,1,0.6,1.6,0.6c4.1,0.4,8.2,1,12.5,1.1c6.6,0.2,12.8-0.6,19.3-3c4.1-1.5,8.1-3.1,12.2-4.4c2.6-0.9,5.2-2.1,7.8-3 c4-1.4,8.2-2.4,12.1-4.3c0.2-0.1,0.4-0.1,0.7-0.2c4.2-0.7,7.9-2.4,11.6-4.4c0.7-0.4,0.9-1.4,1.6-1.3c2.7,0.8,4.9-0.2,7.3-1.6 c0.5-0.3,1.2-0.1,1.7-0.9c0.7-1.1,1.3-2.8,3.6-1.6c0.5,0.2,1.5,0.3,2.1,0c3.1-1.3,6.4-1.5,9.5-2.4c0.6-0.1,1.2-0.2,1.1-0.7 c-0.3-1.2,1-1.1,1.7-1.2c0.9-0.1,1.8,0,2.8,0c-0.4-2-0.2-2.1,2.3-1.8c0.4,0,1.7,1,1.6-0.6c0-0.2,0.2,0,0.3,0.1 c1.5,0.6,3.3,0.3,4.9-0.1c1.7-0.4,3.7-1,4.5-2.8c0.5-1.2,1.4-2.6,3.6-1.9c0.4,0.1,0.8,0,1-0.3c0.8-1.2,1.4-0.6,1.9-0.1 c0.7,0.7,1.6,1,2.8,0.3c2.7-1.4,5.5-2.4,8.1-3.9c1.1-0.6,3.3-0.7,2.5-2.4c0-0.1,0.5-0.3,0.7-0.5c1.2-1.2,2.9-1.4,4.5-2.1 c-0.2,0.8-0.6,1.8,1.3,1.3c-0.2,0.7,0,1.4,0.9,1.4c1.3-0.1,0.5-0.8,0.6-1.3c0.1-0.6,0.8-0.5,1.2-0.6c1.6-0.5,3.5-0.8,4.7-2 c0.8-0.5,1.6-0.2,2.4-0.2c2.4-0.1,3.8-1.4,3.1-2.7c1.8-0.5,3.9,0.1,5.4-1c2.1-1.5,4.7-2.5,6.9-3.1c2.3-0.6,2.9-1.4,3.5-2.7 c1.2-0.6,2.4-1,3.8-1c0.1,0,0.1,0,0.2,0.1c-0.1,0.6-1.2,0.9-0.6,1.4c0.1,0.1,0.6,0.1,0.8,0c1.7-1.2,4.4-1.3,5.3-3.3 c1.3,1,2.6,0.4,4-0.4c0.4-0.2,1.2,0.1,1.5-0.1c0.6-0.5,2.2-0.4,2-1.4c-0.2-1.2-0.3-1.3,1.5-1.3c1.3,0,2.3,0,2.9-1.3 c0.6-1.2,1.4-1.4,2.4-0.4c0.7,0.7,2.3,0.7,3.2,0.2c1.2-0.6,3.2-0.8,3.3-2.4c0-1.1,1.1-1,1.7-0.8c1.3,0.5,2.4,0,3.4-0.8 c0.8-0.7,1.7-0.9,2.7-1.1c4.3-0.8,8.7-1.2,12.1-4.3c0.1-0.1,0.4-0.2,0.6-0.3c2.6-0.8,5.5-0.7,7.7-2.6c0.2-0.1,0.6-0.1,0.9-0.2 c2.8-0.4,5.5-1.2,8.1-2.1c4.5-1.6,8.5-4,13.1-5.4c0.7-0.2,1-0.5,0.8-1.1c-0.2-0.8,0.3-1.3,1.4-1c1.3,0.4,2.4,0.2,3.6-0.8 c0.8-0.6,1.9-1,2.9-1.3c6.6-2,13-4.4,19.5-6.7c1.7-0.6,2.4-1.6,2.3-2.3c-0.1-0.7,1.1-2.5-1.6-2.2c-1,0.1-2.4-0.5-2.6-1.2 c-0.2-0.7,1.4-0.7,2.1-1.3c0.3-0.3,1-0.4,1.4-0.7c0.7-0.6,2-1.4,2.3-1.1c1.6,1.5,3.8,0.5,5.8,0.3c0.1,0,0.1,0.2,0.3,0.4 c-1.9,0.4-2.5,1.9-4.3,2.5c-0.8,0.3-1.7,1.2-1.3,1.9c0.4,0.8,1.7,0.4,2.6,0.1c1.3-0.3,2.6-0.5,3.8-0.3c1.1,0.2,1.7-0.3,2.6-0.8 c1.6-0.9,2.9-2.1,4.8-2.8c2.6-1,5.2-2.2,7.9-3c1-0.3,1.8-1.4,3-1c1.3,0.4,2.6-0.1,3.7-0.6c2.7-1.2,5.4-2.5,8-3.9 c2.4-1.3,6.2-1.4,6.9-4.4c0-0.1,0.4-0.2,0.6-0.3c0.5-0.2,1.2-0.4,1-0.9s-0.9-0.2-1.5-0.2c-1.8,0.1-3.1,1.5-4.9,1.6 c0-1.3,2-2,2.2-3.3c0-0.3,0.6-0.4,1-0.3c3.4,0.7,6.2-0.9,8.9-2.6c0.8-0.5,1.7-0.8,2.7-0.4c1.5,0.6,2.5,0,3.1-1.3 c0.2-0.5,0.5-1,0.9-1.5c0.7-1,0.8-1.6-0.9-1.5c-0.9,0-2.1-0.1-1.8-0.9c0.9-2.1-1-2-2.6-2.1c0.9-0.7,1.6-1.7,3.2-1.3 c0.2,0,0.7-0.2,0.8-0.3c0.7-1,1.8-1.1,2.9-1.2c0.7-0.1,1.4-0.1,1.6-0.8c0.2-0.5,0.7-0.6,1-0.5c1.5,0.8,2.5,0.1,3.4-1 c0.3-0.4,0.9-0.5,1.4-0.6c1.2-0.1,2.2-0.5,3.3-1c1.3-0.6,2.6-1.3,2.1,0.6c-0.1,0.4,0.3,0.4,0.7,0.4c1.2,0.1,2.4,0.3,3.7-0.3 c0.2,0.2,0.8,0.5,0.2,0.8c-1.5,0.9-3.2,1.7-5,2.1c-0.6,0.1-1-0.1-0.6-0.7c0.2-0.4,0.9-1,0-1.1c-1.1-0.1-2.4,0.1-3.2,0.8 c-1,0.8,0.7,0.6,0.8,1.1c-1,0.6-2.2,0.9-3,1.7c-0.6,0.5-0.6,0.5-1.2-0.2c0.4-0.5,2-0.7,1.2-1.4c-0.6-0.6-1.4,0.1-2,0.6 c-0.4,0.4-1.1,0.5-1.6,0.9s-0.5,0.7,0.2,0.8c1,0,1.6,0.4,1.6,1.1c-0.6,0.6-1.1,1-2,0.5c-0.5-0.3-1.7-0.1-1.7,0.4 c-0.1,1.2-0.1,2.5,1.4,3.1c1.1,0.4,2.2-0.2,3.1-0.8c0.4-0.3,0.3-0.9-0.1-1.2c-0.6-0.3-0.6-0.3-0.1-0.8c1-0.4,2.1-0.8,3.2-0.8 c0.1,0,0.2,0.1,0.2,0.2c0.1,0,0.1,0,0.2,0c1.6,0,3.7,1.6,4.5-1.4c0,0-0.7,0.4-0.7,0.3c0.9,1.3,1.9,1.4,3.8,0.3 c0.1-0.1,0.2-0.1,0.4-0.1c2-0.5,3.5-1.6,5-2.6c0.2-0.1,0.4-0.3,0.6-0.4c-0.1-0.5,0.2-0.6,0.9-0.6s1.8-0.2,1.8-0.8 c-0.1-0.8,0.5-2.2-0.5-2.1c-1.9,0.2-2.7-1.1-4.6-0.6c-1.6,0.4-1.7-0.2-1.9-1c1.1-0.2,2.1,0.3,3.1-0.4c1.3-0.3,2.4-1.5,3.9-1.2 c-0.1,0.7-2.1,1.5-0.4,2c1.3,0.6,2.3,0.5,2.5-1c0.5-0.4,0.9-0.2,1.4-0.2c0.9,0.2,1.6-0.4,2.3-0.7c0.8,0.1,2.3-0.9,2.4-0.4 c0.4,1.3,2.4,0.9,3.1,1.8c0.2,0.2,0.8,0.2,0.6,0.6c-0.2,0.4-0.7,0.4-1.1,0.4c-1.2,0.1-1.5,1-2.4,1.5c0.5,0.3,1,0.9,1.6,0.8 c1.2-0.2,2.6-0.3,3.5-1.2c0.8-0.9,1.5-1.5,3.1-1.2c1.5,0.3,3-0.7,3.9-1.9c0.8-1,0.2-1.5-1-1.7c-0.2-0.5-1-0.5-1.4-0.7 c-0.2-0.5-0.9-0.4-1.5-0.5c-1.7-0.2-3.3-0.7-3.8-1.9c1.3,0.1,2-0.9,3-1.3c0.6,0,1-0.7,1.6-0.6c0.7,0.4,1.4,0.8-0.3,1.4 c-0.6,0.2-0.9,0.5-0.8,0.9c0,0.3,0.3,0.4,0.7,0.3c1-0.1,1.5-0.6,1.8-1.2l0,0c0.2-2,2.5-2.5,4.4-3.1c0.1,1.4-2.2,3.3,0.5,4 c-0.1,0.7,0.2,1.4,1.2,1.1c1-0.2,0.9-0.9,0.6-1.5l0,0c-0.2-0.2-0.5-0.5-0.7-0.7c1.7-0.9,3.2-1.5,4.5-0.3c0.5,0.5,1.6,0.4,2.2-0.6 c0-0.1,0-0.2,0-0.3c1.1,0.3,2,0.9,3.6,0.1c1.2-0.6,0.6-1.3,0.9-2.2c0.5,0.9,1,1.2,2,0.2c0.3-0.2,0.8-0.6,1.5-0.6 c1.3,0,2-0.7,2.1-1.7c1-0.4,2-0.8,3-1.2c0.9-0.2,1.4,1,2.6-0.1c0.4-0.4,0.9-0.7,0.6-1.2c-0.3-0.3-0.7-0.8-1.2-0.5 c-0.9,0.4-2.3-0.1-2.7,1.2c-0.6,0.3-1,1.2-1.6,0.9c-1.4-0.7-3.6-0.1-5.2-0.8c1.8-0.7,3.3-1.4,4.8-2c0.4-0.4,1.3-0.3,1.5-0.9 c0.4-0.3,0.8-0.5,1.1-0.8c2.7,0.5,5.1-0.2,7.1-2.3c0.6-0.1,0.8-0.5,1.2-0.7c0.1,0.2,0.2,0.3,0.4,0.5c0.5,0.6,1.9,0.7,2,0 c0.1-1.5,1-1,2-1.1c0.7,0,1.6-0.2,2-0.5c1.6-1.3,2.7-0.7,3.9-0.4c0.7,0.2,1.3,0.7,2.3,0.2c1.3-0.5,0.7-1,0.4-1.4s-0.7-0.8-1.1-1.2 c0.7-0.3,1.5-0.6,2.2-0.9c0.3-0.1,0.5-0.2,0.8-0.3c1.8-0.1,2.8-1.1,4-2l0,0c0.6-0.1,0.3-1,1.3-0.8c0.1,0.4,0.5,0.7,1,0.5 c1.8-0.7,3.2-0.2,4.8-0.2c0.4,0.2,0.8,0.1,1.1-0.3c1.1-1,2.1-0.9,3.1-0.6c0.6-0.1,1.3-0.1,1.9-0.2c0.7,0.3,1.4-0.2,2.1-0.5 c1.8-0.7,3.3-1.6,4.9-2.5c1.1-0.6,1.3-0.7,0.5-1.2s-0.7-1,0.7-1.8c-0.7,1.1-0.7,1.6,0.9,1c0.6-0.3,1.3-0.5,1.9-0.8 c0.5,0.8,1.8,0.9,2.4,0c0.5-0.7,1-1,1.7-1.5c0.4-0.3,0.7-0.7,0.3-1c-0.5-0.3-1,0-1.2,0.4c-0.6,1.1-2,0.8-2.9,1.3l0,0 c-0.6,0.1-1.6,1.1-1.6-0.1c0.5-0.4,0.9-0.8,1.4-1.2c0.6-0.3,1.2-0.5,1.8-0.8c0.1,0,0.2-0.1,0.3-0.1l0,0c1-0.5,2.8-0.6,1.5-1.8 c-0.4-0.4,0.7-0.5,0.9-0.8c0.7-0.3,1.5-0.7,2.2-0.5c1.1,0.7,0.6,2.4,2.9,2.3c0.1,0,0.2-0.1,0.3,0c1.9-0.6,4.3,0,5.7-2 c0.3-0.1,0.6-0.3,0.8-0.4c0.2-0.1,0.6-0.2,0.6-0.3c0.3-1.1,0.8-2.3,0.7-3.4c-0.1-1.2,0.4-2.2,2-3.2c1.5-0.9,3.1-1.1,4.7-1.5 c0,0.3-0.2,0.6-0.6,0.8c-0.4,0.2-1.2,0.5-0.6,0.9c0.4,0.2,0.5,0.9,1.3,0.6c0.6-0.2,0.6-0.6,0.8-1c0.1-0.2,0.4-0.5,0.6-0.7 c1.2-0.6,1.3-1.3,0.6-1.9c0.1-0.1,0.2-0.1,0.4-0.2l0,0c-6.4,1.9-13,3.7-18.1,5.1c0.2-0.2,0.4-0.4,0.7-0.4c1.6-0.4,1.8-0.7,1.6-1 c1.3-0.4,2.7-0.9,4.1-1.3c0.2,0,0.4,0,0.7,0c0.3-0.1,0.5-0.3,0.6-0.4c3.8-1.3,7.8-2.6,11.6-3.9l0,0h0.1c4.5-1.5,8.6-3,11.8-4.2 c-0.6-0.2-1.4-0.2-2.6,0.7c-0.1,0-0.3,0-0.4,0c0-0.1-0.1-0.2-0.3-0.2c-4.6,1.4-10.2,3.1-15.7,4.8c0.9-0.3,1.5-0.7,1.6-1.6 c-0.2,0-0.3,0-0.4,0.1c4.8-1.5,9.6-3,13.5-4.1c0.2-1.1-0.8-0.9-1.9-0.5c-0.3-0.2-0.6-0.1-1,0c-0.2-0.1-0.5-0.2-0.7-0.3 c-0.1,0-0.1,0-0.2,0c0.7-0.7,1.5-1.4,2.3-2c1.2-0.1,2.4-0.1,3.6-0.7c0.7-0.5,1.2-1.3,2.3-1.6c0.5-0.5,1.4-0.9,2-1.4 c0.3,0.1,0.8,0.1,1.4,0c2.4-0.7,3.7-1.8,3.8-3.3c0-0.5-0.1-1.1,0.8-1.4c2-0.6,3.7-1.6,5.5-2.5c0.3,1.1,1.5-0.1,2.2,0 c1,1.4,1.7,1.4,3.4,0.1c1,0.3,2.1-0.1,3.1-0.3c1.4-0.4,2.9-0.6,3.7-1.8c0.2-0.2,0.4-0.4,0.6-0.6c1.4-0.5,1.6-2.2,3.7-2.1 c2.3,0,4-1.2,5.7-2.3c0.3-0.2,0.3-0.4,0.1-0.5s-0.6-0.3-0.7-0.1c-0.6,1.4-2.1,0.6-3,1.1c-0.7-0.2-2.4-0.1-1.8-0.9 c1.5-2.1-0.7-1-1.7-1c-0.2-0.1-0.5-0.3-0.4-0.4c0.1-0.5,0.3-0.9-0.7-0.7c-0.8,0.2-1.1,0.6-0.9,1.1c0.1,0.2,0.1,0.5,0.2,0.7 c-0.8,0.3-1.5,0.7-2.3,0.9c-1.7,0.4-2.2,0-1.3-1.3c1.1-1.5-0.1-2.2-1.1-2.9c-0.6-0.2-1.7,0.2-1.8-0.6c0.1-0.3-0.4-0.7,0.4-1 c1.7-0.6,1.8-1.2,0.6-1.7c-1-0.4-0.3-1,0.4-1.1c1.5-0.2,2.4-1,3.6-1.6c0,0,0,0,0.1,0c0,0,0,0,0.1,0c0.9,0.6,1.5,1.2,0.8,2.3 c-0.2,0.3-0.2,0.6,0.2,0.8c0.5,0.2,1,0,1.4-0.3c0.4-0.2,0.5-0.8,1.3-0.7c0.1,0.6-1.5,1-0.9,1.6c0.4,0.4,1.2,0.6,1.9,0.2 c1.7-0.8,1.8,0.1,2.2,0.7c0.1,0.3,2.3,4.6,2.4,4.9c0,1,1.5,1.1,1.7,2.1c0.1,0.6,1,0.1,1.1-0.3c0.3-1,0.7-1.4,2.1-1 c0.5,0.2,2-0.3,2.1-1.1s-1-0.5-1.7-0.4c-0.1,0-0.3,0-0.4,0c0.6-0.6-0.2-0.6-0.5-0.9c0.6-1,2.1-1.8,1.7-2.9 c1.7-0.5,1.5,0.8,2.3,1.3c0.6-0.4-0.4-1.1,0.8-1.4c-0.1,1.4,0.9,1,2.1,0.6c1.6-0.6,2.8-1.5,3.2-2.8c0.3-0.9,1-1.4,1.9-1.1 c1.2,0.4,2.1,0.2,3-0.5c1.3-0.9,1.7,0.3,2.6,0.3c0.6,0.1,0.3,0.8-0.3,1.3c-0.6,0.4-1.1,0.9-0.2,1.2c0.7,0.2,1.3-0.1,1.7-0.7 c0.6-1,2-2,0.9-3.1c-0.1-0.1-0.4-0.4,0-0.6c0.3-0.2,0.7-0.2,0.8,0c0.1,0.7,1.6,0.9,0.8,1.8c-0.2,0.3-0.3,0.5,0,0.5 c1.1,0,2.1-0.5,3-1c0.8-0.5,0.4-0.9,0-1.3c-0.4-0.4-1.2-1.3-0.3-1.6c1.4-0.5,2-1.6,3.3-2.1c1.4-0.6,2.8-0.6,3,0.6 c0.3,2,2.2,1.7,4,1.6c0.5-0.3,0.8,0.4,1.5-0.1c-0.9-0.5-0.3-1.2,0-1.9c2.4-0.3,4.8-0.4,6.1-2.6c0.2-0.4,0.9-0.6,1.2-0.4 c1.9,1.3,4.5,0.2,7,0.7c-0.8-1.1-3-0.9-2.4-2.5c0.5,0,0.9,1.6,1.6-0.3c0.5-1.4,2.2-3,3.8-3.8c2-1,1.6-1.4,0.4-2.2 c1.8-0.6,1.7-1.3,1.7-2.6c0.1-1.6-1.6-1.2-2.3-1.7c-0.8-0.5-2.2-0.3-3.1,0.5c-1.7,1.3-2.5,0.8-3.1-0.4c0.2-1.1,1.4-1.3,2.2-1.2 c1.9,0.3,3.5,0.4,4.6-1.4c0.1-0.1,0.4-0.1,0.6-0.2c0.9-0.2,6.1-2.7,7-3.4c0.1-0.2,0.1-0.3,0.2-0.5c-1.5,0.4-1.9-0.4-2.3-1.2 c-0.1-0.2-0.4-0.3-0.8-0.1c-0.4,0.2-0.9,0.3-1.3,0.5c-2,0.2-3.6,1.1-5,2.3c-0.2,0.2-0.7,0.4-0.5,0.7s0.7,0.4,1.1,0 c1-1,0.9-0.3,0.9,0.2c-0.2,0.2-0.4,0.4-0.7,0.7c-0.7,0.7-1.5,0.4-2.3,0.6c-0.3-0.9,0.4-2.6-2.3-1.5c-0.6,0.2-1-0.7-0.5-0.9 c2.2-1.2,1-1.9,0.2-2.8c0.7-0.6,1.4-0.7,2.2-0.5c0.9,0.3,1.6,0.1,1.9-0.8c0.3-0.9-0.4-0.8-1.3-0.7c-0.5,0.1-1.4,0.2-1.1-0.4 c0.7-1.2-1.3-0.8-1.3-1.7c1.8,0,1.3-0.8,1-1.5s-1.1-0.7-2-0.6l0,0c-0.9-0.1-1.2-0.6-1.2-1.2c0.8-0.6,1.6,0.7,2.4-0.3 c1.1-0.1,2-1.1,3.2-0.8c1.5-0.4,3.1-0.5,4.2-1.6c0.1-0.1,0.1-0.1,0.2-0.2c0.1-0.1,0.3-0.1,0.4-0.2c1.8,2.7,2.5-0.7,3.8-0.9 c0.7-0.1,0.8-0.8,0.7-1.3c-0.2-0.7-0.9-0.5-1.5-0.5s-1.4,0.8-2,0c1.9-0.6,3.7-1.1,5.2-2.2c0.9-0.7,2.1-0.8,3.2-0.7 c0.5-0.1,1-0.3,1.5-0.4c1.6-1.4,3.1-2.8,4.7-4.2c0.5-0.5,0.5-0.9-0.4-1c-0.7-0.1-1.3-0.1-1.7-0.6c0.9-1.3,1.7-0.8,2.5-0.4 c0,0.1,0.1,0.1,0.2,0.1c1.4,0.3,1.6,0.9,0.6,2c-0.4,0.4-0.6,0.9-0.1,1.3c0.4,0.3,0.8,0.2,1.2-0.1c1.7-0.9,3.5-1.8,5.1-2.9 c0.7-0.5,0.5-0.9,0.6-1.4c0.1-0.9-0.7-0.2-1.1-0.2c-0.7-0.1-0.7,0,0.2-0.9c0.7-0.4,0.1-1.4,1.3-1.5l0.1-0.1 c0.6,1.2,1.7,1.5,3.4,0.8c1-1,2.6-1.2,3.8-1.8c0,0.1,0.1,0.2,0.1,0.3c-1.1,0.8-1.6,1.8-1.4,2.9c0.9-0.8,2-1.3,3.1-1.7 c1,0.2,2.1,0.2,2.7-0.6c0.8-1.1,1.9-1.7,3.2-2.2c1-0.4,1.1-0.8,0.3-1.3c0.5-0.5,1.4-0.8,1.3-1.6c2.8-0.6,3.7-2.7,5.4-4.2 c0.4-0.4,0.7-0.8,1.3-1c-0.1-1.1,0.2-2.4,1.7-2.6c2.1-0.3,1.5-1,1.3-1.7c-0.1-0.3-0.2-0.6-0.2-1c0-0.3,0.9-0.6,0.2-0.8 c-0.5-0.1-1.4-0.5-1.6-0.1c-0.9,1.6-2.9,1.4-4.3,2.2c-3.1,1.7-6.9,1.9-10.1,3.3c-0.6,0.3-1.9,0.3-1.9-0.3c0.2-1.4-1.4-0.9-1.5-0.5 c-0.4,1.4-1.8-0.7-2.1,0.7c-0.2,0.9-0.9,0.2-1.4,0.3c-0.3-0.5-0.5-1-0.8-1.6c1.2-1.4,3.4-0.7,4.8-1.8c9.1-3.2,17.4-7.7,25.6-12.3 c2.1-1.2,4.4-2.1,6.1-3.7c1.8-0.6,3.7-1.4,5.5-1.7c1.5-0.2,2.8-0.3,3.9-1.3c0.8-0.5,0.9-0.7,0.5-1c-1.1-0.6-1.9-1.3-1.8-2.5 c0.7-0.5,1.7-0.9,1.9-1.9c-3.1,0.7-6,0.2-9.1,1.7c-1.9,1-4.4,1.7-6.1,0.1c-0.5-0.4-1.1-0.2-1.7,0c-1.8,0.4-3.5,1.1-5.1,2 c-3.3,1.9-6.8,3.3-10.4,4.7c-1.1,0.4-2.4,1.3-3.9,1.2c0.5-1.2,2-1.7,2.5-2.9c-1.4,0-2.6,0.4-3.8,0.9c-2.5,1-4.8,2.4-7.5,2.9 c-1.6,0-3.1,0.8-4.6,1.1c-0.8-0.3-1.5,0.2-2.1,0.5c-0.8,0.3-0.9,0.1-1-0.4l0,0c0.8-0.3,1.7-0.7,2.5-0.8c1.3-0.2,1.4-0.8,1.5-1.5 c1.2-0.3,1-1.6,2.2-1.8c1.5-0.2,1.9-0.9,2.2-1.8c0.2,0,0.5,0.1,0.6,0.1c1.9-0.9,3.4-2.2,5.5-3c0.8-0.3,0-0.6-0.2-0.9l0,0 c3.8-1.4,8.1-2.3,10-5.8l0,0c2-1.1,4.1-2.1,5.1-3.9c0.3-0.6,1-0.8,1.7-1c0.1,0,0.2,0,0.3-0.1c0.6-0.2,1.1-0.4,1.6-0.7 c2.5-1.4,6.2-4.1,6.6-5c0.1-0.1-0.1-0.3-0.2-0.5c0.4-0.6,1.3-0.7,1.9-1.1c2.8-1.6,5.4-3.3,7.5-5.5c0.3-0.3,0.7-0.6,0.1-1 c-3.2,1-6.3,2.7-8.7,4.5c-6.5,5-14.2,8.8-21.1,13.5c-2.8,1.9-6.1,3.8-9.3,5.4c-4,2-7.4,4.8-11.9,6.4c-2.7,1-4.9,3-7.3,4.5 c-2.3,1.4-5,2.5-7.4,3.9c-3.5,2-7,4.4-11.5,4.4c-3.1,0-6,0.6-8.8,1.9c-1-0.1-1.9,0.3-2.9,0.4c-4.1,0.8-7.1,3.5-11,4.9 c-3.3,1.1-6.4,2.8-9.3,4.7c-0.3,0.1-0.5,0.2-0.8,0.3c-0.8,0.2-1.7,0.3-2.4,0.7c-2.6,1.4-5,2.9-7.5,4.3c-4.4,1.9-9.3,3-13.6,5.1 c0.7-0.8,1.8-0.8,2.7-1.8c-2.8,1.4-5.5,2.2-8.2,2.5c-2.1,0.3-4,0.8-5.9,1.6c-0.1-0.1-0.1-0.1-0.2-0.2c-0.1-0.4-1.3-0.3-0.8-0.7 c0.7-0.7,1.3-1.8,2.8-1.6c1-0.3,1.9-0.7,2.1-1.5c0.1-0.4-0.4-0.5-0.9-0.5c-1,0-1.6,0.3-1.7,1.1c-0.3,0.2-0.4,0.5-0.9,0.4 c-0.4-0.1-0.2-0.4-0.2-0.7c0-0.4-0.5-0.9,0.2-1.1c2.4-0.4,4.1-1.9,6.2-2.7c0.8-0.3,1.6-0.7,2.5-1c0.2-1.4-1.5-1.8-2.3-2.7 c0.5-0.3,1.1-0.6,1.5-1.1c0.5-0.6,1.2-1.3,2.2-0.8c0.9,0.6,3.2,0.5,1.3,2.4c-0.3,0.3,0.2,0.7,0.3,1.1c1.7-0.5,0.7,1.1,1.7,1.2l0,0 l0,0c0,0.1,0.1,0.2,0.1,0.3l0,0c-0.6,0.1-1.2,0.2-1.9,0.3c0.4,0.8,0.7,1.3,1.9,0.8c0.7-0.3,1.7,0,2.1-0.9c1.8-0.2,3.5-0.6,4.4-2.1 c0.3-0.5,0.7-0.8,1.5-0.6c1.9,0.4,3.5-0.7,5.1-1.4c0.6-0.2,1.1-0.7,0.8-1.2c-0.4-0.6-0.9,0-1.4,0.2c-1.7,0.5-3.5,1-4.4-0.6 c-0.5-0.8-1.2-1-2.2-0.3c-0.8,0.7-1.9,0.5-2.8,0.8c-1.6,0.4-2.2-0.3-1.5-1.5c0.3-0.5,1-1,0.5-1.4c-0.9-0.8-0.4-1.8,0.7-2.2 c2.2-0.8,3.3-3.3,6.2-2.7c0,0.6-1.8,0.7-1.1,1.5c0.6,0.6,1.5-0.3,2.2-0.4c0.6,0.2,0.2,0.7,0.5,1c0.5,0.5,1.4,0.3,1.5-0.3 s0.5-1.4-0.4-1.8c-0.7-0.1-1.4-0.1-2.1-0.2c0.4-1,0.4-1-2.3-1.1c0.1-0.6,0.9-1.2,0.2-1.7c0.8-1.2,1,0.6,1.6,0 c1.1,1.4,2.6,0.8,4.1-0.1c-0.1,0.8,0.5,1,1.3,0.7c1.3-0.5,2,0.1,2.9,0.5c0.2,0.3-0.9,1,0.3,1c1.3,0,2.2,0.5,3.2,1 c0.3,0.1,0.8,0.4,0.9,0.1c0.6-1.3,2.5-1.7,3.2-2.6c0.7-1,1.3-1.3,2.4-1.3c0.6,0.1,1.2,0.3,1.8,0c1.4-0.3,3.1-1.3,3.6,0.5 c0.1,0.2,0.4,0.3,0.7,0.2c0.5-0.1,0.5-0.5,0.4-0.7c-0.4-0.8,0.6-0.9,1-1.3c1.6-1.8,3.8-2.2,6.1-2.6c0.2,0,0.3-0.4,0.5-0.6 c1-1.1,2.5-0.2,3.6-1.1c0.9-0.1,1.1-0.9,2.1-1.3c0.2,1-1.3,2-0.3,2.7l-0.1,0.1l-0.2,0.1c-0.5,0.2-1.6,0-1.2,0.9 c0.4,1,2.7,1.7,4.1,1.2c1-0.3,1.2-0.7,0.8-1.3c-0.7-1.2-2.9-1.9-1-3.9c0.3-0.2-0.8-0.2-0.5-0.7c2.6,0.8,3.1,0.6,5.7-1.4 c1.2-0.9,2.5-1.1,3.8-0.2c-1.1,0.4-2.1,0.8-3.3,1.3c1,0,2-0.2,2.1,0.5c0.2,2.2,2.6,1.1,4.3,1.4c-0.8-0.5-0.4-1.4-1-2 c-0.1-0.3-0.3-0.5-0.4-0.8c-0.8-0.8-0.2-1.3,0.9-1.7c0.5,0.4-0.7,0.9-0.1,1.3c3.9-2.1,3.9-2.1,3.8-2.8c-1,0.1-1.2,1.2-2.3,1.3 c0.2-0.8,0.5-1.6,0.7-2.5c1,0.7,2.8,0.8,3,0.3c0.6-1.2,3.6-1.6,2.5-3.3l0,0c-0.1-1-1.7-0.6-2.3-1.3c-0.1-0.1-0.8-0.1-0.5-0.2 c1.2-0.5,1-1.8,2.7-2.2s3.9-0.5,4.9-2.2c0.4-0.3,0.9-0.5,1.3-0.8c0.3-0.2,0.6-0.6,0.3-0.8c-0.4-0.2-0.8,0.1-1.2,0.3 c-0.4-1.5-0.4-1.5-1.6-1.2c-1.3-0.5-2.5,1.1-3.8,0.6l0,0l0,0c-1-0.8-2.6-0.3-3.9-0.3c-1.6-0.1-1.8-0.4-0.6-1.4l0,0 c0.5,0.7,1.4,0.6,2.3,0.4c0.7-0.2,1.3-0.7,1.3-1.2c0-0.4-0.2-1-0.6-1.2c-0.4-0.1-1.3-0.2-1.6,0.6c-0.1,0-0.3,0.1-0.4,0.1 c-0.1-0.5-0.2-1,0.8-1.3c0.3-0.1,1-0.1,0.6-0.4c-1.5-0.9,0-1.4,0.7-2.1c0.8-0.9,2-1.9,1.7-3.2c0.3-0.1,0.6-0.2,0.8-0.3 c0.8,0.5,1.7-0.8,2.5-0.3c0.2,0.8,0.9,1.1,1.7,0.4c0.6-0.5,1.5-0.9,1.7-1.7c0-0.5-0.1-0.9-0.6-1.1c-0.4-0.3-0.5-0.6,0.3-0.9 c0.7-0.2,1.3-0.6,2-0.9c0.3-0.1,0.6-0.1,0.9-0.2c1.6-0.5,3.7,0.3,4.7-1.1c0.9-1.3,2.2-2.3,3.5-3.2c0.9-0.6-0.4-1.6,1.1-1.7l0,0 c1,0.4-0.5,1.3,0.1,1.8c-0.9,1.4,0.8,0.6,1.3,0.8c0.8-0.3,1.6-0.7,2.4-0.9c1.4-0.3,2.4-1.2,3.4-2c1.6-1.2-0.2-1.7-0.6-2.4 c-0.1-0.2-0.3-0.4,0.1-0.6c0.8,0.3,1.3,1.2,2.5,0.5c0.6-0.1,1.3,0.2,1.6-0.6c1.1-0.3,2.1-0.6,3.2-0.9l0,0c0.4,0.6,0.3,1.7,2,1.1 c0.3,0.1,0.7,0,1.1-0.1c2.4,0.4,2.8-0.9,3-2.3c0.5-0.3,1-0.7,1.5-1l0,0c3.6-1.6,5.7-3.7,5.5-5.7c1.4-0.1,2.6,0.1,3.8,0.5 c0.4-0.8-0.1-1-0.6-1.3c-0.6-0.4-0.3-0.7,0.5-1.1c1.4-0.6,3.3-1.1,2.2-2.7c-0.5-0.7,0.8-0.9,0.9-1.5c-1.1-0.2-2.1-0.6-3,0.6 c-0.4,0.5-0.9,0.7-1.5,0.3c-0.3-0.2-0.7-0.3-0.8,0.1c-0.1,1.2-1.5,1.4-2.3,1.5c-3,0.6-6,1.2-9,2c-0.4,0.1-1,0.4-1.4-0.1 c-0.8-1.2-0.8-1.2-2.1,0.3c-0.2,0.1-0.3,0.2-0.5,0.2s-0.3,0.1-0.5,0.1c-0.9,0-1.8-0.5-2.7,0.1c-0.5,0.3-1,0.5-1.5,0.6 c-0.4,0-0.8,0.1-1.2,0.1c-0.8,0-1.5-0.1-2-0.3c-1.1-0.3-2.2-0.1-3.2,0.1c3.5-1,7.3-2.2,11.1-3.3c0.6,0,1.2-0.1,1.6-0.4l0,0 c10.6-3.1,20.3-6,19.5-5.8c0-0.1,0-0.1,0-0.2c-5.1,1.5-12.2,3.7-19.4,5.8c0-0.1,0-0.3-0.2-0.3c-0.9-0.2-1.6,0.2-2.4,0.9 c0.2,0.1,0.3,0,0.5,0.1c-4.2,1.3-8.3,2.5-12,3.6c-0.7,0.2-1.3,0.3-2,0.4c-1.2,0.5-2.5,0.6-3.8,0.6c-1.2,0,26-8,39.2-11.6 c-0.3-0.5-1.4-0.2-2.1-0.2c-0.5-0.6,0.8-0.9,0.8-1.4c0.3-0.4,0.7-0.8,1-1.1c1.4-0.5,1.8-1.5,2.4-2.4c2.5-0.9,3.3-2.4,3.1-4.2 c1.3-1.1,0.5-2.6,1.9-3.8c0.2-0.1-0.4-0.5-0.7-0.5c-1.8,0.6-3.4-0.5-5.3,0.4c-0.3-0.1-1,0.2-0.9-0.2c0.2-1.4-0.7-1.7-2.3-1.5 c-0.4,0.1-0.8-0.2-1.2-0.3c0.8-0.7,1.6-1.4,2.3-2.1l0,0l0,0c1-0.7,2.4-1.3,2.4-2.2c0-1.1,0.9-1.1,1.7-1.3c0.5-0.1,1,0,1.5-0.3 c3.3-1.7,7.1-2.9,10-5.2c0.4,0.5-0.6,0.9-0.3,1.8c0.2-0.8,1.5-0.2,1.3-1.3c-0.1-0.4,0.4-0.7,1-0.9c2-0.7,3.9-1.6,5.2-3.1 c0.7-0.7,1.9-2,2.6-1.7c1.8,0.7,2.4-0.3,3.3-1.1c0.4-0.3,0.8-0.6,1.3-0.3c0.3,0.2,0.7,0.1,0.9-0.3c0.1-0.4-0.2-0.5-0.6-0.5 c-1.1,0.2-1.6-0.3-1.8-1c0.8-0.5,1-1.2,1.6-1.8c1.2-0.8,2.7-1.3,3.4-2.5c0.1-0.1,0.2-0.3,0.3-0.4c1-0.4,0.8-1.7,2.3-1.6l0,0 c1.2-0.7,1.8-2.6,3.8-1.6c0,0,0.2,0,0.2-0.1c0.7-1,1.5-0.7,2.4-0.6c2.3,0.2,4.1-1.4,3.8-3.2c-0.1-0.7-0.6-1.4-0.2-2.3 c1.3-1.7,1.1-2.7-0.5-2.5c-1.7,0.2-3.8-0.1-5,1.6c0,0.1,0,0.1,0,0.2l-0.8,0.4l0,0c0.2,0.2,0.2,0.2,0.2,0.1 c-3.5,0.1-3.6,0.4-4.2,0.5c-1.5,0.3-3.2-0.3-4,1.6c-0.8-1.2-0.8-1.3-2-0.5c-1,0.7-1.7,1.1-2-0.1c-0.1-0.4-0.6-0.4-1-0.5 c-1.5-0.4-5.7-1.5-5.7-1.5s-1.2,0.6-1.3,0.7c-1,0.4-1.6-0.3-2.5-0.1c-1.4-0.1-2.8-0.2-4.2-0.3l0,0c-1.1,0-0.9-0.4-0.3-1 c0.7-0.8,2.3-0.8,2.7-2.1c-2.4,0.7-4.8,1-6.8,1.7c-4,1.4-8,3-11.7,4.9c-1,0.5-2.2,0.9-3.3,1.3c-0.7,0.3-1,0.1-0.6-0.5 c0.5-0.4,1-0.8,1.8-0.9c0.9-0.2,0.9-0.6,0.5-1.1c0-1.6-3.7,0.7-3.1-1.4c-0.2,0-0.4,0.1-0.6,0.1c-0.6,0.2-1.1,0.6-1.7,0.9 c-1.3,0.7-2.7,1.3-4.2,1.1c0.1-0.1,0.2-0.1,0.3-0.2c0.9-0.3,1.5-0.7,1.7-1.6c-1.3,0.4-2.5,0-3.5,0.9c-1.1,0.4-2.2,0.9-3.3,1.3 c-0.3,0-0.7,0-1,0.1c-0.7-0.3-1.8,0.6-2.5,0c-0.4,0.3-0.7,0.8-1.2,0.7c-2-0.2-3.6,0.7-5.1,1.8l0,0c-4.6,1.8-9.3,3-13.9,4.9 c-2.8,1.2-5.7,1.9-8.6,2.6c-5.5,1.4-10.8,3.2-16.1,5.3c-1.5,0.6-3.1,1.1-4.6,1.7c-0.4,0.1-0.8,0.4-1.2,0.3c-2.5-0.5-4.7,0.6-7,1.6 c-1.3,0.6-2.6,1.4-4,1.7c-4.5,1-8.7,3-13.1,4.3c-1.3,0.4-2.7,0.8-4,1.4c-2.5,1.2-5.1,1.9-7.7,2.6c-0.3,0-0.5-0.1-0.8-0.1 c-1.4,0.2-2.9,1-3.7-0.4c-0.4-0.6-1.4-0.8-2.1,0.3c-0.5,0.8-1.2,1.2-2.2,1.5c-0.1-0.2-0.2-0.3-0.3-0.5c0.1-0.5,0.3-0.9,0.7-1.4 c0.4,0,0.7-0.1,1.1-0.1c1.3,0,2.2-0.8,2.4-1.9c0.3-0.1,0.7-0.1,1-0.1c1,0.2,1.7-0.1,2.6-0.4c-0.4,0.4-0.2,1-0.9,1.2 c-0.3,0.1-0.9,0-0.7,0.4c0.1,0.2,0.7,0.3,0.9,0.2c1.5-0.7,3.4-1.2,3.8-2.7c0.2-0.7,0.4-1.1,1.4-1.2c0.6-0.1,1-0.6,1.2-1 c0.9-0.8,2.1-0.7,3.1-0.8c1.6-0.2,2-1.3,2.4-1.9c0.5-0.9-1.3-0.3-1.9-0.7c2-0.9,4.1-0.7,6-1.4l0,0c0.7,0.1,1.4,0.4,2.2,0.4 c0.9,0.1,2.2,0.5,2.6-0.1c1-1.4,2.7-1.2,4-1.8c0.2-0.1,0.5-0.2,0.7-0.3l0,0c2,0.3,3.1-1.8,5.1-1.8c0.4,0,0.2-0.8-0.2-1 c-0.7-0.3-1.4-0.6-2.4-0.2c-0.1-0.2-0.2-0.4-0.3-0.6c0.7-1.1,2.6-2,3.3-1.6c1,0.5,2,0.1,2.9,0.1c0.7-0.1,1.5-0.2,2.3-0.3 c0,0.9-1.4,1.3-1.6,2.1c1.5,0.3,2.1-0.4,2.6-1.3c0.3-0.6,0.3-1.4,1.5-1.6l0,0c0.4,0.7,0.3,1.9,1.9,1.5c1.8-0.4,3.6-0.9,3.1-2.8 c0.8,0.3,1.4,0.9,1.8-0.1c0.4-1,1-1.3,2-0.6c0.2,0.2,0.9-0.2,0.8-0.4c-1.1-1.1,1-0.8,1.2-1.3c0.4-0.1,0.8-0.3,1.3-0.4 c0.6,0.7,1.4,0.1,2.1-0.2c1.5-0.5,3-1.2,4.5-1.7c1.3-0.4,2.4-1,1.8-2c-0.5-0.9-1.7-0.6-2.8,0c-0.1,0.1-0.3,0.1-0.4,0.2 c-0.7-0.9-2.2,0.2-2.9-0.3c-1.6-1.1-2.3,0-2.8,1c-0.5,0.8-1.2,1.2-2.2,1.3c-0.9,0.2-1.9,0.6-2.7,0.7c-2.3,0.3-4.5,1.7-6.8,1.2 c1.1-0.7,2.1-1.5,3.2-2.2c3.9-1.6,7.7-3.2,11.5-4.8c3.8-0.6,6.7-2.7,10-4.1c0.4-0.1,0.7-0.3,1.1-0.4c4-1.1,6.9-3.9,10.8-5.2 c0.4-0.1,0.9-0.9,0.5-0.9c-2-0.3-1.4-1.3-1-2.4c0.2-0.6-0.2-1.2-0.9-1.5c-1.3-0.6-2.5,0.5-3.7,0.7c-0.1,0-0.2-0.1-0.3-0.2 c0.4-1.4-1.7-0.2-1.9-1c0.6-0.2,1.1-0.5,1.4-1c0.3-0.2,0.4-0.4,0.5-0.6c0.8-1.1,1.7-2.2,1.1-3.4c1.8-1.8,4.2-3.4,5.7-5.4 c2.7-1,5.3-2.3,7.8-3.7c1.4-0.8,2.7-1.9,4.3-2.5c7.8-2.8,15.8-5.3,23.3-8.6c9.1-4,17.4-9.1,24.9-15.3c1.9-0.3,3.8-1,5.6-0.8 c1.6,0.2,2.7-0.2,3.8-0.9c0.9-0.6,1.4-1.3-0.2-1.8c-0.7-0.2-1.7-0.6-1.6-1.2c0.4-2.2-1.2-1.8-2.5-2c0.6-1.2,2.2-1.4,3-2.4 c1.3-0.5,1.1-1.9,0.2-1.8c-2.1,0.3-3.9-1.4-6-0.7c-2.2,1.3-4.8,1.6-7.4,1.8c-0.7,0-1.2,0-1.8-0.5c-2.6-2.5-3.4-2.6-6.6-1.4 c-2.6,0.9-4.4,2.9-7.1,3.7c-1-0.1-1.9,0.4-2.7,0.8c-2.3,1.2-4.8,2-8.1,2.8c2-1.8,3.1-4.2,5.3-4c1.9,0.2,2.7-0.6,3.8-1.3 c2.5-1.7,5.1-3.3,7.7-4.9c1,0.6,1.7,0.7,2-0.7c0.2-1.2,1.2-2,2.4-2.8c1-0.7,3.4-0.7,2.4-2.9c0.2,0,0.4,0.1,0.7,0.1 c0.2,0.7,0.4,1.3,1.4,0.9c-0.1,1.1-0.2,1.9,1.4,0.9c1.2-0.8,2.6-1.9,3.9,0.4c0.1-1.5-0.8-2.5-0.8-3.7c0-0.1,0-0.2,0-0.3 c0-0.1,0-0.3-0.1-0.4c-0.4-1.7,0.7-2.5,2.7-2.7c-0.8,0.6-2,1-1.1,2.2c0.8,1.1,1.7,0.2,2.6,0.1c0.7-0.1,1.1-0.5,1.4-1.1 c2-0.5,3.9-1.1,4.7-3.1c0.4-1,2.2-0.6,2.5-1.7c2-0.4,3.7-1.7,5.8-1.9c-0.2-0.5-0.4-1.1-0.7-1.7c0.2-0.4,0-0.7-0.2-1 c0.3-0.3,0.5-0.6,0.8-0.8c0.9-0.3,1.7-1,1.2-1.8c-0.3-0.5-1.4-0.8-2.4-0.3c-1.6,0.7-3.1,1.4-4.7,2c-1.1,0.4-2.2-0.1-2.3,0 c-0.3,2-1.7,0.7-2.5,0.6c-0.4,1.3,0.9,1.5,1.2,2.2c-0.8,0.2-1.8,0.3-2.5,0.7c-2.8,2-6.2,2.6-9.6,3.2c-1-0.2-0.3-1.8-1.9-1.6 c-1.3,0.2,0.6,1.2-0.7,1.4c-0.7-1-1.8-1.4-3.1-1.2l0,0c0.1-0.4,0.9-0.8,0.4-1.3c-0.4-0.4-0.9,0-1.3,0.2c-1.2,0.7-2.4,1.4-3.5,2.1 c-2.2,1-4.5,1.9-6.7,2.9c-1.6,0.7-3.4,1.1-4.5,2.5c-0.2,0.1-0.5,0.2-0.7,0.4c-2.3-1.5-4.9-1-6.3,1.2c-0.2,0.3-0.6,0.4-1,0.6l0,0 c-1.3-0.7-1.7,0.3-2.2,0.9c-0.4,0.4-0.7,1.3-1.3,1.2c-2.4-0.4-3.3,1.4-5,2.2c-1,0-2,0.3-2.2,1.1c-0.5,1.8-1.4,1.8-3.2,1.4 c-1.4-0.4-3,0.1-3.7,1.4c-0.6,1.2,1.2,0.7,1.6,1.4c-1.9,1.4-4,2.2-6.2,3c-0.2,0.1-0.3,0.2-0.5,0.2c-0.8,0.2-1.5,0.4-2.3,0.6 c-1.4,0.3-2.7,0.7-4.1,1.1c-2.3,0-5.4,1.4-7.2,3.2c-1,0.4-1.9,0.7-3,0.9c0.1-0.4-1.8,0.5-0.6-0.6c0.5-0.4,0.6-0.8,0.8-1.2 c0.4-0.9,1.1-1.6,2-2.2c0.5-0.2,1-0.5,1.4-0.7c0.1-0.1,0.2-0.1,0.4-0.2c3.3-1,6.5-2.3,9.7-3.6c1-0.4,2-1.6,2.3-2.7 c3.2-1.5,6.5-2.9,9.7-4.5c4-2,7.7-4.5,11.9-6.3c3.5-1.5,6.7-3.6,10.1-5.8c-0.8,0.2-1.2,0.2-1.5,0.3c-5.4,2.3-10.8,4.4-15.9,7.2 c-4.8,2.6-9.9,4.9-15,7.2c-0.9-0.5-0.6-1.2-0.4-2c0.5-0.6,1.1-1.2,0.7-1.7c-1-1.5,0.5-2.4,2.1-3.3c0.9-0.5,1.5-0.9,0.9-1.6 c0-0.2-0.2-0.4-0.2-0.6c0.2-0.2,0.3-0.4,0.1-0.8c-0.3-0.5-0.7-0.6-1.2-0.5c-0.7-0.3-1.8-0.4-3.1-0.2c3.4-2.1,3-4.2,1.9-6.2 c-0.4-0.8-0.7-1.9-2.6-0.9c-0.8,0.4-1.6-0.1-1.7-0.5c-0.2-0.7,0.7-0.7,1.4-0.8c0.9-0.2,2.1-0.3,1.5-1.4c-0.3-0.5,0.5-1.1,1.1-1.5 c0.8-0.5,1.5-1,0.9-1.7c-0.7-0.8-1.6-0.3-2.5,0.2c-0.7,0.1-1.4,0.1-2.1,0.4c-0.2-0.5-1-0.3-1.3-0.5c-1.5-0.9-3.6-1.2-4.4-2.6l0,0 c0.1-0.1,2-1,2.1-1c2.1-0.9,4.6-0.5,6.4-1.9c1.5-1.1,3.9-1.5,4.9-3.2c0.2-0.4,0.8-0.3,1.2-0.3c1,0,2.3,0.1,1.1-1.1 c-0.1-0.1,0.2-0.7,0.6-0.9c1-0.7,2.3-0.3,3.4-1.2c0.5-0.4,0.5,0.9,1.6,0.8c0.3-1.6,2.3-1.6,3.6-2.4c1.4-0.8,2.5-1,3.7-0.5 c2.1-0.3,2.7-1.9,4-2.8c0.6-0.4,0-1-0.3-1.4s-0.9-0.1-1.4,0c-0.9,0.2-1.4,1-2.7,1.6c1.1-1.7,2.3-2.4,4.2-2.6 c0.6-0.1,1.3-0.4,1.1-1s-0.8-0.6-1.4-0.2c-0.5,0.2-0.9,0.6-1.3,0.1l0,0l0,0c0-0.1,0-0.2,0-0.3c0.6-0.4,1.8-0.4,1.7-1.1 c-0.1-0.6-1.1-0.5-1.9-0.4c-0.4,0-0.9-0.1-1.3-0.2l0,0l0,0c-1,1.1-2.8,0.9-3.9,1.8c-1.9,1.6-4.5,1.4-6.7,2.1 c-1.2,0.4-2.9,1.7-4.4,0.7c0,0-0.7,0.3-0.7,0.4c-0.3,1.4-2.7,1.9-3.1,3.3c-0.1,0.4-0.8,0.9-1.1,0.3c-0.6-1.3-1.7-0.4-2.8-0.2 c-1.1,0.2-2.7,1.8-3.1-0.2c-0.1-0.3-0.5,0-0.7,0.1c-0.9,0.5-1.5,0-2.2,0c-1,0-2.1-2.1-3.3,0.3c-0.2,0.3-0.7,0.4-1,0.4 c-1.4-0.3-2.7,0.2-4.2,0.4c-4.2,0.7-8.1,1.8-11.9,3.7c-0.1,0-0.2,0-0.3,0c1.8-0.9,3.7-1.6,5.5-3.2c-1,0.1-1.6,0-2.2,0.1 c-3.6,0.9-7.1,2-10.8,2.9c-0.6,0.2-1.3,0.2-1.9,0.4c-0.4-2.1-0.5-2.1-3.5-0.9c-1,0.4-1.9,1-2.8,1.6c-2.6,0.2-4.9,1.9-7.5,1.9 c-0.2,0-0.6,0.4-0.8,0.7c-0.2,0.3-0.5,0.6-0.8,0.8c-3.6,1.2-7.3,2.4-10.9,3.6c-0.9-0.4-2.4,0.5-2.8-0.6c-0.4-1.2,1.3-1.1,2-1.7 c0.3-0.3,0.6-0.7,1-1.1c-0.8-0.2-1.5-0.3-2.2-0.5c0.2-0.8,0.6-1.6,2-2.3c0.9-0.4,1.7-1.8-0.5-1.8h-0.1c0.8-0.8,1.6-1.6,2.4-2.4 c1.5-0.5,2.5-1.7,4.1-1.9c1.4,1,2.5,0.1,3.5-0.5c3.2-2.2,6.7-3.7,10.3-5.1c3.6-1.3,5.9-3.7,8-6.3c-2.1-1.3-4.4-1.7-6.3-0.9 c-3.6,1.6-7.4,2.7-11,4.3c-1.7,0.7-3,2.4-5.1,2.2c-1.3-0.1-2.1,0.3-3,0.9c-0.1,0.1-0.3,0.1-0.4,0.1c-0.2-0.3-0.4-0.4-0.6-0.7 c0.2,0,0.5,0,0.7,0c0.5-0.1,1.1-0.1,1.6-0.3c3.4-1.6,7.2-2.8,10.1-5.1c0.5-0.4,1.4-0.7,0.8-1.3c-0.5-0.4-1.3-0.5-2.1,0 c-1.5,1.1-2.9,1.9-5,2c-0.8,0-2,0.6-2.4,1.2c-0.6,0.7-1.4,1-2.3,1.4c-0.4,0.2-0.7,0.3-1.1,0.4c-0.6,0.2-1,0.6-1,1 c-1.9-1.9-4.2-2.8-7.3-1.6c-1.6,0.2-3.4-0.4-4.7,1c-1.2,0.6-2,0.6-3.4-0.2c-2.9-1.7-6.2-1.2-9.2,0c-3.5,1.4-7.3,2.2-11,3.2 c-4.2,1.1-8.5,2-12.4,3.6c-7.2,3-15.3,3.5-22.5,6.6c-1.3,0.6-2.9,0.7-4.4,1c6.5-4,14-5.8,21.2-8.3s14.5-4.8,21.6-7.4 c7.1-2.7,14.8-3.7,22.1-6.7c-3.7-1.3-6.4,0-9.3,0.8c-6.2,1.7-12.2,4.2-18.6,5.3c-0.1,0-0.2,0-0.3,0c-2.1,0.1-3.9,2-6.5,1.2 c1.4-1.3,3.2-1.4,4.5-2.3l0,0c2.1,0.4,3.4-0.7,5.1-2c-1.5-0.3-2.6-0.1-3.7,0.3c-1.3,0.4-2.9-1.3-4,0s-2.6,1.6-4.1,2.1 c-1.4,0.3-3.1-0.4-4,1.1l0,0c-0.3-0.9-2.6-0.7-1.5-2.1c0.5-0.7,0.4-2.2,2.1-2c0.4,0.1,0.8-0.3,0.7-0.8c-0.1-0.3-0.4-0.7-0.7-0.9 c-0.5-0.2-0.9,0.1-0.9,0.5c-0.2,1.3-1.5,1-2.2,0.9c-1.4-0.1-2.6,0.1-3.7,1c-0.5-1.4,0.6-2.2,0.9-3.7c-1,0.5-1.7,0.8-2.5,1.1 c-0.3-0.2-0.5-0.4-0.8-0.6c-0.4-0.3,0.2-1.5-1-1.2c-0.8,0.2-0.7,0.7-0.3,1.4c0.4,0.7-0.3,0.7-0.8,0.4c-0.6-0.4-1.1-0.4-1.5,0.2 c-1.1,0.1-2.1,0.2-3.2,0.3c-0.1-0.1-0.1-0.2-0.2-0.3c0.1-0.1,0.3-0.1,0.4-0.2c1.6-0.7,1.7-2.5,3.1-3.4c0.6-0.4-0.5-1.4-1.6-1 c-0.1-0.1-0.3-0.1-0.4-0.2c-0.1,0-0.1-0.2-0.1-0.2c0.7-1.7,3.3-0.8,4.1-2.4c0.9,0.3,1.5,1.6,2.8,0.9c1,2.4,1,2.4,3.7,1 c0.1,0,0.3,0.1,0.4,0.2c0.3,0.8-1.4,0.8-0.8,1.7c0.3,0.4,6.1,0.6,6.1,0.2c-0.1-1.3,1.3-1.1,2-2.1c-1.8,1.1-1.7-1.8-3.3-1.1 c-0.7-1.1-1.7-1-2.8-0.8c-0.9,0-0.2-0.6-0.4-0.9c1-0.1,2.2-0.7,2.9-0.3c1.5,0.9,2.5,0.3,3.6-0.5c1.6-0.5,3.3,0,4.7-0.2 c3.4-0.6,7.1-0.8,10-3c0.7-0.6,1.8-1.2,2.9-0.1c0.5,0.5,1.5,0.3,2-0.4c0.3-0.5,0.5-0.8,1.2-1c3.2-0.8,6.4-1.7,8.6-4.2 c0.4-0.4,0.9-0.7,0.6-1.4c-0.3-0.7-0.9-0.6-1.5-0.4c-0.7,0.2-1.3,0.3-2,0.4c-0.8,0.1-1.3-0.1-1.6-0.8c-0.6-1.2,1.2-1.9,0.7-3.1 c0.5,0.2,1,0.4,1.5,0.6c1.4,0.8,2.9,1.1,3.9-0.2c0.7-0.9,1.7-1.2,2.7-1.5c1.2-0.4,2.8-0.6,2.6-2.5c-0.1-0.6,0.7-0.5,1.1,0 c0.3,0.5,0.5,1,0.7,1.5c-2.4,1.9-5,3.7-6.5,6.5c2.1,0.4,2.7-1.3,3.8-1.4c2.5-0.4,5.3-0.1,5.7-3.3c0-0.1,0.2-0.2,0.4-0.3 c2.4-0.8,4.6-2.3,7.5-1.7c1.7-0.7,3.4-1.5,5.1-2.2l0,0c1.5,1,2.9,0.3,3.6-0.7c0.6-0.7,2.2-0.8,1.7-2.2c0.4-0.2,0.9-0.4,1.3-0.6 c1-0.4,2.2-1.2,3.1-1c1.5,0.3,2.2-0.4,2.7-1.2c0.6-0.9,0.8-1.8,2.2-0.7c0.4,0.3,0.9,0.1,1.2-0.2c0.5-0.5-0.4-0.5-0.4-0.8 c-0.3-1.1-1.7-2.1-0.2-3.4c-1,0-1.6,0-2.4,0c0.6-0.4,1-0.7,1.5-1c-0.5-0.5-1.3,0.5-1.6-0.3c-0.2-0.6,0.6-1.6,0.8-1.5 c1.2,0.5,1.8-2,2.7-0.5c0.9,1.4,1.9,1,3,0.8c6.8-1.7,13.5-3.5,18.5-8.3c2-1.9,4.2-2.9,7.1-3.1c0.5,0,1.2-0.1,1.3-1 c-1.6,0.3-3.1,0.5-4.5,0.8c-0.9,0.2-1.6,0.4-2-1c-0.5-1.5-1.7-2.3-3.6-1.1c-0.9,0.6-2.7,2-2.9-0.8c0-0.5-0.7-0.9-1.1-1.4 c2.5-1.5,5.5-1.6,7.9-3.1c-1.6,0.3-4.9-1.6-5.2-3.2c-0.6-2.6-3.1-3.8-4.4-5.7c-2.2-3.3-4.2-0.2-6.1-0.7c-0.1,0-0.2-0.1-0.2-0.1 c1.9-1.1,3.4-2.5,3.6-4.7c0-0.1,0-0.2,0-0.3c0,0,0,0,0.1,0c0,0.1,0,0.2-0.1,0.3c0.9,0.4,1.6-0.9,2.5-0.1c0.6,1.1,1.5,1,2.5,0.7 c0.4-0.1,0.8-0.3,0.7-0.9c-0.2-0.8-1.1-0.2-1.5-0.6c-0.1-0.8,1.2-0.7,1.1-1.5c0.2-0.1-1.2,0.6-1.2,0.6s1.9,2.9,2.4,2.9 c1.8,0,1.7,0.9,1.3,2c-0.3,0.4-1.1,0.7-0.6,1.3c0.2,0.3,1,0.3,1.4,0c1.4-1.2,3.5-1.6,4.8-3c0.4-0.5,1.5-0.6,1.1-1.5 c-0.5-1-1.3,0.3-2-0.2c0.3-0.4,0.6-0.7,0.9-1.1c0.2-0.3,0.9-0.6,0.3-1.1c-0.4-0.3-1-0.5-1.4-0.1c-0.7,0.7-2,1.3-0.7,2.5 c-1.3-0.1-3.3,2.5-3.8-0.8c0.4-0.2,0.8-0.4,1.2-0.7c2-0.5,2.7-3.9,2.7-3.9l0.6-0.3l0,0l0,0c0.2-0.1,0.4-0.2,0.6-0.3 c0.7-0.1,1.5-0.2,2.3-0.3c-1,1.8-1,1.8,1.3,1.9c0.7,0.8,1.8,1.9,2.6,1.2c1.1-1,3.2-1.4,3.2-3.3c1.6-0.6,3.2-2,4.7-1.8 c4,0.6,5.8,0,6.9-3.1c-1.3-0.3-2.1,1.8-3,1c-2.2-1.9-3.8,0.2-5.6,0.1c0.8-0.3,1.8-0.8,2.2-1.6c1.2-2.1,3.3-3.2,5.7-4.1 c1-0.4,2-1.6,2.9,0.3c0.2,0.5,1.2,0.2,1.7-0.3c1.6-1.9,4.1-2.9,5.7-4.7c0.7-0.7,2.7-0.8,2-1.8c-0.7-1.2-2.2,0.1-3.3,0.2 c-0.3,0-0.6,0.3-0.9,0.4c-2.5,0.9-4.9,1.8-7.4,2.8c-0.1-0.2-0.2-0.4-0.4-0.5c2.2-1.7,4.3-3.4,6.5-5.2c0.4-0.3,1.6-0.2,1.2-1.1 c-0.4-0.8-1.2-0.3-1.8-0.3c-0.5,0-1,0.1-1.5,0.3c-4.9,2-9.6,4.5-15.2,4.6c-0.4,0-1.2,0.5-1.2,0.6c0.3,1.9-1.2,1.1-1.7,0.8 c-1-0.7-1.7-0.1-2.6-0.1c-2.8-0.1-5.2,2.1-8.1,1.2c-0.6-0.1-1.1,0.5-1.7,0.1c-1.7-1.1-3-0.3-4.2,0.6c-0.5,0.1-0.9,0.3-1.4,0.4 c-3,0.5-5.8,1.5-8.8,1.9c-1.5,0.2-3.7,0.8-4,2.9c-0.1,0.4-0.3,0.7-0.8,0.7c-2.6,0.2-4.7,1.8-7.3,2.2c-0.3-0.4,0.2-1.2-1-1.1 c-1.9,0.1-3.5,0.4-4,2.4c-3,1.1-6.1,1.8-9.4,2.1c-2,0.2-4.2-0.7-5.9,0.9c-0.1,0.1-0.4,0-0.6-0.1c-1.4-0.7-2.4,0.5-3.7,0.6 c-0.5,0-1.2,0.5-0.6,1.2c0.4,0.5,1.1,0.3,1.3,0c1-1.5,2.7-0.7,4-1.2c1-0.4,1.2,0.4,1.3,0.9c0.2,0.8-0.3,1.1-1.2,0.8 c-1.3-0.4-2.6,0.5-2.6,1.1c0.4,2.8-1.8,2.1-3.3,2.2c-1.6,0.2-3.1,0.2-4.6,1.1c-2.3,1.4-4.5,2.9-7.1,3.7c-0.3-0.2-0.6-0.4-0.9-0.6 c0.5-0.9-0.1-1.1-0.9-1c-0.7,0.1-1.5,0.7-1.3,1.4c0.4,0.9,1,0,1.6-0.1c0.6,1.3-0.9,1.1-1.3,1.7c-3.2,0.8-6.4,1.9-9.4,3.1 c-1.5-0.8-1.7-1.5,0.1-2.2s3.9-0.9,5.3-2.3c0.2-0.6,1.1-1.2,0.2-1.8c-0.6-0.4-1.1,0.1-1.4,0.6c-0.5,0.5-1.2,0.4-1.8,0.6 c-2.7,0.9-5.8,0.8-8.1,2.7c-1,0.8-1.1,1.2,0.2,1.7c0.1,0.6-1.1,1.2-0.4,1.6c2.1,1.7-0.5,1.5-0.9,2.1c-0.6,0.1-1.1-0.1-1.7,0.3 c-5.6,3.2-11.8,5.2-17.7,7.9c1.4-1,2.6-2.1,3.3-3.6c0.4-0.9,0.9-1.3,1.8-1.7c3.6-1.8,3.6-1.9,2.2-5.5c0-0.1,0-0.2-0.1-0.2 c0.6-1.3,0.8-2.9,3-2.7c0.6,0,1.3-0.7,1.1-1.3c-0.5-2,1.1-2.8,2.4-3.7c0.7-0.5,2.3-0.7,1.4-2.1c0-0.3,0.1-0.6,0.1-1 c2.5-2.5,5.6-4.5,8.1-7.1c1.6-1.7,3.6-3,4.7-5.1c2.1-1.4,2.6-3.6,3.2-5.8c-2.2,1.2-3.9,2.9-5.5,4.6c-0.1,0.1-0.3,0.2-0.4,0.4l0,0 c-1.5,0.5-1.8,2.1-3,2.8l0,0c-0.7,0.1-1,0.7-1.4,1.2c-1.6,2.3-3.8,3.8-6.4,4.9c-2.2-0.1-4.3-0.3-5.9,1.5c-0.3,0.4-1,0.7-1.5,0.3 c-0.8-0.5-0.2-1.1,0-1.6c0.7-1.1,1.8-2,1.8-3.4c0.7-0.3,1.3-0.6,2.1-0.6c1.8-0.1,6.5-3.8,6.1-5.3c-0.8-3.2,1.6-4,3.8-5.3 c1.3-0.7,3.2-1.1,3.4-2.7c0.5-3.5,3.1-5.5,5.7-7.6c2.4-1,3.2-2.9,2.9-5.1c-0.3-2.2,0.4-3.6,2.3-4.7c0.7-0.4,1.4-0.7,0.8-1.6 c-0.8-1.1-0.5-2.4-0.8-3.6c2.1-2.6,2.2-6,4.2-8.7c0.4-0.5,0-1.2,0.1-1.8c0.3-2.2-0.5-4.8,1.6-6.5c4.2-3.3,4.9-8.3,7.3-12.5 c0.8-1.5,1.2-3.1,2.5-4.4c1.3-1.3,1.6-3.1,0.3-4.4c-2.2-2.3-2-4.5-1.2-7c0.3-1,0.5-2.2,0.7-3.2c0.4-1.8,0.2-4.1,2.2-5.4 c1.5-0.4,1.2-1.9,2.2-2.8c2.1-1.9,3.4-4.5,4.7-7.1c0.4-0.9-1.8-3,1.4-2.6c0.1,0,0.1-0.5,0.3-0.6c2.4-2.1,1-4.9,1.4-7.3 c0.3-1.8-0.7-1.8-2.1-1.3c-0.5,0.2-0.9,0.6-1.4,0.9c-2.3,1.4-4.4,1.3-6.2-0.3c-0.2-0.1-0.6-0.2-0.7-0.1c-1.1,1.1-2.1,0.5-3.4,0.4 c-2-0.2-3.3-1.3-4.3-2.2c-2.2-2-4.7-3-7.6-3.1l0,0c-0.7-0.8-0.9-0.9-2.4-0.5c-0.7,0.2-1.7,0.8-2,0c-0.7-1.6-2.7-2.7-2.5-4.5 c0.3-3.3-2.9-3.2-4.8-4c-1.6-0.6-0.6,1.4-1.1,2.1c-0.2,0.2-0.4,0.3-0.6,0.4c-2.2,0.8-3.3,2.6-4.9,4c-1.7,1.4-3.6,2.7-5.7,3.3 c-2,0.6-4,0.9-5.2,2.6c-0.4,0.5-1,0.9-1.7,0.3c-0.3-0.3-0.6-0.6-1-0.9c0.3-0.3,0.6-0.7,0.8-1.1c0.4-0.8,1.9-0.7,2.3-1.7 c1.8-0.6,3.3-1.9,5.1-2.2c-0.1-0.3-0.3-0.8-0.5-1.2c0.2-0.3,0-0.5-0.1-0.7c0.3-0.2,0.5-0.5,0.8-0.7c0.8-0.4,1.5-1,1.1-1.5 c-0.3-0.4-1.2-0.4-2.1,0.1c-1.4,0.7-2.8,1.5-4.2,2.2c-0.9,0.4-2,0.2-2,0.3c-0.3,1.6-1.5,0.8-2.2,0.8c-0.4,1,0.7,1,1,1.5 c-0.7,0.3-1.6,0.5-2.2,0.9c-0.1,0.1-0.3,0.2-0.4,0.3c-0.9-0.9-1.9-1.1-3.4-0.4c-1.3-0.3-2.8,0.7-3.9-0.7c-0.3-0.4-0.7-0.2-0.9,0.2 c-1,3.1-3.4,3-6.1,2.2l0,0c-1.1-1-1.9-2.2-2.6-3.4c-1.3-2.2-4.1-2.4-6.7,0.1c2-0.9,3.1,0.3,4.4,0.2c0.2,1.9-1.4,1.7-2.6,1.9l0,0 c-0.7,0.4-3.1-1.9-2.3,1.1c0.1,0.4-0.5,0.5-0.9,0.6c-0.6,0.2-0.6-0.2-0.8-0.5c-2-2.8-3.2-3.1-6.5-1.7c-1.4,0.3-2.5,1.1-4.2,0.7 c-1.5-0.4-3.4,0.9-3.3,2c0.3,1.9-1,2.4-2.1,3.2c-0.6-0.6-1.8-0.2-2.1-1.1c-0.7-2.2-2-0.9-3.1-0.5c-0.4,0.2-0.5,1.1-1,0.8 c-2.2-1.6-2.6,0.8-3.4,1.5c-0.7,0.6-1.8,1.4-1.6,2.7c0,0.4,0.5,0.4,0.8,0.4c1.4,0,2.2-0.9,3.1-1.7c0.2-0.2,0.1-0.6,0.3-0.8 c0.3-0.5,0.8-0.9,1.4-0.6c1.2,0.6,2.7,0.4,3.9,1.1c-0.2,0-0.3,0.1-0.5,0.1c-0.3-0.4-0.8-0.3-1.2,0.1c-0.7,0.7-1.4,1.4-2.2,1.9 c-1.7-0.1-3,1.2-4.6,1.2c-0.3-0.2-0.9-0.2-0.8,0c0.3,1.6-1,1.7-2.1,1.9s-2.3,0.5-3.4,0.6c-1.4,0.1-1.7-0.9-1-1.6 c1.2-1.2,1.6-2.4,1-3.9c-0.2-0.4,0.9-0.6,0.3-1c-0.5-0.3-1.1-0.1-1.4,0.2c-1.5,1.8-4,2-5.9,3.1c-1.3-0.3-1.6,0.5-2,1.7 c-0.1-2.2-0.9-2.6-2.4-1.2c-0.6,0.1-1-0.2-1.4-0.5c-0.5-0.3-1-0.6-1.5-0.9c-0.5-0.4-1.3-0.5-1.5,0.1c-0.7,2.3-3.1,2.1-4.9,2.7 c-1.6-1.7-2.2-1.7-3-0.1c0.7,1,0.3,1.5-0.7,1.8c-1.3,0.4-2.5,1.1-3,2.4c-0.6,0.7,0.2,1.2,0.5,1.8c0.2,0.3,0.3,0.6,0.5,0.9 c-0.9,0.9,0.2,1.7,0.1,2.5c-1.2,0.9-2.5,1.2-4,0.9c-0.1,0.1-0.2,0.1-0.3,0.1c-0.3-0.4-0.6-0.7-0.4-1.2c0.7-2.3,0.7-2.3-2-1.9 c-0.6,0.1-1.3,0.1-1.9,0.3c0.2-0.5,0.4-1,0.6-1.4c0.4-1-0.3-1.5-0.9-2.1c-1.1,1.7-2.6-0.5-3.8,0.3c-0.7,0.7-0.6,2.2-2.3,2.1 c-0.6,0-1.6-0.8-1.3,0.7c0.1,0.6,0.1,1.1,0.2,1.7c-0.5,0.1-0.9,0.3-1.3,0.5c-2,1.2-4.2,2.2-6.3,3.1c-0.4-0.1-0.7-0.1-1-0.3 c0.3-0.7,1.7-1.1,0.6-2.2c-0.5-0.5-0.8-1.1-1.6-0.9c-0.8,0.2-1.5,1-1.3,1.4c0.4,1.2-0.8,2.2-0.3,3.3c0,0,0,0.1-0.1,0.1 c-0.4,0.2-0.8,0.3-1.3,0.5c-1.3-0.6-1.9,0.5-2.8,1c0.1,0.1,0,0.1,0.1,0.2c-0.8,0.4-1.7,0.7-2.5,1.1c-0.1,0-0.1,0-0.2,0 c-0.1-0.4-0.3-0.9-0.4-1.5c-0.1-0.5-0.3-1.2-1-1.1c-0.6,0-1.5,0.1-1.4,1c0.2,2.2-1.3,1.4-2.4,1.1c-1.4-2.2-2.2-0.2-3.2,0.3 c-0.8-0.2-1.5-0.4-2.2,0.1c-0.9-1-1.6-0.7-2,0.3c-0.3,0.6-0.3,1.2-1,1.5c-1.5,0.1-3,0.3-4.5,0.3c0.4-0.2,0.7-0.4,1.1-0.5 c2.3-1,4.7-2,6.5-3.5c0.6-0.4,1.1-0.9,1.7-1.3c0,0.1,0,0.3,0.1,0.5c0.4,0.5,0.9,0.7,1.5,0.5c0.5-0.2,0.8-0.5,0.6-1.1 c-0.5-0.5-1-0.6-1.6-0.4c0.7-0.5,1.5-1,2.3-1.4c5.2-2.7,10.9-4.7,15.8-8c1.3-0.9,2.8-1.7,4.4-1.8c1.7-0.1,3.1-0.9,4.3-1.9 s2.5-1.7,3.9-2.3c5.6-2.3,11-5,16.2-8.1c1.6-1,3.3-1.7,4.9-3.2c-0.8,0.2-1.3,0.2-1.8,0.4c-3,1.2-5.9,2.4-8.9,3.5 c-2.3,0.8-4.7,1.4-7,2.3c-5.5,2.3-11,4.8-16.5,7.2c-0.7-0.2-2,0.7-2.3,0c-0.3-0.8,1.1-1,1.7-1.5c0.3-0.3,0.5-0.6,0.8-0.9 c-0.9,0-1.6-0.1-2.4-0.1c-0.5,0-1,0.2-1.2-0.3c-0.1-0.4,0.4-0.8,0.8-1c1.7-1.1,2.9-2.5,4.3-3.8c1.2-0.5,2.1-1.6,3.4-1.9 c1.1,0.6,2.1-0.2,2.9-0.8c2.7-2,5.6-3.6,8.7-5c3-1.4,4.9-3.4,6.8-5.6c-1.7-0.7-3.6-0.6-5.2,0.2c-3,1.6-6.2,2.9-9.2,4.5 c-1.4,0.8-2.5,2.1-4.2,2.3c-1,0.1-1.8,0.5-2.5,1.1c-0.1,0.1-0.2,0.1-0.4,0.1c-1.7-1.7-3.8-2.5-7-1c-1.3,0.3-2.8,0.2-3.9,1.3 c-1,0.5-1.7,0.7-2.8,0.3c-2.3-0.8-5.1,0-7.6,1.2c-2.9,1.5-6.1,2.6-9.1,3.7c-3.5,1.3-7.1,2.6-10.3,4.2c-6,3.1-12.7,4.6-18.7,7.8 c-1.1,0.6-2.4,0.9-3.7,1.3c5.4-3.7,11.7-6.1,17.7-8.8c6-2.8,12.1-5.4,18-8.2c5.9-2.9,12.3-4.6,18.4-7.8c-3-0.4-5.3,0.9-7.7,1.8 c-5.2,2.1-10.1,4.6-15.5,6.3c-0.1,0-0.2,0-0.3,0c-1.8,0.4-3.2,2-5.4,1.7c1.2-1.1,2.7-1.5,3.8-2.3l0,0c1.7,0,2.9-1,4.3-2.1 c-1.2,0-2.2,0.3-3.1,0.7c-1.1,0.4-2.3-0.5-3.3,0.5c-0.9,1.1-2.2,1.5-3.4,2.1c-1.1,0.4-2.5,0.1-3.3,1.3l0,0 c-0.2-0.6-2.1-0.2-1.2-1.3c0.5-0.5,0.4-1.6,1.8-1.7c0.3,0,0.7-0.3,0.6-0.6c-0.1-0.2-0.3-0.5-0.6-0.5c-0.4-0.1-0.7,0.2-0.8,0.5 c-0.2,1-1.3,0.9-1.9,0.9c-1.2,0.1-2.2,0.4-3.1,1.2c-0.4-0.9,0.6-1.7,0.9-2.8c-0.9,0.5-1.5,0.8-2.1,1.1c-0.2-0.1-0.4-0.2-0.6-0.3 c-0.4-0.2,0.2-1.1-0.8-0.7c-0.7,0.3-0.6,0.6-0.3,1.1c0.3,0.4-0.2,0.5-0.7,0.4c-0.5-0.2-0.9-0.1-1.2,0.4c-0.9,0.2-1.8,0.5-2.7,0.7 c-0.1-0.1-0.1-0.1-0.1-0.2c0.1-0.1,0.2-0.1,0.3-0.2c1.3-0.7,1.4-2,2.7-2.9c0.5-0.4-0.3-0.9-1.3-0.5c-0.1,0-0.2,0-0.3-0.1 c0,0-0.1-0.1,0-0.1c0.6-1.3,2.8-1,3.5-2.3c0.8,0.1,1.2,1,2.3,0.2c0.8,1.6,0.8,1.6,3,0.2c0.1,0,0.2,0.1,0.3,0.1 c0.2,0.5-1.1,0.8-0.7,1.3c0.2,0.3,5.1-0.4,5.1-0.7c0-0.9,1.1-1,1.7-1.8c-1.6,1.1-1.3-1.1-2.7-0.3c-0.5-0.7-1.4-0.5-2.3-0.2 c-0.8,0.1-0.1-0.4-0.3-0.6c0.8-0.2,1.8-0.8,2.4-0.6c1.2,0.4,2.1-0.1,3-0.8c1.3-0.6,2.8-0.4,3.9-0.8c2.8-0.9,5.9-1.5,8.3-3.5 c0.6-0.5,1.5-1.1,2.4-0.5c0.4,0.3,1.2,0,1.7-0.6c0.3-0.4,0.5-0.6,1.1-0.9c2.7-1,5.3-2.1,7.2-4.2c0.3-0.4,0.8-0.7,0.5-1.1 c-0.3-0.4-0.7-0.3-1.3-0.1c-0.5,0.2-1.1,0.4-1.7,0.5c-0.7,0.2-1,0.1-1.3-0.4c-0.5-0.8,1-1.5,0.7-2.3c0.4,0.1,0.8,0.1,1.2,0.3 c1.1,0.4,2.3,0.4,3.2-0.7c0.6-0.8,1.4-1.1,2.3-1.5c1-0.5,2.4-0.8,2.2-2.2c-0.1-0.4,0.6-0.4,0.9-0.1c0.2,0.3,0.4,0.6,0.6,1 c-2,1.7-4.2,3.3-5.6,5.6c1.7,0,2.3-1.3,3.2-1.5c2.1-0.6,4.4-0.8,4.8-3.2c0-0.1,0.2-0.2,0.3-0.2c2-0.9,3.9-2.2,6.2-2.2 c1.4-0.8,2.8-1.5,4.2-2.3l0,0c1.2,0.5,2.3-0.2,3-1c0.5-0.6,1.8-0.9,1.4-1.8c0.4-0.2,0.7-0.4,1.1-0.6c0.9-0.4,1.8-1.1,2.5-1.1 c1.2,0,1.8-0.6,2.3-1.2c0.5-0.7,0.7-1.4,1.8-0.8c0.3,0.2,0.7-0.1,1-0.3c0.4-0.4-0.3-0.3-0.3-0.5c-0.2-0.8-1.3-1.3-0.1-2.4 c-0.8,0.1-1.3,0.2-2,0.3c0.5-0.4,0.9-0.6,1.3-0.9c-0.4-0.3-1.1,0.5-1.3,0c-0.1-0.4,0.5-1.2,0.7-1.2c1,0.2,1.5-1.7,2.2-0.7 c0.7,0.9,1.5,0.5,2.5,0.2c5.6-2.2,11.3-4.3,15.5-8.5c1.7-1.7,3.6-2.7,5.9-3.2c0.4-0.1,1-0.3,1.1-0.9c-1.3,0.4-2.5,0.8-3.8,1.2 c-0.8,0.2-1.3,0.5-1.6-0.4c-0.4-1-1.3-1.4-2.9-0.3c-0.8,0.5-2.3,1.8-2.4-0.2c0-0.3-0.6-0.6-0.8-0.9c2.1-1.4,4.5-1.9,6.6-3.3 c-1.3,0.4-4-0.5-4.2-1.6c-0.4-1.8-2.5-2.3-3.5-3.5c-1.8-2-3.4,0.4-5,0.3c-0.1,0-0.1,0-0.2,0c1.6-1.1,2.9-2.3,3.1-3.9 c0-0.1,0-0.2,0-0.2s0,0,0.1,0c0,0.1,0,0.2-0.1,0.2c0.7,0.2,1.3-0.9,2-0.4c0.4,0.7,1.2,0.5,2.1,0.1c0.3-0.1,0.7-0.4,0.6-0.7 c-0.2-0.5-0.9,0-1.2-0.2c0-0.6,1-0.7,1-1.2c0.2-0.1,0.4-0.2,0.6-0.4c0.4,0.2,0.8,0.5,1.2,0.4c1.5-0.2,1.4,0.4,1.1,1.3 c-0.2,0.3-0.9,0.7-0.6,1c0.2,0.2,0.8,0.1,1.2-0.2c1.2-1.1,3-1.7,4.2-2.9c0.4-0.4,1.3-0.7,1-1.3c-0.4-0.6-1.1,0.4-1.7,0.1 c0.3-0.3,0.5-0.6,0.8-0.9c0.2-0.3,0.8-0.6,0.3-0.8c-0.3-0.2-0.8-0.2-1.2,0.1c-0.6,0.6-1.7,1.2-0.6,2c-1.1,0.1-2.9,2.3-3.2-0.1 c0.4-0.2,0.7-0.4,1.1-0.6c1.7-0.6,1.4-2.2,2.5-3.1h-0.1l0,0l0,0c0.2-0.1,0.4-0.2,0.5-0.3c0.6-0.2,1.2-0.4,2-0.6 c-0.9,1.4-0.9,1.4,1,1.2c0.5,0.5,1.5,1.1,2.1,0.5c0.9-0.9,2.7-1.4,2.8-2.8c1.3-0.7,2.8-1.9,4-1.9c3.3-0.2,4.8-0.8,5.9-3.2 c-1.1,0-1.8,1.6-2.5,1.2c-1.8-1-3.2,0.7-4.7,0.9c0.7-0.4,1.5-0.8,1.9-1.4c1.1-1.7,2.9-2.8,4.9-3.7c0.8-0.4,1.7-1.4,2.4-0.2 c0.2,0.3,1,0,1.4-0.5c1.4-1.5,3.5-2.6,4.9-4.1c0.6-0.6,2.3-0.9,1.8-1.6c-0.6-0.7-1.8,0.4-2.8,0.6c-0.3,0.1-0.5,0.3-0.8,0.4 c-2.1,1-4.2,2-6.3,3c-0.1-0.1-0.2-0.2-0.3-0.3c1.9-1.5,3.7-3.1,5.6-4.6c0.4-0.3,1.3-0.4,1-1c-0.3-0.5-1-0.1-1.5,0.1 c-0.4,0.1-0.9,0.2-1.2,0.4c-4.1,2.2-8.2,4.6-12.9,5.5c-0.4,0.1-1.1,0.5-1,0.6c0.2,1.3-1.1,1-1.4,0.8c-0.8-0.3-1.4,0.2-2.1,0.3 c-2.4,0.3-4.4,2.2-6.8,2c-0.5,0-0.9,0.5-1.4,0.3c-1.3-0.5-2.5,0.3-3.6,1c-0.4,0.2-0.8,0.3-1.2,0.5c-2.5,0.8-4.9,1.9-7.4,2.7 c-1.2,0.4-3.1,1.1-3.4,2.6c-0.1,0.3-0.3,0.5-0.7,0.6c-2.2,0.5-4,2-6.1,2.6c-0.2-0.2,0.2-0.9-0.8-0.6c-1.6,0.4-3,0.8-3.4,2.3 c-2.5,1.2-5.1,2.2-7.9,2.9c-1.6,0.4-3.5,0.1-5,1.5c-0.1,0.1-0.4,0.1-0.5,0c-1.1-0.3-2,0.7-3.1,0.9c-0.4,0.1-1,0.5-0.6,0.9 c0.3,0.3,0.9,0.1,1.1-0.2c0.9-1.2,2.3-0.9,3.4-1.4c0.9-0.4,1,0.1,1.1,0.5c0.1,0.5-0.3,0.8-1,0.8c-1.1-0.1-2.2,0.7-2.2,1.2 c0.2,1.9-1.6,1.7-2.9,2.1c-1.3,0.4-2.6,0.6-3.9,1.5c-2,1.3-3.9,2.7-6.1,3.7c-0.2-0.1-0.5-0.2-0.7-0.3c0.5-0.7-0.1-0.8-0.7-0.6 c-0.6,0.2-1.3,0.7-1.1,1.2c0.3,0.6,0.9-0.2,1.3-0.3c0.5,0.8-0.8,0.9-1.2,1.4c-2.7,1-5.4,2.3-8,3.6c-1.2-0.4-1.4-0.8,0.2-1.5 c1.5-0.7,3.3-1.2,4.5-2.4c0.2-0.4,1-1,0.2-1.3c-0.5-0.2-0.9,0.3-1.2,0.6c-0.4,0.5-1,0.5-1.5,0.7c-2.3,1-4.8,1.4-6.8,3.1 c-0.8,0.7-1,1,0.1,1.2c0.1,0.4-0.9,1-0.4,1.2c1.7,0.9-0.4,1.1-0.8,1.6c-0.5,0.2-0.9,0.1-1.4,0.4c-4.8,3.1-10.1,5.4-15.1,8.2 c1.2-0.9,2.3-1.9,2.8-3c0.3-0.7,0.8-1.1,1.5-1.5c3.1-1.8,3.1-1.8,2-4.2c0,0,0-0.1,0-0.2c0.5-1,0.8-2.1,2.6-2.3 c0.5-0.1,1.1-0.7,1-1.1c-0.4-1.4,1-2.1,2.1-3c0.6-0.5,1.9-0.8,1.3-1.7c0-0.2,0.1-0.5,0.1-0.7c2.2-2.1,4.9-4,7-6.2 c1.4-1.4,3.1-2.6,4.1-4.2c1.9-1.3,2.3-2.9,2.9-4.5c-1.9,1.2-3.3,2.6-4.8,4c-0.1,0.1-0.2,0.2-0.3,0.3l0,0c-1.3,0.6-1.6,1.7-2.6,2.4 l0,0c-0.6,0.2-0.9,0.6-1.2,1c-1.4,1.8-3.3,3.2-5.5,4.4l0,0c-1.8,0.2-3.6,0.4-5,1.9c-0.3,0.3-0.8,0.6-1.3,0.5 c-0.6-0.2-0.2-0.8,0.1-1.1c0.6-0.9,1.6-1.7,1.7-2.7c0.6-0.3,1.1-0.6,1.8-0.8c1.5-0.3,5.6-3.6,5.3-4.6c-0.5-2.2,1.5-3.1,3.4-4.3 c1.1-0.7,2.7-1.3,3-2.4c0.5-2.5,2.8-4.3,5.1-6.2c2.1-1,2.8-2.5,2.6-4s0.4-2.6,2.1-3.6c0.6-0.4,1.2-0.7,0.7-1.2 c-0.6-0.7-0.3-1.6-0.5-2.4c1.9-2.1,2.1-4.6,3.8-6.7c0.3-0.4,0.1-0.9,0.2-1.3c0.3-1.6-0.2-3.3,1.6-4.8c3.6-2.9,4.4-6.5,6.5-9.8 c0.7-1.2,1.2-2.4,2.3-3.5c1.2-1.1,1.4-2.4,0.4-3.2c-1.8-1.3-1.5-2.9-0.7-4.8c0.3-0.8,0.5-1.6,0.7-2.4c0.4-1.4,0.4-2.9,2-4.2 c1.3-0.5,1.1-1.5,1.9-2.3c1.8-1.7,3-3.7,4.2-5.7c0.4-0.7-1.4-1.9,1.3-2c0,0,0.1-0.3,0.2-0.5c2.1-1.8,1-3.6,1.4-5.3 c0.3-1.3-0.6-1.1-1.7-0.6c-0.4,0.2-0.8,0.6-1.2,0.8c-2,1.3-3.7,1.5-5.1,0.7c-0.1-0.1-0.5-0.1-0.6,0c-0.9,0.9-1.7,0.6-2.8,0.7 c-1.7,0.2-2.7-0.4-3.5-0.9c-1.8-1.1-3.8-1.4-6.2-1.1l0,0c-0.5-0.5-0.7-0.5-2,0c-0.6,0.2-1.4,0.8-1.7,0.3c-0.5-1-2.1-1.5-1.9-2.8 c0.4-2.4-2.3-1.8-3.8-2.1c-1.3-0.2-0.5,1.1-1,1.7c-0.1,0.1-0.3,0.3-0.5,0.4c-1.8,0.9-2.8,2.3-4.2,3.5c-1.4,1.2-3.1,2.4-4.9,3.2 c-1.7,0.7-3.4,1.2-4.5,2.6c-0.3,0.4-0.9,0.8-1.4,0.4c-0.8-0.6-1.8-1.1-2.3-1.8c-0.8-1.1-1.8-1.2-3.4-0.3c-1.1,0-2.3,0.9-3.2,0.1 c-0.3-0.3-0.6,0-0.7,0.3c-0.9,2.3-2.9,2.6-5.2,2.4l0,0c-0.9-0.5-1.5-1.3-2-2c-1-1.3-3.4-1.1-5.6,1c1.7-0.9,2.6-0.2,3.7-0.5 c0.1,1.3-1.2,1.4-2.2,1.7l0,0c-0.6,0.4-2.5-0.9-2,1.1c0.1,0.3-0.4,0.4-0.8,0.6c-0.5,0.3-0.5-0.1-0.6-0.3c-1.6-1.7-2.5-1.7-5.4-0.3 c-1.2,0.4-2.1,1.2-3.6,1.1c-1.2-0.1-2.9,1.1-2.8,1.9c0.1,1.3-0.9,1.8-1.9,2.5c-0.5-0.3-1.5,0.1-1.7-0.5c-0.5-1.4-1.6-0.4-2.5,0.1 c-0.3,0.2-0.5,0.9-0.8,0.7c-1.8-0.8-2.2,0.9-2.9,1.5c-0.6,0.5-1.5,1.3-1.5,2.1c0,0.2,0.4,0.2,0.7,0.2c1.2-0.2,1.9-1,2.6-1.7 c0.2-0.2,0.1-0.4,0.3-0.6c0.3-0.4,0.7-0.8,1.2-0.6c1.1,0.3,2.6-0.2,3.6,0.4c0.3,0.2,0.7,0.4,0,0.7c-1.3-0.1-2.2,1.1-3.5,1.1 c-1.5,0.1-2.7,1.3-4.2,1.6c-0.2-0.1-0.7,0-0.7,0.1c0.2,1.1-0.9,1.3-1.8,1.7c-1,0.3-1.9,0.7-2.9,0.9c-1.1,0.3-1.4-0.4-0.7-1 c1.1-1,1.5-1.9,1-2.9c-0.1-0.3,0.8-0.6,0.3-0.8c-0.4-0.2-0.9,0.1-1.2,0.3c-1.3,1.5-3.4,2-5.1,3.1c-1,0-1.4,0.6-1.7,1.5 c0-1.5-0.6-1.7-1.9-0.5c-0.5,0.1-0.8,0-1.1-0.2c-0.4-0.1-0.8-0.3-1.2-0.4c-0.4-0.2-1-0.2-1.2,0.3c-0.7,1.7-2.6,1.9-4.2,2.6 c-1.2-1-1.7-0.9-2.5,0.4c0.6,0.6,0.2,1-0.7,1.4c-1.1,0.5-2.1,1.2-2.6,2.1c-0.5,0.6,0.1,0.9,0.3,1.2c0.1,0.2,0.2,0.4,0.4,0.5 c-0.8,0.7,0.1,1.1,0,1.8c-1,0.8-2.1,1.2-3.4,1.2c-0.1,0.1-0.2,0.1-0.3,0.1c-0.2-0.2-0.5-0.4-0.3-0.8c0.7-1.7,0.7-1.7-1.6-1.1 c-0.5,0.2-1.1,0.2-1.6,0.5c0.2-0.4,0.4-0.7,0.6-1.1c0.4-0.7-0.2-1-0.7-1.3c-1,1.3-2.2,0-3.2,0.8c-0.6,0.6-0.6,1.7-2,1.8 c-0.5,0.1-1.3-0.4-1.1,0.7c0.2,0.9,0.1,2,0.1,3c0,0.3,0,0.7-0.4,1c-1.5,0.9-2.5,2.8-4.8,2.2c1.2-2.1-1.2-1.1-2.1-1.4 c0.2-0.5,1.5-1,0.6-1.6c-0.4-0.3-0.6-0.7-1.3-0.4c-0.6,0.2-1.3,0.9-1.2,1.2c0.3,0.8-0.7,1.6-0.4,2.4c-0.2,0.3-0.3,0.9-1,0.6 c-1.1-0.3-1.7,0.6-2.5,1.1c0.8,0.6-0.7,1.7,0.1,2.2c0.1,0,0.3,0,0.4,0c1.2-0.1,2.7-1.6,3.7-0.3c-0.2,0.3-0.6,0.3-0.9,0.4 c-4.3,1.2-5.1,0.9-5.8-1.9c-0.1-0.3-0.2-0.8-0.8-0.6c-0.5,0.1-1.3,0.3-1.2,0.9c0.1,1.5-1.1,1.2-2.1,1.1c-1.1-1.3-1.8,0.1-2.6,0.7 c-0.6,0-1.3-0.1-1.9,0.4c-0.7-0.6-1.3-0.3-1.7,0.5c-0.2,0.4-0.3,0.9-0.9,1.2c-2,0.4-4,1.2-6.1,1.2c0.1-0.3,0.3-0.7,0.4-1 c0.3,0,0.6,0,0.9-0.1c1.2,0.4,2,0.2,1.9-1.1c-0.1-0.2-0.2-0.4-0.4-0.5c-0.2-0.3-0.2-0.9-0.9-0.7c-1.6,0.3-3,2.2-2.6,3.4 c-1,1,1,0.6,0.7,1.4c-1.3,0.2-2.4,0.7-2.5,2.1c-0.1-0.3,0.2-0.7-0.2-0.8c-1.7-0.3-2.4,1-3.4,1.7c-1.2,0.8-0.1,0.8,0.5,0.9 c0.4,0.1,0.4,0.4,0.1,0.7c-1.2,1.2-0.3,0.9,0.6,0.7c0.8-0.2,1.1,0,1,0.7c0,0.2,0.7,0.5,0.1,0.7c-1.7,0.5-2.4,1.7-3.5,2.5 c-0.6,0.4-1.1,0.3-1.5,0.1c-0.4-0.2-0.4-0.6-0.1-1c0.8-1.4,0.8-1.5-1-1.7c-1.2,0,0.2-0.7-0.2-1c0.2-1.3,0.2-2.4-2.1-1.7 c-1.3,0.1-2.1,0.3-1.2,1.4c0.3,0.4,0.8,0.9-0.6,0.8c-1.4-0.2-2.2,0.1-2.2,1.4c-0.5,0.4-0.7,1-1.8,1c-1,0-2.1,0.7-2.8,1.5 c-0.6,1.8-1.9,2.8-4.3,3.1c-0.4,0.1-1.1,0.2-1.2,0.4c-0.8,1.9-2.6,1.6-4.2,1.8c-0.6,0.1-1.3,0.5-1.7,0.8c-0.8,0.9-2,1.4-3,2 c-0.4-0.9,0.5-1.3,1.4-1.9c1.3-0.8,1.3-1.7,0-1.9c-1.8-0.3-3.6-0.9-5.5,0.9c-0.9-0.3-1.6,0.2-2.4,0.6c-1.5,0.9-3,1.7-4.6,0.9 c-0.4-0.2-1,0.1-1,0.3c0,0.6,0.2,1.3,0.6,1.8c0.3,0.3,1,0.1,1.7-0.3c0.5-0.4,1.3-0.4,1.7-0.8c1.2-0.9,2.1-0.8,2.9-0.1 c0.1,0.2,0.2,0.3,0.4,0.5c-0.3,0.3-0.5,0.7-0.8,1c0.4,0.2,0.9-0.1,1.3-0.1c0.9,0,1.5-1.1,2.3-0.7c-0.8,1-2.4,1.5-3.2,2.5 c-1.7,0.6-3.5,0.8-4.9,1.9c-1.6,0-1.2-1.2-1.8-1.9c-0.1-0.1-0.2-0.2-0.2-0.2c-2.2,0.8-4.5,1.3-6.4,2.5c-0.8,0.5-1.2,0.6-2,0.3 c1-0.5,2-0.8,2.8-1.3c0.5-0.3,1.5-0.4,1.4-1c0-0.6-1-0.2-1.5-0.4c-0.2-0.3-0.3-0.5-0.5-0.8c-0.2-0.4,0-1.1-0.9-0.9 c-1,0.2-0.8,0.8-0.9,1.3c0,0.1-0.3,0.3-0.4,0.4c-1.1,0.4-2.1,0.9-1.7,1.9c-1.6,0.1-2.5,1.5-4.1,1.8c-1.8,0.4-4,0.9-5.3,1.9 s-2.3,1.2-3.6,1.2c-0.1-0.1-0.1-0.2-0.2-0.3c0.1-0.3,0.3-0.7-0.5-0.5s-1.6,0.6-2.3,1c-1.3,1-2.7,1.7-4.4,2l0,0 c-1.4,0.3-2.8,0.6-3.4,1.9c-0.6,0.2,0.7,1.1-0.8,1.1c-0.6-0.4-1.5-0.8-1.7,0.4c-0.2,1.2-1.3,1.6-2.3,2.2c-0.6,0.4-1.5,0.5-1.8,1.2 c0.4,0.6,1.4-0.3,1.9,0.3c-0.7,0.8-1,1.8-2.5,2.1c-0.8,0.2-1.6,0.6-2.4,1.1c-0.9,0.5-1.3-1.1-2.3,0.2c-0.6,0.8,0.5,1.1,0.1,1.7 c-0.5,0.8-4.6,2-5.6,1.6s-2-0.3-3.1,0.3c-1,0.5-2.2,1-3.1,0.5c-1-0.6-1.4,0.1-1.9,0.7c-1.8,2.4-2.1,2.5-4.7,2 c-0.1,0.5-0.3,1-0.4,1.4c-0.3,1.1-3.8,2.8-4.6,2.1c-1.2-1-2.4-0.6-3.8,0.2c-0.1,0.1-0.3,0.3-0.5,0.4c-1.8,1.4-2,1.9-0.6,2 c1.9,0-0.8,1.9,0.9,1.9c0.6,0,1.1-0.1,1.6-0.5c0.7-0.5,1.3-1,2-1.5c0.2-0.1,0.3-0.3,0.5-0.4c0,0,0,0,0,0.1 c-0.2,0.1-0.3,0.3-0.5,0.4c-1.1,0.8-2.2,1.5-0.6,2.2c0.1,0.1-0.1,0.3-0.2,0.5c-0.3,0.2-0.5,0.5-0.8,0.7c-0.6,0.2-1.2,0.4-1.7,0.6 c-0.1,0-0.2,0-0.3-0.1c-1.9,0.9-4,1.5-4.8,3.4c-0.2,0.5-0.8,0.8-1.4,0.9c-2.3,0.6-4.5,1.4-6.6,2.7c-0.8,0.5-1.6,0.5-1.4-0.5 c0-0.2-0.1-0.3-0.1-0.4c0.3-0.5,0.5-1,0.9-1.5c0.2-0.1,0.5-0.3,0.7-0.4c0.7-0.5,0.9,0,1.3,0.2c2.2,1.1,5.5-0.2,6.4-2.4 c0.2-0.6,0.6-0.9,1.3-1.1c0.8-0.2,1.6-0.6,1.2-1.3c-0.4-0.6-0.8-1.3-2.2-0.4c-0.1,0.8-0.2,1.4-1.7,1.3c-1.1-0.1-2.4,0.4-3.5,0.9 c-1.1,0.6-2,0.5-3.5,1.1c0.6-0.5,0.9-0.9,1-0.9c1.3,0.1,2.3-1,3.6-1.2c0.7-0.1,1.1-0.5,0.9-1c-0.3-0.6-2.6-0.8-3.2-0.2 c-0.9,1-2,1.2-3.1,1.6c-1.6,0.6-2.9,1.3-2.6,2.8c-2-0.2-3.2,0.6-4.5,1.7c-0.5,0.4,0.8,1-0.6,1c-0.5-0.4-1.5-0.2-3.5,0.6 c-0.9,0.6-1.6,1.6-3,1.4c-0.7-0.1-1.4,0.7-1.1,1c1,1-0.2,1.4-1,1.9c-0.6-0.1-1.1,0.3-1.6,0.5c-2.1,1.2-4.2,2.3-6.3,3.5 c-0.6,0.3-1.2,0.8-2,0.5c0.2-0.5,0.9-0.6,1.2-1c0.5-0.5,1.9-0.8,1.3-1.5c-0.5-0.5-1.4,0.1-2,0.5c-3,2.2-7.3,2-9.8,4.9 c0,0-0.1,0.1-0.2,0.1c-1.4,0-2.4,0.8-3.5,1.4c-2.3,0.8-4,2.4-6.1,3.3c-3.7,1.7-7.4,3.6-11.2,5.1c-1,0.4-2,1-2.9,1.6 c-1,0.7-1.7,1.7-3,2c-2.4,0.6-4.3,2.4-6.7,3c-0.5,0.1-1.3,0.9-0.5,0.9c3.1,0.1,2.5,1.6,1.4,3.3c-1.6,0.5-3,1.2-4.3,2.1 c-1.5,0.3-2.7,1.2-4,1.8c-0.1-0.4,0.7-1.2-0.3-1.3c-0.9-0.1-1.4,0.5-1.9,1c-0.3,0.3-0.7,0.6-1,1c-0.2,0-0.4,0-0.5-0.1 c-0.7-0.2-1.4-0.3-2.2-0.3l0,0c-1.3,0-1.4-0.3-0.1-1c0.5-0.2,1.1-0.6,0.9-0.9c-0.3-0.5-0.9,0-1.4,0.2c-1.4,0.5-2.8,1.1-4.1,1.8 c-5.2,1.9-9.3,5.1-13.6,8.2c2.7-1,5.6-1.6,7.4-3.9c1.4,0.7,0.7,2.3,1.9,3c0.8-0.4,0.5-0.8,0.4-1.1c-0.1-0.9,0.7-1.7,1-2.6 c0.6-1.5,1.7-0.2,2.6-0.5c1,0.1,0.1,1,0.5,1.3c1.3,0.9,2-0.5,2.9-1c1.1,0.3,2.3-0.4,3.5-0.5c0.1,0,0.3-0.1,0.4-0.1 c0,0,0.1,0,0.1,0.1c-0.8,2-2.6,3.4-4.8,4.4c-2.9,1.3-5.8,2.4-8.5,4c-1-0.8-2.7-0.3-4-0.5c-0.6-1-2.1-0.7-3.1-0.3 c-2.1,0.9-3.4,0.2-5.1,0c-0.8-0.4-1.6-0.3-2.8,0.2c-1.8,0.7-3.3,1.9-5,2.7c-3.4,1.5-6.4,3.5-9.8,5.1c-0.7,0.3-1.3,1.1-1,1.8 c0.2,0.4-0.5,0.7-0.8,1.1c-0.8,0.9-0.8,0-1.1-0.1c-0.4-0.2-0.9-0.1-1.3,0.2c-0.3,0.3-0.7,0.6-1,0.8c-0.5,0-1-0.1-1.6,0.1 c-1.3,0.1-2,0.9-2.5,1.6c-0.3,0.4,0.8,0.3,1.1,0.5c0.1,0.8-1.3,1.7-0.8,2.4c0.9,1.3-0.3,2.1-1.5,3.1c-0.4-0.7-1.2,0.2-1.8,0 c-1.1-0.6,0.9-1,0.6-1.5c0-0.3,0.1-0.8-0.4-0.7c-1.3,0.4-0.8,0.1-0.4-0.5c0.3-0.5,0.4-1.3-0.2-1.5c-0.6-0.3-1.5,0.3-1.8,0.8 c-0.8,1.2-2.3,2.3-2.3,3.7c0.4,0.2-0.2,0.9,0.6,1c1.8,0.1,1.1,0.9,0.2,1.7c-0.1,0.1-0.2,0.2-0.3,0.2c-0.6,0.3-1.3,0.5-1.8,1.3 c0.7-0.1,1.3-0.6,1.8-0.3c-1,1.5-2.5,1.7-4.1,1.5c-1.5-0.3-2.1,1.8-3.8,1.4c1.6-1.1,0.3-3.1,3.2-3.6c0.1,0,0.1-0.3,0.2-0.5 c0.8-1.2-0.7-0.9-1.2-1.3c-1-0.7-1.4-0.3-1.9,0.5c-2.1-0.2-2.3,1.3-3.1,2.3c0.8,0.1,1.9-0.1,2,0.8c0,0.2,0,0.3-0.1,0.5 c-0.1,0.8-2.1,2.1,0.4,2.1c-0.1,0.3,0.1,0.7-0.1,1l0,0c0,0-1.3-1.8-1.7-1.8c-1.5,0-2.5,0-1.9,1.6c0.1,0.1-0.5,0.5-0.8,0.8 c-1.1,0-1.8,1-3.1,1.3c0.6-0.8,1.5-1.2,1.7-1.9c-0.9,0.4-2.4,0.8-2.5,1.2c-0.7,2.2-2.6,2.2-4.5,2.5c-0.7-0.5-1.7-0.6-2.6-0.7 c0.4-0.4,0.9-0.7,1.3-1.1c0.6-0.3,1.4-0.5,1.8-1.1c-0.6-0.8-1.5,0.5-2.2,0.2c0-0.2,0.1-0.3,0.1-0.5c0.2-0.4,0.6-0.9-0.2-1.1 c-0.4-0.1-0.9-0.3-1.3,0.1c-0.5,0.5-0.4,1.1,0,1.3c0.5,0.3,0.5,0.6,0.3,1c-0.2,0.1-0.5,0.3-0.7,0.4c0-0.5,0.2-1.3-0.9-1 c-1.1,0.4-0.3,1.1-0.4,1.6c-0.4,0.5-0.2,0.8,0.2,1c0.2,0.5,0.3,1,0.5,1.6c-0.2,0.3-0.4,0.7-0.9,0.9c-1.2,0.4,0,1.6-1.4,1.9 c-0.8,0-1.5,0.8-2.3,0.4c-0.8-0.8-2,0.1-3,0.1c-0.2-0.4-0.7-0.6-0.4-1.2c0.3,0.3,0.9,0.6,1.1,0.1c0.3-0.7,0.6-1.5,0.1-2.2 c-0.4-0.6-0.9-0.4-1.5,0.1s-1.1,1-1.9,1.4c-1.2,0.5-1.5,1.3,0.1,1.4c-0.3,0.3-0.6,0.6-0.5,1c-1.3,0-2,1.1-3,1.6 c-1.4,0-2.2,0.6-2.5,1.7c1.3,0.1,2.1-0.5,2.9-1.2c1.3-0.7,2.5-1.3,3.8-2c0.2,0,0.4-0.1,0.7-0.1c0.7,0.6,1.9,0.2,2.8,0.3 c0.8,0.9-0.7,1.3-1.1,1.6c-2.6,2-6.2,2.8-8.5,5.2c-0.1,0.1-0.3,0-0.4,0.1c-0.2-1-0.3-2.1-2.2-0.6c-0.2,0.2-0.8,0.1-1.1-0.1l0,0 l0.7,1.5h-0.1c-0.7-0.1-1.7-0.4-2,0.6c-0.2,0.7,0.3,1.3,1.5,1.2c0.5,0,1.2-0.4,1.3,0.3c-0.2,0.2,0,0.5-0.1,0.6 c-0.2,0.5,1.6,0.4,0.3,1.2c-0.8,0.5-1.3,0.6-1.6-0.1c-0.3-0.6-0.7-0.1-1.2,0c-2,0.5-3,2.1-4.6,3.2c-1.2,0.7-3,1.2-3.3,2.7 c-0.8,0.4-1.5,0.4-2-0.1c-0.2-0.2-0.5-0.4-0.9-0.1c-0.4,0.2-0.3,0.5-0.2,0.7c0.8,1.3-0.3,1.7-1.7,2c-0.9,0.2-1.6,0.5-2.1,1.2 s-0.9,1.5-2.2,1.5c-0.4,0-0.7,0.5-0.5,0.8c0.1,0.3,0.4,0.3,0.8,0.2c2.3-1,4.7-1.9,6.9-3c0.6-0.3,1.8-1.2,1.3-1.4 c-1.1-0.6-0.1-0.9,0.3-1.3c0.7,0.9,2.5,0.5,2.7-0.1c0.6-1.4,1.2-1.6,2.8-1.9c2.1-0.5,4.1-1.8,6.2-2.8c-0.1,1-0.4,2.2,1.7,1.6 c0.9-0.3,1,0.3,0.9,0.8c-0.1,0.6-0.5,0.7-1.2,0.8c-0.6,0.1-1-0.6-1.7-0.1c-0.3,0-0.6,0-0.9-0.1c-0.4-0.1-0.9-0.3-1.3,0.1 c-0.3,0.3-0.2,0.6,0.1,0.7c0.5,0.4,1,0.1,1.4-0.3c0.1-0.1,0.3,0,0.5,0c0.5,1-1.7,1.6-1.1,2.5c0.7,1.1-0.9,1.3-1.2,1.2 c-1.7-0.8-2.6,0.3-3.6,1.3c-0.6,0.6-1.9,1-2,0.3c-0.1-0.6-0.7-1.7,0.9-2.3c0.5-0.2,1.1-0.7,0.6-1.1c-0.5-0.4-1.4-0.1-1.7,0.3 c-1.3,1.5-3.4,2.1-4.9,3.4c-0.6,0.5-1.8,1.1-1.2,1.6c0.6,0.6,1.5-0.2,2.1-0.7c0.4-0.3,0.8-0.8,1.3-1c0.7-0.4,1.4-1.1,2.3-0.6 c-1.6,1.8-4,2.5-6,3.8c-1.5,1-2.8,1.5-1,2.9c-1-0.4-1.7-0.2-2.1,0.4c-0.4,0.7,0.6,0.5,0.8,0.8c0.4,0.4,1.4,0.9,1,1.1 c-1.6,0.7-1.6,2.5-3.5,2.9c-0.4,0.1-0.9,0.5-1.1,0.2c-0.1-0.2,0.3-0.6,0.4-0.9c0.7-0.8,1.9-1.6,0.2-2.1c-0.6-0.2-4,1-4.3,1.5 c-0.2,0.4-0.1,0.6,0.2,0.9c0.3,0.3,0.6,0.6,0.9,0.9c-1.2,0.8-2.5,1.6-3.6,2.5c-0.7,0.5-2.2,0.5-2.1,1.4c0,0.8,1.6-0.3,2,0.3 c-0.2,0.5-0.7,0.8-1.1,0.9c-1.5,0.3-2.4,1.1-3.6,2c-1.6,1.1-3.1,2.4-5.5,2.4c-0.9,0-2.4-0.1-3.4,0.7c-1.7,1.3-4.2,1.9-4.9,4 c-0.1,0.5-0.9,0.4-1.2,0.7c-1.7,1-3.2,2.2-3.5,3.9c0.6,0.2,0.7,1.2,1.8,0.5c1.5-1,3.4-1.5,4.7-3c0.7-0.8,1.7-1.5,3-2.1 c-0.5,0.7-1.4,1.2-0.9,1.7c0.5,0.4,1.3-0.1,1.9-0.4c2.2-0.9,3.9-2.7,6.3-3.4c0.6-0.2,0.6-0.7,0.4-1c-0.4-0.8,0.3-1.2,1.1-1.7 c1.7-1.1,3.7-1.3,5.4-2.3c0.6-0.3,0.8-0.1,0.9,0.4c0.1,1.2-1,2.2-2.9,2.7c0.1-0.4,0.5-0.8,0.2-1.2c-0.2-0.3-0.4-0.5-0.9-0.4 s-1,0.4-0.8,0.7c0.3,0.6-0.1,1.3,0,2c-0.1,0.2-0.2,0.4-0.3,0.6c-4.1,2.6-8.5,4.9-12.7,7.3c-0.8,0.4-1.3,0.3-1.8-0.2 c-0.3-0.4-0.8-0.5-1.4-0.2c-0.5,0.2-0.7,0.6-0.8,1l0,0c-0.5-0.8-1.1-0.6-2.7,0.3c-0.5,0.6-1,1.3-1.8,0.5c-0.4-0.4,1.5-1.9-0.8-1.4 c-0.3-0.3-0.6-0.7-0.4-1.2c0.8-0.8,0.6-1.7-0.3-1.7c-1.7,0.1-2.8,1.3-3.7,2.5c1.3-0.8,2.1-0.6,2.7,0.3c0.6,1.2-1.1,1.5-1.8,2.1 c-1,0.3-1,1.3-1.9,1.8c-1.1,1.2-1.4,0.3-1.8-0.2c-0.7-1-1.4-1.1-2.4,0.2c-0.8-0.5-1.4-1.4-2.1,0.5c-0.2,0.6-0.9,1.3-0.9,2.1 c0,0.7-0.6,1.4-1.4,1.6c-2.2,0.5-3.4,1.6-3.2,3.3c-1.2,1.2-3.5,1.8-3.7,3.6c0.4,0.1,0.9-0.4,1.3-0.1c-0.1,0.6-0.8,1.5,0.5,1.8 c0.4-1,1.3-1.6,2.3-2.2c1.1,0.1,2.2,0,2.9-1.1l0,0l0,0c-0.1-0.1-0.1-0.2-0.2-0.3l0,0c1.8-1.4,1.8-0.1,2.1,0.7 c0.5,0.6-0.1,0.9-0.8,1.3c-1.1,0.8-2.5,0.2-3.5,1.2c-2.3,2.1-5.2,3.6-7.4,5.8c-0.8,0.8-2.4,0.8-3.1,1.8c-0.8,0.2-0.8,1-1.4,1.4 c-1.2,0.8-1.2,0.8-0.7,1.6c1.9-0.4,2.6-2.1,4.2-2.8c0.3-0.1,0.7-0.1,1-0.3c0.3-0.6,0.8-0.9,1.5-0.8c1.4,0.4,2.4,0.9,0.8,2.4 c0,0,0,0.1,0,0.2c-0.7,2.1-3.9,1.9-5.1,3.7c0,0-0.3,0-0.4,0c-0.4,0.1-0.7,0.5-0.5,0.7c0.8,1.2-0.6,1.7-1.5,2 c-1.2,0.4-1.2,2-2.8,1.8c-1.7-0.9-3.3,1.7-5,1c-0.2-0.1-0.5,0.4-0.3,0.7c0.5,1.3-0.7,1.2-1.6,1.3c0-0.7-0.4-0.6-1-0.2 c-1.5,1.1-0.8,2.5-1.8,3.6l0,0c-0.8,0.2-1.5,0.9-2.5,0.9c-0.7,0-0.9,0.3-0.7,0.7c-0.5,1.2-2.4,1.7-2.7,3c-0.7,0.3-1.3,0.6-2,1 c-0.5-1.3,1.1-1.9,1.8-2.7c0.5-0.6-1.2-1.4,1-1.8c-1.1,0-1.9,0.4-2.6,0.2c-0.1-0.4,0-0.7,0.7-0.8c1.1-0.4,2.1-1.2,3.7-0.7 c-0.4-0.7-0.7-1-0.5-1.5c0.2-1.1-0.5-1.2-1.5-0.6c-0.3,0.2-0.5,0.7-0.9,0.7c-2.4,0.1-3.1,2.1-4.7,3c-0.5,0.6-1.4,0.7-2,1 c-0.8,0.4-1.5,0.9-1,1.6l0,0c-0.5,0.7,1.2,0.6,0.6,1.3c-0.8,0.8-0.5,1.5-0.5,2.3c0,1.5-1.8,3.9-3.2,3.9c-1.3,0-1.3,0.5-1.6,1 c-0.3,0.4-0.4,0.9-0.8,1.3c-0.6,0.6-1.4,1-2.2,1.5c-0.3-0.6-0.6-1.1-0.7-1.7c-0.1-0.3,0.6-0.8,0-1c-0.4-0.1-0.8,0.2-1.2,0.4 c-0.5,0.4-0.7,0.7-0.4,1.2c0.4,0.5,0.7,1.1-0.7,1.2c-0.4,0-0.4,0.3-0.2,0.4c0.7,0.5,0.2,0.7-0.5,0.9c-1.7,0.5-3,1.6-3.8,2.7 c-0.6,0.8-2.4,0.6-2.2,1.8c-1,1-2,2-3.4,2.6l0,0c-2.1,1.6-4.2,3.3-6.4,4.9c-1.1,0.8-1.5,1.5-0.8,2.3c-2.4,1.9-4.8,3.8-7.2,5.7 c-0.3,0.1-0.6,0.4-0.8,0.3c-1.8-0.1-2.5,0.5-2.7,2c-0.1,0.7-0.7,1.5-1.7,2c-0.6,0.3-1.2,0.6-0.9,1.2c-0.3,0.3-0.6,0.6-0.8,0.9 c-1.1,0.5-1.7,1.2-1.9,2.1c0.8-1.2,2.7-1.4,3.5-2.7c1.2-0.8,2.3-1.6,3.5-2.4c1.2-0.2,1.2-1.3,2.1-1.8c0.1,0.1,0.1,0.2,0.2,0.3 c0.9,0.9,0.2,2.6-1.4,3.7c-2.2,1.5-2.2,1.5-2.8,3.4c0.7-0.5,1.5-1,2.1-1.6c1.5-1.4,3.4-2.5,4.5-4.2c0.8-0.5,1.5-0.9,2.1-1.6 c1.6-1.1,3.2-2.3,4.8-3.4c1.4-0.9,2.2-0.7,2.2,0.6c-0.8,0.7-1.6,1.4-2.3,2.1c-0.9,0.9-2.6,1.3-3,2.6c-0.4,0.4-0.7,0.8-1.2,1.1 c-3.6,2-5.9,5-9.1,7.3c-1.1,0.8-2.3,1.8-3,3l0,0c-0.7,0.5-1.5,1.1-2.2,1.6c-1.3,0.9-2.9,1.6-3.5,3.1c-0.1,0.4-0.7,0.9-0.1,1.1 c0.5,0.2,1.1-0.1,1.5-0.6c1.4-1.3,3-2.5,4.3-3.8c1.7-1.8,4.3-3,5.5-5.1c3.1-1.6,4.8-4.5,7.9-6.1c0.3-0.1,0.4-0.5,0.6-0.7 c1.9-2,4.4-3.6,6.5-5.4c2.3-2,4.4-4.3,7.8-5.1c0.7-0.2,0.9-0.8,1.1-1.3c2.6-1.5,5.2-2.9,7.2-5l0,0c1.3-1,3.2-1.4,4.1-2.8 c1.2-1,2.3-1.9,3.4-2.8c2.9-1.4,5.4-3.4,8.8-3.7c-0.2,0.4-0.3,0.7-0.5,1c-2.5,1.7-4.9,3.3-7.2,5.2c-1.8,1.5-3.5,3.2-6,4.2 c-1.3,0.6,0.9,0.8,0.3,1.5c-0.1,0.1-0.4,0.5,0.3,0.2c1.1-0.5,2.4-0.8,3.4-1.6c1.2-1.1,2.7-1.9,3.9-2.9c2.4-2,6-2.7,8-5.1 c0.2-0.3,0.9-0.6,1.6-0.5c-1.5,1.5-2.7,3-4.5,4.1c-1.4,0.8-2.6,1.8-3.2,3.1c-1.1,0.4-2,0.9-3,1.5c-2.3,1.4-4.5,2.9-6.5,4.6 c-2.7,2.3-6,4.2-8.8,6.5c-1.5,1.2-1.5,1.4-1.5,2.7c1.7-2.1,4.1-3.2,6.1-4.6c4.3-3.1,8.1-6.7,12.9-9.3c0.5-0.3,1.1-0.7,1.6-1 c0.1,0,0.3-0.1,0.4-0.1c0.5-0.1,0.9,0,1.4,0.6c-2.2,1.6-5.1,2.3-7,4.6c-1.1,1.3-3.5,2.4-5.3,3.6c-4.4,3-8.5,6.2-12.9,9.2 c-1.5,1.6-3.9,2.5-5.3,4.3c0.5,0.2,1.8-0.7,1.3,0.5c-0.4,0.6-1.1,0.9-1.7,1.3c-2.5,0-2.8,0.2-3.3,2.4c0,0.2-0.1,0.3-0.3,0.4 c-1,0.2-1.7,1.1-2.8,1.1c-2.8,0.8-2.5,2.4-2.5,3.9c-1.2,0.7-2.5,1.4-3.2,2.5c-0.3,0.5-0.9,0.8-1.4,0.5c-1.1-0.7-1.1-0.7-2,0.5 c-2.1,0.6-3,2.2-4.5,3.4c-0.4,0.3-0.4,1,0.3,1.2c0.3,0.3,0.8,0,1.2,0.1v0.1c-0.9,1.3-2.3,2.2-3.7,3.1c-1.3,0.7-2.4,1.5-2.9,2.7 c-2.7-0.1-2.7-0.1-3.1,2.2c-0.1,0.3-0.4,1-0.9,0.8c-1.8-0.8-1.6,0.7-2.7,1.5c1.3-0.5,2.1-0.7,2.3,0c-0.4,0.5-0.7,0.9-1.1,1.4 c-1.1,0.6-2.1,1.3-2.4,2.8c1.2-1,2.6-1.3,3.1-2.4l0,0c0.2-0.2,0.5-0.3,0.7-0.5c0.4,0.5,0.6,1,0.6,1.6h0.1 c-1.6,1.1-1.6,2.8-3.1,3.9l0,0l0,0c-0.9,0.8-2,1.7-1.8,2.8c-0.6,0.6-1.8-0.2-2,0.6c-0.5,1.7-2.5,2.6-3.2,4.1l0,0 c-1.4,0-2.2,0.6-2.6,1.8c-0.6,1.4-2.3,2.1-3.6,2.9c-0.9,0.5-1.7,0.7-1.5,1.7c0.1,0.7-0.3,1.1-1,0.4c-0.3-0.2-0.5-0.1-0.6,0.2 c-0.7,1.6-2.2,2.6-3.6,3.7c-0.7,0.6-1.9,1.5-1.9,2.6c-0.5,0.5-0.5,1.3-1.3,1.5c-3.9,0.7-4.1,4-6.5,5.8c-0.9,0.7-1.7,2-2.8,2.9 c-0.6,0.5-1.3,0.9-1.3,1.6c-1,1.6-3.1,2.7-3.9,4.4c-0.6,0.5-1.7,1.1-1.1,1.8c0.6,0.8,1.3-0.3,2-0.5c1.9-0.5,2.5-2,3.8-2.9 c3.9-2.9,6.9-6.4,10.4-9.6c2-1.7,3.8-3.7,6.2-5c1.1-0.6,1.8-1,1.8-2c0.8-1,1.6-1.9,2.6-2.8c2.2-2,5.1-3.6,6.8-6 c2.4-1,3.5-3,5.3-4.4c1.1-0.6,2.2-1.2,3.2-1.7c0.6-0.3,1.2-1.5,1.9-1c0.7,0.5-0.6,1.3-1.1,1.9c-0.3,0.3-0.9,0.5-1.2,0.9 c-0.6,0.6-1.6,1.2-1.3,2.1c-1.2,1.3-2.7,2.4-4,3.6s-3.4,2.6-3.3,4c0.2,2.7-2.3,5.2-2.4,7.8c-0.1,1.6-1.9,2.9-2.1,4.4 c-2,4.1-3.5,8.2-4.9,12.3c-0.7,0.6-0.7,1.4-0.5,1.8c1,2.6-0.6,5.7,0.7,8.3c0.3,0.5,0.4,1.1-0.1,1.8c-0.3,0.2-0.4,0.5-0.4,0.8 c-0.2,2.6,2.4,3.4,4.4,4.4c1.6,0.8,3.4,1.7,5.8,1.3c3,0.5,6.1,0.3,9.3-0.6c1.9-0.5,3.8-1,5.7-1c4.1-0.1,8.1-1.3,12.2-2.3 c3.9-0.9,7.8-1.9,12-1.8c-3.9,2.7-6.6,5.9-10.9,7.8c0-0.5,1.4-0.9,0.6-1.3c-0.5-0.2-1.1,0.5-1.7,0.8c-0.9,0.5-0.6,0.8-0.1,1.1 c-2.5,1.3-5.1,2.5-7.3,4.2c-0.9,0.7-2,1-3,1.3c-0.8,0.3-1.6,0.4-1.9-0.5c-0.1-0.3-0.2-1-1.5-1c-2.5,0.1-4.2,1.5-6.2,2.3 c-6.9,2.6-11.9,7.1-16.5,11.9c-0.7,0.7-1.5,1-2.3,1.4c-1.7,0.9-4.1,0.8-5.4,3c2-0.8,3.7-1.4,5.4-2.1c0.7-0.3,1.4-0.5,2.1-0.5 c-0.5,0.9,1,0.9,0.8,1.4c-0.3,0.6-1.2,1-2,1.1c-1.2,0.2-1.8,0.8-2.4,1.8c1.9-0.7,3.6-1.1,5.1-1.9c1.9-0.9,2.4,0.1,2.8,0.9 c0.6,0.9-0.7,1.2-1.5,1.6c-2.5,1.4-5.1,2.7-7.6,4.1c2.2-0.4,4-1.6,5.9-2.6c0.7-0.3,1.5-0.9,1.9-0.3c0.5,0.7,1.6,0.8,2,1.6 c-2.4,1.2-4.8,2.3-7.1,3.5c-0.4,0.2-1,0.3-0.8,0.7c0.3,0.6,0.7,0.1,1.2-0.1c1.9-1,3.9-1.9,5.8-2.9c1.3-0.7,2.4-1.3,2.3,0.5 c0,0.4,0.6,0.6,0.9,0.9c1.1,1,2.9,1.3,4,2.1c2.1,1.6,4.9,2,7.5,1.6c7.6-1.2,15.2-1.9,22.6-4.9c0.6,0.3,1.3-0.5,1.9-0.3 c-0.1,0.1-0.2,0.2-0.3,0.2c-0.4,0.2-0.9,0.5-1.3,0.7c-1.8,1.5-2.7,3.1-2.7,5c0,0.6-0.7,1.4,0.1,1.8c0.8,0.3,1.4-0.3,2.1-0.7 c0.4-0.2,0.8-0.3,1.1-0.5c0.8,0.1,1.4-0.5,2.1-0.8c1,0,1.9-0.2,2.7-0.8c0.9,0.2,1.5,1.3,2.9,0.3c0.8-0.2,1.5-0.3,2.3-0.5 c2.3,0.5,4.1-1.4,6.1-1.9c0.1,0,0.2-0.1,0.4-0.1c0,1.1,0.8,1.5,2,1.7c-1.4,1.4-3.1,2.1-4.6,3c-0.9,0.6-1.6,1.1-1.7,2.1 c-1.7,2-4.3,3.4-6.5,5.8c1.7-0.5,2.6-0.9,3.5-1.5c1.5,0,2.6,0.2,0.6,1.6c-0.3,0.2-0.8,0.5-0.7,0.9c0.2,0.5,0.8,0.2,1.2,0.2 c0.5,0,1-0.2,1.4-0.3c0.1,0.2-0.5,0.8,0.1,0.6c1.9-0.7,4.1-0.7,5.8-2l0,0l0,0l0,0c0.6,1.1-0.2,2.7,1.6,3.4c0.4,0.2,0.1,1-0.7,1.5 c-0.3,0.2-0.7,0.6-0.1,0.7c1,0.1,1.1,0.7,0.9,1.4c-0.1,0.6,0.3,0.7,0.9,0.5c1.5-0.6,1.8,0.6,2.7,0.8c-0.7,0.8-0.1,1.7-0.7,2.4 c-0.1,0-0.2,0-0.2,0.1c-0.7,0.3-1,0.9-0.8,1.5c0.1,0.2,0.2,0.3,0.3,0.3c0.1,0.2,0.6,0.3,0.2,0.7c-1.2,1.3,0.2,1,0.9,1.1 c0.9,0.1,1.6-0.3,2.3-0.8c1.1-0.4,2.3-0.8,3.4-1.1c0.2,0.1,0.4,0,0.6-0.1c0,0.2,0.1,0.3,0.3,0.4c0.2,0.1,0.5,0.1,0.8,0.1 c-0.1,0.3-0.2,0.6-0.6,0.9c-0.2,0.2-0.4,0.4-0.5,0.5c-0.4,0.9-0.6,1.6,1,1.2c0.9-0.2,1.9-0.4,2.8-0.6c0,0.2-0.1,0.4-0.2,0.6 c-0.3,0.3-0.6,0.6-1.1,0.8c-0.2,0.1,0.1,0.3,0.5,0.5c-0.3,0.3-0.5,0.5-0.9,0.8c-1.2,0.6-1.9,1.5-2.4,2.5c-0.5,0.4-1.1,0.7-1.5,1.2 c-0.5,0.6-1.8,1.1-1,1.8c0.7,0.6,1.6,0.8,2.7,0.2l-0.4,0.2c2.6,0.3,5.3-0.3,8-0.9c0.1,0.2,0.3,0.5,0.6,0.6c0.4,0.5,1,0.2,1.5,0.4 v0.1c-0.9,1.4-2.4,2.3-3.9,3.2c-1-0.3-1.9,0.1-2.9,0.6c-0.4,0.2-1.2,0.3-1.4,0.2c-1.4-1.1-2.6,0-3.7,0.9c-0.9,0.8-2,1.3-3,1.9 c-0.6,0.1-1.2,0.1-1.9,0.2l0,0c-0.8-0.4-2.9,0.9-2.6-1c0-0.2-0.3-0.3-0.6-0.1c-3,0.9-6.2,1.5-8.1,4.3c-0.4,0.6-1.1,1-1.8,1.6 c0.4-0.1,0.7-0.2,1-0.1c3.4,0.2,6.7,0,9.8-2.5l0,0c3.5-0.2,6.8-1.1,9.4-3.9c0.1,0.3,0.2,0.4,0.2,0.5c-0.1,0.1-0.2,0.2-0.3,0.4 c-1,0-1.2,0.6-1.4,2.6c-0.1,0.4-0.4,1.3-1,0.9c-2.2-1.5-1.9,0.6-3.1,1.5c1.5-0.4,2.4-0.5,2.8,0.6c-0.4,0.5-0.8,1.1-1.2,1.6 c-1.3,0.6-2.4,1.3-2.7,3.3c1.3-1.2,3-1.1,3.5-2.6c0.3-0.2,0.6-0.3,0.9-0.5c0.5,0.7,0.8,1.5,0.7,2.3l0,0c-1.8,1.1-1.8,3.5-3.5,4.7 c-1,0.9-2.2,1.8-2,3.4c-0.7,0.7-2.1-0.6-2.4,0.3c-0.5,2.2-2.8,3-3.6,4.9l0,0c-1.6-0.3-2.5,0.4-3,1.8c-0.6,1.8-2.6,2.4-4.1,3.2 c-1,0.5-1.9,0.6-1.7,1.9c0.1,0.9-0.3,1.5-1.1,0.4c-0.3-0.4-0.6-0.2-0.7,0.1c-0.7,2-2.5,3-4.1,4.3c-0.9,0.7-2.2,1.6-2.1,3.1 c-0.6,0.5-0.5,1.7-1.4,1.7c-4.5,0.1-4.7,4.5-7.4,6.4c-1,0.7-1.9,2.4-3.2,3.3c-0.7,0.5-1.5,0.9-1.4,1.9c-1.1,1.9-3.5,3-4.4,5 c-0.7,0.6-1.9,1.1-1.3,2.1c0.7,1.2,1.5-0.1,2.3-0.2c2.2-0.2,2.9-2.1,4.4-3.1c4.4-3.1,7.8-7.2,11.8-10.6c2.2-1.9,4.3-4.1,7.1-5.4 c1.3-0.6,2-1,2-2.3c0.9-1.2,1.9-2.2,3-3.2c2.5-2.3,5.9-3.8,7.8-6.7c2.8-0.8,3.9-3.3,6-4.8c1.2-0.6,2.5-1.1,3.7-1.6 c0.7-0.3,1.4-1.7,2.1-0.9c0.8,0.9-0.6,1.6-1.2,2.3c-0.3,0.4-1,0.5-1.3,0.9c-0.7,0.7-1.9,1.3-1.4,2.6c-1.4,1.5-3,2.6-4.6,4 c-1.5,1.3-3.9,2.8-3.7,4.7c0.4,3.8-2.4,6.5-2.5,10.1c0,2.1-2.1,3.5-2.3,5.6c-2.1,5.1-3.8,10.3-5.2,15.6c-0.8,0.7-0.7,1.7-0.5,2.3 c1.3,3.8-0.5,7.7,1.2,11.4c0.3,0.8,0.6,1.6,0,2.4c-0.4,0.2-0.4,0.6-0.4,1c-0.1,3.5,3,5.2,5.4,7c1.9,1.4,4.1,3,6.8,3.1 c3.7,1.5,7.6,1.8,11.6,1.2c2-0.3,4-0.3,6,0c4.8,0.7,9.5,0,14.2-0.4c4.5-0.4,9.1-0.9,14,0.2c-4.4,2.8-7.5,6.6-12.4,8.2 c0-0.6,1.6-0.9,0.6-1.6c-0.6-0.4-1.3,0.4-1.9,0.7c-1,0.5-0.7,1,0,1.5c-2.9,1.2-5.9,2.2-8.3,4.2c-1,0.8-2.3,0.9-3.5,1.1 c-1,0.2-1.8,0.2-2.3-1.1c-0.1-0.4-0.3-1.4-1.8-1.6c-2.9-0.5-4.8,1.1-7.2,1.7c-8,2-13.7,6.9-18.9,12.5c-0.7,0.8-1.7,1-2.6,1.4 c-1.9,0.9-4.8,0.1-6.2,2.8c2.4-0.6,4.3-1,6.3-1.6C98.9,648,99.7,647.8,100.6,648L100.6,648z"></path> </g> </g> <g> <circle class="st1" cx="507.5" cy="461" r="206"></circle> <circle class="st2" cx="507.5" cy="461" r="194.9"></circle> <circle class="st3" cx="507.5" cy="461" r="172.7"></circle> <path class="st0" d="M578.9,384.7l-89.3,58.7l-56.1,91.1c-1.1,1.7,1,3.8,2.7,2.7l89.3-58.7l56.1-91.1 C582.6,385.6,580.6,383.7,578.9,384.7z"></path> <path class="st4" d="M578.9,384.7l-89.3,58.7l36,34.9l56.1-91.1C582.6,385.6,580.6,383.7,578.9,384.7z"></path> <g class="st5"> <path class="st6" d="M637,464c-1.1-1-1.8-2.6-1.8-4.3c0-3.3,2.7-6.1,6-6.1l13.7-0.1c3.3,0,6.1,2.7,6.1,6s-2.7,6.1-6,6.1l-13.7,0.1 C639.7,465.7,638.2,465,637,464z"></path> <path class="st6" d="M355.8,466.8c-1.1-1-1.8-2.6-1.8-4.3c0-3.3,2.7-6.1,6-6.1l13.7-0.1c3.3,0,6.1,2.7,6.1,6s-2.7,6.1-6,6.1 l-13.7,0.1C358.4,468.6,356.8,468,355.8,466.8z"></path> <path class="st6" d="M504.8,612.8c-1.1-1-1.8-2.6-1.8-4.3l-0.1-13.7c0-3.3,2.7-6.1,6-6.1c3.3,0,6.1,2.7,6.1,6l0.1,13.7 c0,3.3-2.7,6.1-6,6.1C507.4,614.5,505.9,613.9,504.8,612.8z"></path> <path class="st6" d="M501.9,331.5c-1.1-1-1.8-2.6-1.8-4.3l-0.1-13.7c0-3.3,2.7-6.1,6-6.1s6.1,2.7,6.1,6l0.1,13.7 c0,3.3-2.7,6.1-6,6.1C504.5,333.3,503,332.6,501.9,331.5z"></path> </g> <g id="cadran"> <path class="st7" d="M594.4,379.6c-1.4,0-2.8-0.6-3.9-1.6c-2.2-2.2-2.2-5.7,0-7.9l9-9c2.2-2.2,5.7-2.2,7.9,0s2.2,5.7,0,7.9l-9,9 C597.3,379.1,595.9,379.6,594.4,379.6z"></path> <path class="st7" d="M411.7,562.4c-1.4,0-2.8-0.6-3.9-1.6c-2.2-2.2-2.2-5.7,0-7.9l9-9c2.2-2.2,5.7-2.2,7.9,0 c2.2,2.2,2.2,5.7,0,7.9l-9,9C414.5,561.8,413.1,562.4,411.7,562.4z"></path> <path class="st7" d="M603.3,562.4c-1.4,0-2.8-0.6-3.9-1.6l-9-9c-2.2-2.2-2.2-5.7,0-7.9s5.7-2.2,7.9,0l9,9c2.2,2.2,2.2,5.7,0,7.9 C606.2,561.8,604.7,562.4,603.3,562.4z"></path> <path class="st7" d="M420.6,379.6c-1.4,0-2.8-0.6-3.9-1.6l-9-8.9c-2.2-2.2-2.2-5.7,0-7.9s5.7-2.2,7.9,0l9,9c2.2,2.2,2.2,5.7,0,7.9 C423.4,379.1,422,379.6,420.6,379.6z"></path> </g> <g id="N"> <path class="st0" d="M517.8,372.7l-21.5-40.3v40.3c0,2.7-3.3,4.1-6.5,4.1c-3.3,0-6.5-1.4-6.5-4.1v-65c0-2.8,3.2-4.1,6.5-4.1 c4.8,0,6.7,1,9.7,7l19.3,37.4v-40.3c0-2.8,3.2-4,6.5-4c3.2,0,6.5,1.2,6.5,4v65.1c0,2.7-3.3,4.1-6.5,4.1 C522.2,376.8,519.5,375.8,517.8,372.7z"></path> </g> </g> </svg> 