<?xml version="1.0" encoding="UTF-8"?> <!-- Generator: Adobe Illustrator 23.0.2, SVG Export Plug-In . SVG Version: 6.00 Build 0) --> <svg xmlns="http://www.w3.org/2000/svg" xmlns:xlink="http://www.w3.org/1999/xlink" version="1.1" x="0px" y="0px" viewBox="0 0 510.5 518.9" style="enable-background:new 0 0 510.5 518.9;" xml:space="preserve"> <style type="text/css"> .st0{fill:#5E95C6;} .st1{fill:#FFFFFF;} .st2{fill:none;stroke:#EBB988;stroke-width:11;stroke-linecap:round;stroke-miterlimit:10;} .st3{fill:#EBB988;} </style> <g id="Calque_2"> <polygon class="st0" points="70.8,13 95.9,75 130.6,133.2 185.8,181.1 167.4,181.6 125.2,195.6 83.4,208.7 32.1,219.9 10.2,227.8 7.1,246.8 32.1,246.7 110.1,250 167.6,254 253.6,281.1 332.6,273.6 354.8,265.1 385.7,246 405.6,220.4 422.4,195.6 424.9,179.1 425.7,161.3 429.7,145.9 443.1,136.1 463.7,142.8 488.1,149.2 499.2,145.3 473.7,121.8 464.4,108.4 458.8,88.5 443,74.8 422.4,63 400.1,58.9 395.6,60.3 381.2,64.6 367,68.5 351.5,78.2 337.2,92.1 327.3,106.4 316.2,116.9 291.5,87 257.4,57.3 227.8,46.7 188.9,29.7 156.8,19.4 108.9,10.6 "></polygon> </g> <g id="Calque_1"> <g> <g> <g> <g> <g> <g> <polygon class="st0" points="319.2,508.6 319.2,508.6 321.2,510.9 346.1,354.6 237.7,417.4 "></polygon> </g> <g> <path class="st0" d="M133.1,409.3l-108.6,64l286.6,45.6L226.3,424l-7.3,4.3c-12.8,7.5-27.9,10.3-42.4,8 c-14.5-2.3-27.9-9.7-37.9-20.8L133.1,409.3z"></path> </g> <g> <path class="st0" d="M16.2,463.2c0.5-1,1.3-1.9,2.3-2.5l105.7-61.3L40.8,306L15.7,463.5L16.2,463.2z"></path> </g> </g> <g> <path class="st0" d="M346.1,339.7l-133.6,77.4c-10.3,6-22.3,8.3-34,6.4c-11.6-1.8-22.3-7.7-30.3-16.6L45.4,291.9 c-1.8-2.1-2.1-5-0.8-7.4c1.3-2.4,4-3.7,6.7-3.3l292.6,46.6c2.7,0.4,4.8,2.5,5.3,5.2C349.6,335.7,348.4,338.3,346.1,339.7z"></path> </g> </g> <path class="st1" d="M200.1,335.5l23.7-26.8l26.3-29.7c2.2-2.5,6.1-2.8,8.7-0.5c2.5,2.2,2.8,6.1,0.5,8.7l-21.4,24.2l-28.6,32.3 c-2.2,2.5-6.1,2.8-8.7,0.5c-0.9-0.8-1.6-1.9-1.9-3C198.3,339.2,198.7,337.1,200.1,335.5z"></path> <path class="st1" d="M174,310.7l52.4-37.4c2.8-2,6.6-1.3,8.6,1.4c2,2.8,1.3,6.6-1.4,8.6l-52.4,37.4c-2.8,2-6.6,1.3-8.6-1.4 c-0.4-0.5-0.7-1.1-0.9-1.7C170.9,315,171.8,312.2,174,310.7z"></path> <polygon class="st0" points="255.7,269.5 223.8,308.7 237.9,311.3 272.9,267.3 "></polygon> <polygon class="st0" points="251.2,269.8 202.6,305.3 185.4,302.5 237.3,264.7 "></polygon> <path class="st1" d="M94.3,86.8c-22.2-41-30.9-75.6-31.3-77c-0.6-2.3,0-4.9,1.6-6.9c1.6-2,3.9-3,6.2-2.8c0.5,0,46,4,97.7,17.4 c70.1,18.3,117.8,44.5,141.7,78c17.3,24.2,16.8,53.2-1.5,77.6c-19.8,26.5-61.6,45.3-100,28.1c-40.8-18.3-71.1-49.4-92.6-79.4 C107.4,109.6,100.2,97.7,94.3,86.8z M79.5,15.9c4.2,13.2,12.8,37,27,63.1c19.7,36.2,54.4,84.3,108.3,108.5 c32.1,14.4,66.9-1.2,83.4-23.1c14.1-18.8,14.3-40.4,0.7-59.4C253.5,41.3,118.9,20.6,79.5,15.9z"></path> <path class="st1" d="M441.3,139.4c-4.4-14.6,2.9-30,17.1-35.8c2.3-0.9,4.8-0.4,6.6,1.3l43.7,42.6c2,1.9,2.4,5,1.1,7.4 c-1.3,2.4-4.2,3.6-6.8,3l-57.2-14.2c-0.4-0.1-0.8-0.2-1.2-0.4C443,142.4,441.8,141.1,441.3,139.4z M459.6,116.8 c-5.1,3.6-7.9,9.6-7.2,15.8l31.5,7.8L459.6,116.8z"></path> <path class="st1" d="M307.7,122.1c-0.1-2.3,1.2-4.5,3.2-5.6c11.7-9.2,14.5-14.9,14.5-14.9c12.7-24.3,48.3-60.6,101.1-43.1 c20.6,6.8,36.2,21.4,41.6,39c1.5,4.8,2.2,10.1,2.1,15.2c-0.1,3.4-2.9,6.1-6.3,6c-3.4-0.1-6.1-2.9-6-6.3 c0.1-3.8-0.4-7.7-1.5-11.3c-4.2-13.8-16.9-25.4-33.7-30.9c-21.3-7.1-41-4.8-58.5,6.6c-13.3,8.7-23.2,21.5-27.9,30.6 c0,0.1-0.1,0.1-0.1,0.2c-4.5,8.2-5.1,8-17.4,18.7c-1.8,1.9-4.7,2.5-7.1,1.4l-0.3-0.1c0,0,0,0,0,0 C309.1,126.5,307.7,124.4,307.7,122.1z"></path> <path class="st1" d="M2.4,249.4c-4.4-7.3-1.4-15.4-1-16.3c0.6-1.6,1.9-2.8,3.6-3.4C49,213.4,135.3,184.3,170,173 c3.2-1.1,6.7,0.7,7.7,3.9c1.1,3.2-0.7,6.7-3.9,7.7C140,195.7,55,224.4,12.3,240.1c-0.1,1,0,2.1,0.6,3c1.1,1.7,4,2.9,8.3,3.3 c10.9,1,28-0.3,47.9-1.9c26.2-2.1,55.9-4.4,81.9-2.1c18.2,1.6,32.9,8.1,48.5,15c29.6,13.1,63.1,28,131.9,10.4 c39.4-10,71.1-39.5,84.6-78.8c3.6-10.5,3.6-17.6,3.6-24.4c0-4,0-8.2,0.8-12.7c2.6-14.9,15.6-19.3,25.2-21.4 c3.3-0.7,6.6,1.4,7.3,4.7c0.7,3.3-1.4,6.6-4.7,7.3c-10.1,2.2-14.6,5.5-15.7,11.5c-0.6,3.5-0.6,6.8-0.6,10.6 c0,7.1,0.1,15.9-4.3,28.4c-14.9,43.2-49.7,75.7-93.2,86.7c-73,18.6-108.5,2.8-139.9-11.1c-14.6-6.5-28.4-12.6-44.6-14 c-25-2.2-54.2,0.1-79.9,2.2c-20.4,1.6-38,3-50,1.9c-4-0.4-7.4-1.2-10.2-2.6C6.6,254.4,4.1,252.2,2.4,249.4z"></path> <ellipse transform="matrix(0.43 -0.9028 0.9028 0.43 145.212 428.6254)" class="st1" cx="412.1" cy="99.3" rx="8.4" ry="8.4"></ellipse> </g> </g> </g> <g> <path class="st2" d="M487.5,78.3c0,0-31-13.4-71.6-6.8s-79.1,24.9-109.7,18.8"></path> <path class="st3" d="M433.8,69.8c0,0-15.8-35.4-17.8-53.1S391.1,29.2,381,32.8S346.2,8,348.4,31s11.3,49.2-1.1,57.1 C347.3,88,427.5,69.9,433.8,69.8z"></path> </g> </g> </svg> 