<?xml version="1.0" encoding="utf-8"?>
<!-- Generator: Adobe Illustrator 25.2.0, SVG Export Plug-In . SVG Version: 6.00 Build 0)  -->
<svg version="1.1" xmlns="http://www.w3.org/2000/svg" xmlns:xlink="http://www.w3.org/1999/xlink" x="0px" y="0px"
	 viewBox="0 0 3953.7 3985.5" style="enable-background:new 0 0 3953.7 3985.5;" xml:space="preserve">
<style type="text/css">
	.st0{fill:none;stroke:#9224FF;stroke-width:27;stroke-linecap:round;stroke-linejoin:round;stroke-miterlimit:10;}
	.st1{display:none;}
	.st2{display:inline;}
	.st3{fill:none;}
	.st4{fill:#AFAFAF;}
	.st5{font-family:'MyriadPro-Bold';}
	.st6{font-size:350px;}
	.st7{font-size:280px;}
	.st8{display:inline;filter:url(#Adobe_OpacityMaskFilter);}
	.st9{display:inline;opacity:0.43;mask:url(#SVGID_1_);}
	.st10{fill:none;stroke:#9224FF;stroke-width:20;stroke-linecap:round;stroke-linejoin:round;stroke-miterlimit:10;}
</style>
<g id="Calque_2">
	<path id="Touche_contour" class="st0" d="M3925.3,1998.4c1,1914.5-12,1855.4-1927.5,1855.4c-1914.5,0-1914.5,0-1914.5-1914.5
		S54.9,24.9,1969.4,24.9C13.5,24.9,13.5,24.9,13.5,1998.4S13.5,3972,1969.4,3972C3926.4,3972,3926.4,3972,3925.3,1998.4z"/>
	<g class="st1">
		<g class="st2">
			<rect x="-83.4" y="2811.6" class="st3" width="4214.6" height="1815.4"/>
			<text transform="matrix(1 0 0 1 876.7759 3060.1013)"><tspan x="0" y="0" class="st4 st5 st6">Slimen Metatidj</tspan><tspan x="-211.3" y="350" class="st4 st5 st7">Développeur Full-Stack</tspan></text>
		</g>
		<defs>
			<filter id="Adobe_OpacityMaskFilter" filterUnits="userSpaceOnUse" x="686.8" y="2811.6" width="2698.3" height="653.9">
				
					<feColorMatrix  type="matrix" values="-1 0 0 0 1  0 -1 0 0 1  0 0 -1 0 1  0 0 0 1 0" color-interpolation-filters="sRGB" result="source"/>
			</filter>
		</defs>
		<mask maskUnits="userSpaceOnUse" x="686.8" y="2811.6" width="2698.3" height="653.9" id="SVGID_1_" class="st2">
			<g style="filter:url(#Adobe_OpacityMaskFilter);">
				
					<image style="overflow:visible;" width="2704" height="659" xlink:href="EE77671.jpg"  transform="matrix(1 0 0 1 683.8474 2808.6052)">
				</image>
			</g>
		</mask>
		<g class="st9">
			<path d="M953.8,3038.4c-21,0-41-7-54.6-15.4l-7.7,25.6c12.6,8.4,37.5,15.1,60.2,15.1c55.7,0,82.6-31.5,82.6-67.9
				c0-34.7-20.3-53.9-60.2-69.3c-32.6-12.6-46.9-23.5-46.9-45.5c0-16.1,12.3-35.4,44.5-35.4c21.4,0,37.1,7,44.8,11.2l8.4-24.9
				c-10.5-6-28-11.6-52.2-11.6c-45.9,0-76.3,27.3-76.3,64.1c0,33.3,23.8,53.2,62.3,66.9c31.9,12.3,44.5,24.9,44.5,46.9
				C1003.1,3022,984.9,3038.4,953.8,3038.4z M1105.7,2811.6h-30.8v248.5h30.8V2811.6z M1172.2,2862c12.2,0,20-8.4,19.6-18.9
				c0-10.9-7.3-19.2-18.9-19.2c-11.2,0-19.3,8.4-19.3,19.2C1153.6,2853.6,1161.3,2862,1172.2,2862z M1157.5,3060.1h30.8v-169.4
				h-30.8V3060.1z M1425.6,2886.8c-16.1,0-27.3,4.2-37.5,11.9c-7,5.3-13.7,12.6-18.9,22.1h-0.7c-7.4-20-24.9-34-48-34
				c-28,0-43.8,15.1-53.2,31.2h-1l-1.4-27.3h-27c1,14,1.4,28.4,1.4,45.9v123.6h30.1v-102.2c0-5.2,0.7-10.5,2.4-15.1
				c4.9-15.4,18.9-30.8,38.2-30.8c23.5,0,35.4,19.6,35.4,46.6v101.5h30.1v-104.7c0-5.6,1-11.2,2.5-15.4c5.2-15.1,18.9-28,36.4-28
				c24.9,0,36.8,19.6,36.8,52.2v95.9h30.1v-99.8C1481.2,2901.5,1448,2886.8,1425.6,2886.8z M1606.5,3039.8
				c-30.8,0-57.4-17.2-58.1-58.8h119c0.3-3.1,1-8,1-14.4c0-31.2-14.7-79.8-70-79.8c-49.4,0-79.5,40.3-79.5,91.4
				c0,51.1,31.2,85.4,83.3,85.4c27,0,45.5-5.6,56.4-10.5l-5.3-22.1C1641.9,3036,1628.6,3039.8,1606.5,3039.8z M1596,2908.9
				c34.7,0,43.1,30.5,42.7,50.1h-90C1551.2,2937.6,1564.9,2908.9,1596,2908.9z M1820,3060.1h30.8v-101.2c0-58.1-36.4-72.1-59.9-72.1
				c-28,0-47.6,15.8-56,31.9h-0.7l-1.8-28h-27.3c1,14,1.4,28.4,1.4,45.9v123.6h30.8v-101.9c0-5.3,0.7-10.5,2.1-14.4
				c5.2-17.2,21-31.5,41.3-31.5c29,0,39.2,22.8,39.2,50.1V3060.1z M2157.1,2824.2l-42,114.1c-10.5,29.8-18.9,55.7-24.9,79.5h-1
				c-6-24.5-14-50.4-23.8-79.5l-40.2-114.1h-38.9l-16.5,235.9h29l6.3-101.2c2.1-35.4,3.8-74.9,4.5-104.3h0.7
				c6.6,28,16.1,58.5,27.3,91.7l38.2,112.4h23.1l41.7-114.5c11.9-32.6,21.7-62,29.8-89.6h1.1c-0.4,29.4,1.8,69,3.5,101.9l6,103.6
				h29.8l-14.7-235.9H2157.1z M2323.7,2886.8c-49.4,0-79.5,40.3-79.5,91.4c0,51.1,31.2,85.4,83.3,85.4c27,0,45.5-5.6,56.4-10.5
				l-5.3-22.1c-11.5,4.9-24.8,8.8-46.9,8.8c-30.8,0-57.4-17.2-58.1-58.8h119c0.3-3.1,1-8,1-14.4
				C2393.7,2935.5,2379,2886.8,2323.7,2886.8z M2363.9,2958.9h-90c2.5-21.4,16.1-50.1,47.3-50.1
				C2355.9,2908.9,2364.3,2939.3,2363.9,2958.9z M2438.8,3006.6c0,20,3.1,35,11.9,44.1c7.3,8.4,18.9,13,33.2,13
				c11.9,0,21.4-1.8,27.3-4.2l-1.4-23.1c-3.8,1-9.8,2.1-17.8,2.1c-17.2,0-23.1-11.9-23.1-32.9v-91.4h44.1v-23.5h-44.1V2842l-30.1,8
				v40.6h-26.3v23.5h26.3V3006.6z M2666.7,2956.1c0-34-12.6-69.3-64.4-69.3c-21.4,0-41.7,6-55.7,15.1l7,20.3
				c11.9-7.7,28.3-12.6,44.1-12.6c34.7,0,38.5,25.2,38.5,39.2v3.5c-65.5-0.4-101.9,22.1-101.9,63c0,24.5,17.5,48.7,51.8,48.7
				c24.2,0,42.4-11.9,51.8-25.2h1.1l2.5,21.4h28c-2.1-11.6-2.8-25.9-2.8-40.6V2956.1z M2636.9,3003.1c0,3.1-0.7,6.6-1.8,9.8
				c-4.9,14.4-18.9,28.4-41,28.4c-15.8,0-29.1-9.5-29.1-29.4c0-32.9,38.2-38.9,71.8-38.2V3003.1z M2794.4,3036.3
				c-3.8,1-9.8,2.1-17.8,2.1c-17.2,0-23.1-11.9-23.1-32.9v-91.4h44.1v-23.5h-44.1V2842l-30.1,8v40.6h-26.3v23.5h26.3v92.4
				c0,20,3.1,35,11.9,44.1c7.3,8.4,18.9,13,33.2,13c11.9,0,21.4-1.8,27.3-4.2L2794.4,3036.3z M2846.9,2862c12.2,0,20-8.4,19.6-18.9
				c0-10.9-7.3-19.2-18.9-19.2c-11.2,0-19.3,8.4-19.3,19.2C2828.3,2853.6,2836,2862,2846.9,2862z M2832.2,3060.1h30.8v-169.4h-30.8
				V3060.1z M2974.3,3064c27.7,0,48.3-14.4,57.8-33.3h0.7l1.4,29.4h27.7c-1-11.6-1.4-28.7-1.4-43.8v-204.8h-30.8v101.2h-0.7
				c-7.7-13.7-25.2-25.9-51.1-25.9c-41.3,0-76.3,34.7-76,91C2901.8,3029.3,2933.3,3064,2974.3,3064z M2983.7,2911
				c23.1,0,39.9,16.1,44.5,35.7c1,3.9,1.4,9.1,1.4,13v29.4c0,4.9-0.4,9.1-1.4,13.3c-5.6,23.1-24.5,36.8-45.2,36.8
				c-33.3,0-50.1-28.4-50.1-62.7C2933,2939,2951.9,2911,2983.7,2911z M3146.1,2890.7h-30.8v141.8c0,40.6-3.2,53.9-11.5,63.7
				c-7.4,8-19.6,11.9-33.6,13l3.1,24.2c16.5,0,38.9-5.6,52.5-19.3c15.1-15.4,20.3-36.8,20.3-69.7V2890.7z M3130.4,2862
				c12.2,0,19.6-8.8,19.2-18.9c0-10.9-7.4-19.2-18.6-19.2c-11.5,0-19.6,8.4-19.6,19.2C3111.5,2853.2,3118.8,2862,3130.4,2862z
				 M815,3243.5c-16.5-15.4-41.4-23.5-76.4-23.5c-19.3,0-37,1.7-51.8,3.9v185.6c12.3,1.4,26.9,2.2,44.2,2.2
				c36.7,0,65.8-9.5,83.4-27.2c17.6-17.4,27.2-42.6,27.2-73.4C841.6,3280.7,831.8,3258.9,815,3243.5z M735.8,3392.2
				c-9.5,0-18.5-0.3-24.6-1.4v-149c6.4-1.4,16-2.5,28.6-2.5c51.5,0,76.7,28.3,76.4,72.8C816.1,3363.1,787.8,3392.2,735.8,3392.2z
				 M926.2,3271.5c-39.5,0-63.6,32.2-63.6,73.1s24.9,68.3,66.6,68.3c21.6,0,36.4-4.5,45.1-8.4l-4.2-17.6c-9.2,3.9-19.9,7-37.5,7
				c-24.6,0-45.9-13.7-46.5-47h95.2c0.3-2.5,0.8-6.4,0.8-11.5C982.2,3310.4,970.4,3271.5,926.2,3271.5z M958.4,3329.2h-72
				c2-17.1,12.9-40,37.8-40C951.9,3289.1,958.6,3313.5,958.4,3329.2z M912.4,3256.1h17.6l34.2-40h-27.2L912.4,3256.1z M1072,3350.7
				c-4.5,12.3-8.4,23.5-11.5,34.7h-0.8c-2.8-11.2-6.4-22.4-10.9-34.7l-26.6-76.2h-26.3l51.5,135.5h23.5l53.2-135.5h-25.8
				L1072,3350.7z M1201.1,3271.5c-39.5,0-63.6,32.2-63.6,73.1s24.9,68.3,66.6,68.3c21.6,0,36.4-4.5,45.1-8.4l-4.2-17.6
				c-9.2,3.9-19.9,7-37.5,7c-24.6,0-45.9-13.7-46.5-47h95.2c0.3-2.5,0.8-6.4,0.8-11.5C1257.1,3310.4,1245.4,3271.5,1201.1,3271.5z
				 M1233.3,3329.2h-72c2-17.1,12.9-40,37.8-40C1226.9,3289.1,1233.6,3313.5,1233.3,3329.2z M1287.6,3410.1h24.6v-198.8h-24.6
				V3410.1z M1411.1,3271.5c-37.5,0-67.2,26.6-67.2,72c0,42.8,28.3,69.7,65,69.7c32.8,0,67.5-21.8,67.5-72
				C1476.4,3299.8,1450,3271.5,1411.1,3271.5z M1410,3394.7c-24.1,0-41.2-22.4-41.2-52.1c0-25.8,12.6-52.6,41.7-52.6
				c29.1,0,40.6,29.1,40.6,52.1C1451.2,3372.6,1433.5,3394.7,1410,3394.7z M1578.3,3271.5c-22.1,0-38.1,9.8-48.2,26.3h-0.6
				l-1.1-23.2h-22.1c0.6,12.9,1.1,26.9,1.1,44.2v146.7h24.4v-73.6h0.6c8.1,13.4,23.8,21.3,41.7,21.3c31.9,0,61.6-24.1,61.6-72.8
				C1635.7,3299.2,1611,3271.5,1578.3,3271.5z M1569.9,3393.9c-17.6,0-32.5-11.8-37-28.8c-0.6-3.1-1.1-6.4-1.1-10.1v-23.2
				c0-3.4,0.8-7,1.7-10.1c4.8-18.5,20.4-30.5,37.2-30.5c26,0,40.3,23.2,40.3,50.4C1611,3372.6,1595.9,3393.9,1569.9,3393.9z
				 M1737.6,3271.5c-22.1,0-38.1,9.8-48.2,26.3h-0.6l-1.1-23.2h-22.1c0.6,12.9,1.1,26.9,1.1,44.2v146.7h24.4v-73.6h0.6
				c8.1,13.4,23.8,21.3,41.7,21.3c31.9,0,61.6-24.1,61.6-72.8C1795,3299.2,1770.3,3271.5,1737.6,3271.5z M1729.2,3393.9
				c-17.6,0-32.5-11.8-37-28.8c-0.6-3.1-1.1-6.4-1.1-10.1v-23.2c0-3.4,0.8-7,1.7-10.1c4.8-18.5,20.4-30.5,37.2-30.5
				c26,0,40.3,23.2,40.3,50.4C1770.3,3372.6,1755.2,3393.9,1729.2,3393.9z M1879.8,3271.5c-39.5,0-63.6,32.2-63.6,73.1
				s24.9,68.3,66.6,68.3c21.6,0,36.4-4.5,45.1-8.4l-4.2-17.6c-9.2,3.9-19.9,7-37.5,7c-24.6,0-45.9-13.7-46.5-47h95.2
				c0.3-2.5,0.8-6.4,0.8-11.5C1935.8,3310.4,1924.1,3271.5,1879.8,3271.5z M1912,3329.2h-72c2-17.1,12.9-40,37.8-40
				C1905.6,3289.1,1912.3,3313.5,1912,3329.2z M2079.7,3274.6h-24.6v83.2c0,4.5-0.8,9-2.2,12.6c-4.5,10.9-16,22.4-32.5,22.4
				c-22.4,0-30.2-17.4-30.2-43.1v-75h-24.6v79.2c0,47.6,25.5,59.4,46.8,59.4c24.1,0,38.4-14.3,44.8-25.2h0.6l1.4,22.1h21.8
				c-0.8-10.6-1.1-23-1.1-37V3274.6z M2143,3301.2h-1.1l-0.8-26.6h-21.6c0.8,12.6,1.1,26.3,1.1,42.3v93.2h24.4v-72.2
				c0-4.2,0.6-8.1,1.1-11.5c3.4-18.5,15.7-31.6,33-31.6c3.4,0,5.9,0.3,8.4,0.8v-23.2c-2.2-0.6-4.2-0.8-7-0.8
				C2164,3271.5,2149.2,3283,2143,3301.2z M2272.4,3410.1h24.4v-85.4h71.4v-20.2h-71.4v-62.7h77.3v-20.4h-101.6V3410.1z
				 M2521.3,3274.6h-24.6v83.2c0,4.5-0.8,9-2.2,12.6c-4.5,10.9-16,22.4-32.5,22.4c-22.4,0-30.2-17.4-30.2-43.1v-75h-24.6v79.2
				c0,47.6,25.5,59.4,46.8,59.4c24.1,0,38.4-14.3,44.8-25.2h0.6l1.4,22.1h21.8c-0.8-10.6-1.1-23-1.1-37V3274.6z M2562.2,3410.1h24.6
				v-198.8h-24.6V3410.1z M2628.2,3410.1h24.6v-198.8h-24.6V3410.1z M2682.3,3343.5h69.2v-18.2h-69.2V3343.5z M2837.7,3303.1
				c-26-10.1-37.5-18.8-37.5-36.4c0-12.9,9.8-28.3,35.6-28.3c17.1,0,29.7,5.6,35.8,9l6.7-19.9c-8.4-4.8-22.4-9.2-41.7-9.2
				c-36.7,0-61,21.8-61,51.2c0,26.6,19,42.6,49.8,53.5c25.5,9.8,35.6,19.9,35.6,37.5c0,19-14.6,32.2-39.5,32.2
				c-16.8,0-32.8-5.6-43.7-12.3l-6.2,20.4c10.1,6.7,30,12,48.2,12c44.5,0,66.1-25.2,66.1-54.3
				C2885.8,3330.9,2869.6,3315.5,2837.7,3303.1z M2948,3235.7l-24.1,6.4v32.5h-21v18.8h21v73.9c0,16,2.5,28,9.5,35.3
				c5.9,6.7,15.1,10.4,26.6,10.4c9.5,0,17.1-1.4,21.8-3.4l-1.1-18.5c-3.1,0.8-7.8,1.7-14.3,1.7c-13.7,0-18.5-9.5-18.5-26.3v-73.1
				h35.3v-18.8H2948V3235.7z M3106.2,3326.9c0-27.2-10.1-55.4-51.5-55.4c-17.1,0-33.3,4.8-44.5,12l5.6,16.2
				c9.5-6.2,22.7-10.1,35.3-10.1c27.7,0,30.8,20.2,30.8,31.4v2.8c-52.4-0.3-81.5,17.6-81.5,50.4c0,19.6,14,38.9,41.4,38.9
				c19.3,0,33.9-9.5,41.4-20.2h0.8l2,17.1h22.4c-1.7-9.2-2.2-20.7-2.2-32.5V3326.9z M3082.4,3364.5c0,2.5-0.6,5.3-1.4,7.8
				c-3.9,11.5-15.1,22.7-32.8,22.7c-12.6,0-23.2-7.6-23.2-23.5c0-26.3,30.5-31.1,57.4-30.5V3364.5z M3209,3291.4
				c13.4,0,22.7,3.1,28.6,6.4l5.6-19c-6.7-3.4-19.6-7-34.2-7c-44.2,0-72.8,30.2-72.8,72c0,41.4,26.6,69.2,67.5,69.2
				c18.2,0,32.5-4.5,38.9-7.8l-4.2-18.5c-7,3.1-16.2,6.7-30.2,6.7c-26.9,0-47-19.3-47-50.7C3161.1,3314.3,3177.9,3291.4,3209,3291.4
				z M3325.4,3330.3l52.4-55.7h-29.7l-39.8,46.8c-3.9,4.8-8.7,10.6-12,15.4h-0.6v-125.4h-24.4v198.8h24.4v-51l12.6-14l46.8,65h30
				L3325.4,3330.3z"/>
		</g>
	</g>
</g>
<g id="Calque_1">
	<g class="st1">
		
			<image style="display:inline;overflow:visible;enable-background:new    ;" width="3000" height="4000" xlink:href="../../../../../Users/Slimen/Downloads/main_moi.jpg"  transform="matrix(0.9319 0.3626 -0.3626 0.9319 1594.9635 -1011.4103)">
		</image>
	</g>
	<g>
		<polygon class="st10" points="1413.1,1205.5 1673.4,1015.6 1623.5,1143.2 		"/>
		<polygon class="st10" points="1673.4,1015.6 1864.2,800.3 1835.7,967.4 		"/>
		<polygon class="st10" points="1864.2,800.3 2122.3,701.5 2037.2,820.9 		"/>
		<polygon class="st10" points="2122.3,701.5 2279.3,619 2235.6,776.6 		"/>
		<path class="st10" d="M2235.6,776.6"/>
		<path class="st10" d="M2279.3,619"/>
		<path class="st10" d="M2235.6,776.6"/>
		<polygon class="st10" points="2037.2,820.9 1835.7,967.4 2045.6,1032.2 		"/>
		<polygon class="st10" points="2235.6,776.6 2325.7,870.3 2377,778.6 		"/>
		<polygon class="st10" points="2377,778.6 2361.3,662 2306.4,721.8 		"/>
		<polyline class="st10" points="2235.6,776.6 2306.4,721.8 2279.3,619 2361.3,662 		"/>
		<polygon class="st10" points="2037.2,820.9 2235.6,776.6 2191.1,965.6 		"/>
		<polygon class="st10" points="2191.1,965.6 2325.7,870.3 2274,966.4 		"/>
		<polygon class="st10" points="2045.6,1032.2 2191.1,965.6 2154.8,1073.3 		"/>
		<polygon class="st10" points="2191.1,965.6 2274,966.4 2154.8,1073.3 		"/>
		<polyline class="st10" points="2154.8,1073.3 2051.1,1118 2045.6,1032.2 		"/>
		<polygon class="st10" points="2051.1,1118 1912.2,1290.8 1906,1117.8 		"/>
		<polyline class="st10" points="2045.6,1032.2 1906,1117.8 1835.7,967.4 		"/>
		<polyline class="st10" points="1673.4,1015.6 1906,1117.8 1623.5,1143.2 		"/>
		<g id="Calque_3">
		</g>
		<polyline class="st10" points="1906,1117.8 1804.2,1216.6 1623.5,1143.2 		"/>
		<polygon class="st10" points="1912.2,1290.8 1804.2,1216.6 1882.9,1462.2 		"/>
		<polyline class="st10" points="1623.5,1143.2 1652.6,1306.7 1804.2,1216.6 		"/>
		<polygon class="st10" points="1882.9,1462.2 1652.6,1306.7 1684.4,1656 		"/>
		<polygon class="st10" points="1652.6,1306.7 1413.1,1205.5 1343.9,1492.9 		"/>
		<polyline class="st10" points="1413.1,1205.5 1127.7,1804.3 1343.9,1492.9 		"/>
		<polyline class="st10" points="1343.9,1492.9 1684.4,1656 1127.7,1804.3 1097.8,2123 956.7,2098.8 1127.7,1804.3 		"/>
		<polygon class="st10" points="956.7,2098.8 669.2,2268.5 881.6,2251.2 		"/>
		<line class="st10" x1="2095.5" y1="1715.2" x2="1882.9" y2="1462.2"/>
		<path class="st10" d="M1851,1821.9"/>
		<polyline class="st10" points="1899.2,1366.8 2087.9,1320.8 1882.9,1462.2 		"/>
		<polygon class="st10" points="2087.9,1320.8 2338.7,1225.2 2247.3,1329.1 		"/>
		<polygon class="st10" points="2338.7,1225.2 2582.2,1146.4 2507.9,1254.2 		"/>
		<polygon class="st10" points="2582.2,1146.4 2723.1,1119.1 2696.4,1183.8 		"/>
		<polygon class="st10" points="2723.1,1119.1 2902,1064.8 2870.4,1132 		"/>
		<polygon class="st10" points="2902,1064.8 3007.3,1062.7 2980.8,1100.6 		"/>
		<polyline class="st10" points="3007.3,1062.7 3065.3,1115 2980.8,1100.6 		"/>
		<polygon class="st10" points="3065.3,1115 3064.7,1197.5 2991.9,1152.8 		"/>
		<polygon class="st10" points="2991.9,1152.8 2980.8,1100.6 2870.4,1132 		"/>
		<polyline class="st10" points="3064.7,1197.5 2979.6,1276.8 2991.9,1152.8 		"/>
		<polygon class="st10" points="2979.6,1276.8 2858.2,1256 2770.3,1339.3 		"/>
		<polyline class="st10" points="2991.9,1152.8 2858.2,1256 2870.4,1132 		"/>
		<polyline class="st10" points="2858.2,1256 2696.4,1183.8 2870.4,1132 		"/>
		<polygon class="st10" points="2770.3,1339.3 2602.8,1326.3 2498.7,1451.4 		"/>
		<polyline class="st10" points="2858.2,1256 2602.8,1326.3 2696.4,1183.8 		"/>
		<polyline class="st10" points="2602.8,1326.3 2507.9,1254.2 2696.4,1183.8 		"/>
		<polygon class="st10" points="2507.9,1254.2 2498.7,1451.4 2394.8,1354.3 		"/>
		<polyline class="st10" points="2338.7,1225.2 2394.8,1354.3 2247.3,1329.1 		"/>
		<polyline class="st10" points="2498.7,1451.4 2355.9,1516.2 2394.8,1354.3 		"/>
		<polygon class="st10" points="2247.3,1329.1 2355.9,1516.2 2201.7,1389.4 		"/>
		<polyline class="st10" points="2087.9,1320.8 2201.7,1389.4 1882.9,1462.2 		"/>
		<polyline class="st10" points="2355.9,1516.2 2095.5,1715.2 2201.7,1389.4 		"/>
		<polygon class="st10" points="2381.6,1583.4 2628.9,1514.8 2530.5,1599.5 		"/>
		<polygon class="st10" points="2628.9,1514.8 2797.7,1460.3 2724.3,1531.1 		"/>
		<polygon class="st10" points="2796.9,1459.2 3020.4,1432.1 2933.3,1483.5 		"/>
		<polygon class="st10" points="3020.4,1432.1 3182.4,1378.2 3113.7,1448.1 		"/>
		<polygon class="st10" points="3181.6,1377.1 3275.8,1348.5 3249.6,1416.5 		"/>
		<polyline class="st10" points="3276.6,1349.6 3405.6,1399.8 3248.8,1415.4 		"/>
		<polygon class="st10" points="3406.3,1400.9 3432,1493.5 3332.1,1476.5 		"/>
		<polyline class="st10" points="3432.7,1494.7 3365.9,1579.4 3332.1,1476.5 		"/>
		<polygon class="st10" points="3248.8,1415.4 3332.9,1477.6 3227.3,1541.2 		"/>
		<polygon class="st10" points="3365.9,1579.4 3241.5,1620.5 3227.3,1541.2 		"/>
		<polyline class="st10" points="3248.8,1415.4 3113.7,1448.1 3228.1,1542.3 		"/>
		<polyline class="st10" points="3241.5,1620.5 3077,1662.9 3227.3,1541.2 		"/>
		<polyline class="st10" points="3077,1662.9 3040.4,1603.1 3228.1,1542.3 		"/>
		<polygon class="st10" points="3077.7,1664 2813.7,1715.1 2933.7,1638.4 		"/>
		<polyline class="st10" points="3114.5,1449.2 3015.6,1538.7 3227.3,1541.2 		"/>
		<polygon class="st10" points="3040.4,1603.1 2933.7,1638.4 3016.4,1539.9 		"/>
		<polyline class="st10" points="3020.4,1432.1 3015.6,1538.7 2933.3,1483.5 		"/>
		<polyline class="st10" points="2933.3,1483.5 2933.7,1638.4 2796.9,1459.2 		"/>
		<polygon class="st10" points="2725.1,1532.2 2529.8,1598.4 2683.9,1689.5 		"/>
		<polyline class="st10" points="2933.7,1638.4 2724.3,1531.1 2813.7,1715.1 		"/>
		<polygon class="st10" points="2813.7,1715.1 2683.9,1689.5 2523,1807.1 		"/>
		<polyline class="st10" points="2529.8,1598.4 2523,1807.1 2382.4,1584.5 		"/>
		<polygon class="st10" points="2189.7,1858.9 2523,1807.1 2516.7,1999.4 		"/>
		<polygon class="st10" points="2516.7,1999.4 2544.3,2164.8 2272.8,2183.1 		"/>
		<polygon class="st10" points="2520.4,1889.4 2801.9,1820.3 2694.8,1911.4 		"/>
		<polygon class="st10" points="2516.7,1999.4 2694.8,1911.4 2711.3,2062.7 		"/>
		<polygon class="st10" points="2544.3,2164.8 2711.3,2062.7 2871.9,2090.2 		"/>
		<polyline class="st10" points="2801.9,1820.3 2780.5,1945 2694.8,1911.4 		"/>
		<polyline class="st10" points="2711.3,2062.7 2780.5,1945 2871.9,2090.2 		"/>
		<polyline class="st10" points="2801.9,1820.3 2971.3,1809 2780.5,1945 		"/>
		<polygon class="st10" points="2971.3,1809 2922.5,1950.3 2989.9,1896.5 		"/>
		<polygon class="st10" points="2922.5,1950.3 3012.8,2075.2 3026.6,1994.9 		"/>
		<polyline class="st10" points="3012.8,2075.2 3115.3,2057.5 3026.6,1994.9 		"/>
		<polygon class="st10" points="2987.3,1898.6 3026.6,1994.9 3140.3,1904.9 		"/>
		<polyline class="st10" points="2971.3,1809 3087.6,1761.9 2989.9,1896.5 		"/>
		<polygon class="st10" points="3087.6,1761.9 3201.3,1848.3 3140.3,1904.9 		"/>
		<polyline class="st10" points="3140.3,1904.9 3203.6,1991.7 3201.3,1848.3 		"/>
		<polyline class="st10" points="3026.6,1994.9 3203.6,1991.7 3115.3,2057.5 		"/>
		<polyline class="st10" points="2871.9,2090.2 3002.8,2061.3 2780.5,1945 		"/>
		<polyline class="st10" points="2544.3,2164.8 2430.3,2335.1 2272.8,2183.1 		"/>
		<polygon class="st10" points="2430.3,2335.1 2266.1,2512.4 2425.8,2530.8 		"/>
		<polygon class="st10" points="2510.3,2215.6 2665.1,2254.7 2495,2361.8 		"/>
		<polyline class="st10" points="2430.3,2335.1 2495,2361.8 2425.8,2530.8 		"/>
		<polyline class="st10" points="2431.3,2531.7 2594.8,2548.6 2495,2361.8 		"/>
		<polygon class="st10" points="2665.1,2254.7 2608.2,2365.5 2701.8,2321.3 		"/>
		<polyline class="st10" points="2665.1,2254.7 2776.7,2222.4 2701.8,2321.3 		"/>
		<polygon class="st10" points="2776.7,2222.4 2868.5,2331.9 2800.2,2320.2 		"/>
		<polygon class="st10" points="2701.8,2321.3 2800.2,2320.2 2770.5,2408.9 		"/>
		<polygon class="st10" points="2868.5,2331.9 2856,2483.8 2770.5,2408.9 		"/>
		<polyline class="st10" points="2856,2483.8 2733.4,2547.7 2770.5,2408.9 		"/>
		<polyline class="st10" points="2733.4,2547.7 2630.5,2457.6 2770.5,2408.9 		"/>
		<polyline class="st10" points="2701.8,2321.3 2630.5,2457.6 2608.2,2365.5 		"/>
		<polygon class="st10" points="2594.8,2548.6 2733.4,2547.7 2655.8,2479.7 		"/>
		<polyline class="st10" points="2495,2361.8 2612.2,2381.9 2621,2418.3 2594.8,2548.6 		"/>
		<polyline class="st10" points="2425.8,2530.8 2269.2,2651.4 2266.1,2512.4 		"/>
		<polygon class="st10" points="2269.2,2651.4 1879,2942 2029.8,2666.3 		"/>
		<polygon class="st10" points="1879,2942 1653.8,2867.8 1416.5,3079.5 		"/>
		<polyline class="st10" points="2029.8,2666.3 1653.8,2867.8 1531.8,2614.6 		"/>
		<polygon class="st10" points="1416.5,3079.5 1221.4,3189 1283.6,3047.8 		"/>
		<polygon class="st10" points="1221.4,3189 751.8,3597.8 955.9,3266.5 		"/>
		<polygon class="st10" points="669.2,2268.5 85.9,2547.7 532.4,2490.7 		"/>
		<polygon class="st10" points="1416.5,3079.5 1531.8,2614.6 1348.9,2730.8 		"/>
		<polyline class="st10" points="1348.9,2730.8 1055.6,2513.2 1531.8,2614.6 		"/>
		<polygon class="st10" points="1097.8,2123 881.6,2251.2 1055.6,2513.2 		"/>
		<polyline class="st10" points="1055.6,2513.2 1212.7,2861.6 1348.9,2730.8 		"/>
		<line class="st10" x1="1212.7" y1="2861.6" x2="1416.5" y2="3079.5"/>
		<polyline class="st10" points="1283.6,3047.8 1212.7,2861.6 1221.4,3189 		"/>
		<polygon class="st10" points="955.9,3266.5 1212.7,2861.6 787.7,2800.1 		"/>
		<polygon class="st10" points="1055.6,2513.2 787.7,2800.1 745.4,2460.2 		"/>
		<polyline class="st10" points="881.6,2251.2 745.4,2460.2 669.2,2268.5 		"/>
		<polyline class="st10" points="787.7,2800.1 548.5,3232.6 955.9,3266.5 		"/>
		<polyline class="st10" points="787.7,2800.1 424.5,2704.6 745.4,2460.2 		"/>
		<polyline class="st10" points="745.4,2460.2 532.4,2490.7 424.5,2704.6 		"/>
		<polygon class="st10" points="424.5,2704.6 548.5,3232.6 115.8,3098.9 		"/>
		<polygon class="st10" points="548.5,3232.6 751.8,3597.8 320.2,3625.2 		"/>
		<path class="st10" d="M1851,1821.9"/>
		<path class="st10" d="M1851,1821.9"/>
		<path class="st10" d="M1684.4,1656"/>
		<polyline class="st10" points="1684.4,1656 1540.3,1963.6 1127.7,1804.3 		"/>
		<polyline class="st10" points="1055.6,2513.2 1436.3,2219.5 1531.8,2614.6 		"/>
		<polygon class="st10" points="1684.4,1656 2095.5,1715.2 1831.7,2131.6 		"/>
		<polyline class="st10" points="1531.8,2614.6 1831.7,2131.6 1540.3,1963.6 1097.8,2123 1436.3,2219.5 1540.3,1963.6 		"/>
		<polyline class="st10" points="1531.8,2614.6 2029.8,2666.3 1831.7,2131.6 		"/>
		<polygon class="st10" points="2266.1,2512.4 2029.8,2666.3 2272.8,2183.1 		"/>
		<polygon class="st10" points="1831.7,2131.6 2272.8,2183.1 2189.7,1858.9 		"/>
		<polygon class="st10" points="2095.5,1715.2 2189.7,1858.9 2382.4,1584.5 		"/>
		<polyline class="st10" points="2382.4,1584.5 2355.9,1516.2 2160.8,1514.8 		"/>
		<polyline class="st10" points="1831.7,2131.6 1605.4,2183.8 1436.3,2219.5 		"/>
		<line class="st10" x1="751.8" y1="3597.8" x2="695.8" y2="3789.3"/>
	</g>
</g>
</svg>
