<?xml version="1.0" encoding="utf-8"?>
<!-- Generator: Adobe Illustrator 25.0.0, SVG Export Plug-In . SVG Version: 6.00 Build 0)  -->
<svg version="1.1" id="Calque_1" xmlns="http://www.w3.org/2000/svg" xmlns:xlink="http://www.w3.org/1999/xlink" x="0px" y="0px"
	 viewBox="0 0 3953.7 3985.5" style="enable-background:new 0 0 3953.7 3985.5;" xml:space="preserve">
<style type="text/css">
	.st0{fill:#FFFFFF;}
	.st1{fill:none;stroke:#FFFFFF;stroke-width:20;stroke-linecap:round;stroke-linejoin:round;stroke-miterlimit:10;}
</style>
<g id="Calque_2_1_">
	<path id="Touche_contour" class="st0" d="M3925.3,1998.4c1,1914.5-12,1855.4-1927.5,1855.4c-1914.5,0-1914.5,0-1914.5-1914.5
		S54.9,24.9,1969.4,24.9C13.5,24.9,13.5,24.9,13.5,1998.4S13.5,3972,1969.4,3972C3926.4,3972,3926.4,3972,3925.3,1998.4z"/>
</g>
<g id="Calque_1_1_">
	<g>
		<polygon class="st1" points="1413.1,1205.5 1673.4,1015.6 1623.5,1143.2 		"/>
		<polygon class="st1" points="1673.4,1015.6 1864.2,800.3 1835.7,967.4 		"/>
		<polygon class="st1" points="1864.2,800.3 2122.3,701.5 2037.2,820.9 		"/>
		<polygon class="st1" points="2122.3,701.5 2279.3,619 2235.6,776.6 		"/>
		<path class="st1" d="M2235.6,776.6"/>
		<path class="st1" d="M2279.3,619"/>
		<path class="st1" d="M2235.6,776.6"/>
		<polygon class="st1" points="2037.2,820.9 1835.7,967.4 2045.6,1032.2 		"/>
		<polygon class="st1" points="2235.6,776.6 2325.7,870.3 2377,778.6 		"/>
		<polygon class="st1" points="2377,778.6 2361.3,662 2306.4,721.8 		"/>
		<polyline class="st1" points="2235.6,776.6 2306.4,721.8 2279.3,619 2361.3,662 		"/>
		<polygon class="st1" points="2037.2,820.9 2235.6,776.6 2191.1,965.6 		"/>
		<polygon class="st1" points="2191.1,965.6 2325.7,870.3 2274,966.4 		"/>
		<polygon class="st1" points="2045.6,1032.2 2191.1,965.6 2154.8,1073.3 		"/>
		<polygon class="st1" points="2191.1,965.6 2274,966.4 2154.8,1073.3 		"/>
		<polyline class="st1" points="2154.8,1073.3 2051.1,1118 2045.6,1032.2 		"/>
		<polygon class="st1" points="2051.1,1118 1912.2,1290.8 1906,1117.8 		"/>
		<polyline class="st1" points="2045.6,1032.2 1906,1117.8 1835.7,967.4 		"/>
		<polyline class="st1" points="1673.4,1015.6 1906,1117.8 1623.5,1143.2 		"/>
		<g id="Calque_3">
		</g>
		<polyline class="st1" points="1906,1117.8 1804.2,1216.6 1623.5,1143.2 		"/>
		<polygon class="st1" points="1912.2,1290.8 1804.2,1216.6 1882.9,1462.2 		"/>
		<polyline class="st1" points="1623.5,1143.2 1652.6,1306.7 1804.2,1216.6 		"/>
		<polygon class="st1" points="1882.9,1462.2 1652.6,1306.7 1684.4,1656 		"/>
		<polygon class="st1" points="1652.6,1306.7 1413.1,1205.5 1343.9,1492.9 		"/>
		<polyline class="st1" points="1413.1,1205.5 1127.7,1804.3 1343.9,1492.9 		"/>
		<polyline class="st1" points="1343.9,1492.9 1684.4,1656 1127.7,1804.3 1097.8,2123 956.7,2098.8 1127.7,1804.3 		"/>
		<polygon class="st1" points="956.7,2098.8 669.2,2268.5 881.6,2251.2 		"/>
		<line class="st1" x1="2095.5" y1="1715.2" x2="1882.9" y2="1462.2"/>
		<path class="st1" d="M1851,1821.9"/>
		<polyline class="st1" points="1899.2,1366.8 2087.9,1320.8 1882.9,1462.2 		"/>
		<polygon class="st1" points="2087.9,1320.8 2338.7,1225.2 2247.3,1329.1 		"/>
		<polygon class="st1" points="2338.7,1225.2 2582.2,1146.4 2507.9,1254.2 		"/>
		<polygon class="st1" points="2582.2,1146.4 2723.1,1119.1 2696.4,1183.8 		"/>
		<polygon class="st1" points="2723.1,1119.1 2902,1064.8 2870.4,1132 		"/>
		<polygon class="st1" points="2902,1064.8 3007.3,1062.7 2980.8,1100.6 		"/>
		<polyline class="st1" points="3007.3,1062.7 3065.3,1115 2980.8,1100.6 		"/>
		<polygon class="st1" points="3065.3,1115 3064.7,1197.5 2991.9,1152.8 		"/>
		<polygon class="st1" points="2991.9,1152.8 2980.8,1100.6 2870.4,1132 		"/>
		<polyline class="st1" points="3064.7,1197.5 2979.6,1276.8 2991.9,1152.8 		"/>
		<polygon class="st1" points="2979.6,1276.8 2858.2,1256 2770.3,1339.3 		"/>
		<polyline class="st1" points="2991.9,1152.8 2858.2,1256 2870.4,1132 		"/>
		<polyline class="st1" points="2858.2,1256 2696.4,1183.8 2870.4,1132 		"/>
		<polygon class="st1" points="2770.3,1339.3 2602.8,1326.3 2498.7,1451.4 		"/>
		<polyline class="st1" points="2858.2,1256 2602.8,1326.3 2696.4,1183.8 		"/>
		<polyline class="st1" points="2602.8,1326.3 2507.9,1254.2 2696.4,1183.8 		"/>
		<polygon class="st1" points="2507.9,1254.2 2498.7,1451.4 2394.8,1354.3 		"/>
		<polyline class="st1" points="2338.7,1225.2 2394.8,1354.3 2247.3,1329.1 		"/>
		<polyline class="st1" points="2498.7,1451.4 2355.9,1516.2 2394.8,1354.3 		"/>
		<polygon class="st1" points="2247.3,1329.1 2355.9,1516.2 2201.7,1389.4 		"/>
		<polyline class="st1" points="2087.9,1320.8 2201.7,1389.4 1882.9,1462.2 		"/>
		<polyline class="st1" points="2355.9,1516.2 2095.5,1715.2 2201.7,1389.4 		"/>
		<polygon class="st1" points="2381.6,1583.4 2628.9,1514.8 2530.5,1599.5 		"/>
		<polygon class="st1" points="2628.9,1514.8 2797.7,1460.3 2724.3,1531.1 		"/>
		<polygon class="st1" points="2796.9,1459.2 3020.4,1432.1 2933.3,1483.5 		"/>
		<polygon class="st1" points="3020.4,1432.1 3182.4,1378.2 3113.7,1448.1 		"/>
		<polygon class="st1" points="3181.6,1377.1 3275.8,1348.5 3249.6,1416.5 		"/>
		<polyline class="st1" points="3276.6,1349.6 3405.6,1399.8 3248.8,1415.4 		"/>
		<polygon class="st1" points="3406.3,1400.9 3432,1493.5 3332.1,1476.5 		"/>
		<polyline class="st1" points="3432.7,1494.7 3365.9,1579.4 3332.1,1476.5 		"/>
		<polygon class="st1" points="3248.8,1415.4 3332.9,1477.6 3227.3,1541.2 		"/>
		<polygon class="st1" points="3365.9,1579.4 3241.5,1620.5 3227.3,1541.2 		"/>
		<polyline class="st1" points="3248.8,1415.4 3113.7,1448.1 3228.1,1542.3 		"/>
		<polyline class="st1" points="3241.5,1620.5 3077,1662.9 3227.3,1541.2 		"/>
		<polyline class="st1" points="3077,1662.9 3040.4,1603.1 3228.1,1542.3 		"/>
		<polygon class="st1" points="3077.7,1664 2813.7,1715.1 2933.7,1638.4 		"/>
		<polyline class="st1" points="3114.5,1449.2 3015.6,1538.7 3227.3,1541.2 		"/>
		<polygon class="st1" points="3040.4,1603.1 2933.7,1638.4 3016.4,1539.9 		"/>
		<polyline class="st1" points="3020.4,1432.1 3015.6,1538.7 2933.3,1483.5 		"/>
		<polyline class="st1" points="2933.3,1483.5 2933.7,1638.4 2796.9,1459.2 		"/>
		<polygon class="st1" points="2725.1,1532.2 2529.8,1598.4 2683.9,1689.5 		"/>
		<polyline class="st1" points="2933.7,1638.4 2724.3,1531.1 2813.7,1715.1 		"/>
		<polygon class="st1" points="2813.7,1715.1 2683.9,1689.5 2523,1807.1 		"/>
		<polyline class="st1" points="2529.8,1598.4 2523,1807.1 2382.4,1584.5 		"/>
		<polygon class="st1" points="2189.7,1858.9 2523,1807.1 2516.7,1999.4 		"/>
		<polygon class="st1" points="2516.7,1999.4 2544.3,2164.8 2272.8,2183.1 		"/>
		<polygon class="st1" points="2520.4,1889.4 2801.9,1820.3 2694.8,1911.4 		"/>
		<polygon class="st1" points="2516.7,1999.4 2694.8,1911.4 2711.3,2062.7 		"/>
		<polygon class="st1" points="2544.3,2164.8 2711.3,2062.7 2871.9,2090.2 		"/>
		<polyline class="st1" points="2801.9,1820.3 2780.5,1945 2694.8,1911.4 		"/>
		<polyline class="st1" points="2711.3,2062.7 2780.5,1945 2871.9,2090.2 		"/>
		<polyline class="st1" points="2801.9,1820.3 2971.3,1809 2780.5,1945 		"/>
		<polygon class="st1" points="2971.3,1809 2922.5,1950.3 2989.9,1896.5 		"/>
		<polygon class="st1" points="2922.5,1950.3 3012.8,2075.2 3026.6,1994.9 		"/>
		<polyline class="st1" points="3012.8,2075.2 3115.3,2057.5 3026.6,1994.9 		"/>
		<polygon class="st1" points="2987.3,1898.6 3026.6,1994.9 3140.3,1904.9 		"/>
		<polyline class="st1" points="2971.3,1809 3087.6,1761.9 2989.9,1896.5 		"/>
		<polygon class="st1" points="3087.6,1761.9 3201.3,1848.3 3140.3,1904.9 		"/>
		<polyline class="st1" points="3140.3,1904.9 3203.6,1991.7 3201.3,1848.3 		"/>
		<polyline class="st1" points="3026.6,1994.9 3203.6,1991.7 3115.3,2057.5 		"/>
		<polyline class="st1" points="2871.9,2090.2 3002.8,2061.3 2780.5,1945 		"/>
		<polyline class="st1" points="2544.3,2164.8 2430.3,2335.1 2272.8,2183.1 		"/>
		<polygon class="st1" points="2430.3,2335.1 2266.1,2512.4 2425.8,2530.8 		"/>
		<polygon class="st1" points="2510.3,2215.6 2665.1,2254.7 2495,2361.8 		"/>
		<polyline class="st1" points="2430.3,2335.1 2495,2361.8 2425.8,2530.8 		"/>
		<polyline class="st1" points="2431.3,2531.7 2594.8,2548.6 2495,2361.8 		"/>
		<polygon class="st1" points="2665.1,2254.7 2608.2,2365.5 2701.8,2321.3 		"/>
		<polyline class="st1" points="2665.1,2254.7 2776.7,2222.4 2701.8,2321.3 		"/>
		<polygon class="st1" points="2776.7,2222.4 2868.5,2331.9 2800.2,2320.2 		"/>
		<polygon class="st1" points="2701.8,2321.3 2800.2,2320.2 2770.5,2408.9 		"/>
		<polygon class="st1" points="2868.5,2331.9 2856,2483.8 2770.5,2408.9 		"/>
		<polyline class="st1" points="2856,2483.8 2733.4,2547.7 2770.5,2408.9 		"/>
		<polyline class="st1" points="2733.4,2547.7 2630.5,2457.6 2770.5,2408.9 		"/>
		<polyline class="st1" points="2701.8,2321.3 2630.5,2457.6 2608.2,2365.5 		"/>
		<polygon class="st1" points="2594.8,2548.6 2733.4,2547.7 2655.8,2479.7 		"/>
		<polyline class="st1" points="2495,2361.8 2612.2,2381.9 2621,2418.3 2594.8,2548.6 		"/>
		<polyline class="st1" points="2425.8,2530.8 2269.2,2651.4 2266.1,2512.4 		"/>
		<polygon class="st1" points="2269.2,2651.4 1879,2942 2029.8,2666.3 		"/>
		<polygon class="st1" points="1879,2942 1653.8,2867.8 1416.5,3079.5 		"/>
		<polyline class="st1" points="2029.8,2666.3 1653.8,2867.8 1531.8,2614.6 		"/>
		<polygon class="st1" points="1416.5,3079.5 1221.4,3189 1283.6,3047.8 		"/>
		<polygon class="st1" points="1221.4,3189 751.8,3597.8 955.9,3266.5 		"/>
		<polygon class="st1" points="669.2,2268.5 62.3,2559 532.4,2490.7 		"/>
		<polygon class="st1" points="1416.5,3079.5 1531.8,2614.6 1348.9,2730.8 		"/>
		<polyline class="st1" points="1348.9,2730.8 1055.6,2513.2 1531.8,2614.6 		"/>
		<polygon class="st1" points="1097.8,2123 881.6,2251.2 1055.6,2513.2 		"/>
		<polyline class="st1" points="1055.6,2513.2 1212.7,2861.6 1348.9,2730.8 		"/>
		<line class="st1" x1="1212.7" y1="2861.6" x2="1416.5" y2="3079.5"/>
		<polyline class="st1" points="1283.6,3047.8 1212.7,2861.6 1221.4,3189 		"/>
		<polygon class="st1" points="955.9,3266.5 1212.7,2861.6 787.7,2800.1 		"/>
		<polygon class="st1" points="1055.6,2513.2 787.7,2800.1 745.4,2460.2 		"/>
		<polyline class="st1" points="881.6,2251.2 745.4,2460.2 669.2,2268.5 		"/>
		<polyline class="st1" points="787.7,2800.1 548.5,3232.6 955.9,3266.5 		"/>
		<polyline class="st1" points="787.7,2800.1 424.5,2704.6 745.4,2460.2 		"/>
		<polyline class="st1" points="745.4,2460.2 532.4,2490.7 424.5,2704.6 		"/>
		<polygon class="st1" points="424.5,2704.6 548.5,3232.6 96.5,3111.3 		"/>
		<polygon class="st1" points="548.5,3232.6 751.8,3597.8 298.7,3642.8 		"/>
		<path class="st1" d="M1851,1821.9"/>
		<path class="st1" d="M1851,1821.9"/>
		<path class="st1" d="M1684.4,1656"/>
		<polyline class="st1" points="1684.4,1656 1540.3,1963.6 1127.7,1804.3 		"/>
		<polyline class="st1" points="1055.6,2513.2 1436.3,2219.5 1531.8,2614.6 		"/>
		<polygon class="st1" points="1684.4,1656 2095.5,1715.2 1831.7,2131.6 		"/>
		<polyline class="st1" points="1531.8,2614.6 1831.7,2131.6 1540.3,1963.6 1097.8,2123 1436.3,2219.5 1540.3,1963.6 		"/>
		<polyline class="st1" points="1531.8,2614.6 2029.8,2666.3 1831.7,2131.6 		"/>
		<polygon class="st1" points="2266.1,2512.4 2029.8,2666.3 2272.8,2183.1 		"/>
		<polygon class="st1" points="1831.7,2131.6 2272.8,2183.1 2189.7,1858.9 		"/>
		<polygon class="st1" points="2095.5,1715.2 2189.7,1858.9 2382.4,1584.5 		"/>
		<polyline class="st1" points="2382.4,1584.5 2355.9,1516.2 2160.8,1514.8 		"/>
		<polyline class="st1" points="1831.7,2131.6 1605.4,2183.8 1436.3,2219.5 		"/>
		<line class="st1" x1="751.8" y1="3597.8" x2="695.8" y2="3789.3"/>
	</g>
</g>
</svg>
